<svg xmlns="http://www.w3.org/2000/svg" xmlns:xlink="http://www.w3.org/1999/xlink" width="233" height="233" viewBox="0 0 233 233">
  <defs>
    <clipPath id="clip-path">
      <rect id="Rectángulo_313218" data-name="Rectángulo 313218" width="180.819" height="177.911" fill="none"/>
    </clipPath>
  </defs>
  <g id="_10" data-name="10" transform="translate(-683.5 -4024)">
    <circle id="Elipse_8218" data-name="Elipse 8218" cx="116.5" cy="116.5" r="116.5" transform="translate(683.5 4024)" fill="#ffda72"/>
    <g id="Grupo_997030" data-name="Grupo 997030" transform="translate(709.591 4051.544)">
      <g id="Grupo_997029" data-name="Grupo 997029" clip-path="url(#clip-path)">
        <path id="Trazado_658226" data-name="Trazado 658226" d="M142.9,177.911H37.911c0-1.4-.016-2.795.012-4.191.2-10.3,2.137-20.129,7.9-28.893.674-1.025,0-1.227-.573-1.631a75.306,75.306,0,0,1-12.7-11.157c-.672-.748-1.1-.844-1.877-.158-2.095,1.845-4.269,3.6-6.4,5.408-.515.437-.878.944-1.641.235-5.3-4.927-11.288-9.011-16.9-13.559-3.266-2.647-5.529-6-5.719-10.359C-.29,106.6,5.358,100.3,12.89,99.288c1.247-.168,1.393-.385,1.1-1.6a77.585,77.585,0,0,1,2.288-45.31c.462-1.292.255-1.757-.991-2.361C6.128,45.577.93,38.215.088,28.1A26.172,26.172,0,0,1,47.366,10.822c.8,1.1,1.284,1.289,2.506.54A75.511,75.511,0,0,1,81.967.479a77.381,77.381,0,0,1,50.088,11.565,2.148,2.148,0,0,0,2.853-.014c4.122-3,8.361-5.83,12.487-8.82a1.89,1.89,0,0,1,2.665-.013c8.615,6.1,17.284,12.126,25.934,18.177,3.791,2.652,3.764,2.637.884,6.415-.542.711-.885.754-1.572.254-1.942-1.416-3.931-2.769-6.153-4.323v2.051c0,6.257-.1,12.517.058,18.769.049,1.941-.567,2.35-2.3,2.175a42.123,42.123,0,0,0-4.243-.029,1.343,1.343,0,0,0,.191,1.18,78.611,78.611,0,0,1,4.755,46.182,1.689,1.689,0,0,0,1.024,2.221,23.192,23.192,0,0,1,11.722,15.673c.114.484-.192,1.127.454,1.45v6.926c-.737.8-.633,1.886-.915,2.835a23.343,23.343,0,0,1-34.282,13.594c-.58-.335-1.045-.908-1.853-.143a66.036,66.036,0,0,1-8.505,6.819c-.658.443-.667.782-.231,1.426a39.217,39.217,0,0,1,3.582,6.714c3.579,8.435,4.455,17.305,4.289,26.347M128.331,16.593c-.41-.27-.653-.445-.911-.6A71.28,71.28,0,0,0,96.161,6.118a72.14,72.14,0,0,0-44.133,10.7,1.33,1.33,0,0,0-.726,1.863,26.263,26.263,0,0,1,.873,11.686C50.3,43.681,37.23,53.931,23.886,52.36c-1.226-.144-1.569.251-1.922,1.229a74.548,74.548,0,0,0-4.322,20.575,72.14,72.14,0,0,0,3.627,27.611c.675,2.033,1.731,2.267,3.4.994,2.275-1.738,4.608-3.457,7.607-3.571,5.262-.2,11.054,3.606,13.266,8.7,2.32,5.348,1.008,10.062-2.728,14.279a27.606,27.606,0,0,1-5.313,4.412c-1.15.779-1,1.243-.132,2.14a82.09,82.09,0,0,0,11.43,9.862c.884.628,1.394.7,2.237-.144,6.257-6.289,13.918-9.989,22.493-11.928,1.7-.384,4.155-.15,4.916-1.188.878-1.2.195-3.492.323-5.3.083-1.168-.365-1.491-1.461-1.7a27,27,0,0,1-8.193-2.887c-4.074-2.291-7.25-5.309-7.848-10.259-.106-.875-.783-.778-1.309-.983a10.674,10.674,0,0,1-7.206-8.625,37.635,37.635,0,0,0-.867-3.894C50.518,86.785,49.105,81.9,47.73,77a9.518,9.518,0,0,1,1.6-8.612c1.3-1.758,2.581-3.529,3.948-5.231a5.106,5.106,0,0,0,1.057-4.886,9.3,9.3,0,0,1,6.1-11.481,61.548,61.548,0,0,1,16.694-3.418A97.487,97.487,0,0,1,99.278,44.53c8.541,1.319,16.856,3.434,24.6,7.413,6.023,3.095,7.514,6.053,6.887,12.745q-1.358,14.506-2.436,29.037c-.394,5.195-2.751,8.813-7.748,10.538a1.274,1.274,0,0,0-1.058,1.21,12.084,12.084,0,0,1-4.737,7.913,26.277,26.277,0,0,1-11.558,5.015c-.9.19-1.215.462-1.172,1.376a40.26,40.26,0,0,1-.005,4.553c-.075,1.124.35,1.357,1.407,1.515,10.1,1.51,19.09,5.377,26.411,12.673.689.686,1.123.771,1.94.189,2.525-1.8,4.936-3.732,7.3-5.729.754-.636.83-1.046.165-1.859a23.068,23.068,0,0,1-4.893-11.364c-2.279-14.777,11.173-28.415,25.927-26.165,1.2.183,1.5-.131,1.711-1.271a72.739,72.739,0,0,0-5.615-44.565c-.458-1-1.073-1.079-1.966-1.077-8.14.019-16.28-.034-24.42.052-1.5.016-1.743-.463-1.729-1.81.067-6.559.037-13.119.015-19.679,0-.418.293-.967-.312-1.29-1.05.737-2.091,1.471-3.136,2.2-3.7,2.58-3.655,2.545-6.243-1.176-.711-1.022-.358-1.382.456-1.936,3.056-2.084,6.076-4.22,9.26-6.442M77.918,151.525c-.2-.46-.283-.659-.364-.861-2.146-5.337-4.314-10.666-6.418-16.019-.393-1-.707-1.443-1.925-1A36.881,36.881,0,0,0,53.769,143.9c-6.813,7.762-9.255,17.132-9.96,27.147-.072,1.03.432,1.039,1.174,1.035,3.887-.018,7.775-.066,11.66.024,1.313.03,1.75-.239,1.72-1.658-.1-4.856-.039-9.715-.039-14.573,0-4.277,0-4.227,4.377-4.245,1.211-.005,1.5.346,1.486,1.515-.059,5.769,0,11.538-.053,17.307-.012,1.184.158,1.661,1.527,1.657q26.237-.077,52.474,0c1.255,0,1.472-.409,1.46-1.537-.056-4.918-.024-9.837-.024-14.756,0-4.184,0-4.132,4.257-4.182,1.254-.015,1.629.274,1.612,1.578-.076,5.829,0,11.66-.061,17.488-.012,1.128.282,1.439,1.409,1.407,2.913-.083,5.831-.074,8.744,0,1.146.027,1.641-.2,1.442-1.482-.4-2.575-.527-5.2-1.029-7.751-2.694-13.713-10.057-23.7-23.34-28.872-2.305-.9-2.308-.892-3.2,1.326l-6.453,16.149c-.531-.61-.935-1.043-1.3-1.5-3.456-4.309-6.934-8.6-10.337-12.952-.739-.944-1.086-.94-1.817,0-2.753,3.549-5.59,7.033-8.4,10.54-1.012,1.264-2.027,2.527-3.184,3.968m45.4-68.017c.589-7.514,1.189-14.874,1.722-22.239a3.316,3.316,0,0,0-1.954-3.056,41.762,41.762,0,0,0-7.39-3.495,97.343,97.343,0,0,0-28.983-5.571,61.885,61.885,0,0,0-23.834,3c-2.743.956-3.523,2.358-2.779,5.173a9.816,9.816,0,0,1-1.841,8.909c-1.288,1.689-2.521,3.421-3.846,5.08a4.692,4.692,0,0,0-.9,4.748c.667,2.011,1.166,4.076,1.754,6.114.688,2.383.688,2.366,2.885,1.143a8.266,8.266,0,0,1,2-.861c.9-.22,1.12-.718,1.106-1.568-.041-2.428.016-4.857-.022-7.285a7.592,7.592,0,0,1,3.233-6.4,12.981,12.981,0,0,1,6.882-2.627c1.873-.161,3.148-.583,3.8-2.7.787-2.559,1.068-2.489,3.163-.916a11.733,11.733,0,0,0,1.466,1.075c1.085.573,1.142,1.2.612,2.312-1.188,2.483-.638,3.576,1.954,4.607a15.9,15.9,0,0,0,4.806.914c4.064.289,8.144.411,12-1.242,1.9-.814,2.4-1.82,1.5-3.608s-.307-2.584,1.13-3.578c3.039-2.1,3.015-2.191,4.365,1.471a1.786,1.786,0,0,0,1.748,1.44,18.684,18.684,0,0,1,5.994,1.4c3.885,1.676,5.693,4.4,5.694,8.632,0,2.125.042,4.251-.019,6.374a1.449,1.449,0,0,0,1.181,1.714,24.53,24.53,0,0,1,2.584,1.047M26.212,46.684a20.411,20.411,0,1,0-20.379-20.4,20.483,20.483,0,0,0,20.379,20.4M139.99,116.715a17.5,17.5,0,1,0,17.45-17.536,17.534,17.534,0,0,0-17.45,17.536M163.318,30.1c0-3.035-.03-6.071.018-9.1a2.162,2.162,0,0,0-1.024-2.1q-6.314-4.3-12.526-8.754a1.464,1.464,0,0,0-2.042-.043q-6.285,4.5-12.667,8.867a2.041,2.041,0,0,0-.938,1.961c.034,5.159.017,10.32.017,15.479,0,4.653,0,4.615,4.677,4.481,1.013-.029,1.184-.371,1.17-1.266-.047-3.1.006-6.192-.034-9.287-.011-.822.153-1.17,1.082-1.162,5.1.043,10.2.051,15.3,0,1.043-.011,1.176.4,1.154,1.277-.052,2-.016,4.006-.016,6.009,0,4.528,0,4.493,4.543,4.43,1.022-.014,1.332-.277,1.311-1.311-.065-3.155-.023-6.313-.023-9.469m-122.5,83.733a8.894,8.894,0,0,0-6.165-8.454,4.708,4.708,0,0,0-4.463.593,39.177,39.177,0,0,0-6.134,5.114c-.761.8-1.208.867-1.97-.01a30.315,30.315,0,0,0-5.847-5.165,3.637,3.637,0,0,0-2.87-.859c-3.435.736-6.006,2.573-7.185,5.968-1.138,3.278.442,5.738,2.668,7.932a11.1,11.1,0,0,0,.963.831c4.206,3.28,8.43,6.537,12.608,9.851a1.212,1.212,0,0,0,1.849-.03c2.052-1.7,4.167-3.329,6.263-4.979,2.475-1.948,5.018-3.817,7.414-5.859a7.481,7.481,0,0,0,2.87-4.933m72.749-13.766c-.505.248-.98.487-1.459.717A13.079,13.079,0,0,1,94.365,93.99c-.5-1.175-.118-2.955-1.423-3.457-1.164-.448-2.637-.046-3.967-.124-1.107-.064-1.644.129-1.924,1.438a12.99,12.99,0,0,1-15.569,9.916,38.888,38.888,0,0,1-4.406-1.684,20.08,20.08,0,0,1-.015,2.5c-.468,3.535,1.407,5.728,4.185,7.4a16.553,16.553,0,0,0,2.607,1.267c6.907,2.631,14.107,2.735,21.342,2.346,4.126-.222,8.257-.715,12.046-2.456,6.564-3.017,6.985-5.22,6.325-11.065m.174-22.136c0-1.554-.042-2.943.015-4.329a2.075,2.075,0,0,0-1.1-1.943c-1.854-1.184-3.974-1.384-6.089-1.59-.507-.049-.736.258-.991.633a10.4,10.4,0,0,1-6.418,4.133,37.361,37.361,0,0,1-15.877.373c-3.238-.578-6.2-1.721-8.115-4.637a1.007,1.007,0,0,0-1.066-.494,14,14,0,0,0-5.433,1.316c-.7.387-1.479.834-1.537,1.671-.11,1.576-.032,3.166-.032,4.876C75.152,73.5,82.279,76.753,84.736,81.3c1.773,3.279,3.966,3.424,6.953,3.37,1.731-.031,2.77-.389,3.418-2.06A8.5,8.5,0,0,1,96.879,80.1c4.278-4.649,10.074-5.434,16.862-2.172M74.306,96.258a7.289,7.289,0,1,0-7.227-7.349,7.315,7.315,0,0,0,7.227,7.349m32.211-14.577a7.289,7.289,0,1,0,7.219,7.357,7.306,7.306,0,0,0-7.219-7.357M96.241,123.354c0-.908-.067-1.821.017-2.721.1-1.1-.342-1.26-1.344-1.191-1.989.136-3.992.055-5.985.148-1.419.067-3.349-.8-4.1.144-.718.9-.24,2.772-.246,4.217-.015,3.41.741,4.344,4.1,5.089a8.994,8.994,0,0,0,1.616.228,7.928,7.928,0,0,0,5.387-1.8c1.191-.964.316-2.387.557-3.576a2.751,2.751,0,0,0,0-.543m4.976,16.758c1.063-2.629,2.008-4.984,2.968-7.331.3-.722.122-.912-.676-1.2-2.846-1.037-4.67.836-6.729,2.1-.627.386-.13.694.1.985,1.387,1.756,2.786,3.5,4.337,5.447M79.591,140.1c1.589-1.98,3.027-3.775,4.469-5.568.272-.338.6-.705.022-1.014-2.072-1.1-3.9-2.91-6.647-1.945-.866.3-1.091.5-.747,1.328.949,2.292,1.859,4.6,2.9,7.2M148.8,40.851c2.851,0,2.851,0,2.853-2.112,0-3.714,0-3.714-2.339-3.714-3.488,0-3.488,0-3.488,2.384,0,3.442,0,3.442,2.974,3.442M61.115,98.323V88.374c-3.69,1.335-3.67,8.636,0,9.949m58.516.124c2.39-1.348,2.966-3.333,2.829-5.62a5.024,5.024,0,0,0-2.829-4.573Z" transform="translate(0 0)" fill="#030202"/>
        <path id="Trazado_658227" data-name="Trazado 658227" d="M153.983,383.241c1.157-1.441,2.172-2.7,3.184-3.968,2.806-3.507,5.644-6.991,8.4-10.54.731-.942,1.078-.946,1.817,0,3.4,4.35,6.881,8.643,10.337,12.952.37.461.774.894,1.3,1.5,2.2-5.514,4.328-10.832,6.453-16.149.887-2.219.89-2.225,3.2-1.327,13.283,5.175,20.646,15.16,23.34,28.872.5,2.553.628,5.177,1.029,7.752.2,1.283-.3,1.509-1.442,1.482-2.914-.069-5.831-.079-8.744.005-1.128.032-1.421-.278-1.41-1.407.06-5.829-.015-11.66.061-17.488.017-1.3-.359-1.593-1.612-1.578-4.256.051-4.257,0-4.257,4.183,0,4.919-.032,9.838.024,14.756.013,1.128-.205,1.54-1.46,1.537q-26.237-.068-52.474,0c-1.368,0-1.539-.474-1.527-1.657.058-5.769-.006-11.538.053-17.307.012-1.169-.274-1.521-1.486-1.515-4.377.019-4.377-.031-4.377,4.245,0,4.858-.063,9.717.039,14.573.03,1.42-.407,1.688-1.72,1.658-3.885-.09-7.773-.042-11.66-.024-.743,0-1.247,0-1.175-1.035.7-10.014,3.147-19.385,9.96-27.146a36.88,36.88,0,0,1,15.443-10.256c1.218-.445,1.531,0,1.924,1,2.1,5.354,4.272,10.683,6.418,16.02.081.2.169.4.364.861" transform="translate(-76.065 -231.715)" fill="#fdd35a"/>
        <path id="Trazado_658228" data-name="Trazado 658228" d="M215.749,168.665a24.571,24.571,0,0,0-2.584-1.048,1.449,1.449,0,0,1-1.181-1.714c.061-2.123.019-4.249.019-6.374,0-4.233-1.81-6.955-5.694-8.632a18.7,18.7,0,0,0-5.994-1.4,1.787,1.787,0,0,1-1.748-1.44c-1.35-3.662-1.327-3.572-4.365-1.471-1.437.994-2.033,1.8-1.13,3.578s.4,2.794-1.5,3.608c-3.853,1.653-7.933,1.531-12,1.242a15.894,15.894,0,0,1-4.806-.914c-2.592-1.03-3.142-2.123-1.954-4.607.53-1.107.473-1.738-.612-2.312a11.722,11.722,0,0,1-1.466-1.075c-2.1-1.572-2.376-1.642-3.163.917-.653,2.122-1.928,2.544-3.8,2.7a12.982,12.982,0,0,0-6.882,2.627,7.59,7.59,0,0,0-3.232,6.4c.038,2.428-.019,4.857.022,7.285.015.851-.21,1.348-1.106,1.569a8.267,8.267,0,0,0-2,.861c-2.2,1.224-2.2,1.241-2.885-1.143-.589-2.037-1.087-4.1-1.754-6.113a4.692,4.692,0,0,1,.9-4.749c1.325-1.659,2.558-3.391,3.845-5.08a9.816,9.816,0,0,0,1.841-8.909c-.744-2.815.036-4.217,2.779-5.173a61.884,61.884,0,0,1,23.834-3,97.329,97.329,0,0,1,28.983,5.571,41.686,41.686,0,0,1,7.39,3.495,3.316,3.316,0,0,1,1.954,3.056c-.533,7.365-1.133,14.726-1.722,22.239" transform="translate(-92.427 -85.157)" fill="#626c77"/>
        <path id="Trazado_658229" data-name="Trazado 658229" d="M36.34,56.865A20.41,20.41,0,1,1,56.786,36.532,20.483,20.483,0,0,1,36.34,56.865m-2.9-17.5c2.489,0,4.981.08,7.466-.033,1.265-.057,1.326.509,1.326,1.492s-.06,1.524-1.324,1.494c-3.944-.093-7.891-.034-11.837-.034-4.516,0-4.474,0-4.4,4.584.018,1.088.389,1.3,1.362,1.265,2.062-.065,4.129.022,6.191-.038.914-.027,1.321.177,1.248,1.187-.088,1.208.02,2.428-.035,3.64-.036.785.22,1,1.018,1.048,4.779.29,4.777.315,4.825-4.331a2.046,2.046,0,0,0,0-.364c-.171-1.011.331-1.2,1.236-1.18,2.062.058,4.129-.028,6.191.038.981.032,1.368-.187,1.35-1.272-.065-4.005-.082-8.013.008-12.017.028-1.247-.484-1.335-1.484-1.327-4.917.041-9.835-.031-14.751.052-1.261.021-1.325-.509-1.325-1.493s.06-1.523,1.324-1.494c3.944.092,7.891.034,11.837.034,4.516,0,4.474,0,4.4-4.584-.018-1.089-.389-1.3-1.362-1.265-2.062.065-4.129-.022-6.191.039-.914.027-1.321-.178-1.248-1.187.088-1.207-.02-2.428.035-3.64.035-.785-.221-1-1.019-1.048-4.778-.29-4.777-.315-4.825,4.331a2.085,2.085,0,0,0,0,.364c.172,1.011-.331,1.2-1.236,1.179-2.062-.058-4.129.028-6.191-.038-.981-.032-1.368.187-1.35,1.272.065,4.005.057,8.012,0,12.018-.013,1,.229,1.365,1.291,1.332,2.487-.077,4.977-.024,7.466-.024" transform="translate(-10.128 -10.181)" fill="#fcd25a"/>
        <path id="Trazado_658230" data-name="Trazado 658230" d="M383.09,288.943A17.5,17.5,0,1,1,400.629,306.4a17.526,17.526,0,0,1-17.539-17.452m26.245.063c0-3.02,0-3.02-3.024-3.02-2.809,0-2.809,0-2.809-2.872,0-2.961,0-2.961-2.9-2.961-2.93,0-2.93,0-2.93,2.933,0,2.9,0,2.9-2.963,2.9-2.87,0-2.87,0-2.87,2.81,0,3.02,0,3.02,3.024,3.02,2.809,0,2.809,0,2.809,2.871,0,2.961,0,2.961,2.9,2.961,2.93,0,2.93,0,2.93-2.933,0-2.9,0-2.9,2.963-2.9,2.87,0,2.87,0,2.87-2.81" transform="translate(-243.099 -172.228)" fill="#fd7865"/>
        <path id="Trazado_658231" data-name="Trazado 658231" d="M396.258,46.944c0,3.157-.042,6.314.024,9.469.021,1.034-.289,1.3-1.311,1.311-4.543.062-4.542.1-4.542-4.43,0-2-.035-4.008.016-6.009.023-.873-.111-1.288-1.154-1.277-5.1.055-10.2.048-15.3,0-.929-.008-1.092.341-1.082,1.162.04,3.1-.013,6.192.034,9.287.014.9-.158,1.237-1.17,1.266-4.679.133-4.677.172-4.677-4.481,0-5.16.018-10.32-.017-15.479a2.04,2.04,0,0,1,.937-1.961q6.375-4.373,12.668-8.867a1.464,1.464,0,0,1,2.041.044q6.22,4.438,12.526,8.754a2.163,2.163,0,0,1,1.025,2.1c-.048,3.034-.018,6.07-.018,9.105" transform="translate(-232.94 -16.845)" fill="#cad0d9"/>
        <path id="Trazado_658232" data-name="Trazado 658232" d="M50.9,296.153a7.482,7.482,0,0,1-2.87,4.933c-2.4,2.042-4.939,3.91-7.414,5.859-2.1,1.65-4.21,3.277-6.263,4.979a1.212,1.212,0,0,1-1.849.03c-4.178-3.315-8.4-6.571-12.608-9.851a11.112,11.112,0,0,1-.963-.831c-2.225-2.194-3.806-4.654-2.668-7.932,1.179-3.4,3.75-5.233,7.185-5.968a3.639,3.639,0,0,1,2.87.859,30.315,30.315,0,0,1,5.847,5.165c.762.877,1.21.813,1.97.01a39.177,39.177,0,0,1,6.134-5.114,4.709,4.709,0,0,1,4.463-.593,8.9,8.9,0,0,1,6.165,8.454" transform="translate(-10.079 -182.321)" fill="#fc7865"/>
        <path id="Trazado_658233" data-name="Trazado 658233" d="M229.9,256.908c.66,5.845.24,8.048-6.325,11.065-3.789,1.741-7.921,2.234-12.047,2.456-7.235.389-14.435.285-21.342-2.346a16.532,16.532,0,0,1-2.607-1.267c-2.778-1.667-4.654-3.86-4.185-7.4a20.148,20.148,0,0,0,.015-2.5,38.837,38.837,0,0,0,4.406,1.684,12.99,12.99,0,0,0,15.569-9.916c.28-1.308.818-1.5,1.924-1.437,1.331.077,2.8-.324,3.967.123,1.3.5.928,2.282,1.423,3.457a13.079,13.079,0,0,0,17.741,6.793c.479-.23.954-.468,1.459-.717m-21.826,10.459a16.261,16.261,0,0,0,6.046-1.476c3.163-1.369,3.163-1.368,1.24-4.247a9.49,9.49,0,0,1-.695-1.066c-.476-.977-1.02-1.041-1.987-.5a12.477,12.477,0,0,1-9.527.91c-1.288-.331-2.554-1.787-3.75-1.032-1.078.682-1.557,2.262-2.417,3.356-.685.872-.3,1.2.473,1.594a22.317,22.317,0,0,0,10.615,2.465" transform="translate(-116.33 -156.841)" fill="#f2cbad"/>
        <path id="Trazado_658234" data-name="Trazado 658234" d="M230.208,199.6c-6.788-3.262-12.583-2.476-16.862,2.172a8.495,8.495,0,0,0-1.772,2.506c-.648,1.671-1.688,2.029-3.418,2.06-2.986.054-5.18-.092-6.953-3.37-2.457-4.544-9.583-7.794-17.641-3.358,0-1.71-.078-3.3.032-4.876.058-.837.834-1.284,1.537-1.671a14,14,0,0,1,5.433-1.316,1.007,1.007,0,0,1,1.066.494c1.914,2.916,4.878,4.058,8.115,4.637a37.367,37.367,0,0,0,15.877-.373,10.4,10.4,0,0,0,6.418-4.133c.255-.375.484-.683.991-.633,2.115.206,4.235.406,6.089,1.59a2.074,2.074,0,0,1,1.1,1.943c-.057,1.385-.015,2.775-.015,4.329" transform="translate(-116.467 -121.666)" fill="#f1cbac"/>
        <path id="Trazado_658235" data-name="Trazado 658235" d="M190.79,238.1a7.289,7.289,0,1,1,7.348-7.23,7.312,7.312,0,0,1-7.348,7.23" transform="translate(-116.484 -141.843)" fill="#28d5f3"/>
        <path id="Trazado_658236" data-name="Trazado 658236" d="M278.711,223.523a7.289,7.289,0,1,1-7.357,7.218,7.311,7.311,0,0,1,7.357-7.218" transform="translate(-172.195 -141.842)" fill="#28d5f3"/>
        <path id="Trazado_658237" data-name="Trazado 658237" d="M242.856,330.507a2.777,2.777,0,0,1,0,.543c-.24,1.189.634,2.612-.557,3.576a7.927,7.927,0,0,1-5.387,1.8,9,9,0,0,1-1.616-.229c-3.356-.745-4.112-1.679-4.1-5.089.006-1.446-.472-3.32.247-4.218.754-.943,2.684-.078,4.1-.144,1.993-.093,4-.012,5.985-.148,1-.069,1.447.093,1.344,1.191-.084.9-.017,1.814-.017,2.721" transform="translate(-146.615 -207.153)" fill="#f2cbad"/>
        <path id="Trazado_658238" data-name="Trazado 658238" d="M268.752,368.077c-1.55-1.944-2.949-3.691-4.336-5.447-.23-.291-.728-.6-.1-.985,2.058-1.267,3.882-3.14,6.728-2.1.8.291.971.481.676,1.2-.96,2.348-1.905,4.7-2.968,7.331" transform="translate(-167.535 -227.966)" fill="#f7bd00"/>
        <path id="Trazado_658239" data-name="Trazado 658239" d="M212.5,368.114c-1.044-2.6-1.954-4.907-2.9-7.2-.344-.83-.118-1.024.748-1.328,2.747-.965,4.575.842,6.647,1.944.58.309.25.676-.023,1.015-1.442,1.793-2.88,3.588-4.468,5.568" transform="translate(-132.905 -228.011)" fill="#f7bd00"/>
        <path id="Trazado_658240" data-name="Trazado 658240" d="M402.028,101.673c-2.975,0-2.975,0-2.975-3.442,0-2.385,0-2.385,3.488-2.384,2.342,0,2.342,0,2.339,3.714,0,2.112,0,2.112-2.853,2.112" transform="translate(-253.229 -60.822)" fill="#bb763b"/>
        <path id="Trazado_658241" data-name="Trazado 658241" d="M162.45,251.788c-3.67-1.313-3.69-8.614,0-9.949Z" transform="translate(-101.336 -153.465)" fill="#f1cbac"/>
        <path id="Trazado_658242" data-name="Trazado 658242" d="M327.374,251.7V241.509a5.024,5.024,0,0,1,2.829,4.573c.137,2.287-.439,4.272-2.829,5.62" transform="translate(-207.743 -153.256)" fill="#f1cbac"/>
        <path id="Trazado_658243" data-name="Trazado 658243" d="M48.551,44.2c-2.489,0-4.98-.052-7.466.024-1.062.033-1.3-.331-1.291-1.332.053-4.005.061-8.013,0-12.018-.018-1.085.369-1.3,1.35-1.272,2.062.067,4.129-.019,6.191.038.9.026,1.408-.168,1.236-1.179a2.081,2.081,0,0,1,0-.364c.049-4.646.047-4.622,4.825-4.331.8.049,1.054.263,1.019,1.048-.055,1.211.053,2.432-.035,3.64-.073,1.009.334,1.214,1.248,1.187,2.062-.061,4.129.026,6.191-.039.973-.03,1.343.177,1.362,1.265.077,4.585.119,4.584-4.4,4.584-3.946,0-7.894.058-11.837-.034-1.264-.03-1.323.513-1.324,1.494s.064,1.514,1.325,1.492c4.916-.083,9.834-.012,14.751-.052,1-.008,1.512.08,1.484,1.327-.09,4-.073,8.012-.008,12.017.018,1.085-.369,1.3-1.35,1.272-2.062-.067-4.129.019-6.191-.038-.9-.026-1.408.168-1.236,1.179a2.046,2.046,0,0,1,0,.364c-.048,4.646-.047,4.622-4.825,4.331-.8-.049-1.054-.263-1.018-1.048.055-1.212-.053-2.433.035-3.64.073-1.01-.335-1.214-1.248-1.187-2.062.06-4.129-.027-6.191.038-.973.031-1.343-.176-1.362-1.264-.077-4.585-.119-4.584,4.4-4.584,3.946,0,7.894-.059,11.837.034,1.264.029,1.323-.513,1.324-1.494s-.06-1.549-1.326-1.492c-2.484.112-4.977.033-7.466.033" transform="translate(-25.235 -15.017)"/>
        <path id="Trazado_658244" data-name="Trazado 658244" d="M424.526,304.2c0,2.81,0,2.81-2.87,2.81-2.963,0-2.963,0-2.963,2.9,0,2.933,0,2.933-2.93,2.933-2.9,0-2.9,0-2.9-2.961,0-2.871,0-2.871-2.809-2.871-3.024,0-3.024,0-3.024-3.02,0-2.81,0-2.81,2.87-2.81,2.962,0,2.962,0,2.963-2.9,0-2.933,0-2.933,2.93-2.933,2.9,0,2.9,0,2.9,2.961,0,2.871,0,2.871,2.809,2.871,3.024,0,3.024,0,3.024,3.02" transform="translate(-258.291 -187.417)"/>
        <path id="Trazado_658245" data-name="Trazado 658245" d="M231.179,289.209a22.317,22.317,0,0,1-10.615-2.465c-.77-.394-1.158-.722-.473-1.594.859-1.093,1.338-2.674,2.417-3.356,1.2-.756,2.461.7,3.75,1.032a12.477,12.477,0,0,0,9.527-.91c.967-.539,1.511-.474,1.987.5a9.49,9.49,0,0,0,.695,1.066c1.923,2.88,1.923,2.878-1.24,4.247a16.261,16.261,0,0,1-6.046,1.476" transform="translate(-139.439 -178.683)" fill="#030202"/>
      </g>
    </g>
  </g>
</svg>
