<svg xmlns="http://www.w3.org/2000/svg" xmlns:xlink="http://www.w3.org/1999/xlink" width="245.712" height="344.444" viewBox="0 0 245.712 344.444">
  <defs>
    <clipPath id="clip-path">
      <rect id="Rectángulo_309891" data-name="Rectángulo 309891" width="225.931" height="282.208" fill="#affbd8"/>
    </clipPath>
    <clipPath id="clip-path-2">
      <rect id="Rectángulo_343345" data-name="Rectángulo 343345" width="223.858" height="323.861" fill="none"/>
    </clipPath>
    <clipPath id="clip-path-4">
      <path id="Trazado_658534" data-name="Trazado 658534" d="M95.54,162.254c-1.173.562-1.379,2.14-1.253,3.438s.386,2.728-.358,3.8l-14.523,8.279s-1.249-.858-5.114-.258-1.5,4.432-1.5,4.432l35.321-.794a94.965,94.965,0,0,0-1.343-15.026,1.427,1.427,0,0,0-1.194-1.505l-7.461-2.24a5.883,5.883,0,0,0-1.646-.317,2.13,2.13,0,0,0-.929.194" transform="translate(-72.076 -162.06)" fill="none"/>
    </clipPath>
    <clipPath id="clip-path-6">
      <path id="Trazado_658544" data-name="Trazado 658544" d="M130.167,162.514q-3.865.475-7.731.947a3.631,3.631,0,0,0-2.406.923c-.849.984-.4,2.512.233,3.649s1.448,2.343,1.2,3.623l-9.973,13.414s-1.489-.283-4.786,1.817.4,4.664.4,4.664l32.029-14.914a94.954,94.954,0,0,0-7.267-13.222,1.9,1.9,0,0,0-.961-.891,1.175,1.175,0,0,0-.326-.041,3.607,3.607,0,0,0-.415.032" transform="translate(-105.334 -162.482)" fill="none"/>
    </clipPath>
    <clipPath id="clip-path-8">
      <path id="Trazado_658557" data-name="Trazado 658557" d="M44.22,168.723c-1.674,3.272-.466,9.768.391,13.341.075.311,18.015-4.959,26.309-7.647.2-.064.429-.158.491-.359a.642.642,0,0,0-.1-.47,7.669,7.669,0,0,0-5.484-3.975c-2.356-.386-5.164.222-6.831-1.486l-1.244-2.859L44.22,168.723" transform="translate(-43.382 -165.268)" fill="none"/>
    </clipPath>
    <clipPath id="clip-path-10">
      <path id="Trazado_658570" data-name="Trazado 658570" d="M2.615,179.042c-.025.318,18.668.786,27.385.765a.679.679,0,0,0,.578-.192.646.646,0,0,0,.048-.477,7.673,7.673,0,0,0-4.005-5.464c-2.123-1.087-4.984-1.367-6.05-3.5l-.31-3.1L6.32,166.22c-2.592,2.6-3.432,9.156-3.7,12.822" transform="translate(-2.615 -166.22)" fill="none"/>
    </clipPath>
    <clipPath id="clip-path-12">
      <rect id="Rectángulo_343342" data-name="Rectángulo 343342" width="8.99" height="6.836" fill="none"/>
    </clipPath>
    <clipPath id="clip-path-13">
      <rect id="Rectángulo_343343" data-name="Rectángulo 343343" width="10.158" height="6.521" fill="none"/>
    </clipPath>
  </defs>
  <g id="_14" data-name="14" transform="translate(-1141.5 -5285.5)">
    <g id="Grupo_995684" data-name="Grupo 995684" transform="translate(1160.565 5297.586)">
      <g id="Grupo_995683" data-name="Grupo 995683" clip-path="url(#clip-path)">
        <path id="Trazado_654602" data-name="Trazado 654602" d="M218.063,143.776s24.112,60.6-12.083,89.763S122.515,191.734,86.405,265C60.906,316.738-8.076,290.273.78,235.5c10.077-62.328,45.238-19.947,24.343-157.567C14.776,9.785,159.639-40.575,218.063,143.776" transform="translate(0 -10.637)" fill="#affbd8"/>
        <path id="Trazado_654603" data-name="Trazado 654603" d="M467.325,32.693s14.8,6.771,12.825,16.475-20.355,1.381-23.355-7.293,5.431-12.376,10.53-9.182" transform="translate(-301.797 -20.878)" fill="#affbd8"/>
        <path id="Trazado_654604" data-name="Trazado 654604" d="M400.515,5.142A7.077,7.077,0,0,1,410.57.772c3.147,1.577,6.182,4.246,5.261,8.542-1.781,8.314-10.242,3.9-13.914.987-1.557-1.237-1.757-3.819-1.4-5.16" transform="translate(-264.879 0)" fill="#affbd8"/>
        <path id="Trazado_654605" data-name="Trazado 654605" d="M531.868,691.485s14.448-5.45,19.586,1.649-12.462,13.947-19.909,10.708-4.81-10.948.323-12.357" transform="translate(-348.611 -456.16)" fill="#affbd8"/>
        <path id="Trazado_654606" data-name="Trazado 654606" d="M614.991,662.849a6.261,6.261,0,0,0-3.64,8.992c1.465,2.748,3.894,5.372,7.673,4.462,7.314-1.761,6.921-9.529,1.3-12.7a8.612,8.612,0,0,0-5.332-.758" transform="translate(-403.966 -438.437)" fill="#affbd8"/>
      </g>
    </g>
    <g id="Grupo_995682" data-name="Grupo 995682" transform="translate(1141.5 5285.5)">
      <rect id="Rectángulo_309890" data-name="Rectángulo 309890" width="245.712" height="332.358" transform="translate(0 12.086)" fill="none"/>
      <g id="Grupo_997086" data-name="Grupo 997086" transform="translate(21.854)">
        <g id="Grupo_997085" data-name="Grupo 997085" clip-path="url(#clip-path-2)">
          <g id="Grupo_997062" data-name="Grupo 997062">
            <g id="Grupo_997061" data-name="Grupo 997061" clip-path="url(#clip-path-2)">
              <path id="Trazado_658525" data-name="Trazado 658525" d="M84.991,161.215q.318,6.438.633,12.875a2.473,2.473,0,0,0,.329,1.347,2.354,2.354,0,0,0,1.164.731,25.958,25.958,0,0,0,9.439,1.61l1.479-25.36Z" transform="translate(66.234 118.78)" fill="#7d8acc"/>
              <path id="Trazado_658526" data-name="Trazado 658526" d="M93.929,169.489c.742-1.069.482-2.5.358-3.8s.08-2.874,1.254-3.436a3.629,3.629,0,0,1,2.571.121l7.461,2.242a1.425,1.425,0,0,1,1.2,1.505,94.527,94.527,0,0,1,1.343,15.026l-35.321.794s-2.363-3.831,1.5-4.432,5.114.258,5.114.258Z" transform="translate(56.169 126.293)" fill="#efa02a"/>
              <path id="Trazado_658527" data-name="Trazado 658527" d="M72.419,173.579l.114,6.163,35.572-.66-.116-6.3-35.748.662Z" transform="translate(56.298 134.649)" fill="#3b4a56"/>
            </g>
          </g>
          <g id="Grupo_997064" data-name="Grupo 997064" transform="translate(128.245 288.354)">
            <g id="Grupo_997063" data-name="Grupo 997063" clip-path="url(#clip-path-4)">
              <path id="Trazado_658528" data-name="Trazado 658528" d="M99.814,166.962a27.49,27.49,0,0,0-6.724-2.489c.116-.158.23-.319.345-.477.246.818.512,1.635.73,2.463a5.456,5.456,0,0,1,.18,2.358,2.972,2.972,0,0,1-1.1,1.9,4,4,0,0,1-1.922.63,13.763,13.763,0,0,0-2.016.294,8.825,8.825,0,0,0-1.733.69,37.7,37.7,0,0,0-3.384,2.124,13.037,13.037,0,0,1-4.011,1.915c-.427.1-.534-.571-.109-.673,2.455-.594,4.4-2.368,6.534-3.61a9.518,9.518,0,0,1,3.445-1.29c1.254-.174,2.822-.068,3.429-1.438a3.853,3.853,0,0,0,.107-2.407c-.2-.9-.5-1.79-.77-2.676-.064-.212.064-.541.345-.477a28.17,28.17,0,0,1,6.9,2.532c.383.2.142.84-.246.635" transform="translate(-66.058 -160.715)" fill="#fff"/>
              <path id="Trazado_658529" data-name="Trazado 658529" d="M81.784,170.687a2.966,2.966,0,0,0-1.8-2.082.341.341,0,0,1,.246-.635,3.662,3.662,0,0,1,2.224,2.608.341.341,0,0,1-.673.109" transform="translate(-66.075 -157.474)" fill="#fff"/>
              <path id="Trazado_658530" data-name="Trazado 658530" d="M83.09,169.838a3.6,3.6,0,0,0-1.9-2.135.348.348,0,0,1-.194-.441.343.343,0,0,1,.439-.2,4.255,4.255,0,0,1,2.276,2.5.35.35,0,0,1-.173.45.345.345,0,0,1-.45-.174" transform="translate(-65.141 -158.178)" fill="#fff"/>
              <path id="Trazado_658531" data-name="Trazado 658531" d="M84.486,169.2a8.472,8.472,0,0,0-2.014-2.484.35.35,0,0,1-.071-.477.345.345,0,0,1,.477-.071,9.367,9.367,0,0,1,2.231,2.756.342.342,0,0,1-.173.448.348.348,0,0,1-.45-.173" transform="translate(-64.081 -158.913)" fill="#fff"/>
              <path id="Trazado_658532" data-name="Trazado 658532" d="M75.527,173.736a3.8,3.8,0,0,0,.03-2.313.34.34,0,0,1,.281-.39.35.35,0,0,1,.391.281,4.418,4.418,0,0,1-.068,2.667.344.344,0,0,1-.439.2.349.349,0,0,1-.2-.441" transform="translate(-69.402 -155.071)" fill="#fff"/>
              <path id="Trazado_658533" data-name="Trazado 658533" d="M89.814,177.244a7.88,7.88,0,0,1,1.525-5.274,13.99,13.99,0,0,1,4.358-3.813c.973-.591,1.984-1.116,2.995-1.641.39-.2.664.423.276.625-3.187,1.649-6.719,3.525-8.067,7.083a6.4,6.4,0,0,0-.413,2.911c.044.434-.628.544-.673.109" transform="translate(-58.279 -158.618)" fill="#fff"/>
            </g>
          </g>
          <g id="Grupo_997066" data-name="Grupo 997066">
            <g id="Grupo_997065" data-name="Grupo 997065" clip-path="url(#clip-path-2)">
              <path id="Trazado_658535" data-name="Trazado 658535" d="M111.44,165.421l5.519,10.546A2.649,2.649,0,0,0,118,177.224a2.328,2.328,0,0,0,1.349.084,18.541,18.541,0,0,0,7.6-2.986q-2.9-10.927-5.8-21.853a17.382,17.382,0,0,1-9.37,4.436Z" transform="translate(86.845 118.819)" fill="#7d8acc"/>
              <path id="Trazado_658536" data-name="Trazado 658536" d="M121.462,171.656c.251-1.278-.564-2.486-1.2-3.623s-1.082-2.664-.233-3.649a3.627,3.627,0,0,1,2.406-.923l7.731-.945a1.428,1.428,0,0,1,1.7.9,94.923,94.923,0,0,1,7.265,13.22L107.1,191.552s-3.7-2.56-.4-4.664,4.786-1.818,4.786-1.818Z" transform="translate(82.087 126.623)" fill="#efa02a"/>
              <path id="Trazado_658537" data-name="Trazado 658537" d="M106.3,185.447l2.58,5.6,32.312-14.891-2.639-5.724L106.081,185.4Z" transform="translate(82.669 132.816)" fill="#3b4a56"/>
            </g>
          </g>
          <g id="Grupo_997068" data-name="Grupo 997068" transform="translate(187.422 289.104)">
            <g id="Grupo_997067" data-name="Grupo 997067" clip-path="url(#clip-path-6)">
              <path id="Trazado_658538" data-name="Trazado 658538" d="M126.7,164.67a27.516,27.516,0,0,0-7.158.422c.043-.192.084-.384.125-.576.555.651,1.128,1.292,1.658,1.964a5.431,5.431,0,0,1,1.112,2.085,2.971,2.971,0,0,1-.247,2.18,3.97,3.97,0,0,1-1.507,1.347,14.05,14.05,0,0,0-1.728,1.08,8.8,8.8,0,0,0-1.31,1.327,37.661,37.661,0,0,0-2.247,3.308,13.05,13.05,0,0,1-2.9,3.363c-.349.265-.717-.31-.37-.573,2.011-1.53,3.075-3.934,4.535-5.93A9.518,9.518,0,0,1,119.3,172.1c1.08-.664,2.557-1.194,2.562-2.692a3.838,3.838,0,0,0-.868-2.247c-.544-.749-1.181-1.438-1.781-2.142-.144-.167-.158-.521.125-.575a28.19,28.19,0,0,1,7.338-.455c.432.032.468.712.03.681" transform="translate(-100.15 -161.361)" fill="#fff"/>
              <path id="Trazado_658539" data-name="Trazado 658539" d="M113.779,172.819a2.961,2.961,0,0,0-2.482-1.183.341.341,0,0,1-.03-.681,3.667,3.667,0,0,1,3.085,1.495.341.341,0,1,1-.573.37" transform="translate(-100.956 -155.882)" fill="#fff"/>
              <path id="Trazado_658540" data-name="Trazado 658540" d="M114.637,171.517a3.6,3.6,0,0,0-2.6-1.194.349.349,0,0,1-.356-.326.344.344,0,0,1,.326-.354,4.254,4.254,0,0,1,3.085,1.37.349.349,0,0,1,.021.482.342.342,0,0,1-.48.021" transform="translate(-100.386 -156.901)" fill="#fff"/>
              <path id="Trazado_658541" data-name="Trazado 658541" d="M115.657,170.372a8.473,8.473,0,0,0-2.842-1.466.348.348,0,0,1-.256-.407.341.341,0,0,1,.407-.256,9.348,9.348,0,0,1,3.149,1.626.342.342,0,0,1,.021.482.347.347,0,0,1-.48.021" transform="translate(-99.71 -158.002)" fill="#fff"/>
              <path id="Trazado_658542" data-name="Trazado 658542" d="M109.259,178.134a3.779,3.779,0,0,0-.9-2.13.343.343,0,0,1,.1-.471.351.351,0,0,1,.472.1,4.415,4.415,0,0,1,1.011,2.47.341.341,0,1,1-.681.03" transform="translate(-103.024 -152.354)" fill="#fff"/>
              <path id="Trazado_658543" data-name="Trazado 658543" d="M122.306,177.132a7.888,7.888,0,0,1-.722-5.441,14,14,0,0,1,2.459-5.244c.655-.931,1.368-1.818,2.084-2.7.276-.342.778.119.5.461-2.254,2.79-4.736,5.927-4.543,9.727a6.367,6.367,0,0,0,.792,2.831c.215.381-.358.753-.573.37" transform="translate(-92.815 -161.593)" fill="#fff"/>
            </g>
          </g>
          <g id="Grupo_997070" data-name="Grupo 997070">
            <g id="Grupo_997069" data-name="Grupo 997069" clip-path="url(#clip-path-2)">
              <path id="Trazado_658545" data-name="Trazado 658545" d="M88.045,57.439C92.123,53.005,92,46.263,91.636,40.251c-.028-.47-.057-.941-.1-1.411a.677.677,0,0,0-1.329-.112c-.582,2.315-.573,5.235-.936,7.206.548-4.729-1.057-11.48-2.153-16.112l-.005-.018a.656.656,0,0,0-1.286.055,42.159,42.159,0,0,0,.263,10.884c-.263-3.108-.785-8.235-2.126-11a.661.661,0,0,0-1.249.237,36.532,36.532,0,0,0,.895,10.327c-.352-2.007-.2-6.662-.518-8.962a.66.66,0,0,0-1.29-.078c-.665,2.468-1.416,5.406-.715,7.322A22.248,22.248,0,0,0,79.2,34.508a.661.661,0,0,0-1.213.181,9.225,9.225,0,0,0,.146,3.482q1.521,8.567,3.046,17.135a11.148,11.148,0,0,0,1.149,3.785c1.146,1.943,3.317,2.993,5.365,3.934a.675.675,0,0,0,1.075-.279l2.059-3.326A9.336,9.336,0,0,0,92.41,55.77a3.187,3.187,0,0,0-1.632-3.361Z" transform="translate(60.683 22.836)" fill="#e5a67c"/>
              <path id="Trazado_658546" data-name="Trazado 658546" d="M82.6,85.985c-1.824,14.706-16.772,56.867-15.62,63.66a69.224,69.224,0,0,0,3.2,11.2c4.927,14.1,13,51.719,18.371,65.656,4.089-1.354,28.22-4.341,32.456-5.115,0,0-16.7-51.176-19.727-66.238a12.39,12.39,0,0,1-.368-3.706,12.221,12.221,0,0,1,.76-2.808q5.461-15.25,10.92-30.5Z" transform="translate(52.144 67.008)" fill="#212f56"/>
              <path id="Trazado_658547" data-name="Trazado 658547" d="M127.517,88.686a33.519,33.519,0,0,1,2.03,19.91c-.61,2.954-1.625,5.838-1.874,8.845-.253,3.044,27.467,98.9,30.465,105.2-4.736,1.331-19.909,5.694-24.645,7.023a1.961,1.961,0,0,1-2.737-1.048c-14.558-22.168-24.682-68.524-33.529-93.525C96.1,131.9,73.558,89.8,74.768,82.231c13.832,2.61,30.385,5.863,44.418,4.776Z" transform="translate(58.23 64.083)" fill="#7d8acc"/>
              <path id="Trazado_658548" data-name="Trazado 658548" d="M135.7,33.748a4.2,4.2,0,0,1,4.288,1.863,55.644,55.644,0,0,1,6.395,46.006c-2.539,8.176-6.95,15.626-11.484,22.887a28.421,28.421,0,0,0-3.324,6.473,24.911,24.911,0,0,0-.641,8.893,47.17,47.17,0,0,0,.689,7.427,49.521,49.521,0,0,1-11.783,2.882c-17.8,2.612-29.7-1.126-47.408-4.32,4.224-26.108,2.925-44.927,15.33-68.284,3.822-7.2,8.592-14.224,15.528-18.5,9.459-5.838,21.3-5.672,32.408-5.322" transform="translate(56.45 26.189)" fill="#d15259"/>
              <path id="Trazado_658549" data-name="Trazado 658549" d="M56.673,155.014q.12,2.826.238,5.651a1.42,1.42,0,0,0,.368,1.089c.335.267.826.176,1.226.324a1.472,1.472,0,0,1,.637,1.929,4.281,4.281,0,0,1-1.525,1.642,1.842,1.842,0,0,1,.959,3.491,1.268,1.268,0,0,1,.689,2.439,10.962,10.962,0,0,1,.171,3.614,1.616,1.616,0,0,1-.345.95,1.746,1.746,0,0,1-.829.4q-4.994,1.377-9.987,2.753-1.7-3.6-3.4-7.206a1.241,1.241,0,0,1-1.865-1.566c.18-.324.507-.58.559-.947.114-.794-1.011-1.085-1.811-1.05q.165-.947.333-1.895a3.033,3.033,0,0,1-1.445-3.776q7.961-3.539,15.628-7.692Z" transform="translate(31.515 120.803)" fill="#efa02a"/>
              <path id="Trazado_658550" data-name="Trazado 658550" d="M57.754,165.268q-6.766,1.727-13.533,3.455c-1.674,3.272-.468,9.768.391,13.341.075.31,18.015-4.961,26.309-7.647.2-.066.429-.158.491-.359a.651.651,0,0,0-.1-.47,7.679,7.679,0,0,0-5.484-3.977c-2.356-.386-5.164.222-6.833-1.484Z" transform="translate(33.807 128.794)" fill="#7d8acc"/>
            </g>
          </g>
          <g id="Grupo_997072" data-name="Grupo 997072" transform="translate(77.189 294.062)">
            <g id="Grupo_997071" data-name="Grupo 997071" clip-path="url(#clip-path-8)">
              <path id="Trazado_658551" data-name="Trazado 658551" d="M41.566,179.331q6.9-1.831,13.75-3.831t13.651-4.172q3.817-1.217,7.617-2.489c.374-.125.249-.731-.13-.6q-6.771,2.263-13.592,4.361t-13.7,4.021q-3.857,1.084-7.733,2.11c-.381.1-.254.708.132.6" transform="translate(-45.078 -162.97)" fill="#fff"/>
              <path id="Trazado_658552" data-name="Trazado 658552" d="M56.007,166.961a6.5,6.5,0,0,0-.827,6.219c.146.372.7.091.553-.278a5.873,5.873,0,0,1,.79-5.6c.24-.32-.278-.66-.516-.343" transform="translate(-34.532 -164.047)" fill="#fff"/>
              <path id="Trazado_658553" data-name="Trazado 658553" d="M42.676,171.6a8.085,8.085,0,0,1,7.3,2.514c.267.3.731-.114.464-.411a8.725,8.725,0,0,0-7.9-2.708c-.393.069-.263.674.13.6" transform="translate(-44.218 -160.907)" fill="#fff"/>
              <path id="Trazado_658554" data-name="Trazado 658554" d="M53.011,172.319a7.018,7.018,0,0,1,2.121-6.028c.292-.274-.117-.737-.409-.464a7.661,7.661,0,0,0-2.317,6.623c.055.4.662.263.6-.13" transform="translate(-36.408 -164.898)" fill="#fff"/>
              <path id="Trazado_658555" data-name="Trazado 658555" d="M52.18,172.331a10.522,10.522,0,0,1,2.167-6.366c.244-.317-.274-.657-.516-.342a11.1,11.1,0,0,0-2.27,6.678c0,.4.617.431.619.03" transform="translate(-37.008 -165.089)" fill="#fff"/>
              <path id="Trazado_658556" data-name="Trazado 658556" d="M43.206,169.547a4.223,4.223,0,0,0,3.043,2.637,4.051,4.051,0,0,0,3.818-1.24,4.183,4.183,0,0,0,1.064-2.135c-.2.016-.407.032-.612.05a2.421,2.421,0,0,0,1.383,1.7,3.176,3.176,0,0,0,2.4.064,5.937,5.937,0,0,0,3.479-3.56,6.212,6.212,0,0,0,.356-2.831c-.041-.4-.646-.263-.6.13a5.681,5.681,0,0,1-1.222,4.062c-.833,1.055-2.34,2.1-3.753,1.721a1.894,1.894,0,0,1-1.436-1.418c-.069-.374-.555-.274-.612.05a3.49,3.49,0,0,1-6.752.489c-.133-.375-.685-.093-.553.279" transform="translate(-43.535 -166.26)" fill="#fff"/>
            </g>
          </g>
          <g id="Grupo_997074" data-name="Grupo 997074">
            <g id="Grupo_997073" data-name="Grupo 997073" clip-path="url(#clip-path-2)">
              <path id="Trazado_658558" data-name="Trazado 658558" d="M70.407,169.3a10.076,10.076,0,0,1,2.055,4.149c-5.607,1.731-17.617,5.918-17.939,5.624-.169-.153-2.888-1.84-3.142-1.512s-.553,2.831-.975,2.89c-1.753.246-3.2,1.411-4.952,1.657l-1.719-4.626Z" transform="translate(34.083 131.932)" fill="#d15259"/>
              <path id="Trazado_658559" data-name="Trazado 658559" d="M53.475,159.064a53.173,53.173,0,0,0-10.035,4.37.325.325,0,0,0,.327.56,52.334,52.334,0,0,1,9.88-4.306c.4-.125.228-.751-.173-.625" transform="translate(33.729 123.946)" fill="#b5731c"/>
              <path id="Trazado_658560" data-name="Trazado 658560" d="M53.008,160.486a48.232,48.232,0,0,0-9.172,3.975.324.324,0,0,0,.327.559,47.431,47.431,0,0,1,9.018-3.907c.4-.126.228-.753-.173-.626" transform="translate(34.038 125.054)" fill="#b5731c"/>
              <path id="Trazado_658561" data-name="Trazado 658561" d="M51.826,162.824a9.292,9.292,0,0,0-5.47,1.975c-.329.256.133.712.459.457a8.561,8.561,0,0,1,5.011-1.785.324.324,0,0,0,0-.648" transform="translate(36.038 126.889)" fill="#b5731c"/>
              <path id="Trazado_658562" data-name="Trazado 658562" d="M23.261,156.494c-.875,1.671-.208,4.285-1.084,5.955a1.408,1.408,0,0,0-.226,1.126c.155.4.625.566.9.895a1.468,1.468,0,0,1-.416,1.987,4.247,4.247,0,0,1-2.14.657,1.842,1.842,0,0,1-.92,3.5,1.268,1.268,0,0,1-.626,2.457,10.984,10.984,0,0,1-1.665,3.213,1.617,1.617,0,0,1-.774.648,1.745,1.745,0,0,1-.918-.069q-5.01-1.313-10.021-2.623l.673-7.941a1.24,1.24,0,0,1-.831-2.288c.318-.19.73-.249.959-.539.5-.632-.331-1.447-1.043-1.818q.619-.734,1.238-1.471a3.032,3.032,0,0,1,.642-3.991c5.774.617,10.364.2,16.17.37Z" transform="translate(3.595 121.721)" fill="#efa02a"/>
              <path id="Trazado_658563" data-name="Trazado 658563" d="M20.263,167.069,6.32,166.22c-2.594,2.6-3.432,9.156-3.706,12.822-.025.318,18.668.786,27.387.763a.678.678,0,0,0,.578-.19.658.658,0,0,0,.048-.479,7.68,7.68,0,0,0-4.005-5.462c-2.124-1.087-4.986-1.368-6.051-3.5Z" transform="translate(2.037 129.536)" fill="#7d8acc"/>
            </g>
          </g>
          <g id="Grupo_997076" data-name="Grupo 997076" transform="translate(4.653 295.756)">
            <g id="Grupo_997075" data-name="Grupo 997075" clip-path="url(#clip-path-10)">
              <path id="Trazado_658564" data-name="Trazado 658564" d="M.27,172.647q7.126.366,14.261.557t14.275.2q4.006.008,8.012-.041c.4-.005.459-.621.062-.616q-7.137.085-14.275-.005t-14.268-.358q-4.006-.149-8.007-.356c-.4-.021-.461.594-.06.616" transform="translate(-4.653 -161.692)" fill="#fff"/>
              <path id="Trazado_658565" data-name="Trazado 658565" d="M17.017,169.5a6.508,6.508,0,0,0-2.69,5.669c.025.4.637.3.612-.1a5.88,5.88,0,0,1,2.464-5.089c.326-.23-.062-.714-.386-.484" transform="translate(6.502 -163.707)" fill="#fff"/>
              <path id="Trazado_658566" data-name="Trazado 658566" d="M2.3,169.953a8.087,8.087,0,0,1,6.187,4.626.309.309,0,0,0,.566-.247,8.72,8.72,0,0,0-6.69-4.995c-.4-.055-.457.562-.062.616" transform="translate(-3.07 -163.793)" fill="#fff"/>
              <path id="Trazado_658567" data-name="Trazado 658567" d="M12.723,173.544a7.014,7.014,0,0,1,3.863-5.091c.361-.171.112-.738-.247-.568a7.66,7.66,0,0,0-4.231,5.6c-.068.393.548.454.616.062" transform="translate(4.778 -164.946)" fill="#fff"/>
              <path id="Trazado_658568" data-name="Trazado 658568" d="M11.978,173.312a10.521,10.521,0,0,1,4.011-5.4c.327-.228-.06-.71-.386-.484a11.091,11.091,0,0,0-4.2,5.664c-.121.377.457.6.58.219" transform="translate(4.217 -165.323)" fill="#fff"/>
              <path id="Trazado_658569" data-name="Trazado 658569" d="M4.1,166.286a4.224,4.224,0,0,0,2.092,3.441,4.054,4.054,0,0,0,4.012-.012,4.21,4.21,0,0,0,1.667-1.708c-.2-.048-.4-.094-.6-.141a2.424,2.424,0,0,0,.794,2.044,3.188,3.188,0,0,0,2.27.8,5.939,5.939,0,0,0,4.4-2.327,6.209,6.209,0,0,0,1.2-2.585c.082-.39-.534-.45-.616-.062a5.681,5.681,0,0,1-2.406,3.495c-1.116.749-2.87,1.281-4.1.491a1.894,1.894,0,0,1-.932-1.79c.048-.375-.445-.431-.6-.141a3.6,3.6,0,0,1-3.906,1.769,3.622,3.622,0,0,1-2.674-3.366c-.012-.4-.625-.3-.612.1" transform="translate(-1.456 -166.804)" fill="#fff"/>
            </g>
          </g>
          <g id="Grupo_997084" data-name="Grupo 997084">
            <g id="Grupo_997083" data-name="Grupo 997083" clip-path="url(#clip-path-2)">
              <path id="Trazado_658571" data-name="Trazado 658571" d="M30.437,172.914a10.069,10.069,0,0,1,.689,4.58c-5.868-.068-18.583.247-18.8-.132-.114-.2-2.187-2.635-2.53-2.4s-1.391,2.525-1.811,2.452c-1.744-.3-3.477.367-5.22.064l-.222-4.93Z" transform="translate(1.98 134.466)" fill="#d15259"/>
              <path id="Trazado_658572" data-name="Trazado 658572" d="M19.54,160.468a120.234,120.234,0,0,1-12.952-.7c-.413-.046-.411.6,0,.648a119.771,119.771,0,0,0,12.952.7.325.325,0,0,0,0-.649" transform="translate(4.894 124.509)" fill="#b5731c"/>
              <path id="Trazado_658573" data-name="Trazado 658573" d="M17.151,162.03a67.817,67.817,0,0,1-9.775-.7c-.409-.059-.585.566-.173.625a69.2,69.2,0,0,0,9.948.722.325.325,0,0,0,0-.649" transform="translate(5.43 125.724)" fill="#b5731c"/>
              <path id="Trazado_658574" data-name="Trazado 658574" d="M16.238,164.56,7.9,163.4a.336.336,0,0,0-.4.226.326.326,0,0,0,.226.4q4.172.582,8.34,1.165a.338.338,0,0,0,.4-.228.326.326,0,0,0-.226-.4" transform="translate(5.836 127.331)" fill="#b5731c"/>
              <path id="Trazado_658575" data-name="Trazado 658575" d="M15.151,165.161l-8.057-.932c-.413-.048-.409.6,0,.649q4.03.464,8.057.932c.415.046.411-.6,0-.649" transform="translate(5.288 127.982)" fill="#b5731c"/>
              <path id="Trazado_658576" data-name="Trazado 658576" d="M57.869,58.823a120.314,120.314,0,0,1-11.7,48.07c-2.514,5.249-5.416,10.331-7.411,15.8-2.683,7.35-3.653,15.22-4.018,23.037,1.55.288,6.964.8,7.147-.649,1.237-9.724,1.861-22.868,6.327-31.593,3.194-6.242,7.167-12.1,9.79-18.6a91.894,91.894,0,0,0,4.269-15.313c1.621-7.61,3.1-15.58,1.057-23.086C61.725,50.6,58.076,45.5,54.5,40.558q.454,4.332.909,8.663Z" transform="translate(27.073 31.607)" fill="#7d8acc"/>
              <path id="Trazado_658577" data-name="Trazado 658577" d="M15.152,105.722c-5.349,30.572-9.747,57.434-11.5,88.421-.609,10.726-.162,25.485-.336,36.227,5.749.484,15.11,1.324,20.877,1.23l3.027-7.564a68.978,68.978,0,0,0,4.93-26.115l3.32-14.653,6.274-44.153c2.3,8.341,5.578,18.48,7.879,26.823,5.728,20.759,9.343,46.306,20.282,64.856.228.384,18-4.939,23.264-5.79-6.614-13.049-5.71-30.015-9.635-44.107-8.573-30.773-19.45-62.035-19.01-91.664a340.418,340.418,0,0,0-38.573-8.87,136.291,136.291,0,0,1-9.905,21.983,6.489,6.489,0,0,0-.81,2.722c-.016.219-.043.438-.08.655" transform="translate(2.582 62.626)" fill="#a46717"/>
              <path id="Trazado_658578" data-name="Trazado 658578" d="M44.847,73.953A164.93,164.93,0,0,0,66.631,57.708c2.036-1.8,2.948-1.9,3.89-4.448,1.19-3.215.4-6.811.895-10.2a.345.345,0,0,1,.6-.178,8.712,8.712,0,0,1,2.192,7.14.089.089,0,0,0,.155.075c1.155-1.338,6.881-8.364,9.991-10.421a.956.956,0,0,1,1.429,1.1c-1.229,3.633-6.187,9.5-6.059,9.635-.107.084,7.021-5.6,9.845-6.941a.955.955,0,0,1,1.258,1.3c-1.553,2.938-9.427,9.106-9.4,9.053.192.034,9.977-5.208,10.779-3.836,1.012,1.724-9.558,7.866-9.532,7.834l6.882,1.253a1.314,1.314,0,0,1,.852,1.594c-.238.767-7.868,1.237-8.633,1.528-.941.359-1.47,1.37-2.331,1.895a10.974,10.974,0,0,1-3.107.769c-1.8.464-3.178,1.886-4.452,3.245q-7.831,8.37-15.669,16.74c-2.327,2.486-4.8,5.069-8.053,6.092a3,3,0,0,1-2.333-.012,3.274,3.274,0,0,1-1.269-1.8,24.338,24.338,0,0,1-.939-14.277Z" transform="translate(33.483 30.793)" fill="#ba704a"/>
              <path id="Trazado_658579" data-name="Trazado 658579" d="M60.51,45.992a10.672,10.672,0,0,1,.92,4.923c-.021.418.626.416.648,0a11.373,11.373,0,0,0-1.007-5.251c-.173-.379-.731-.05-.56.327" transform="translate(47.131 35.456)" fill="#844d2f"/>
              <path id="Trazado_658580" data-name="Trazado 658580" d="M62.488,45.908l5.167,8.151c.222.352.783.027.559-.327L63.048,45.58c-.224-.352-.785-.027-.56.327" transform="translate(48.656 35.403)" fill="#844d2f"/>
              <path id="Trazado_658581" data-name="Trazado 658581" d="M63.4,17.828c-5.3.117-11.206,3.027-12.144,8.247-.507,2.831.544,5.813-.2,8.589-.875,3.247-4.009,5.4-7.187,6.5s-6.587,1.447-9.726,2.656c-5.048,1.948-9.4,6.964-8.585,12.313.383,2.5,1.834,4.833,1.7,7.359C27,68.394,21.443,70.84,17.637,73.947c-5.019,4.1-7.53,11.832-4.043,17.291,2.094,3.277,5.827,5.119,9.517,6.35,2.092.7,4.375,1.349,5.74,3.082a5.089,5.089,0,0,1-6.263,7.7c3.187,5.525,11.873,6.729,16.443,2.281,3-2.916,3.97-7.26,5.18-11.263s3.135-8.277,6.975-9.936c2.834-1.224,6.1-.735,9.128-1.32A13.388,13.388,0,0,0,70.783,74.68a8.25,8.25,0,0,1,.171-3.71c1.379-3.26,6.425-2.036,9.475-3.833a6.769,6.769,0,0,0,2.934-5.756,20.427,20.427,0,0,0-1.35-6.582,7.85,7.85,0,0,1-.55-3.119c.171-1.762,1.471-3.165,2.543-4.575a22.391,22.391,0,0,0-.792-27.266c-1.372-1.6-3.614-3.094-5.446-2.05Z" transform="translate(9.332 13.593)" fill="#f2e7d1"/>
              <path id="Trazado_658582" data-name="Trazado 658582" d="M56.371,41.112c2.361-3.384,7.986-2.5,10.759.559s3.562,7.357,4.576,11.357A97.678,97.678,0,0,1,74.313,63.86c.852,6.242-.3,12.6-2.148,18.629-3.567,11.67-18.946,30.229-20.4,40.12C47.387,119.6,41.336,139.047,36.1,138.173c-3.043-.507-6.245-.253-9.112-1.386-4.975-1.966-7.583-7.733-7.5-13.081s2.294-10.405,4.466-15.293l8.866-19.941C38.085,76.621,43.373,64.739,50.01,53.6Z" transform="translate(15.184 30.35)"/>
              <path id="Trazado_658583" data-name="Trazado 658583" d="M74.511,30.659c.132-.048,6.24,10.955,6.868,10.857-.014-.025-3.445.785-5.215.982l-.073,3.059c.053-.009-8.128,2.333-8.265,1.882l7.1,2.706c-.641,1.2-3.386,7.569-4.633,7.026-1.8-.783-12.649-3.993-12.649-3.993l-3.226,7.557a4.215,4.215,0,0,1-6.9,1.274,63.14,63.14,0,0,0-6.334-5.8c-.014-.011-.009-.028-.011-.046-.1-.719,6.539-11.742,6.61-11.7.025.016,0-.057-.032-.055-2.925.126-6.64-3.4-5.954-6.238a4.942,4.942,0,0,1,7-2.939L48.578,23.91Q60.417,21.452,72.435,20s2.011,10.686,2.076,10.662" transform="translate(32.085 15.584)" fill="#f6a472"/>
              <path id="Trazado_658584" data-name="Trazado 658584" d="M121.545,73.272a75.324,75.324,0,0,0-4.133,16.592c-.034.005-21.053-12.941-27.193-20.756a11.235,11.235,0,0,1-2.062-3.388,12.918,12.918,0,0,1-.274-4.461,47.188,47.188,0,0,0-6.309-25.376c-.361-.619-1-1.327-1.658-1.044a30.945,30.945,0,0,0,3.009,12.916A28.619,28.619,0,0,0,78.46,39.2a1.231,1.231,0,0,0-1.406-.439c-.559.219-.594.735-.576,1.2.073,1.964,3.945,9.824,3.945,9.824l-3.56-6.363a.845.845,0,0,0-.429-.285c-.753-.192-.991.836-.883,1.537.756,4.836,3.966,9.281,3.5,14.153l-4.984-3.678a1.366,1.366,0,0,0-1.479-.352,1.381,1.381,0,0,0-.68,1.7c.5,1.5,2.048,1.879,3.084,2.838,1.882,1.742,1.582,4.754,1.025,7.258s-1.149,5.382.4,7.423a10.7,10.7,0,0,0,1.607,1.539c4,3.463,6.43,8.341,9.32,12.775,6.856,10.517,16.562,18.8,26.131,26.932,1.737,1.475,3.667,3.028,5.946,3.089,2.97.078,5.336-2.372,7.176-4.706a98,98,0,0,0,17.935-36.332Z" transform="translate(55.979 27.1)" fill="#fbc9a4"/>
              <path id="Trazado_658585" data-name="Trazado 658585" d="M68.356,38.658c-4.6,4.249-10.471.2-19.238,7.8A41.715,41.715,0,0,0,37.2,64.684c-2.071,6.05-7.53,10.626-8.921,16.868-1.721,7.7-3.258,15.227-7.05,22.151-1.8,3.29-2.745,8.158-4.833,11.275-5.167,7.724-6.217,16.574-8.131,25.666,3.31-3.26,7.464-6.462,12.081-5.941,5.318.6,8.761,5.763,13.322,8.566,5.45,3.349,12.275,3.176,18.667,2.9-1.139-3.9-.048-8.066,1.039-11.98a183.668,183.668,0,0,1,6.512-20.357c4.747-11.647,11.9-22.389,14.8-34.627a52.752,52.752,0,0,0-.817-27.216c-1.363-4.528-1.863-10.327-5.516-13.331" transform="translate(6.444 30.126)" fill="#7d8acc"/>
              <path id="Trazado_658586" data-name="Trazado 658586" d="M43.529,30.234a14.739,14.739,0,0,1,3.14,3.213.335.335,0,0,0,.445.116.325.325,0,0,0,.116-.443,15.733,15.733,0,0,0-3.374-3.447.326.326,0,0,0-.443.117.33.33,0,0,0,.116.443" transform="translate(33.797 23.088)" fill="#844d2f"/>
              <path id="Trazado_658587" data-name="Trazado 658587" d="M43.507,32.229l2.053-1.036a.326.326,0,0,0,.116-.443.331.331,0,0,0-.443-.116L43.18,31.669a.328.328,0,0,0-.116.445.331.331,0,0,0,.443.116" transform="translate(33.526 23.842)" fill="#844d2f"/>
              <path id="Trazado_658588" data-name="Trazado 658588" d="M34.623,81.635A181.835,181.835,0,0,0,60.1,65.862c2.407-1.779,3.42-1.81,4.7-4.516,1.614-3.418,1.087-7.446,1.955-11.124a.381.381,0,0,1,.674-.139,9.61,9.61,0,0,1,1.726,8.053.1.1,0,0,0,.164.1c1.4-1.361,8.356-8.534,11.969-10.5a1.056,1.056,0,0,1,1.466,1.349c-1.7,3.874-7.7,9.852-7.574,10.009-.128.082,8.247-5.482,11.475-6.692a1.055,1.055,0,0,1,1.258,1.55c-1.982,3.08-11.22,9.106-11.186,9.051.2.055,10.284-7.414,11.311-7.968.929-.5.938.891.658,1.909-1.206,4.384-11.012,10.6-10.982,10.569l7.443,2.034a1.445,1.445,0,0,1,.785,1.831c-.335.82-8.763.609-9.63.858-1.069.306-1.747,1.365-2.742,1.861-1.06.528-2.32.352-3.487.546-2.027.34-3.671,1.77-5.2,3.144l-18.811,16.9c-2.794,2.511-5.761,5.112-9.429,5.927a3.311,3.311,0,0,1-2.56-.235,3.6,3.6,0,0,1-1.222-2.1A26.826,26.826,0,0,1,33.192,82.5Z" transform="translate(24.809 37.099)" fill="#f6a472"/>
              <path id="Trazado_658589" data-name="Trazado 658589" d="M68.537,51.837q-4.865,3.221-9.8,6.345-1.391.878-2.785,1.751c-.352.221-.028.781.327.56q4.948-3.093,9.834-6.288,1.375-.9,2.747-1.808c.347-.23.021-.792-.327-.56" transform="translate(43.488 40.354)" fill="#844d2f"/>
              <path id="Trazado_658590" data-name="Trazado 658590" d="M54.6,54.482q2.461,4.732,4.527,9.654a.336.336,0,0,0,.4.226.326.326,0,0,0,.226-.4q-2.092-5-4.591-9.809c-.194-.37-.753-.043-.56.327" transform="translate(42.521 42.076)" fill="#844d2f"/>
              <path id="Trazado_658591" data-name="Trazado 658591" d="M52.288,42.034a8.658,8.658,0,0,0,6.617,7.1,17.16,17.16,0,0,1-5.331-14.072,4.221,4.221,0,0,1,1.133-2.836c1.285-1.125,3.249-.582,4.9-.151a24.241,24.241,0,0,0,14.7-.831,11.441,11.441,0,0,0,6-4.514c1.286-2.2,1.2-5.35-.74-7.014s-5.626-.779-6.076,1.733A7.336,7.336,0,0,0,70.8,11.3a7.762,7.762,0,0,0-10.09,3.407,9.4,9.4,0,0,1-1.276,2.356c-1.1,1.2-2.991,1.265-4.562.843s-3.03-1.237-4.63-1.532a7.366,7.366,0,0,0-8.146,10.053c.267.648.61,1.448.155,1.982a2.075,2.075,0,0,1-1.253.484A5.324,5.324,0,0,0,36.952,35c.906,4.215,6.542,5.886,7.886,9.984a5.059,5.059,0,0,1,7.679-1.536Z" transform="translate(28.718 8.231)" fill="#f2e7d1"/>
              <g id="Grupo_997079" data-name="Grupo 997079" transform="translate(80.741 65.058)" opacity="0.72">
                <g id="Grupo_997078" data-name="Grupo 997078">
                  <g id="Grupo_997077" data-name="Grupo 997077" clip-path="url(#clip-path-12)">
                    <path id="Trazado_658592" data-name="Trazado 658592" d="M54.368,40.269l-8.991-3.7L52.8,43.4Z" transform="translate(-45.378 -36.564)" fill="#844d2f"/>
                  </g>
                </g>
              </g>
              <path id="Trazado_658593" data-name="Trazado 658593" d="M45.308,22.573c3.6,3.523,7.8,6.925,13,7.425a11.186,11.186,0,0,0,6.852-1.413,6.511,6.511,0,0,0,2.47-2.471,3.893,3.893,0,0,0-.036-3.623,5.57,5.57,0,0,0-4.84-2.877c-2-.039-4.215,1.169-4.532,3.308a2.383,2.383,0,0,0,1.331,2.532,4.864,4.864,0,0,0,3.235.178,4.8,4.8,0,0,0,2.948-1.925,4.951,4.951,0,0,0,.646-3.372,8.68,8.68,0,0,0-1.423-3.484c-.359-.555-.751-1.089-1.144-1.621a8.708,8.708,0,0,0-1.194-1.35,2.714,2.714,0,0,0-3.023-.738,3.153,3.153,0,0,0-1.377,3.032,3.967,3.967,0,0,0,.546,1.722.325.325,0,0,0,.56-.327,3.2,3.2,0,0,1-.112-3.135,1.591,1.591,0,0,1,1.1-.861,1.935,1.935,0,0,1,1.31.358A8.7,8.7,0,0,1,63.867,16.4a11.109,11.109,0,0,1,1.669,3.094,5.074,5.074,0,0,1,.044,3.052,3.62,3.62,0,0,1-2.1,2.185,5.149,5.149,0,0,1-2.966.368,1.879,1.879,0,0,1-1.671-1.806,3.052,3.052,0,0,1,1.322-2.278,4.268,4.268,0,0,1,2.457-.751,4.96,4.96,0,0,1,4.3,2.342,3.267,3.267,0,0,1,.171,3.148,5.788,5.788,0,0,1-2.183,2.229,10.387,10.387,0,0,1-6.083,1.407C54.2,29.126,50.282,26.342,47,23.3c-.418-.388-.827-.783-1.235-1.181-.3-.292-.758.165-.459.459" transform="translate(35.233 10.067)" fill="#bcab8e"/>
              <path id="Trazado_658594" data-name="Trazado 658594" d="M60.312,22.054C58.8,20.262,56.25,20.107,54.179,20.9a7.7,7.7,0,0,0-2.891,1.922,8.98,8.98,0,0,0-1.927,3.644c-.845,2.939-.585,6.037-.509,9.053.073,2.879-.012,5.984-1.48,8.551A8.061,8.061,0,0,1,40.245,48.1c-1.713-.046-3.361-.6-5.062-.76A7.265,7.265,0,0,0,31.328,48a8.343,8.343,0,0,0-4.42,5.583,7.084,7.084,0,0,0,.165,3.74c.495,1.528,1.359,2.909,1.762,4.473a10.266,10.266,0,0,1-8.3,12.749,10.23,10.23,0,0,1-2.073.133c-.416-.016-.416.633,0,.648A11.183,11.183,0,0,0,26.2,72.52a10.917,10.917,0,0,0,3.582-7.5,10.809,10.809,0,0,0-.584-4.249,32.219,32.219,0,0,1-1.717-4.443,7.263,7.263,0,0,1,2.35-6.516,6.947,6.947,0,0,1,3.091-1.694,10.712,10.712,0,0,1,4.553.26,11.733,11.733,0,0,0,4.674.2,8.826,8.826,0,0,0,3.8-1.824c2.294-1.879,3.208-4.776,3.466-7.633.269-2.993-.141-5.993.023-8.987.146-2.719.806-5.74,3.03-7.532,1.641-1.32,4.2-2.084,6.178-1.064a3.93,3.93,0,0,1,1.2.973c.27.318.726-.142.459-.459" transform="translate(14.148 15.932)" fill="#bcab8e"/>
              <path id="Trazado_658595" data-name="Trazado 658595" d="M30.154,38.354a4.153,4.153,0,0,0-3.181,2.183,3.967,3.967,0,0,0,.158,3.877,4.033,4.033,0,0,0,1.639,1.532c.374.185.7-.374.327-.56A3.364,3.364,0,0,1,30.154,39c.409-.048.415-.7,0-.649" transform="translate(20.684 29.887)" fill="#bcab8e"/>
              <path id="Trazado_658596" data-name="Trazado 658596" d="M42.062,29.7a17.175,17.175,0,0,1,.158,8.968,9.384,9.384,0,0,1-4.863,5.877,6.766,6.766,0,0,1-4.1.6c-.409-.075-.584.55-.173.625a8.269,8.269,0,0,0,7.306-2.639,11.777,11.777,0,0,0,3-8.215,21.624,21.624,0,0,0-.706-5.39.324.324,0,0,0-.625.173" transform="translate(25.602 22.829)" fill="#bcab8e"/>
              <path id="Trazado_658597" data-name="Trazado 658597" d="M40.88,34.4a6.236,6.236,0,0,1-1.964,5.895c-.315.276.146.733.457.459a6.9,6.9,0,0,0,2.133-6.526c-.087-.407-.713-.235-.626.173" transform="translate(30.244 26.491)" fill="#bcab8e"/>
              <path id="Trazado_658598" data-name="Trazado 658598" d="M41.954,24.071a6.842,6.842,0,0,0,3.4,5.057.325.325,0,0,0,.327-.56,6.166,6.166,0,0,1-3.078-4.5.336.336,0,0,0-.326-.324.325.325,0,0,0-.324.324" transform="translate(32.693 18.506)" fill="#bcab8e"/>
              <path id="Trazado_658599" data-name="Trazado 658599" d="M43.43,23.655a4.644,4.644,0,0,0,1.8,2.619.328.328,0,0,0,.445-.116.335.335,0,0,0-.117-.445,3.985,3.985,0,0,1-1.5-2.231.324.324,0,0,0-.625.173" transform="translate(33.838 18.115)" fill="#bcab8e"/>
              <path id="Trazado_658600" data-name="Trazado 658600" d="M41.938,21.347a6.451,6.451,0,0,1,3.073-4.872,6.174,6.174,0,0,1,5.692-.3,6.28,6.28,0,0,1,2.612,2.119c.238.34.8.018.56-.327a7.139,7.139,0,0,0-5.683-3,6.843,6.843,0,0,0-5.639,2.943,6.922,6.922,0,0,0-1.267,3.438c-.032.416.616.413.651,0" transform="translate(32.174 11.663)" fill="#bcab8e"/>
              <path id="Trazado_658601" data-name="Trazado 658601" d="M60.054,16.926a3.245,3.245,0,0,1-.31,5.82c-.379.171-.05.73.327.559a3.889,3.889,0,0,0,.31-6.939.325.325,0,0,0-.327.56" transform="translate(46.428 12.719)" fill="#bcab8e"/>
              <path id="Trazado_658602" data-name="Trazado 658602" d="M51.216,41.224a7.381,7.381,0,0,1-1.966,5.9c-.286.3.171.762.459.459a8,8,0,0,0,2.155-6.357c-.046-.409-.694-.415-.648,0" transform="translate(38.31 31.885)" fill="#bcab8e"/>
              <path id="Trazado_658603" data-name="Trazado 658603" d="M57.063,18a12.221,12.221,0,0,0-13.492,8.872,10.322,10.322,0,0,0-.3,2.954,14.888,14.888,0,0,1,.011,3.5,3.447,3.447,0,0,1-.71,1.559,5.927,5.927,0,0,1-1.345,1.126,36.532,36.532,0,0,1-3.375,1.927,42.309,42.309,0,0,1-7.185,2.824,29.239,29.239,0,0,0-6.916,2.591,13,13,0,0,0-4.55,4.79c-2.552,4.512-2.662,9.816-2.418,14.861.032.676.069,1.354.109,2.03.023.415.673.418.648,0-.285-5.064-.593-10.416,1.521-15.167a13.43,13.43,0,0,1,3.92-5.206A19.079,19.079,0,0,1,29.5,41.787a52.537,52.537,0,0,0,7.085-2.514q1.748-.8,3.416-1.753a11.815,11.815,0,0,0,2.918-2.039c1.665-1.813.92-4.283,1-6.482a10.276,10.276,0,0,1,1.836-5.363,11.6,11.6,0,0,1,9.758-5.169,9.044,9.044,0,0,1,1.383.162c.407.08.582-.544.173-.625" transform="translate(13.011 13.886)" fill="#f2e7d1"/>
              <path id="Trazado_658604" data-name="Trazado 658604" d="M39.809,24.737c-.31-.109-.333-.528-.322-.8a3.96,3.96,0,0,1,.276-1.141,8.408,8.408,0,0,1,1.229-2.261,9.746,9.746,0,0,1,4.1-3.116,12.333,12.333,0,0,1,6.123-.706,15.684,15.684,0,0,1,3.023.712,15.415,15.415,0,0,0,3.092.861A4.875,4.875,0,0,0,61.9,16.105a5.375,5.375,0,0,0,.566-4.964,4.418,4.418,0,0,0-3.79-2.822,3.978,3.978,0,0,0-2.379.553A2.442,2.442,0,0,0,55,11.034c.16,1.571,2.039,1.886,3.311,1.717a9.994,9.994,0,0,0,2.633-.82,13.006,13.006,0,0,0,2.56-1.48,13.5,13.5,0,0,0,1.119-.922c.308-.281-.151-.738-.459-.457a12.73,12.73,0,0,1-4.879,2.786,4.994,4.994,0,0,1-2.162.258,1.677,1.677,0,0,1-1.411-.847c-.318-.81.418-1.575,1.073-1.931A3.432,3.432,0,0,1,59,9.01a3.87,3.87,0,0,1,3.1,3.181,4.761,4.761,0,0,1-1.518,4.438,4.067,4.067,0,0,1-2.142,1.012,6.65,6.65,0,0,1-2.936-.47,26.375,26.375,0,0,0-2.913-.879,14.923,14.923,0,0,0-2.961-.338,12.11,12.11,0,0,0-5.518,1.2,10.412,10.412,0,0,0-3.774,3.183,9,9,0,0,0-1.16,2.174,3.227,3.227,0,0,0-.238,2.16,1.109,1.109,0,0,0,.7.694c.4.137.566-.489.173-.626" transform="translate(30.26 6.474)" fill="#f2e7d1"/>
              <path id="Trazado_658605" data-name="Trazado 658605" d="M58.849,29.052c0,1.2-.609,2.165-1.359,2.165s-1.359-.97-1.359-2.165.609-2.165,1.359-2.165,1.359.97,1.359,2.165" transform="translate(43.742 20.953)"/>
              <path id="Trazado_658606" data-name="Trazado 658606" d="M61.617,25.224a6.4,6.4,0,0,1-.3,2.591.55.55,0,0,1-.27.375.611.611,0,0,1-.486-.107,7.041,7.041,0,0,0-6.831.167,5.835,5.835,0,0,1,7.683-2.607Z" transform="translate(41.871 19.536)" fill="#f2e7d1"/>
              <path id="Trazado_658607" data-name="Trazado 658607" d="M40.39,41.379a53.514,53.514,0,0,1,4.156,11.615,54.069,54.069,0,0,1,1.416,12.2,54.025,54.025,0,0,1-.441,6.97.653.653,0,0,0,.649.649.666.666,0,0,0,.648-.649,54.434,54.434,0,0,0,.146-12.551,55.7,55.7,0,0,0-2.7-12.291,55.019,55.019,0,0,0-2.758-6.6.648.648,0,1,0-1.119.655" transform="translate(31.414 31.49)" fill="#212f56"/>
              <path id="Trazado_658608" data-name="Trazado 658608" d="M41.507,93.63a19.275,19.275,0,0,1-9.327-.744,14.753,14.753,0,0,1-6.973-5,13.549,13.549,0,0,1-1.986-3.7,12.287,12.287,0,0,1-.632-4.5,39.929,39.929,0,0,1,.73-5.372q.486-2.749,1.025-5.489,1.076-5.453,2.368-10.859.16-.673.324-1.343c.2-.811-1.052-1.157-1.251-.345q-1.361,5.578-2.495,11.211-.56,2.789-1.064,5.591c-.34,1.893-.713,3.8-.877,5.713a13.624,13.624,0,0,0,2.263,9.08,15.991,15.991,0,0,0,7.156,5.857,19.876,19.876,0,0,0,9.77,1.331c.439-.048.877-.109,1.313-.178a.654.654,0,0,0,.452-.8.665.665,0,0,0-.8-.452" transform="translate(16.589 43.495)" fill="#212f56"/>
              <path id="Trazado_658609" data-name="Trazado 658609" d="M40.412,46.058q-.355,10.51-.712,21.019l-.358,10.564c-.014.431-.03.863-.044,1.294a4.267,4.267,0,0,1-.1,1.021c-.176.621-.952.858-1.464,1.139a29.621,29.621,0,0,0-3.573,2.317,30.668,30.668,0,0,0-6.822,7.142.648.648,0,1,0,1.119.655,29.25,29.25,0,0,1,5.927-6.343,28.618,28.618,0,0,1,3.539-2.39,11.258,11.258,0,0,0,1.858-1.1,2.877,2.877,0,0,0,.8-2.222c.256-7.041.477-14.085.715-21.127q.2-5.981.406-11.964c.028-.834-1.269-.834-1.3,0" transform="translate(21.237 35.405)" fill="#212f56"/>
              <path id="Trazado_658610" data-name="Trazado 658610" d="M37.931,65.526a37.771,37.771,0,0,0-7.3,8.687q-.838,1.375-1.553,2.818a.664.664,0,0,0,.231.888.656.656,0,0,0,.888-.233,36.572,36.572,0,0,1,6.357-9.051q1.1-1.145,2.294-2.19a.649.649,0,0,0-.916-.918" transform="translate(22.597 50.92)" fill="#212f56"/>
              <path id="Trazado_658611" data-name="Trazado 658611" d="M11.874,91.459a19.555,19.555,0,0,1,7.16.368,22.363,22.363,0,0,1,6,2.53c3.541,2.066,6.8,4.7,10.706,6.085a14.8,14.8,0,0,0,3.3.76,8.512,8.512,0,0,0,4.046-.4.667.667,0,0,0,.452-.8.653.653,0,0,0-.8-.454,9.425,9.425,0,0,1-6.276-.233,24.77,24.77,0,0,1-5.245-2.594c-3.6-2.222-7.034-4.815-11.172-5.975a20.53,20.53,0,0,0-8.171-.589.671.671,0,0,0-.649.648.652.652,0,0,0,.649.649" transform="translate(8.748 70.13)" fill="#212f56"/>
              <path id="Trazado_658612" data-name="Trazado 658612" d="M25.772,123.729q1.4-5.266,2.79-10.53c.459-1.733.906-3.47,1.379-5.2a7.734,7.734,0,0,1,.818-2.092,5.606,5.606,0,0,1,1.514-1.516c1.582-1.144,3.256-2.176,4.886-3.254a.662.662,0,0,0,.231-.888.653.653,0,0,0-.886-.231c-1.493.988-3,1.959-4.477,2.966a9.354,9.354,0,0,0-1.856,1.553,6.566,6.566,0,0,0-1.213,2.221c-.272.8-.464,1.632-.681,2.45q-.36,1.356-.719,2.71-.71,2.685-1.422,5.37-.809,3.048-1.616,6.1a.649.649,0,0,0,1.251.345" transform="translate(19.09 77.872)" fill="#472909"/>
              <path id="Trazado_658613" data-name="Trazado 658613" d="M20.568,96.162c-1.911,14.587-3.82,29.173-5.482,43.792S12.011,169.2,11.1,183.877q-.769,12.336-1.02,24.7a.649.649,0,0,0,1.3,0c.278-14.7,1.189-29.374,2.491-44.015s3-29.266,4.829-43.86q1.54-12.274,3.169-24.537c.046-.351-.331-.646-.648-.649a.665.665,0,0,0-.649.649" transform="translate(7.855 74.433)" fill="#472909"/>
              <path id="Trazado_658614" data-name="Trazado 658614" d="M6.374,159.436a19.676,19.676,0,0,0,6.647,2.713,47.908,47.908,0,0,0,7.53.2q2.159-.019,4.317-.034a.649.649,0,0,0,0-1.3q-3.726.029-7.455.057a31.329,31.329,0,0,1-3.608-.119,12.377,12.377,0,0,1-3.326-.861,30.672,30.672,0,0,1-3.45-1.779.649.649,0,0,0-.655,1.121" transform="translate(4.72 123.306)" fill="#472909"/>
              <path id="Trazado_658615" data-name="Trazado 658615" d="M28.536,105.015q2.864,9.606,5.729,19.211,2.85,9.558,5.7,19.115,2.864,9.606,5.729,19.211t5.729,19.211q2.864,9.6,5.729,19.209.352,1.177.7,2.354a.649.649,0,0,0,1.251-.343q-2.866-9.606-5.729-19.211-2.85-9.557-5.7-19.117-2.864-9.606-5.729-19.209t-5.729-19.211q-2.866-9.606-5.729-19.211-.352-1.177-.7-2.354a.649.649,0,0,0-1.251.345" transform="translate(22.215 81.216)" fill="#472909"/>
              <path id="Trazado_658616" data-name="Trazado 658616" d="M40.623,162.3a63.1,63.1,0,0,1,15.745-1.2q2.247.112,4.48.383a.652.652,0,0,0,.649-.648.665.665,0,0,0-.649-.649,63.815,63.815,0,0,0-16.016.1c-1.527.2-3.046.455-4.555.765a.649.649,0,0,0,.345,1.251" transform="translate(31.02 124.476)" fill="#472909"/>
              <path id="Trazado_658617" data-name="Trazado 658617" d="M98.574,45.114,92.8,36.8a156.439,156.439,0,0,1,23.11-8.231,6.833,6.833,0,0,1,4.21-.2,6.629,6.629,0,0,1,2.491,2.076c.947,1.119,1.909,2.617,1.288,3.945a3.94,3.94,0,0,1-1.945,1.621,93.718,93.718,0,0,1-15.1,6.073Z" transform="translate(72.322 21.904)" fill="#601922"/>
              <path id="Trazado_658618" data-name="Trazado 658618" d="M90.266,15.846a6.175,6.175,0,0,1,2.792-2.909c2.721-1.4,5.347-2.98,8.135-4.237,3.423-1.541,7.206-2.591,10.92-2.034s7.308,3.007,8.375,6.6a15.673,15.673,0,0,1,.489,3.219c.838,10.375,1.343,20.853,3.907,30.942.334,1.317,1.117,4.872,1.84,6.021a63.614,63.614,0,0,1-18.336,4.72,48.044,48.044,0,0,0-2.617-9.861c-1.859.941-8.955,3.576-10.252,2.774a5.08,5.08,0,0,1-1.879-3.4,34.892,34.892,0,0,1-1.005-10.051c.164.158-6.905.767-6.905.767-.06.117,5.564-8.057,5.564-8.057-.089-3.779-.939-10.717-1.027-14.5" transform="translate(66.809 5.077)" fill="#fbc9a4"/>
              <path id="Trazado_658619" data-name="Trazado 658619" d="M122.477,30.933c-9.29.555-18.213,4.345-27.52,4.42,1.6,2.628,1.842,4.439,1.9,7.512,6.984-3.754,15.919-2.76,23.474-5.164a3.162,3.162,0,0,0,1.262-.632,2.884,2.884,0,0,0,.689-1.354,11.734,11.734,0,0,0,.31-4.719Z" transform="translate(74 24.106)" fill="#873139"/>
              <path id="Trazado_658620" data-name="Trazado 658620" d="M98.688,54.1a14.865,14.865,0,0,1-.32,4.626,248.374,248.374,0,0,1,28.111,5.519,20.835,20.835,0,0,1,.267-5.1q-14.137-1.812-28.077-4.868Z" transform="translate(76.658 42.163)" fill="#873139"/>
              <path id="Trazado_658621" data-name="Trazado 658621" d="M101.824,45.848l-2.3,12.834-.646,3.607c-.073.407.552.584.625.173l2.3-12.834q.323-1.8.648-3.607c.073-.407-.553-.584-.626-.173" transform="translate(77.051 35.547)" fill="#873139"/>
              <path id="Trazado_658622" data-name="Trazado 658622" d="M98.577,47.866q.811,2.882,1.625,5.765a.324.324,0,0,0,.625-.173L99.2,47.693a.325.325,0,0,0-.626.173" transform="translate(76.811 36.989)" fill="#873139"/>
              <path id="Trazado_658623" data-name="Trazado 658623" d="M84.9,53.549c4.665,1.028,9.505,2.121,13.567,4.758a17.184,17.184,0,0,1,3.1,2.568c.288.3.746-.157.459-.459-3.406-3.58-8.169-5.327-12.85-6.53-1.363-.351-2.735-.658-4.108-.961-.409-.091-.58.536-.173.625" transform="translate(65.977 41.238)" fill="#873139"/>
              <path id="Trazado_658624" data-name="Trazado 658624" d="M85.517,55.306A28.259,28.259,0,0,1,96.088,57.24,27.239,27.239,0,0,1,98.9,58.527c.37.194.7-.365.327-.56A28.95,28.95,0,0,0,88.69,54.8a28.64,28.64,0,0,0-3.173-.142.325.325,0,0,0,0,.649" transform="translate(66.4 42.593)" fill="#873139"/>
              <path id="Trazado_658625" data-name="Trazado 658625" d="M74.051,83.922A137.671,137.671,0,0,0,94.1,86.963a137.706,137.706,0,0,0,20.293.062q5.68-.4,11.309-1.276c.411-.064.237-.689-.173-.625a136.848,136.848,0,0,1-20.145,1.594,137.012,137.012,0,0,1-20.056-1.367q-5.594-.8-11.1-2.057c-.407-.093-.58.534-.173.626" transform="translate(57.527 64.906)" fill="#873139"/>
              <path id="Trazado_658626" data-name="Trazado 658626" d="M84.9,90.941q6.675,3.077,13.5,5.813,1.906.763,3.822,1.5A.649.649,0,1,0,102.569,97q-6.7-2.576-13.272-5.489-1.876-.833-3.742-1.694a.669.669,0,0,0-.888.233.654.654,0,0,0,.233.888" transform="translate(65.916 69.938)" fill="#212f56"/>
              <path id="Trazado_658627" data-name="Trazado 658627" d="M93.1,90.161q3.056,11.831,6.188,23.643,3.149,11.872,6.377,23.718,3.211,11.791,6.5,23.562,3.3,11.826,6.687,23.633,3.366,11.746,6.809,23.473.44,1.495.879,2.987a.649.649,0,0,0,1.251-.343q-3.454-11.725-6.829-23.467-3.392-11.8-6.708-23.627-3.3-11.767-6.519-23.554-3.237-11.847-6.395-23.715-3.144-11.807-6.21-23.638l-.779-3.016a.649.649,0,0,0-1.251.345" transform="translate(72.532 69.635)" fill="#212f56"/>
              <path id="Trazado_658628" data-name="Trazado 658628" d="M106.4,163.523q8.917-1.489,17.692-3.71,2.461-.622,4.906-1.3a.649.649,0,0,0-.345-1.251q-8.711,2.421-17.6,4.119-2.493.475-5,.893a.652.652,0,0,0-.452.8.662.662,0,0,0,.8.454" transform="translate(82.284 122.532)" fill="#212f56"/>
              <path id="Trazado_658629" data-name="Trazado 658629" d="M108.239,88.577a40.525,40.525,0,0,0-8.45,1.881.662.662,0,0,0-.477.626,24.821,24.821,0,0,0,1.42,7.3,9.2,9.2,0,0,0,4.43,4.922,6.466,6.466,0,0,0,3.671.575.652.652,0,0,0,.452-.8.665.665,0,0,0-.8-.454,4.939,4.939,0,0,1-2.56-.4,7.128,7.128,0,0,1-2.3-1.644,11.029,11.029,0,0,1-2.552-5.717c-.231-1.254-.351-2.525-.468-3.793q-.238.312-.477.625a38.963,38.963,0,0,1,8.107-1.834.668.668,0,0,0,.649-.648.653.653,0,0,0-.649-.649" transform="translate(77.392 69.026)" fill="#212f56"/>
              <path id="Trazado_658630" data-name="Trazado 658630" d="M80.521,163.381a139.9,139.9,0,0,1,17.747-3.446q2.552-.323,5.112-.553a.667.667,0,0,0,.649-.649.654.654,0,0,0-.649-.648,142.683,142.683,0,0,0-18.206,2.834q-2.509.56-5,1.212a.649.649,0,0,0,.345,1.251" transform="translate(62.122 123.193)" fill="#7d8acc"/>
              <path id="Trazado_658631" data-name="Trazado 658631" d="M78.961,122.943a43.846,43.846,0,0,1,12.5,2.352.649.649,0,0,0,.345-1.251,45.153,45.153,0,0,0-12.845-2.4.649.649,0,1,0,0,1.3" transform="translate(61.029 94.799)" fill="#7d8acc"/>
              <path id="Trazado_658632" data-name="Trazado 658632" d="M81.829,126.9a9.123,9.123,0,0,1,6.487-1.555.671.671,0,0,0,.8-.454.653.653,0,0,0-.454-.8,10.443,10.443,0,0,0-7.487,1.685.665.665,0,0,0-.233.888.655.655,0,0,0,.888.233" transform="translate(63.01 96.613)" fill="#7d8acc"/>
              <path id="Trazado_658633" data-name="Trazado 658633" d="M84.018,104.3c-.068,6.021-1.991,11.781-3.381,17.581a49.352,49.352,0,0,0-1.431,8.881,41.432,41.432,0,0,0,.753,9.558c.582,3.228,1.393,6.411,2.173,9.6q1.182,4.839,2.4,9.671,2.418,9.619,4.959,19.2T94.7,197.924q.334,1.19.667,2.377a.65.65,0,0,0,1.253-.345q-2.674-9.5-5.224-19.035-2.56-9.582-4.993-19.2c-1.607-6.349-3.286-12.7-4.667-19.1a50.089,50.089,0,0,1-1.274-9.589,39.261,39.261,0,0,1,1.016-9.053c1.265-5.817,3.256-11.5,3.731-17.466q.091-1.108.1-2.222a.648.648,0,0,0-1.3,0" transform="translate(61.692 80.792)" fill="#7d8acc"/>
              <g id="Grupo_997082" data-name="Grupo 997082" transform="translate(172.58 50.256)" opacity="0.64">
                <g id="Grupo_997081" data-name="Grupo 997081">
                  <g id="Grupo_997080" data-name="Grupo 997080" clip-path="url(#clip-path-13)">
                    <path id="Trazado_658634" data-name="Trazado 658634" d="M96.993,31.378l10.158-3.133-8.612,6.521Z" transform="translate(-96.993 -28.245)" fill="#844d2f"/>
                  </g>
                </g>
              </g>
              <path id="Trazado_658635" data-name="Trazado 658635" d="M120.352,43.687,114.17,22.21c-.534-1.859-1.272-3.952-3.064-4.68-2.092-.851-4.336.633-6.169,1.955-3.29,2.372-6.911,4.514-10.932,5.057S85.486,23.7,83.3,20.287a4.874,4.874,0,0,1-.717-4.313c.758-1.9,3.048-2.7,5.1-2.783s4.14.311,6.124-.2A7.958,7.958,0,0,1,87.324,5.1a2.707,2.707,0,0,1,.632-1.84c1-.995,2.68-.324,3.9.391l7.208,4.242a5.714,5.714,0,0,1,.409-5.64,4.125,4.125,0,0,1,5.26-1.2c1.6,1,2.16,3.112,3.633,4.292,1.614,1.294,3.93,1.178,5.952.737s4.069-1.142,6.11-.8,4.019,2.249,3.516,4.256c2.728-1.165,5.824,1.45,6.461,4.347s-.329,5.87-.943,8.772a37.027,37.027,0,0,0-.021,15.177,7.776,7.776,0,0,0,1.913,4.187c1.133,1.071,3.132,1.368,4.2.235.854,3.409-3.733,6.2-7,4.9s-4.961-4.927-5.646-8.373q-1.233,2.453-2.463,4.906Z" transform="translate(64.162 0.421)" fill="#542d0b"/>
              <path id="Trazado_658636" data-name="Trazado 658636" d="M90.615,28.808a37.273,37.273,0,0,1,5.644-4.14.324.324,0,0,0-.327-.559,38.065,38.065,0,0,0-5.776,4.24c-.311.279.148.737.459.459" transform="translate(70.177 18.751)" fill="#844d2f"/>
              <path id="Trazado_658637" data-name="Trazado 658637" d="M94.273,21.808c0,1.2-.609,2.165-1.359,2.165s-1.359-.97-1.359-2.165.609-2.165,1.359-2.165,1.359.97,1.359,2.165" transform="translate(71.348 15.308)"/>
              <path id="Trazado_658638" data-name="Trazado 658638" d="M90.524,17.587a9.509,9.509,0,0,0,.512,4.728c1.489-.609,2.886-1.447,4.422-1.931a5.7,5.7,0,0,1,4.671.274A11.36,11.36,0,0,0,90.5,17.666Z" transform="translate(70.468 13.652)" fill="#542d0b"/>
              <path id="Trazado_658639" data-name="Trazado 658639" d="M74.87,39.829A52.654,52.654,0,0,1,79.329,52.75q.39,1.9.639,3.829c.053.407.7.413.649,0A53.364,53.364,0,0,0,77.064,43.1q-.753-1.828-1.633-3.6c-.187-.374-.747-.046-.56.327" transform="translate(58.317 30.655)" fill="#844d2f"/>
              <path id="Trazado_658640" data-name="Trazado 658640" d="M76.287,38.57a76.9,76.9,0,0,1,3.754,14.008q.342,2.026.571,4.066c.046.411.7.415.648,0a77.217,77.217,0,0,0-3.007-14.327q-.617-1.978-1.34-3.92c-.146-.388-.772-.219-.626.173" transform="translate(59.433 29.752)" fill="#844d2f"/>
              <path id="Trazado_658641" data-name="Trazado 658641" d="M76.971,52.392a14.317,14.317,0,0,1,6.4-4.112c.4-.123.228-.749-.173-.626a14.981,14.981,0,0,0-6.688,4.279c-.278.31.18.77.459.459" transform="translate(59.559 37.124)" fill="#844d2f"/>
              <path id="Trazado_658642" data-name="Trazado 658642" d="M85.813,37.242a20.663,20.663,0,0,0-3.847,9.044c-.066.409.559.585.626.173a20.229,20.229,0,0,1,3.781-8.889c.251-.335-.313-.658-.561-.327" transform="translate(63.873 28.915)" fill="#844d2f"/>
              <path id="Trazado_658643" data-name="Trazado 658643" d="M81.892,30.992q.822,5.749,1.642,11.5.235,1.649.472,3.3c.059.411.683.237.625-.173q-.819-5.749-1.642-11.5l-.47-3.3c-.059-.411-.685-.237-.626.173" transform="translate(63.815 23.835)" fill="#844d2f"/>
              <path id="Trazado_658644" data-name="Trazado 658644" d="M80.507,31.224q.915,6.395,1.833,12.788.262,1.81.52,3.623a.326.326,0,0,0,.4.226.331.331,0,0,0,.228-.4q-.918-6.395-1.834-12.788-.259-1.81-.52-3.623a.326.326,0,0,0-.4-.226.331.331,0,0,0-.226.4" transform="translate(62.735 24.015)" fill="#844d2f"/>
              <path id="Trazado_658645" data-name="Trazado 658645" d="M79.731,33.887q.678,6.259,1.608,12.489c.062.411.687.237.626-.173q-.918-6.141-1.587-12.316c-.043-.411-.692-.415-.648,0" transform="translate(62.133 26.167)" fill="#844d2f"/>
              <path id="Trazado_658646" data-name="Trazado 658646" d="M96.945,65.549a36.414,36.414,0,0,1,4.1,18.265c-.016.416.633.416.649,0A37.26,37.26,0,0,0,99.253,69.1a37.652,37.652,0,0,0-1.747-3.875c-.194-.37-.753-.043-.56.327" transform="translate(75.519 50.7)" fill="#844d2f"/>
              <path id="Trazado_658647" data-name="Trazado 658647" d="M83.282,17.592a3.215,3.215,0,0,1,.3-4.48c1.45-1.375,3.651-1.487,5.505-1.068a22.584,22.584,0,0,1,3.683,1.3c.336.141.584-.441.251-.593-3.454-1.562-8.01-3.8-7.688-8.274A3.954,3.954,0,0,1,87.9.792c2.388-.7,4.681,1.2,6.352,2.649A75.834,75.834,0,0,1,100.644,9.7c.279.31.738-.149.457-.457a75.248,75.248,0,0,0-6.046-5.961c-1.818-1.6-4.1-3.6-6.72-3.244a4.314,4.314,0,0,0-3.543,3.644,6.471,6.471,0,0,0,1.4,5.365c1.664,2.048,4.156,3.2,6.507,4.263.082-.2.165-.4.249-.593-2.217-.931-4.569-1.872-7.018-1.427a4.671,4.671,0,0,0-4.039,3.843,3.452,3.452,0,0,0,.932,2.914c.3.292.758-.165.459-.459" transform="translate(63.793 0)" fill="#542d0b"/>
            </g>
          </g>
        </g>
      </g>
    </g>
  </g>
</svg>
