<svg xmlns="http://www.w3.org/2000/svg" xmlns:xlink="http://www.w3.org/1999/xlink" width="468.397" height="279.211" viewBox="0 0 468.397 279.211">
  <defs>
    <clipPath id="clip-path">
      <rect id="Rect치ngulo_309891" data-name="Rect치ngulo 309891" width="279.211" height="398.771" fill="#fff6db"/>
    </clipPath>
    <clipPath id="clip-path-2">
      <rect id="Rect치ngulo_313201" data-name="Rect치ngulo 313201" width="468.397" height="241.551" fill="none"/>
    </clipPath>
  </defs>
  <g id="_3" data-name="3" transform="translate(-919.5 -7992.623)">
    <g id="Grupo_995696" data-name="Grupo 995696" transform="translate(1353.085 7992.623) rotate(90)">
      <g id="Grupo_995683" data-name="Grupo 995683" clip-path="url(#clip-path)">
        <path id="Trazado_654602" data-name="Trazado 654602" d="M269.487,196.521s29.8,85.627-14.933,126.838-103.148-59.071-147.773,44.456C75.268,440.923-9.981,403.528.964,326.13c12.454-88.072,55.906-28.186,30.084-222.649C18.261,7.186,197.286-63.975,269.487,196.521" transform="translate(0 -8.39)" fill="#fff6db"/>
        <path id="Trazado_654603" data-name="Trazado 654603" d="M469.957,33.161s18.293,9.567,15.849,23.28-25.155,1.952-28.862-10.305,6.712-17.488,13.013-12.975" transform="translate(-265.394 -16.467)" fill="#fff6db"/>
        <path id="Trazado_654604" data-name="Trazado 654604" d="M400.55,7.266c1.417-6.107,7.486-9.005,12.427-6.175,3.889,2.228,7.639,6,6.5,12.071-2.2,11.748-12.657,5.515-17.2,1.4-1.925-1.747-2.172-5.4-1.733-7.291" transform="translate(-232.928 0)" fill="#fff6db"/>
        <path id="Trazado_654605" data-name="Trazado 654605" d="M533.034,692.31s17.856-7.7,24.2,2.33-15.4,19.708-24.6,15.131-5.945-15.47.4-17.461" transform="translate(-306.56 -359.787)" fill="#fff6db"/>
        <path id="Trazado_654606" data-name="Trazado 654606" d="M616.028,662.911c-4.693,1.57-6.8,7.772-4.5,12.705,1.81,3.884,4.812,7.591,9.483,6.305,9.038-2.489,8.554-13.466,1.605-17.939a9.454,9.454,0,0,0-6.59-1.071" transform="translate(-355.238 -345.808)" fill="#fff6db"/>
      </g>
    </g>
    <g id="Grupo_997001" data-name="Grupo 997001" transform="translate(919.5 8023.453)">
      <g id="Grupo_997000" data-name="Grupo 997000" clip-path="url(#clip-path-2)">
        <path id="Trazado_657930" data-name="Trazado 657930" d="M45.46,86.367s25.251-2.726,23.457,29.586,1.622,35.823,1.622,35.823-50.532,2.442-56.983-18,5.752-50.13,31.9-47.412" transform="translate(-4.069 -29.574)" fill="#222221"/>
        <path id="Trazado_657931" data-name="Trazado 657931" d="M173.5,84.253s25.825-2.936,30.846,21.319,22.153,36.76,4.866,52.3-47.425,14.258-47.425,14.258a39.124,39.124,0,0,1-14.471-41.821,123.682,123.682,0,0,0,3.18-14.631c1.011-6.945-8-29.623,23-31.43" transform="translate(-50.065 -28.87)" fill="#271e6d"/>
        <path id="Trazado_657932" data-name="Trazado 657932" d="M149.493,244.65l11.5-5.374,4.033,12.716s-3.935,2.507-11.724,1.561Z" transform="translate(-51.294 -82.1)" fill="#bc6f63"/>
        <path id="Trazado_657933" data-name="Trazado 657933" d="M34.724,130.443s-7.5-9.3-11-2.7,3.6,15.5,12.9,11Z" transform="translate(-7.829 -43.019)" fill="#e8af8e"/>
        <path id="Trazado_657934" data-name="Trazado 657934" d="M23.989,136.257a4.76,4.76,0,0,0,3.444,2.71c3.918.6,6.12-4.5,5.354-8.985a22.015,22.015,0,0,1,1.939,2.041l1.9,8.3c-7.927,3.836-14.25-2.065-13.777-7.977a14.733,14.733,0,0,0,1.14,3.912" transform="translate(-7.831 -44.599)" fill="#cf866b"/>
        <path id="Trazado_657935" data-name="Trazado 657935" d="M31.139,137.407a4.982,4.982,0,0,0-1.47-3.368,4.789,4.789,0,0,0-1.595-1,.434.434,0,0,0-.529.3.44.44,0,0,0,.3.529,3.708,3.708,0,0,1,1.147.713,3.411,3.411,0,0,1,.727.919c.043.075.083.151.121.229.02.04.039.081.058.122s.064.148.032.07q.093.226.163.46a7.766,7.766,0,0,1,.168.762c-.025-.126,0-.011,0,.053,0,.037.007.074.01.111s0,.065,0,.1a.431.431,0,0,0,.861,0" transform="translate(-9.446 -45.641)" fill="#222221"/>
        <path id="Trazado_657936" data-name="Trazado 657936" d="M30.238,135.81a2.293,2.293,0,0,0-.684.3,2.611,2.611,0,0,0-1.048,1.266,3.016,3.016,0,0,0-.185,1.22.43.43,0,1,0,.86,0c0-.087,0-.173,0-.26,0-.044,0-.087.008-.131,0-.016,0-.032,0-.047,0-.042-.012-.1,0-.01a.692.692,0,0,1,.038-.2,2.343,2.343,0,0,1,.064-.227c.01-.029.02-.058.032-.087.041-.108-.025.049.007-.015s.057-.118.09-.175.06-.1.093-.148c.009-.012.077-.1.026-.038s.022-.026.035-.041a2.089,2.089,0,0,1,.225-.225l.052-.043c.042-.037-.092.066-.013.01.039-.028.078-.055.118-.081a2.364,2.364,0,0,1,.221-.126l.087-.041.024-.01c.05-.024-.079.032-.069.029l.048-.02a1.47,1.47,0,0,1,.2-.064.434.434,0,0,0,.3-.529.441.441,0,0,0-.529-.3" transform="translate(-9.716 -46.594)" fill="#222221"/>
        <path id="Trazado_657937" data-name="Trazado 657937" d="M41.88,152.962l-.505,11.2a5.548,5.548,0,0,1-1.983,4l-5,4.178s9.538,13.23,18.8,13.315c4.538.042,9.307-7.655,12.179-12.8l-4.859-4.49a5.544,5.544,0,0,1-1.773-4.366l.374-7.043Z" transform="translate(-11.8 -52.484)" fill="#e8af8e"/>
        <path id="Trazado_657938" data-name="Trazado 657938" d="M45.5,157.2l.191-4.24,17.233,4-.346,6.5c-1.779,1.4-12.644,7.245-17.079-6.261" transform="translate(-15.612 -52.484)" fill="#a8624b"/>
        <path id="Trazado_657939" data-name="Trazado 657939" d="M56.691,92.013S74.683,97,68.657,118.072a5.181,5.181,0,0,0-.04,2.623c.845,3.577,3.018,14.492-14.086,18.918a4.862,4.862,0,0,1-2,.085c-4.331-.7-20.179-4.63-20.76-24.4-.673-22.9,24.924-23.288,24.924-23.288" transform="translate(-10.895 -31.571)" fill="#e8af8e"/>
        <path id="Trazado_657940" data-name="Trazado 657940" d="M68.738,136.088a4.2,4.2,0,0,0,1.626-1.286,1.848,1.848,0,0,0-.17-2.277,17.072,17.072,0,0,1-1.335-2.013,7.169,7.169,0,0,1-.679-3.51c.023-.681-1.035-.681-1.058,0a8.331,8.331,0,0,0,.568,3.479,10.07,10.07,0,0,0,1.268,2.133c.3.409.9.985.587,1.515a3.052,3.052,0,0,1-1.339,1.044c-.616.289-.079,1.2.534.914" transform="translate(-23.028 -43.402)" fill="#222221"/>
        <path id="Trazado_657941" data-name="Trazado 657941" d="M53.335,141.1c0,1.76-1.935,3.187-4.321,3.187s-4.321-1.427-4.321-3.187,1.935-3.186,4.321-3.186,4.321,1.426,4.321,3.186" transform="translate(-15.335 -47.321)" fill="#d46a55"/>
        <path id="Trazado_657942" data-name="Trazado 657942" d="M82.294,140.812c0,1.76-1.935,3.186-4.321,3.186s-4.321-1.426-4.321-3.186,1.935-3.186,4.321-3.186,4.321,1.426,4.321,3.186" transform="translate(-25.271 -47.222)" fill="#d46a55"/>
        <path id="Trazado_657943" data-name="Trazado 657943" d="M57.479,146.26a6.906,6.906,0,0,0,5.181,3.319,8.214,8.214,0,0,0,6.1-2.042c.509-.455-.241-1.2-.749-.749a7.157,7.157,0,0,1-5.225,1.742,5.778,5.778,0,0,1-4.394-2.8c-.375-.565-1.292-.035-.914.534" transform="translate(-19.691 -49.918)" fill="#222221"/>
        <path id="Trazado_657944" data-name="Trazado 657944" d="M58.568,120.037c.122,1.013-1.165.6-3.066.824s-3.7,1.014-3.818,0,1.322-2.019,3.223-2.247,3.54.409,3.661,1.423" transform="translate(-17.731 -40.683)" fill="#222221"/>
        <path id="Trazado_657945" data-name="Trazado 657945" d="M74.138,120.367c-.122,1.014,1.165.6,3.066.824s3.7,1.014,3.818,0-1.322-2.019-3.223-2.247-3.54.41-3.661,1.423" transform="translate(-25.435 -40.796)" fill="#222221"/>
        <path id="Trazado_657946" data-name="Trazado 657946" d="M66.234,156.907c0,.455-.721.823-1.611.823s-1.611-.368-1.611-.823.721-.25,1.611-.25,1.611-.2,1.611.25" transform="translate(-21.621 -53.736)" fill="#cf866b"/>
        <path id="Trazado_657947" data-name="Trazado 657947" d="M25.128,182.476s13.768,7.184,20.411,7.012,10.568-6.5,10.568-6.5,13.7,12.652,14.444,24.08-3.914,31.519-3.914,31.519,8.484,46.135,6.83,65.573H10.23S-.951,266.315,21.068,240.686L10.23,191.662Z" transform="translate(-2.536 -62.611)" fill="#69ba9f"/>
        <path id="Trazado_657948" data-name="Trazado 657948" d="M19.7,306.235c-3.816-3.053-6.077-6.995-7.949-11.177-8.822,23.013-1.522,47.732-1.522,47.732H73.469c.678-7.965-.347-20.411-1.792-32.33C54.953,317.6,35.57,318.255,19.7,306.235" transform="translate(-2.538 -101.24)" fill="#417164"/>
        <path id="Trazado_657949" data-name="Trazado 657949" d="M169.842,265.456v8.177s26.922,6.943,45.651-4.088l-2.01-6.725Z" transform="translate(-58.276 -90.178)" fill="#583c80"/>
        <path id="Trazado_657950" data-name="Trazado 657950" d="M162.175,276.173s-14.911,28.051-9.522,59.429h29.859l-4-38.419h3.48L184.46,335.6h29.754s7.936-37.509-5.95-61.493c0,0-22.57,5.57-46.09,2.064" transform="translate(-51.975 -94.052)" fill="#7a5fa0"/>
        <path id="Trazado_657951" data-name="Trazado 657951" d="M18.584,229.356,32.69,249.779l31.809-8.1-3.231,8.1S38.539,267.3,28.905,265.86,5.167,234.881,5.167,234.881s5.16-7.222,13.417-5.525" transform="translate(-1.773 -78.607)" fill="#e8af8e"/>
        <path id="Trazado_657952" data-name="Trazado 657952" d="M197.853,146.323l.53,11.746a5.812,5.812,0,0,0,2.079,4.2l5.241,4.381s-8.037,20.993-17.747,21.083c-4.758.044-15.9,2.486-14.73-20.545l5.093-4.708a5.811,5.811,0,0,0,1.859-4.577l-.392-7.383Z" transform="translate(-59.408 -50.206)" fill="#bc6f63"/>
        <path id="Trazado_657953" data-name="Trazado 657953" d="M201.524,150.768l-.2-4.445-18.067,4.194.363,6.815c1.866,1.464,13.255,7.6,17.9-6.564" transform="translate(-62.879 -50.206)" fill="#863b39"/>
        <path id="Trazado_657954" data-name="Trazado 657954" d="M180.515,89.286s-17.164,4.753-11.415,24.86a4.938,4.938,0,0,1,.038,2.5c-.807,3.412-2.878,13.825,13.438,18.048a4.646,4.646,0,0,0,1.912.081c4.131-.672,19.25-4.418,19.805-23.274.642-21.85-23.778-22.217-23.778-22.217" transform="translate(-57.617 -30.636)" fill="#bc6f63"/>
        <path id="Trazado_657955" data-name="Trazado 657955" d="M198.578,124.12a1.595,1.595,0,1,0,1.534-2.028,1.834,1.834,0,0,0-1.534,2.028" transform="translate(-68.136 -41.892)" fill="#222221"/>
        <path id="Trazado_657956" data-name="Trazado 657956" d="M178.371,124.8a1.595,1.595,0,1,0,1.534-2.028,1.834,1.834,0,0,0-1.534,2.028" transform="translate(-61.202 -42.126)" fill="#222221"/>
        <path id="Trazado_657957" data-name="Trazado 657957" d="M188.288,131.114a2.492,2.492,0,0,1-1.094-.853c-.256-.433.232-.9.48-1.238a8.25,8.25,0,0,0,1.036-1.743,6.821,6.821,0,0,0,.463-2.842c-.02-.555-.883-.557-.864,0a5.858,5.858,0,0,1-.555,2.868,14.119,14.119,0,0,1-1.09,1.644,1.508,1.508,0,0,0-.14,1.86,3.427,3.427,0,0,0,1.329,1.05c.5.235.94-.51.436-.746" transform="translate(-63.909 -42.554)" fill="#222221"/>
        <path id="Trazado_657958" data-name="Trazado 657958" d="M198.962,135.84c0,1.678,1.845,3.039,4.122,3.039s4.123-1.361,4.123-3.039-1.846-3.039-4.123-3.039-4.122,1.361-4.122,3.039" transform="translate(-68.267 -45.566)" fill="#d46a55"/>
        <path id="Trazado_657959" data-name="Trazado 657959" d="M171.374,136.7c0,1.679,1.846,3.039,4.122,3.039s4.123-1.36,4.123-3.039-1.846-3.039-4.123-3.039-4.122,1.361-4.122,3.039" transform="translate(-58.801 -45.862)" fill="#d46a55"/>
        <path id="Trazado_657960" data-name="Trazado 657960" d="M197.169,114.3c-.116.967,1.111.569,2.925.786s3.527.967,3.642,0-1.261-1.927-3.074-2.143-3.378.391-3.493,1.357" transform="translate(-67.65 -38.738)" fill="#222221"/>
        <path id="Trazado_657961" data-name="Trazado 657961" d="M179.528,115.115c.347.91-.94.821-2.647,1.472s-3.187,1.793-3.533.884.756-2.174,2.463-2.825,3.371-.441,3.718.469" transform="translate(-59.457 -39.207)" fill="#222221"/>
        <path id="Trazado_657962" data-name="Trazado 657962" d="M190.047,151.2c0,.434.688.785,1.537.785s1.536-.351,1.536-.785-.688-.239-1.536-.239-1.537-.194-1.537.239" transform="translate(-65.208 -51.781)" fill="#863b39"/>
        <path id="Trazado_657963" data-name="Trazado 657963" d="M187.82,139.8a1.3,1.3,0,0,0,1.862-.146c.764-.932,1.923-1.9,3.014-1.025,1.74,1.392-.635,4.91-3.949,5.114s-5.038-3.462-4.173-4.46c.957-1.1,2.316-.323,3.245.516" transform="translate(-63.255 -47.449)" fill="#fff"/>
        <path id="Trazado_657964" data-name="Trazado 657964" d="M228.452,177.914s-6.853,18.527-4.508,28.325L236.1,274.256h8.222s-5.23-55.649-5.591-74.7-10.279-21.644-10.279-21.644" transform="translate(-76.671 -61.045)" fill="#bc6f63"/>
        <path id="Trazado_657965" data-name="Trazado 657965" d="M167.208,176.888a14.35,14.35,0,0,0-4.3.123c-.936.222-3.634,1.185-3.634,1.185s-5.4,26.091-3.1,36.9,5.2,19.821,5.2,19.821,12.458,7.934,44.9,0l-6.092-34.995s2.862-18.606,6.092-22.687c0,0-2.822-2.536-8.677-2.633,0,0-7.952,15.142-19.842,14.782s-10.54-12.494-10.54-12.494" transform="translate(-53.389 -59.908)" fill="#e79e9e"/>
        <path id="Trazado_657966" data-name="Trazado 657966" d="M86.351,254.356c4.912-11.668,16.347-5.593,17.738-2.347,2.212,5.156.512,11.33-1.916,10.737s-.571-4.526-1.488-6.036a8.32,8.32,0,0,1,.068,5.053,1.412,1.412,0,0,1-.893.984c-.663.233-1.642.447-2.172-.053-.851-.8.7-4.256-.73-5.993,0,0,1.328,1.659.355,4.785a1.969,1.969,0,0,1-2.306,1.349c-.516-.121-.941-.374-.925-.88.041-1.259-.212-5.4-1.717-5.386s-5.98,1.691-6.013-2.1a.3.3,0,0,1,0-.114" transform="translate(-29.626 -84.924)" fill="#e8af8e"/>
        <path id="Trazado_657967" data-name="Trazado 657967" d="M108.267,264.643a15.022,15.022,0,0,0,.008-2.332,5.076,5.076,0,0,0-1.09-3.336c-.345-.326-.868.2-.522.522a2.624,2.624,0,0,1,.644,1.284,8.965,8.965,0,0,1,.242,1.707,15.228,15.228,0,0,1-.02,2.155c-.041.473.7.47.738,0" transform="translate(-36.559 -88.823)" fill="#222221"/>
        <path id="Trazado_657968" data-name="Trazado 657968" d="M102.9,265.425a6.954,6.954,0,0,0-.107-4.094,2.868,2.868,0,0,0-.979-1.271c-.385-.278-.753.361-.372.637a3.244,3.244,0,0,1,.954,2.71,7.651,7.651,0,0,1-.206,1.822c-.111.461.6.658.711.2" transform="translate(-34.752 -89.208)" fill="#222221"/>
        <path id="Trazado_657969" data-name="Trazado 657969" d="M138.861,331.061a37.053,37.053,0,0,1,3.354,24.083h-21.76l-.688-6.279h-1.376v6.279H94.424s-2.7-12.3,1.175-22.534Z" transform="translate(-32.085 -113.593)" fill="#274256"/>
        <path id="Trazado_657970" data-name="Trazado 657970" d="M128.735,261.47s10.257,8.73,10.025,21.975,0,20.814,0,20.814,4.237,3.1,3.2,5.333-28.852,10.493-51.41,0c0,0-.482-3.784,2.843-4.042,0,0,.373-16.6,0-24.169s4.272-16.955,4.272-16.955Z" transform="translate(-31.064 -89.715)" fill="#dd4d61"/>
        <path id="Trazado_657971" data-name="Trazado 657971" d="M128.217,238.547l.69,8.514,6.321,6.322s-11.031,8.644-25.77,1.677l3.279-5.816V237.9Z" transform="translate(-37.557 -81.628)" fill="#e9a585"/>
        <path id="Trazado_657972" data-name="Trazado 657972" d="M130.5,245.585l-.57-7.038L114.45,237.9v7.077c5.186,5.3,11.612,4.787,16.05.606" transform="translate(-39.27 -81.628)" fill="#a8624b"/>
        <path id="Trazado_657973" data-name="Trazado 657973" d="M85.671,265.969s-.058.216-.153.61c-.884,3.634-5.03,22.411,2.573,26.416,8.428,4.439,41.383-2.6,41.383-2.6l0-5.274-33.511-3.308-1.477-11.926" transform="translate(-28.683 -91.259)" fill="#cf866b"/>
        <path id="Trazado_657974" data-name="Trazado 657974" d="M85.084,279.2a7.043,7.043,0,0,0-5.35,5.394,6.091,6.091,0,0,0,1.251,5.707c3.44,3.7,6.278-.474,5.118-2.8s4.128-6.047,4.128-6.047a4.389,4.389,0,0,0-5.147-2.258" transform="translate(-27.285 -95.753)" fill="#e3e3e3"/>
        <path id="Trazado_657975" data-name="Trazado 657975" d="M145.726,210.659s7.5-9.3,11-2.7-3.6,15.5-12.9,11Z" transform="translate(-49.349 -70.543)" fill="#e9a585"/>
        <path id="Trazado_657976" data-name="Trazado 657976" d="M156.463,216.473a4.761,4.761,0,0,1-3.444,2.71c-3.918.6-6.119-4.5-5.354-8.986a22.015,22.015,0,0,0-1.939,2.041l-1.9,8.3c7.927,3.836,14.25-2.065,13.777-7.977a14.734,14.734,0,0,1-1.14,3.912" transform="translate(-49.349 -72.123)" fill="#cf866b"/>
        <path id="Trazado_657977" data-name="Trazado 657977" d="M155.5,217.623c0-.093.012-.186.022-.279.007-.069,0-.026,0,.027,0-.026.007-.051.011-.076.009-.056.018-.112.028-.167q.038-.2.094-.406.062-.228.145-.449c.015-.039.031-.079.047-.118s-.005.012-.008.018l.03-.069q.056-.124.118-.244a3.564,3.564,0,0,1,.669-.931,3.648,3.648,0,0,1,1.281-.841.444.444,0,0,0,.3-.529.434.434,0,0,0-.529-.3,4.658,4.658,0,0,0-2.347,1.957,5.247,5.247,0,0,0-.668,1.917,3.979,3.979,0,0,0-.05.491.431.431,0,0,0,.861,0" transform="translate(-53.059 -73.165)" fill="#222221"/>
        <path id="Trazado_657978" data-name="Trazado 657978" d="M155.91,216.856a1.334,1.334,0,0,1,.158.049l.076.03c.055.02-.122-.055-.047-.02l.049.022a2.323,2.323,0,0,1,.214.115c.034.02.068.042.1.064l.058.041.03.022c.055.038-.073-.06-.035-.027a2.859,2.859,0,0,1,.228.21c.037.039.07.082.105.123s-.056-.078-.026-.035c.008.013.018.024.026.037.02.028.039.056.058.085.03.047.058.1.084.145.015.029.03.058.044.089a.3.3,0,0,0,.021.046c-.02-.024-.033-.087-.009-.02a2.593,2.593,0,0,1,.129.471.281.281,0,0,1,.009.06c.006-.045-.009-.072,0-.006,0,.048.009.1.011.145.006.1.006.207,0,.31a.433.433,0,0,0,.43.43.44.44,0,0,0,.43-.43,2.869,2.869,0,0,0-.621-1.961,2.638,2.638,0,0,0-1.074-.751,1.481,1.481,0,0,0-.223-.074.43.43,0,0,0-.229.83" transform="translate(-53.389 -74.118)" fill="#222221"/>
        <path id="Trazado_657979" data-name="Trazado 657979" d="M102.029,210.659s-7.5-9.3-11-2.7,3.6,15.5,12.9,11Z" transform="translate(-30.922 -70.543)" fill="#e9a585"/>
        <path id="Trazado_657980" data-name="Trazado 657980" d="M91.3,216.473a4.761,4.761,0,0,0,3.444,2.71c3.918.6,6.12-4.5,5.354-8.986a22.012,22.012,0,0,1,1.939,2.041l1.9,8.3c-7.927,3.836-14.249-2.065-13.777-7.977a14.733,14.733,0,0,0,1.14,3.912" transform="translate(-30.925 -72.123)" fill="#cf866b"/>
        <path id="Trazado_657981" data-name="Trazado 657981" d="M98.444,217.623a4.982,4.982,0,0,0-1.47-3.368,4.788,4.788,0,0,0-1.595-1,.434.434,0,0,0-.529.3.44.44,0,0,0,.3.529,3.707,3.707,0,0,1,1.147.713,3.411,3.411,0,0,1,.727.919c.043.075.083.151.121.229.02.04.039.081.058.121s.064.148.032.07q.093.226.163.46a7.766,7.766,0,0,1,.168.762c-.025-.126,0-.011,0,.053,0,.037.007.074.01.111s0,.065,0,.1a.431.431,0,0,0,.861,0" transform="translate(-32.539 -73.165)" fill="#222221"/>
        <path id="Trazado_657982" data-name="Trazado 657982" d="M97.543,216.026a2.293,2.293,0,0,0-.684.3,2.616,2.616,0,0,0-1.048,1.266,3.028,3.028,0,0,0-.185,1.221.43.43,0,0,0,.861,0c0-.087,0-.173,0-.26,0-.044,0-.087.008-.131,0-.016,0-.032,0-.047,0-.042-.012-.1,0-.01a.693.693,0,0,1,.038-.2,2.35,2.35,0,0,1,.064-.227c.01-.029.02-.058.032-.087.041-.108-.025.048.007-.015s.057-.118.089-.175.06-.1.094-.148c.009-.012.076-.1.026-.038s.022-.026.035-.041a2.085,2.085,0,0,1,.225-.225l.052-.043c.042-.037-.092.066-.013.01.039-.028.078-.055.118-.081a2.364,2.364,0,0,1,.221-.126l.087-.041.024-.01c.05-.024-.079.032-.069.029l.048-.02a1.464,1.464,0,0,1,.2-.064.434.434,0,0,0,.3-.529.441.441,0,0,0-.529-.3" transform="translate(-32.81 -74.118)" fill="#222221"/>
        <path id="Trazado_657983" data-name="Trazado 657983" d="M101,182.629s-1.988,27.324,3.3,33.365c6.5,7.425,24,5.733,28.6,0,3.15-3.926,4.5-20.489,1-33.365,0,0-15-14.662-32.9,0" transform="translate(-34.528 -60.427)" fill="#e9a585"/>
        <path id="Trazado_657984" data-name="Trazado 657984" d="M134.8,211.311a1.672,1.672,0,1,0,1.609-2.126,1.922,1.922,0,0,0-1.609,2.126" transform="translate(-46.253 -71.775)" fill="#222221"/>
        <path id="Trazado_657985" data-name="Trazado 657985" d="M113.619,211.311a1.672,1.672,0,1,0,1.609-2.126,1.922,1.922,0,0,0-1.609,2.126" transform="translate(-38.985 -71.775)" fill="#222221"/>
        <path id="Trazado_657986" data-name="Trazado 657986" d="M124.558,216.027a2.294,2.294,0,0,1-1.005-.784c-.235-.4.213-.83.441-1.137a7.529,7.529,0,0,0,.951-1.6,6.245,6.245,0,0,0,.426-2.611c-.017-.509-.811-.512-.794,0a5.379,5.379,0,0,1-.509,2.634,12.779,12.779,0,0,1-1,1.51,1.384,1.384,0,0,0-.127,1.709,3.14,3.14,0,0,0,1.22.965c.46.215.864-.469.4-.686" transform="translate(-42.099 -71.887)" fill="#222221"/>
        <path id="Trazado_657987" data-name="Trazado 657987" d="M136.337,221.284c0,1.76,1.935,3.186,4.321,3.186s4.321-1.426,4.321-3.186-1.935-3.186-4.321-3.186-4.321,1.426-4.321,3.186" transform="translate(-46.78 -74.833)" fill="#d46a55"/>
        <path id="Trazado_657988" data-name="Trazado 657988" d="M104.719,221.284c0,1.76,1.935,3.186,4.321,3.186s4.321-1.426,4.321-3.186-1.935-3.186-4.321-3.186-4.321,1.426-4.321,3.186" transform="translate(-35.931 -74.833)" fill="#d46a55"/>
        <path id="Trazado_657989" data-name="Trazado 657989" d="M132.007,201.623c-.122,1.013,1.165.6,3.066.824s3.7,1.014,3.818,0-1.322-2.019-3.223-2.247-3.54.41-3.661,1.423" transform="translate(-45.291 -68.676)" fill="#222221"/>
        <path id="Trazado_657990" data-name="Trazado 657990" d="M116.267,200.837c.122,1.013-1.165.6-3.066.824s-3.7,1.014-3.818,0,1.322-2.019,3.223-2.247,3.54.409,3.661,1.423" transform="translate(-37.529 -68.407)" fill="#222221"/>
        <path id="Trazado_657991" data-name="Trazado 657991" d="M119.747,223.616a4.658,4.658,0,0,0,2.223,3.67,4.407,4.407,0,0,0,3.617.178,4.01,4.01,0,0,0,2.106-2.077,5.375,5.375,0,0,0,.5-1.771c.047-.543-.8-.54-.847,0,0,.028-.006.056-.01.083.024-.171-.024.131-.034.184a5.343,5.343,0,0,1-.225.8,3.426,3.426,0,0,1-1.395,1.793,3.525,3.525,0,0,1-3.069.178,3.271,3.271,0,0,1-1.656-1.753,4.994,4.994,0,0,1-.3-.949c-.022-.1-.039-.2-.056-.307,0,.006.006.072,0-.032-.047-.539-.9-.544-.847,0" transform="translate(-41.087 -76.587)" fill="#222221"/>
        <path id="Trazado_657992" data-name="Trazado 657992" d="M105.9,269.868s3.483-13.482,19.546-10.063,18.062,19.094,7.611,21.545S100.1,275.8,100.1,275.8Z" transform="translate(-34.344 -88.953)" fill="#fff"/>
        <path id="Trazado_657993" data-name="Trazado 657993" d="M81.091,260.991s-5.228-3.943-3.016-9.725c0,0,6.552-1.292,9.316,3.927Z" transform="translate(-26.602 -86.165)" fill="#fff"/>
        <path id="Trazado_657994" data-name="Trazado 657994" d="M108.06,261s5.1-4.113,2.7-9.818c0,0-6.591-1.076-9.182,4.23Z" transform="translate(-34.851 -86.154)" fill="#fff"/>
        <path id="Trazado_657995" data-name="Trazado 657995" d="M92.261,254.159s9.378-.151,10.723,9.412c1.608,11.438-7.45,11.1-11.858,10.738s-10.839-.611-9.766-10.44,9.958-10.028,10.9-9.71" transform="translate(-27.875 -87.18)" fill="#fff"/>
        <path id="Trazado_657996" data-name="Trazado 657996" d="M88.69,270.062a1.239,1.239,0,1,0,1.236-1.321,1.281,1.281,0,0,0-1.236,1.321" transform="translate(-30.431 -92.21)" fill="#222221"/>
        <path id="Trazado_657997" data-name="Trazado 657997" d="M102.92,270.062a1.239,1.239,0,1,0,1.236-1.321,1.281,1.281,0,0,0-1.236,1.321" transform="translate(-35.314 -92.21)" fill="#222221"/>
        <path id="Trazado_657998" data-name="Trazado 657998" d="M95.934,271.881a1.2,1.2,0,0,0,2.3,0c0-.218-.515-.394-1.151-.394s-1.152.176-1.152.394" transform="translate(-32.917 -93.152)" fill="#d46a55"/>
        <path id="Trazado_657999" data-name="Trazado 657999" d="M138.68,275.077l-4.253,11.24-33.344-4.7-1.25,5.124s30.36,14.62,39.6,12.3c8.335-2.095,8.384-19.256,8.384-23" transform="translate(-34.254 -94.384)" fill="#e9a585"/>
        <path id="Trazado_658000" data-name="Trazado 658000" d="M101.551,283.281s-3.7,5.677-.258,9.375,6.278-.473,5.118-2.8,4.129-6.047,4.129-6.047-2.151-5.005-8.988-.533" transform="translate(-34.253 -96.561)" fill="#fff"/>
        <path id="Trazado_658001" data-name="Trazado 658001" d="M130.439,186.3s-1.615,11.687,1.353,11.068,5.626-5.244,5.626-5.244,2.76.571,2.5-2.756a3.389,3.389,0,0,0-2.386-1.4s7.358-15.022-7.094-18.571c0,0,.707-4.73-3.937-.6,0,0-1.892-5.36-3.784-1.691,0,0-16.763-5.254-25,4.744s-.349,17.223-.349,17.223-2.515,1.375-1.655,2.838l2.8.968s1.118,4.344,1.806,4.172,1.419-11.482,1.419-11.482,10.708,2.731,16.256-9.977c0,0-1.226,5.806,5.16,2,0,0,7.745-2.645,7.291,8.708" transform="translate(-32.239 -56.865)" fill="#7a5fa0"/>
        <path id="Trazado_658002" data-name="Trazado 658002" d="M146.558,261.821s3.512-2.788,10.522-1.2,7.852,17.331,7.852,17.331l-12.7-1.445s4.268-9.386-5.385-14.55Z" transform="translate(-50.287 -89.256)" fill="#dd4d61"/>
        <path id="Trazado_658003" data-name="Trazado 658003" d="M134.667,285.273s-3.014-3.607,2.675-8.538c0,0-4.08,5.47-1.5,8.7Z" transform="translate(-45.933 -94.953)" fill="#e3e3e3"/>
        <path id="Trazado_658004" data-name="Trazado 658004" d="M138.5,262.781c4.4.771,9.617.527,13.51-1.815a10.724,10.724,0,0,0,5.043-8.978c.186-3.893.5-8.273,3.5-11.154a4.155,4.155,0,0,1,3.461-1.339,4.67,4.67,0,0,1,1.553.585,6.37,6.37,0,0,1,1.7,1.617c1.295,1.749,4.233.005,2.923-1.765-2.021-2.729-5.178-4.629-8.645-3.566-3.648,1.119-5.848,4.684-6.92,8.137a27.01,27.01,0,0,0-.978,7.213,8,8,0,0,1-1.455,4.63c-1.72,2.212-4.687,3.035-7.285,3.269a25.058,25.058,0,0,1-4.082.022c-.255-.019-.509-.043-.763-.068-.4-.037-.43-.053-.224-.022-.16-.024-.321-.043-.48-.072-2.153-.377-3.026,2.925-.86,3.3" transform="translate(-47.093 -80.998)" fill="#fff"/>
        <path id="Trazado_658005" data-name="Trazado 658005" d="M151.111,254.818a3.244,3.244,0,0,0,.186-1.107.288.288,0,0,0,0-.114c-4.912-11.668-16.347-5.592-17.738-2.347-2.212,5.157-.512,11.33,1.916,10.737a1.685,1.685,0,0,0,1.28-1.663c.043.226.079.446.142.686a1.413,1.413,0,0,0,.889.978c.663.233,1.644.449,2.175-.053.31-.293.3-.94.233-1.726.04.164.085.33.138.5a1.977,1.977,0,0,0,2.31,1.364c.516-.122.941-.374.925-.88-.041-1.259.212-5.4,1.717-5.387h.011a2.046,2.046,0,0,1,1.867,1.378c.472,1.3,1.385,3.2,2.688,3.11,1.282-.083,1.745-3.035,1.261-5.48m-14.4,2.069a2.174,2.174,0,0,1,.256-.935,5.522,5.522,0,0,0-.256.935m3.447.261a2.806,2.806,0,0,1,.447-1.073,3.922,3.922,0,0,0-.447,1.073" transform="translate(-45.474 -84.664)" fill="#bc6f63"/>
        <path id="Trazado_658006" data-name="Trazado 658006" d="M138.934,264.593a15.134,15.134,0,0,1-.019-2.155,8.846,8.846,0,0,1,.242-1.707,2.612,2.612,0,0,1,.644-1.284c.346-.326-.177-.847-.522-.521a5.074,5.074,0,0,0-1.091,3.335,15.024,15.024,0,0,0,.008,2.332c.04.47.778.474.738,0" transform="translate(-47.401 -88.806)" fill="#222221"/>
        <path id="Trazado_658007" data-name="Trazado 658007" d="M144.224,265.178a7.614,7.614,0,0,1-.206-1.822,3.242,3.242,0,0,1,.953-2.71c.381-.275.013-.915-.372-.637-1.484,1.073-1.445,3.22-1.185,4.846.028.173.058.348.1.518.111.462.822.266.711-.2" transform="translate(-49.16 -89.19)" fill="#222221"/>
        <path id="Trazado_658008" data-name="Trazado 658008" d="M239.28,316.716a4.84,4.84,0,0,0-5.4,2.834c-1.552,3.656-5.656,4.887-5.568,6.858.072,1.63,2.752,1.009,4.419-.23,1.219-.908,2.081-2.635,2.245-2.267a9.245,9.245,0,0,1,.361,4.14c-.416,1.529-3.129,9-3.244,9.347,0,.01-.007.019-.009.029a1.383,1.383,0,0,0,2.356,1.275,13.944,13.944,0,0,0,2.123-3.764c.864-2.046,2.046-5.546,2.046-5.546l.334.047s-.162,11.927-.164,12.546a1.231,1.231,0,0,0,1.014,1.383c.474.028,1.171-.289,1.485-1.616.474-2,1.768-9.123,1.665-12a88.4,88.4,0,0,1,.182,9.257c-.076.885.353,2.2,1.335,1.912,1.12-.324,1.286-2.374,1.264-2.689-.145-2.148-.038-6.963-.047-9.347l.351-.241s-.34,5.962.843,7.27c.114.126.729.868,1.312.4.329-.262.233-1.494.24-1.73.05-1.416-.131-8.836-.2-9.6-.153-1.8-4.278-10.71-6.4-12.671-3.017-2.788-2.545,4.407-2.545,4.407" transform="translate(-78.336 -106.938)" fill="#bc6f63"/>
        <path id="Trazado_658009" data-name="Trazado 658009" d="M1.5,225.442s-7.141-25.692,9.718-32.291l10.8,24.881s-4.9,12.241-20.513,7.41" transform="translate(0 -66.273)" fill="#69ba9f"/>
        <path id="Trazado_658010" data-name="Trazado 658010" d="M32.071,119.992s9.4-4.607,14.059-20.733c0,0,2.852,6.067,14.076,5.678l-6.737-8.258S60.335,105.9,70.527,106.9c0,0-2.015-20.8-18.669-18.738S26.8,110.087,32.071,119.992" transform="translate(-10.467 -30.201)" fill="#222221"/>
        <path id="Trazado_658011" data-name="Trazado 658011" d="M47.9,103.689s1.682,9.991-14.384,20.823" transform="translate(-11.499 -35.578)" fill="none" stroke="#222221" stroke-miterlimit="10" stroke-width="1.386"/>
        <path id="Trazado_658012" data-name="Trazado 658012" d="M164.333,102.057s8.027,4.3,16.614-8.085c0,0-4.08,6.6-9.3,8.807,0,0,12.543.309,15.732-10.528,0,0,12.307,4.184,13.511,15.724s-.172,17.872-.172,17.872l5.253-17.768a11.476,11.476,0,0,0-2.547-11.044c-4.56-4.937-12.89-11.249-25.154-10.289-19.782,1.548-13.933,15.309-13.933,15.309" transform="translate(-56.108 -29.731)" fill="#271e6d"/>
        <path id="Trazado_658013" data-name="Trazado 658013" d="M51.847,131.536a.343.343,0,0,1-.541-.4c.62-1.307,1.653-2.769,3.093-2.467,1.367.288,2.005,1.787,2.3,3.1a.342.342,0,0,1-.621.265c-.832-1.238-2.25-2.356-4.234-.5" transform="translate(-17.592 -44.135)" fill="#222221"/>
        <path id="Trazado_658014" data-name="Trazado 658014" d="M79.356,131.536a.343.343,0,0,0,.541-.4c-.62-1.307-1.653-2.769-3.093-2.467-1.367.288-2.005,1.787-2.3,3.1a.342.342,0,0,0,.621.265c.832-1.238,2.25-2.356,4.234-.5" transform="translate(-25.559 -44.135)" fill="#222221"/>
        <path id="Trazado_658015" data-name="Trazado 658015" d="M299.876,343.725V327.949h3.246l-.307,15.776h22.153l2.283-43.4-61.1-2.54c-2.018,10.936-.612,32.934,1.488,45.942Z" transform="translate(-90.985 -102.175)" fill="#274256"/>
        <path id="Trazado_658016" data-name="Trazado 658016" d="M327.09,254.949v-67.92l-6.8-2.126-.1-.031c-19.678,13.775-35.546.5-36.1.022l-.027-.022-4.021.84-10.563,28.41-6.394,44.026s5.832,12.982,29.859,14.3,35.43-8.467,35.43-8.467Z" transform="translate(-90.268 -63.433)" fill="#487fd2"/>
        <path id="Trazado_658017" data-name="Trazado 658017" d="M327.09,261.837a39.035,39.035,0,0,1-12.081,5.315c-17.207,3.885-34.413-1.611-48.054-11.334l-3.874,26.671s5.832,12.982,29.859,14.3,35.43-8.467,35.43-8.467l-1.28-9.031Z" transform="translate(-90.268 -87.776)" fill="#3b699f"/>
        <path id="Trazado_658018" data-name="Trazado 658018" d="M464.144,48.994,460.58,39.01c-7.45-11.375,6.342-16.815,9.225-11.41,3.483,6.53.79,8.606.79,8.606l4.335,9.314Z" transform="translate(-157.285 -8.748)" fill="#e9a585"/>
        <path id="Trazado_658019" data-name="Trazado 658019" d="M383.586.1s15.381-.847,18.627,15.945c0,0,8.184,9.525,5.009,13.758s-5.976,4.1-5.976,4.1l.36-3.7-1.913,3.7s-17.87,5.567-30.571-1.418V29.17l-.917,2.893s-3.669.421-4.374-4.446,4.374-6.823,5.221-15.37S376.319-.745,383.586.1" transform="translate(-124.814 0)" fill="#271e6d"/>
        <path id="Trazado_658020" data-name="Trazado 658020" d="M381.506,55.984s6.764,4.642,20.452,0l1.483,3.139s-10.278,14.021-23.554-.231Z" transform="translate(-130.346 -19.209)" fill="#bb334c"/>
        <path id="Trazado_658021" data-name="Trazado 658021" d="M412.058,28.6s4.136-5.129,6.066-1.489-1.985,8.548-7.114,6.066Z" transform="translate(-141.025 -8.856)" fill="#e8af8e"/>
        <path id="Trazado_658022" data-name="Trazado 658022" d="M417.979,31.812a2.625,2.625,0,0,1-1.9,1.494c-2.16.33-3.375-2.482-2.953-4.956a12.105,12.105,0,0,0-1.069,1.126l-1.048,4.577c4.372,2.115,7.86-1.138,7.6-4.4a8.1,8.1,0,0,1-.629,2.158" transform="translate(-141.024 -9.728)" fill="#cf866b"/>
        <path id="Trazado_658023" data-name="Trazado 658023" d="M417.447,32.446c0-.051.007-.1.012-.154s0-.014,0,.015l.006-.042c.005-.031.01-.062.016-.092.014-.076.031-.15.052-.224s.049-.167.08-.248c.008-.022.017-.043.026-.065s0,.006,0,.009l.017-.038c.02-.045.042-.09.065-.135a1.959,1.959,0,0,1,.369-.513,2.007,2.007,0,0,1,.706-.464.244.244,0,0,0,.165-.292.239.239,0,0,0-.292-.166,2.568,2.568,0,0,0-1.295,1.08A2.91,2.91,0,0,0,417,32.175a2.2,2.2,0,0,0-.027.271.237.237,0,0,0,.474,0" transform="translate(-143.071 -10.302)" fill="#222221"/>
        <path id="Trazado_658024" data-name="Trazado 658024" d="M417.674,32.023a.8.8,0,0,1,.087.027l.042.016c.03.011-.067-.03-.026-.011l.026.012a1.133,1.133,0,0,1,.118.064l.056.035.033.023.016.012c.03.022-.04-.033-.019-.014a1.606,1.606,0,0,1,.125.116c.02.022.039.045.058.067s-.031-.043-.015-.019a.219.219,0,0,0,.015.02l.032.047c.016.026.032.053.047.079s.017.032.024.049a.206.206,0,0,0,.011.025c-.011-.013-.018-.048,0-.011a1.4,1.4,0,0,1,.072.259.154.154,0,0,1,0,.033c0-.024,0-.039,0,0s0,.053.006.08c0,.057,0,.114,0,.171a.239.239,0,0,0,.237.237.241.241,0,0,0,.237-.237,1.579,1.579,0,0,0-.342-1.081,1.454,1.454,0,0,0-.592-.414.907.907,0,0,0-.123-.041.237.237,0,0,0-.126.458" transform="translate(-143.252 -10.828)" fill="#222221"/>
        <path id="Trazado_658025" data-name="Trazado 658025" d="M398.377,43.441l.351,7.8c.049,1.081,3.277.116,4.107.811l2.861.411s-8.746,13.678-15.19,13.737c-3.158.03-5.283-6.4-8.475-8.908l.211-5.608c1.309-.1,4.465.591,4.4-.554l-.261-4.9Z" transform="translate(-131.082 -14.905)" fill="#e8af8e"/>
        <path id="Trazado_658026" data-name="Trazado 658026" d="M400.785,46.392l-.133-2.951L388.66,46.225l.24,4.523c1.238.972,8.8,5.042,11.884-4.356" transform="translate(-133.356 -14.905)" fill="#a8624b"/>
        <path id="Trazado_658027" data-name="Trazado 658027" d="M385.469,1.03S372.95,4.5,377.143,19.163a3.609,3.609,0,0,1,.028,1.825c-.589,2.489-2.1,10.084,9.8,13.165a3.4,3.4,0,0,0,1.395.058c3.014-.49,14.041-3.222,14.445-16.976C403.281,1.3,385.469,1.03,385.469,1.03" transform="translate(-129.11 -0.353)" fill="#e8af8e"/>
        <path id="Trazado_658028" data-name="Trazado 658028" d="M399.181,27.29a1.163,1.163,0,1,0,2.239,0,1.163,1.163,0,1,0-2.239,0" transform="translate(-136.966 -8.856)" fill="#222221"/>
        <path id="Trazado_658029" data-name="Trazado 658029" d="M384.925,27.578a1.163,1.163,0,1,0,2.239,0,1.163,1.163,0,1,0-2.239,0" transform="translate(-132.074 -8.955)" fill="#222221"/>
        <path id="Trazado_658030" data-name="Trazado 658030" d="M392.632,31.962a1.4,1.4,0,0,1-.612-.477c-.143-.242.13-.506.268-.692a4.59,4.59,0,0,0,.579-.974,3.805,3.805,0,0,0,.259-1.59c-.011-.311-.494-.312-.483,0a3.272,3.272,0,0,1-.31,1.6,7.772,7.772,0,0,1-.61.92.842.842,0,0,0-.077,1.04,1.9,1.9,0,0,0,.743.587c.28.131.525-.285.244-.417" transform="translate(-134.33 -9.606)" fill="#222221"/>
        <path id="Trazado_658031" data-name="Trazado 658031" d="M398.924,34.987c0,1.224,1.346,2.217,3.007,2.217s3.007-.993,3.007-2.217-1.347-2.217-3.007-2.217-3.007.993-3.007,2.217" transform="translate(-136.878 -11.244)" fill="#d46a55"/>
        <path id="Trazado_658032" data-name="Trazado 658032" d="M379.424,35.13c0,1.224,1.347,2.217,3.007,2.217s3.007-.993,3.007-2.217-1.346-2.217-3.007-2.217-3.007.993-3.007,2.217" transform="translate(-130.187 -11.293)" fill="#d46a55"/>
        <path id="Trazado_658033" data-name="Trazado 658033" d="M395.335,37.516a4.022,4.022,0,0,1-3.057,1.952,4.982,4.982,0,0,1-3.636-1.213c-.353-.315-.876.2-.521.52a5.711,5.711,0,0,0,4.244,1.421,4.808,4.808,0,0,0,3.606-2.309c.263-.4-.374-.766-.636-.372" transform="translate(-133.131 -12.815)" fill="#222221"/>
        <path id="Trazado_658034" data-name="Trazado 658034" d="M397.925,20.4c-.084.7.811.415,2.134.573s2.572.7,2.656,0-.919-1.405-2.242-1.563-2.463.285-2.548.99" transform="translate(-136.533 -6.65)" fill="#222221"/>
        <path id="Trazado_658035" data-name="Trazado 658035" d="M386.066,21.149c.085.7-.811.415-2.134.573s-2.572.7-2.656,0,.92-1.405,2.242-1.563,2.463.285,2.548.99" transform="translate(-130.821 -6.906)" fill="#222221"/>
        <path id="Trazado_658036" data-name="Trazado 658036" d="M391.52,46.187c0,.317.5.573,1.121.573s1.12-.256,1.12-.573-.5-.174-1.12-.174-1.121-.143-1.121.174" transform="translate(-134.337 -15.777)" fill="#cf866b"/>
        <path id="Trazado_658037" data-name="Trazado 658037" d="M414.83,37.939c-9.2,12.794-26.9,11.853-26.9,11.853A9.062,9.062,0,0,1,384.2,56a11.014,11.014,0,0,1-12.852.061,9.013,9.013,0,0,1-3.874-6.268S354.3,52.341,345.107,39.548l-6.115,3.463s6.337,31.957,39.575,24.568l-.01-.209c32.917,7.046,41.926-25.292,41.926-25.292Z" transform="translate(-116.314 -13.018)" fill="#dd4d61"/>
        <path id="Trazado_658038" data-name="Trazado 658038" d="M406.629,72.441l9.18,46.255s-14.288,14.255-50.842-.255l4.658-45.247s21.171,2.116,37-.753" transform="translate(-125.227 -24.856)" fill="#dd4d61"/>
        <path id="Trazado_658039" data-name="Trazado 658039" d="M405.4,338.925h27.31c1.714-14.844,2.112-40.106-2.811-55.132H397.513v35.5h6.261Z" transform="translate(-136.394 -97.374)" fill="#211e1d"/>
        <path id="Trazado_658040" data-name="Trazado 658040" d="M386.126,338.925l1.627-19.628h6.261v-35.5H361.626c-4.923,15.026-4.525,40.288-2.811,55.132Z" transform="translate(-122.715 -97.374)" fill="#211e1d"/>
        <path id="Trazado_658041" data-name="Trazado 658041" d="M348.6,99.573a3.4,3.4,0,1,0,3.4-3.4,3.4,3.4,0,0,0-3.4,3.4" transform="translate(-119.61 -32.999)" fill="#271e6d"/>
        <path id="Trazado_658042" data-name="Trazado 658042" d="M352.125,129.088a3.4,3.4,0,1,0,3.4-3.4,3.4,3.4,0,0,0-3.4,3.4" transform="translate(-120.82 -43.126)" fill="#271e6d"/>
        <path id="Trazado_658043" data-name="Trazado 658043" d="M419.927,112.874s7.376-9.146,10.818-2.655-3.541,15.244-12.687,10.818Z" transform="translate(-143.443 -37.02)" fill="#e9a585"/>
        <path id="Trazado_658044" data-name="Trazado 658044" d="M430.487,118.593a4.683,4.683,0,0,1-3.387,2.666c-3.853.589-6.018-4.427-5.266-8.838a21.666,21.666,0,0,0-1.908,2.007l-1.869,8.162c7.8,3.772,14.015-2.03,13.551-7.846a14.455,14.455,0,0,1-1.121,3.848" transform="translate(-143.443 -38.574)" fill="#cf866b"/>
        <path id="Trazado_658045" data-name="Trazado 658045" d="M429.538,119.725c0-.091.012-.183.022-.274.007-.068,0-.026,0,.026,0-.025.007-.049.011-.074.009-.055.018-.11.028-.165q.037-.2.092-.4.061-.224.143-.441c.014-.039.03-.078.045-.116s-.005.012-.007.017l.03-.068c.037-.081.075-.161.116-.24a3.486,3.486,0,0,1,.658-.915,3.583,3.583,0,0,1,1.26-.828.436.436,0,0,0,.3-.52.427.427,0,0,0-.521-.3,4.583,4.583,0,0,0-2.308,1.925,5.164,5.164,0,0,0-.658,1.887,3.958,3.958,0,0,0-.049.483.423.423,0,0,0,.846,0" transform="translate(-147.092 -39.599)" fill="#222221"/>
        <path id="Trazado_658046" data-name="Trazado 658046" d="M429.944,118.97a1.263,1.263,0,0,1,.156.049l.075.029c.054.02-.12-.053-.045-.019l.047.022a2.164,2.164,0,0,1,.211.113c.034.02.066.041.1.064l.058.041.029.021c.053.038-.072-.058-.034-.026a2.917,2.917,0,0,1,.224.208c.036.039.069.08.1.12s-.055-.077-.026-.034c.008.012.018.024.026.036.02.028.038.056.057.085q.044.069.083.142.023.042.043.087a.222.222,0,0,0,.021.045c-.02-.024-.034-.085-.009-.019a2.549,2.549,0,0,1,.127.463.269.269,0,0,1,.009.059c.006-.045-.008-.071,0-.007,0,.047.009.095.011.143.006.1.005.2,0,.3a.427.427,0,0,0,.423.424.432.432,0,0,0,.423-.424,2.816,2.816,0,0,0-.61-1.928,2.6,2.6,0,0,0-1.056-.74,1.514,1.514,0,0,0-.22-.073.423.423,0,1,0-.225.816" transform="translate(-147.416 -40.537)" fill="#222221"/>
        <path id="Trazado_658047" data-name="Trazado 658047" d="M376.949,112.874s-7.376-9.146-10.818-2.655,3.54,15.244,12.686,10.818Z" transform="translate(-125.319 -37.02)" fill="#e9a585"/>
        <path id="Trazado_658048" data-name="Trazado 658048" d="M366.392,118.593a4.683,4.683,0,0,0,3.388,2.666c3.853.589,6.018-4.427,5.266-8.838a21.715,21.715,0,0,1,1.907,2.007l1.869,8.162c-7.8,3.772-14.015-2.03-13.55-7.846a14.431,14.431,0,0,0,1.121,3.848" transform="translate(-125.322 -38.574)" fill="#cf866b"/>
        <path id="Trazado_658049" data-name="Trazado 658049" d="M373.423,119.725a4.9,4.9,0,0,0-1.446-3.313,4.7,4.7,0,0,0-1.569-.981.427.427,0,0,0-.521.3.433.433,0,0,0,.3.52,3.653,3.653,0,0,1,1.128.7,3.374,3.374,0,0,1,.715.9c.041.074.081.148.118.224q.03.06.057.12c.012.026.062.145.031.068.061.148.114.3.161.453.074.248.114.5.164.75-.024-.124,0-.01,0,.053,0,.036.007.073.01.11s0,.064,0,.1a.423.423,0,0,0,.846,0" transform="translate(-126.91 -39.599)" fill="#222221"/>
        <path id="Trazado_658050" data-name="Trazado 658050" d="M372.536,118.153a2.243,2.243,0,0,0-.673.3,2.567,2.567,0,0,0-1.031,1.245,2.963,2.963,0,0,0-.182,1.2.423.423,0,1,0,.846,0c0-.085,0-.171,0-.256,0-.043,0-.086.007-.129,0-.015,0-.031,0-.047,0-.041-.011-.1,0-.009a.712.712,0,0,1,.037-.2c.018-.076.039-.15.064-.223.009-.029.02-.058.031-.086.041-.106-.024.047.006-.016s.057-.116.089-.171.059-.1.092-.146c.009-.012.076-.1.026-.037s.021-.025.034-.041a2.083,2.083,0,0,1,.222-.221l.051-.043c.041-.036-.09.066-.013.01.038-.027.076-.055.116-.079a2.219,2.219,0,0,1,.217-.124l.085-.041.023-.011c.049-.024-.078.032-.068.029l.047-.019a1.446,1.446,0,0,1,.194-.063.426.426,0,0,0,.3-.52.432.432,0,0,0-.52-.3" transform="translate(-127.176 -40.536)" fill="#222221"/>
        <path id="Trazado_658051" data-name="Trazado 658051" d="M402.757,144.25v6.388a7.453,7.453,0,0,0,3.54,6.344l7.819,4.823s.295,23.972-21.169,23.972-21.39-23.824-21.39-23.824l7.278-4.937a7.452,7.452,0,0,0,3.269-6.168v-7.261Z" transform="translate(-127.488 -49.267)" fill="#e9a585"/>
        <path id="Trazado_658052" data-name="Trazado 658052" d="M408.266,148.8V144.25l-20.652-.663v6.263c3.232,8.267,17.177,7.741,20.652-1.055" transform="translate(-132.997 -49.267)" fill="#a8624b"/>
        <path id="Trazado_658053" data-name="Trazado 658053" d="M375.935,85.715s-1.956,28.591,3.246,34.913c6.392,7.77,23.6,6,28.126,0,3.1-4.109,4.426-21.439.984-34.913,0,0-14.752-15.342-32.356,0" transform="translate(-128.866 -27.071)" fill="#e9a585"/>
        <path id="Trazado_658054" data-name="Trazado 658054" d="M409.2,111.329a1.644,1.644,0,1,0,1.582-2.091,1.89,1.89,0,0,0-1.582,2.091" transform="translate(-140.405 -37.481)" fill="#222221"/>
        <path id="Trazado_658055" data-name="Trazado 658055" d="M388.372,111.329a1.644,1.644,0,1,0,1.582-2.091,1.89,1.89,0,0,0-1.582,2.091" transform="translate(-133.257 -37.481)" fill="#222221"/>
        <path id="Trazado_658056" data-name="Trazado 658056" d="M397.78,118.2a2.647,2.647,0,0,1-1.162-.906c-.272-.459.247-.96.51-1.314a8.765,8.765,0,0,0,1.1-1.85,7.251,7.251,0,0,0,.492-3.02c-.02-.589-.939-.592-.918,0a6.217,6.217,0,0,1-.589,3.046,14.849,14.849,0,0,1-1.159,1.747,1.6,1.6,0,0,0-.148,1.976,3.642,3.642,0,0,0,1.41,1.115c.532.25,1-.542.464-.793" transform="translate(-135.746 -37.972)" fill="#222221"/>
        <path id="Trazado_658057" data-name="Trazado 658057" d="M410.692,123.325c0,1.731,1.9,3.133,4.25,3.133s4.25-1.4,4.25-3.133-1.9-3.134-4.25-3.134-4.25,1.4-4.25,3.134" transform="translate(-140.916 -41.24)" fill="#d46a55"/>
        <path id="Trazado_658058" data-name="Trazado 658058" d="M379.594,123.325c0,1.731,1.9,3.133,4.25,3.133s4.25-1.4,4.25-3.133-1.9-3.134-4.25-3.134-4.25,1.4-4.25,3.134" transform="translate(-130.245 -41.24)" fill="#d46a55"/>
        <path id="Trazado_658059" data-name="Trazado 658059" d="M407.9,100.421c-.12,1,1.146.587,3.015.81s3.637,1,3.755,0-1.3-1.986-3.169-2.21-3.482.4-3.6,1.4" transform="translate(-139.954 -33.961)" fill="#222221"/>
        <path id="Trazado_658060" data-name="Trazado 658060" d="M390.6,100.973c.12,1-1.146.587-3.016.81s-3.636,1-3.755,0,1.3-1.986,3.17-2.21,3.481.4,3.6,1.4" transform="translate(-131.696 -34.15)" fill="#222221"/>
        <path id="Trazado_658061" data-name="Trazado 658061" d="M400.7,141.472c0,.447.709.809,1.584.809s1.584-.362,1.584-.809-.709-.246-1.584-.246-1.584-.2-1.584.246" transform="translate(-137.486 -48.441)" fill="#cf866b"/>
        <path id="Trazado_658062" data-name="Trazado 658062" d="M397.806,130.184a1.482,1.482,0,0,0,2.129-.167c.873-1.065,2.2-2.168,3.445-1.171,1.989,1.592-.725,5.613-4.513,5.847s-5.76-3.958-4.771-5.1c1.1-1.261,2.648-.369,3.71.59" transform="translate(-135.134 -44.075)" fill="#fff"/>
        <path id="Trazado_658063" data-name="Trazado 658063" d="M408.6,94.653s-2.472,6.013-4.165,4.7-.518-11.9-.518-11.9.235,3.5-1.881,2.855-4.3-9.7-4.3-9.7-14.436-4.121-19.01-.257c-5.238,4.426-1.088,19.322-5.614,20.246-1.955.4-1.171-5.105-1.171-5.105s-8.3-6.157-6.79-14.859S381.2,73.15,383.506,73.1c0,0-1.176-2.634,1.222-3.669s20.748.705,23.874,8.09,0,17.129,0,17.129" transform="translate(-125.227 -23.73)" fill="#7a5fa0"/>
        <path id="Trazado_658064" data-name="Trazado 658064" d="M402.754,154.71s26.987-29.667,30.938-47.135-9.511-44.585-9.511-44.585L411.2,67.043l4.083,29.832a10.5,10.5,0,0,1-3.043,8.911L386.261,131.31s-2.943,10.953-17.154,10.992c-14.212-.039-17.154-10.992-17.154-10.992l-25.978-25.523a10.5,10.5,0,0,1-3.043-8.911l4.083-29.832-12.982-4.054s-13.462,27.117-9.511,44.585,29.735,35.508,29.735,35.508l3.2,48.786s2.728,16.275-2,18.847-3.271,4.765-3.271,4.765c11.752,11.57,35.434,11.494,36.919,11.478,1.485.016,25.166.092,36.918-11.478,0,0,1.454-2.192-3.271-4.765s-2-18.847-2-18.847Z" transform="translate(-104.237 -21.613)" fill="#1d3345"/>
        <path id="Trazado_658065" data-name="Trazado 658065" d="M364.719,242.408a32.963,32.963,0,0,1-13.65-8.931l1.108,16.889s2.728,16.274-2,18.847-3.271,4.764-3.271,4.764c11.752,11.57,35.434,11.495,36.918,11.478,1.485.016,25.167.092,36.919-11.478,0,0,1.454-2.192-3.271-4.764s-2-18.847-2-18.847l.562-10.455c-15.2,9.039-35.69,8.426-51.32,2.5" transform="translate(-118.958 -80.11)" fill="#15222c"/>
        <path id="Trazado_658066" data-name="Trazado 658066" d="M331.16,176.438l.1.031-4.32-2.93a7.353,7.353,0,0,1-3.225-6.084v-7.163l-20.373.655v6.3a7.352,7.352,0,0,1-3.492,6.257l-4.791,2.955c.557.476,16.425,13.753,36.1-.022" transform="translate(-101.24 -54.999)" fill="#e9a585"/>
        <path id="Trazado_658067" data-name="Trazado 658067" d="M307.667,165.43v-4.483l20.373-.655v6.179c-3.189,8.155-16.946,7.636-20.373-1.041" transform="translate(-105.566 -54.999)" fill="#a8624b"/>
        <path id="Trazado_658068" data-name="Trazado 658068" d="M302.037,87.791a9.831,9.831,0,1,0,9.831-9.831,9.83,9.83,0,0,0-9.831,9.831" transform="translate(-103.634 -26.749)" fill="#271e6d"/>
        <path id="Trazado_658069" data-name="Trazado 658069" d="M325.158,83.488a3.4,3.4,0,1,0,3.4-3.4,3.4,3.4,0,0,0-3.4,3.4" transform="translate(-111.567 -27.48)" fill="#271e6d"/>
        <path id="Trazado_658070" data-name="Trazado 658070" d="M296.864,88.107a3.4,3.4,0,1,0,3.4-3.4,3.4,3.4,0,0,0-3.4,3.4" transform="translate(-101.859 -29.065)" fill="#271e6d"/>
        <path id="Trazado_658071" data-name="Trazado 658071" d="M280.052,110.972a3.4,3.4,0,1,0,3.4-3.4,3.4,3.4,0,0,0-3.4,3.4" transform="translate(-96.091 -36.91)" fill="#271e6d"/>
        <path id="Trazado_658072" data-name="Trazado 658072" d="M278.548,138.1a3.4,3.4,0,1,0,3.4-3.4,3.4,3.4,0,0,0-3.4,3.4" transform="translate(-95.575 -46.217)" fill="#271e6d"/>
        <path id="Trazado_658073" data-name="Trazado 658073" d="M326.081,90.655a9.831,9.831,0,1,0,9.831-9.831,9.83,9.83,0,0,0-9.831,9.831" transform="translate(-111.884 -27.732)" fill="#271e6d"/>
        <path id="Trazado_658074" data-name="Trazado 658074" d="M281.772,98.1a9.831,9.831,0,1,0,9.83-9.831,9.83,9.83,0,0,0-9.83,9.831" transform="translate(-96.681 -30.287)" fill="#271e6d"/>
        <path id="Trazado_658075" data-name="Trazado 658075" d="M272.815,121.918a9.831,9.831,0,1,0,9.831-9.83,9.83,9.83,0,0,0-9.831,9.83" transform="translate(-93.608 -38.459)" fill="#271e6d"/>
        <path id="Trazado_658076" data-name="Trazado 658076" d="M280.052,143.041a9.831,9.831,0,1,0,9.83-9.83,9.83,9.83,0,0,0-9.83,9.83" transform="translate(-96.091 -45.707)" fill="#271e6d"/>
        <path id="Trazado_658077" data-name="Trazado 658077" d="M337.16,110.469a9.831,9.831,0,1,0,9.831-9.83,9.83,9.83,0,0,0-9.831,9.83" transform="translate(-115.686 -34.531)" fill="#271e6d"/>
        <path id="Trazado_658078" data-name="Trazado 658078" d="M330.593,132.139a9.831,9.831,0,1,0,9.83-9.83,9.83,9.83,0,0,0-9.83,9.83" transform="translate(-113.432 -41.966)" fill="#271e6d"/>
        <path id="Trazado_658079" data-name="Trazado 658079" d="M300.412,132.744s-8.721-7.873-11.1-.922,5.892,14.5,14.229,8.69Z" transform="translate(-99.125 -44.246)" fill="#e9a585"/>
        <path id="Trazado_658080" data-name="Trazado 658080" d="M290.652,139.617a4.684,4.684,0,0,0,3.765,2.1c3.9-.024,5.248-5.318,3.811-9.555a21.738,21.738,0,0,1,2.2,1.682l3.128,7.768c-7.107,4.95-14.16.2-14.615-5.62a14.467,14.467,0,0,0,1.712,3.624" transform="translate(-99.14 -45.347)" fill="#cf866b"/>
        <path id="Trazado_658081" data-name="Trazado 658081" d="M297.594,140.355a4.546,4.546,0,0,0-.381-1.1,4.82,4.82,0,0,0-1.566-1.9,4.459,4.459,0,0,0-1.63-.706.432.432,0,0,0-.52.3.428.428,0,0,0,.3.52,3.589,3.589,0,0,1,1.3.531c.044.029.088.059.131.089l.064.046c.054.039-.046-.037.006,0q.126.1.244.209a4.129,4.129,0,0,1,.413.445l.043.053c-.009-.012-.049-.068,0,0l.078.108q.078.112.15.229c.085.139.164.283.235.43.031.064.06.13.089.2s-.035-.089.006.015l.039.1c.04.105.076.212.109.32a3,3,0,0,1,.087.346.426.426,0,0,0,.52.3.432.432,0,0,0,.3-.52" transform="translate(-100.699 -46.882)" fill="#222221"/>
        <path id="Trazado_658082" data-name="Trazado 658082" d="M296.705,138.825a2.524,2.524,0,0,0-1.5,1.768,3.22,3.22,0,0,0,.01,1.3.426.426,0,0,0,.521.295.434.434,0,0,0,.3-.52c-.009-.045-.018-.09-.025-.135,0-.018-.006-.037-.009-.056,0,.007.007.069,0,.02-.006-.088-.016-.175-.017-.265,0-.071,0-.143.006-.213,0-.032.007-.063.009-.094,0-.06-.014.079,0,.021,0-.019.006-.039.01-.058a2.074,2.074,0,0,1,.1-.366.208.208,0,0,0,.019-.049s-.037.081-.017.041.025-.054.038-.081c.026-.051.053-.1.083-.15s.055-.086.084-.127.071-.051,0,0a.4.4,0,0,0,.049-.06,2.176,2.176,0,0,1,.2-.2c.03-.027.061-.053.092-.078.053-.044,0,.009-.031.023a.507.507,0,0,0,.053-.039c.054-.039.11-.075.167-.108s.086-.049.13-.07c.085-.041.014-.007-.043.016a.433.433,0,0,0,.3-.52.427.427,0,0,0-.52-.3" transform="translate(-101.27 -47.626)" fill="#222221"/>
        <path id="Trazado_658083" data-name="Trazado 658083" d="M329.716,99.494s6.424,27.929,2.281,34.989c-5.092,8.677-22.367,9.634-27.778,4.42-3.706-3.571-7.739-20.478-6.457-34.325,0,0,12.158-17.469,31.954-5.084" transform="translate(-102.084 -32.615)" fill="#e9a585"/>
        <path id="Trazado_658084" data-name="Trazado 658084" d="M317.732,131.066a1.891,1.891,0,0,1-1.234,2.314c-.862.137-1.709-.676-1.891-1.816a1.89,1.89,0,0,1,1.234-2.314c.863-.137,1.71.676,1.891,1.816" transform="translate(-107.935 -44.343)" fill="#222221"/>
        <path id="Trazado_658085" data-name="Trazado 658085" d="M339.344,127.9a1.891,1.891,0,0,1-1.234,2.314c-.862.137-1.709-.676-1.891-1.816a1.89,1.89,0,0,1,1.234-2.314c.863-.137,1.71.676,1.891,1.816" transform="translate(-115.351 -43.256)" fill="#222221"/>
        <path id="Trazado_658086" data-name="Trazado 658086" d="M329.535,136.861a4.177,4.177,0,0,0,1.448-1.547,1.852,1.852,0,0,0-.553-2.225,15.533,15.533,0,0,1-1.542-1.665,7.045,7.045,0,0,1-1.226-3.267.538.538,0,0,0-.521-.52.523.523,0,0,0-.52.52,8.418,8.418,0,0,0,1.064,3.33,9.572,9.572,0,0,0,1.542,1.874c.355.349,1.028.8.89,1.324a2.808,2.808,0,0,1-1.108,1.276c-.552.374-.031,1.276.526.9" transform="translate(-112.068 -43.794)" fill="#222221"/>
        <path id="Trazado_658087" data-name="Trazado 658087" d="M315.117,141.181c.272,1.709-1.387,3.393-3.7,3.763s-4.418-.718-4.69-2.427,1.387-3.393,3.7-3.763,4.418.718,4.689,2.427" transform="translate(-105.232 -47.584)" fill="#d46a55"/>
        <path id="Trazado_658088" data-name="Trazado 658088" d="M347.038,137c.272,1.709-1.387,3.393-3.7,3.763s-4.417-.718-4.689-2.427,1.387-3.393,3.7-3.763,4.418.718,4.689,2.427" transform="translate(-116.185 -46.151)" fill="#d46a55"/>
        <path id="Trazado_658089" data-name="Trazado 658089" d="M315.446,144.6a8.9,8.9,0,0,0,3.29,4.919c2.662,1.873,6.522,1.184,8.9-.815.513-.431-.226-1.164-.736-.736-2.109,1.772-5.61,2.285-7.862.485a8.014,8.014,0,0,1-2.589-4.13.521.521,0,0,0-1,.277" transform="translate(-108.228 -49.395)" fill="#222221"/>
        <path id="Trazado_658090" data-name="Trazado 658090" d="M315.135,121.053c.275.966-1.039.759-2.851,1.274s-3.434,1.556-3.709.591.972-2.166,2.783-2.68,3.5-.15,3.776.816" transform="translate(-105.865 -41.175)" fill="#222221"/>
        <path id="Trazado_658091" data-name="Trazado 658091" d="M332.258,118.964c.039,1,1.224.4,3.105.326s3.748.413,3.709-.59-1.6-1.757-3.477-1.684-3.376.945-3.337,1.948" transform="translate(-114.003 -40.149)" fill="#222221"/>
        <path id="Trazado_658092" data-name="Trazado 658092" d="M328.568,157.535c.041.445-.633.87-1.5.95s-1.611-.217-1.651-.663.685-.309,1.556-.389,1.559-.344,1.6.1" transform="translate(-111.654 -53.967)" fill="#cf866b"/>
        <path id="Trazado_658093" data-name="Trazado 658093" d="M296.072,117s.709,2.486,2.614,1.569-.368-7.633-.368-7.633,8.9,1.142,6.365-6.125a6.915,6.915,0,0,0,6.138,1.8c3.634-.811,4.021-6.385,4.021-6.385s.741,2.222,2.434,2.363,3.81-2.716,3.81-2.716,3.326,10.535,10.059,11.212l-.357-13.893s-22.436-10.724-35.771,4.728Z" transform="translate(-101.226 -32.103)" fill="#271e6d"/>
        <path id="Trazado_658094" data-name="Trazado 658094" d="M290.2,221.308l12.7,22.718s31.044-3.245,38.805-1.693L343.4,250.8s-38.9,15.8-45.625,14.111S274.4,235.983,274.4,235.983s4.8-12.982,15.8-14.675" transform="translate(-94.15 -75.935)" fill="#e9a585"/>
        <path id="Trazado_658095" data-name="Trazado 658095" d="M368.356,250.226a5.252,5.252,0,0,1,.959-6.551c3.185-2.9,2.97-7.548,5.021-8.168,1.695-.512,2.023,2.456,1.353,4.607-.49,1.575-1.949,3.078-1.513,3.114a10.039,10.039,0,0,0,4.368-1.119c1.417-.975,8.131-6.395,8.405-6.682,2.054-2.147,2.949-.947,2.949-.947,1.62,1.53-2.678,5.333-3.861,6.407-1.784,1.621-4.943,4.088-4.943,4.088l.169.325s12.153-4.454,12.786-4.678a1.335,1.335,0,0,1,1.781.541c.2.475.125,1.3-1.121,2.1-1.881,1.206-8.7,5.091-11.693,6.021,0,0,7.119-1.861,10.026-1.768.964.03,2.518.051,2.581,1.158.071,1.263-2.112,1.69-2.442,1.782a64.985,64.985,0,0,1-10.069,1.94l-.121.445s6.706-.432,8.47.309c.171.072,1.029.4.885,1.2-.226,1.253-1.435.924-1.686.868-1.246-.275-9.817.983-10.626,1.193-1.9.492-5.517,1.1-8.287-.365a5.9,5.9,0,0,1-3.39-5.823" transform="translate(-126.13 -80.34)" fill="#e9a585"/>
        <path id="Trazado_658096" data-name="Trazado 658096" d="M269.78,225.566s-10.63-19.708-4.421-30.762c5.021-8.938,14.794-8.654,14.794-8.654l10.324,24.633a185.406,185.406,0,0,0-20.7,14.783" transform="translate(-90.381 -63.871)" fill="#487fd2"/>
        <path id="Trazado_658097" data-name="Trazado 658097" d="M419.054,142.538a24.14,24.14,0,0,0,4.67-5.926c2.426-4.5,4.4-10.069,8.256-7.91,11.993,6.707,8.551,37.876.649,49.022L424.5,174.9s3.16-17.532,1.346-18.485-6.788-6.455-6.788-13.879" transform="translate(-143.785 -43.996)" fill="#dd4d61"/>
        <path id="Trazado_658098" data-name="Trazado 658098" d="M376.819,142.157a16.949,16.949,0,0,1-6.168-4.732c-2.326-2.929-3.566-7.832-6.115-6.656-12.475,5.759-9.358,36.622-1.456,47.768l8.134-2.823s-3.16-17.532-1.346-18.485,6.951-7.649,6.951-15.073" transform="translate(-122.203 -44.808)" fill="#dd4d61"/>
        <path id="Trazado_658099" data-name="Trazado 658099" d="M403.253,11.993s.868,7.62-1.672,7.338-4.372-11.387-7.243-14.3c0,0-.706,3.9,1.082,5.268l-4.939.518a6.432,6.432,0,0,1-2.633-5.786s-2.154.565-1.1,6.115L375.287,12.51S376.27-.451,387.326.973s15.926,11.02,15.926,11.02" transform="translate(-128.768 -0.296)" fill="#271e6d"/>
        <path id="Trazado_658100" data-name="Trazado 658100" d="M454.444,34.325l5.652-6.919,2.982,1.039L460.1,38.464s-3-.462-5.652-4.139" transform="translate(-155.928 -9.403)" fill="#e8af8e"/>
        <path id="Trazado_658101" data-name="Trazado 658101" d="M463.171,26.519c.782,2.339,1.336,4.676.083,5.095s-1.955-1.455-2.737-3.794-1.348-4.257-.094-4.676,1.966,1.036,2.748,3.375" transform="translate(-157.727 -7.916)" fill="#e9a585"/>
        <path id="Trazado_658102" data-name="Trazado 658102" d="M466.685,24.761c.782,2.339,1.336,4.676.083,5.095s-1.955-1.455-2.737-3.793-1.348-4.257-.094-4.676,1.966,1.037,2.748,3.375" transform="translate(-158.933 -7.313)" fill="#e9a585"/>
        <path id="Trazado_658103" data-name="Trazado 658103" d="M470.813,24.229c.692,2.072,1.161,4.151-.093,4.57s-1.883-1.239-2.575-3.311-1.187-3.775.066-4.194,1.909.863,2.6,2.936" transform="translate(-160.387 -7.279)" fill="#e9a585"/>
        <path id="Trazado_658104" data-name="Trazado 658104" d="M475.145,26.488c.32,2.162.418,4.29-.889,4.483s-1.637-1.548-1.957-3.71-.51-3.924.8-4.118,1.729,1.183,2.049,3.345" transform="translate(-161.974 -7.935)" fill="#e9a585"/>
        <path id="Trazado_658105" data-name="Trazado 658105" d="M463.62,41.528s4.338-2.927-3.409-8.246c-2.132-1.465.264-6.135-1.609-5.562s-3.19,9.667,5.018,13.808" transform="translate(-156.871 -9.495)" fill="#e9a585"/>
        <path id="Trazado_658106" data-name="Trazado 658106" d="M462.873,24.217c.384.711.729,1.446,1.049,2.187a11.176,11.176,0,0,1,1.121,3.859c.017.486-.043,1.047-.544,1.263-.28.121-.039.529.239.41,1.116-.481.792-2.121.566-3.028a20.812,20.812,0,0,0-1.554-4.008c-.15-.31-.3-.619-.468-.922-.146-.269-.555-.029-.41.24" transform="translate(-158.809 -8.187)" fill="#222221"/>
        <path id="Trazado_658107" data-name="Trazado 658107" d="M467.112,23.768a18.307,18.307,0,0,1,.824,1.783,9.251,9.251,0,0,1,.838,3.308,1.587,1.587,0,0,1-.493,1.338c-.244.179-.007.591.24.41.908-.665.789-1.95.588-2.926a15.415,15.415,0,0,0-1.211-3.392c-.12-.256-.243-.511-.376-.761-.145-.269-.555-.03-.41.24" transform="translate(-160.264 -8.033)" fill="#222221"/>
        <path id="Trazado_658108" data-name="Trazado 658108" d="M471.819,24.617c.192.483.356.981.5,1.48a7.743,7.743,0,0,1,.43,2.6.933.933,0,0,1-.393.838c-.273.137-.033.547.24.41.737-.37.674-1.437.588-2.12A13.61,13.61,0,0,0,472.5,25.1c-.071-.2-.144-.41-.224-.612-.112-.28-.571-.158-.458.126" transform="translate(-161.883 -8.349)" fill="#222221"/>
        <path id="Trazado_658109" data-name="Trazado 658109" d="M474.384,30.13a1.436,1.436,0,0,0,1.653-.368,2.6,2.6,0,0,0,.2-1.94c-.136-.849-.286-1.7-.476-2.535-.067-.3-.133-.6-.227-.888s-.552-.166-.457.126a18.49,18.49,0,0,1,.535,2.428c.124.694.727,2.737-.513,2.806a1.361,1.361,0,0,1-.586-.087c-.287-.105-.411.353-.126.458" transform="translate(-162.714 -8.315)" fill="#222221"/>
        <path id="Trazado_658110" data-name="Trazado 658110" d="M457.959,28.871a1.95,1.95,0,0,1,.517-.931c.162-.145.557-.343.755-.144.1.1.061.345.053.469a10.659,10.659,0,0,0-.2,3.367c.367,1.536,1.92,2.342,3.153,3.125,1.363.865,2.992,1.737,3.6,3.334.106.283.566.16.457-.126a6.072,6.072,0,0,0-2.51-2.781c-.666-.449-1.357-.861-2.027-1.305a6.112,6.112,0,0,1-1.881-1.575c-.665-1.039-.382-2.318-.192-3.451.1-.587.259-1.456-.535-1.582-.871-.138-1.444.737-1.642,1.473a.238.238,0,0,0,.458.126" transform="translate(-156.974 -9.353)" fill="#222221"/>
        <path id="Trazado_658111" data-name="Trazado 658111" d="M332.149,52.7l2.574-10.283c6.305-12.047-7.951-16.117-10.293-10.457-2.83,6.838.053,8.643.053,8.643l-3.407,9.692Z" transform="translate(-110.167 -10.102)" fill="#e9a585"/>
        <path id="Trazado_658112" data-name="Trazado 658112" d="M343.513,37.079l-6.3-6.335-2.866,1.324,3.944,9.681s2.936-.752,5.221-4.67" transform="translate(-114.721 -10.549)" fill="#e8af8e"/>
        <path id="Trazado_658113" data-name="Trazado 658113" d="M336.613,29.928c-.55,2.4-.874,4.783.414,5.078s1.8-1.638,2.353-4.042.928-4.369-.361-4.663-1.856,1.222-2.406,3.627" transform="translate(-115.332 -9.012)" fill="#e9a585"/>
        <path id="Trazado_658114" data-name="Trazado 658114" d="M332.946,28.521c-.55,2.4-.874,4.783.414,5.078s1.8-1.638,2.353-4.042.928-4.369-.361-4.663-1.856,1.222-2.406,3.627" transform="translate(-114.074 -8.529)" fill="#e9a585"/>
        <path id="Trazado_658115" data-name="Trazado 658115" d="M328.863,28.4c-.487,2.13-.751,4.244.538,4.539s1.753-1.416,2.24-3.547.813-3.872-.476-4.167-1.815,1.044-2.3,3.175" transform="translate(-112.701 -8.641)" fill="#e9a585"/>
        <path id="Trazado_658116" data-name="Trazado 658116" d="M325.136,31.071c-.108,2.183,0,4.31,1.322,4.375s1.478-1.7,1.586-3.883.124-3.955-1.2-4.02-1.6,1.345-1.712,3.528" transform="translate(-111.549 -9.45)" fill="#e9a585"/>
        <path id="Trazado_658117" data-name="Trazado 658117" d="M336.124,44.938s-4.6-2.49,2.589-8.539c1.979-1.665-.861-6.079,1.06-5.692s4.117,9.31-3.648,14.231" transform="translate(-114.832 -10.528)" fill="#e9a585"/>
        <path id="Trazado_658118" data-name="Trazado 658118" d="M337.054,27.411a27.413,27.413,0,0,0-.934,2.61A9.623,9.623,0,0,0,335.5,34.2a1.454,1.454,0,0,0,.934,1.249c.292.093.416-.365.126-.458-.995-.319-.617-2.145-.482-2.863a22.832,22.832,0,0,1,1.108-3.755c.105-.281.213-.561.329-.838s-.341-.4-.458-.126" transform="translate(-115.094 -9.352)" fill="#222221"/>
        <path id="Trazado_658119" data-name="Trazado 658119" d="M333,27.377a18.846,18.846,0,0,0-.727,2.128,8.43,8.43,0,0,0-.416,3.627,1.87,1.87,0,0,0,.831,1.341.238.238,0,0,0,.24-.41c-.862-.51-.7-1.9-.574-2.733a16.545,16.545,0,0,1,.84-3.134c.083-.233.169-.464.265-.692.117-.282-.342-.4-.458-.126" transform="translate(-113.844 -9.34)" fill="#222221"/>
        <path id="Trazado_658120" data-name="Trazado 658120" d="M328.7,28.727a16.906,16.906,0,0,0-.392,1.717,6.927,6.927,0,0,0-.1,2.849,1.252,1.252,0,0,0,.73.929c.285.11.409-.349.126-.458-.257-.1-.357-.413-.413-.656a4.37,4.37,0,0,1-.056-1.231,14.226,14.226,0,0,1,.415-2.48c.044-.182.09-.364.143-.544a.238.238,0,0,0-.458-.126" transform="translate(-112.574 -9.799)" fill="#222221"/>
        <path id="Trazado_658121" data-name="Trazado 658121" d="M326.61,34.183c-.01.005-.054.024-.013.007s-.067.025-.092.034a1.887,1.887,0,0,1-.329.08.745.745,0,0,1-.757-.3,3.594,3.594,0,0,1-.155-2.137c.05-.681.11-1.362.2-2.039.032-.234.062-.47.113-.7.065-.3-.392-.425-.457-.126a21.057,21.057,0,0,0-.34,3,3.661,3.661,0,0,0,.24,2.256,1.182,1.182,0,0,0,1.041.529,1.948,1.948,0,0,0,.789-.192c.275-.133.034-.542-.24-.41" transform="translate(-111.417 -9.891)" fill="#222221"/>
        <path id="Trazado_658122" data-name="Trazado 658122" d="M340.339,31.628c-.226-.6-.7-1.294-1.391-1.36-.864-.082-1.021.583-.872,1.268a7.708,7.708,0,0,1,.462,3.219,3.342,3.342,0,0,1-1.247,1.794c-.62.551-1.28,1.053-1.933,1.564a7.1,7.1,0,0,0-2.868,3.5.237.237,0,0,0,.457.126c.44-1.624,1.906-2.639,3.166-3.621,1.164-.908,2.67-1.857,2.916-3.431a8.936,8.936,0,0,0-.5-3.281c-.028-.131-.11-.383-.042-.516.127-.249.517-.165.716-.045a1.818,1.818,0,0,1,.673.906c.107.283.566.161.458-.126" transform="translate(-114.081 -10.383)" fill="#222221"/>
        <path id="Trazado_658123" data-name="Trazado 658123" d="M314.5,62.494s5.292,5.926,16.792,6.068l2.187-9.1s-10.737-2.894-15.465-6.139Z" transform="translate(-107.911 -18.295)" fill="#e1cec1"/>
        <path id="Trazado_658124" data-name="Trazado 658124" d="M373.363,200.109a8.743,8.743,0,0,0,1.793,4.695c1.684,2.028-3.163,8.556-6.872,7.517s1.506-6.338,1.693-7.151-1.935-3.216-1.935-3.216Z" transform="translate(-125.909 -68.661)" fill="#e1cec1"/>
        <path id="Trazado_658125" data-name="Trazado 658125" d="M428.577,200.109a8.746,8.746,0,0,1-1.794,4.695c-1.684,2.028,3.163,8.556,6.872,7.517s-1.507-6.338-1.693-7.151,1.934-3.216,1.934-3.216Z" transform="translate(-146.319 -68.661)" fill="#e1cec1"/>
        <path id="Trazado_658126" data-name="Trazado 658126" d="M482.026,62.494s-5.292,5.926-16.792,6.068l-2.187-9.1s10.737-2.894,15.465-6.139Z" transform="translate(-158.88 -18.295)" fill="#e1cec1"/>
        <path id="Trazado_658127" data-name="Trazado 658127" d="M520.713,87.527s2.014-9.065,15.523-8.142,22.236,10.171,22.151,28.622c0,0,25.088,35.485-10.363,40.939s-58.107,4.111-55.086-10.741,13.593-14.8,10.992-26.3S511.9,85.6,520.713,87.527" transform="translate(-169.044 -27.216)" fill="#222221"/>
        <path id="Trazado_658128" data-name="Trazado 658128" d="M516.945,231.8l-2.536,24.552s-13.593,17.621-10.572,48.667h64.474L566.728,229Z" transform="translate(-172.725 -78.573)" fill="#b5a2b8"/>
        <path id="Trazado_658129" data-name="Trazado 658129" d="M608.262,221.38s.105,3.9-22.98,2.643V213.611s19.456-.16,22.98,7.77" transform="translate(-200.821 -73.294)" fill="#644b87"/>
        <path id="Trazado_658130" data-name="Trazado 658130" d="M604.637,254.616c.277-8.112.841-35.116.841-35.116H589.666s-1.689,26.164-.1,35.116Z" transform="translate(-202.057 -75.314)" fill="#e8af8e"/>
        <path id="Trazado_658131" data-name="Trazado 658131" d="M580.58,173.341l1.5,32.691s13.239-3.021,24.566,1.51c0,0,1.888-4.5-3.146-7.726,0,0,3.655-28.026-22.923-26.476" transform="translate(-199.207 -59.455)" fill="#7a5fa0"/>
        <path id="Trazado_658132" data-name="Trazado 658132" d="M490.078,220.534s-.105,3.9,22.98,2.643V212.765s-19.456-.16-22.98,7.77" transform="translate(-168.154 -73.003)" fill="#644b87"/>
        <path id="Trazado_658133" data-name="Trazado 658133" d="M531.437,131.483s-7.984-6.689-9.865-.453,5.695,12.65,12.89,7.232Z" transform="translate(-178.861 -44.046)" fill="#e8af8e"/>
        <path id="Trazado_658134" data-name="Trazado 658134" d="M522.992,137.8a4.15,4.15,0,0,0,3.4,1.737c3.453-.149,4.475-4.883,3.064-8.589a19.236,19.236,0,0,1,2,1.419l3.025,6.778c-6.133,4.619-12.537.639-13.131-4.5a12.831,12.831,0,0,0,1.636,3.154" transform="translate(-178.886 -44.931)" fill="#cf866b"/>
        <path id="Trazado_658135" data-name="Trazado 658135" d="M529.112,138.393a4.041,4.041,0,0,0-.371-.968,4.283,4.283,0,0,0-1.444-1.634,3.953,3.953,0,0,0-1.466-.575.384.384,0,0,0-.461.261.379.379,0,0,0,.262.462,3.228,3.228,0,0,1,1.167.425q.119.072.233.153l.055.04c.047.035-.041-.033,0,0s.078.062.116.095a3.773,3.773,0,0,1,.38.38l.078.093c.013.015.025.031.037.047-.008-.01-.045-.062,0-.006s.1.13.14.2c.08.121.154.246.222.373.059.112.108.227.163.34.02.043-.03-.078-.014-.034,0,.012.011.024.015.037l.028.07q.026.067.049.136a2.831,2.831,0,0,1,.089.3.375.375,0,0,0,.723-.2" transform="translate(-180.26 -46.392)" fill="#222221"/>
        <path id="Trazado_658136" data-name="Trazado 658136" d="M528.227,137.073a2,2,0,0,0-.526.372,2.19,2.19,0,0,0-.661,1.2,2.823,2.823,0,0,0,.045,1.152.378.378,0,0,0,.461.262.383.383,0,0,0,.262-.462c-.018-.074-.029-.149-.045-.224-.009-.043,0,.011,0,.017,0-.016,0-.032-.005-.049,0-.042-.008-.084-.01-.126a1.926,1.926,0,0,1,0-.2c0-.028,0-.057,0-.085s0-.037.005-.056c0-.052-.006,0,0,.018a.9.9,0,0,1,.081-.334l.024-.067c.03-.081-.025.049,0-.007s.045-.093.071-.139.043-.074.067-.109l.041-.06c.045-.066-.041.049,0,0a2.35,2.35,0,0,1,.169-.185c.026-.026.053-.05.081-.074l.036-.031.024-.02c.037-.032-.04.031-.041.032.049-.025.095-.069.142-.1a1.312,1.312,0,0,1,.157-.087.376.376,0,0,0,.135-.513.386.386,0,0,0-.513-.135" transform="translate(-180.823 -47.017)" fill="#222221"/>
        <path id="Trazado_658137" data-name="Trazado 658137" d="M539.506,144.58l-.493,10.931a5.411,5.411,0,0,1-1.935,3.907l-4.877,4.077s15.618,16.691,30.223.5l-4.74-4.381a5.408,5.408,0,0,1-1.73-4.259l.365-6.871Z" transform="translate(-182.607 -49.608)" fill="#e8af8e"/>
        <path id="Trazado_658138" data-name="Trazado 658138" d="M543.038,148.716l.187-4.136,16.813,3.9-.338,6.342c-1.735,1.362-12.334,7.068-16.662-6.108" transform="translate(-186.326 -49.608)" fill="#a8624b"/>
        <path id="Trazado_658139" data-name="Trazado 658139" d="M546.835,87.091S565,88.463,563.208,109.774a5.062,5.062,0,0,0,.457,2.518c1.485,3.263,5.625,13.3-9.91,20.767a4.768,4.768,0,0,1-1.9.46c-4.278.143-20.188-.623-24.476-19.432-4.969-21.795,19.459-27,19.459-27" transform="translate(-180.723 -29.882)" fill="#e8af8e"/>
        <path id="Trazado_658140" data-name="Trazado 658140" d="M551.285,124.419a1.876,1.876,0,0,1-1.138,2.339c-.851.168-1.72-.608-1.941-1.731a1.876,1.876,0,0,1,1.138-2.339c.851-.167,1.72.607,1.941,1.731" transform="translate(-188.081 -42.089)" fill="#222221"/>
        <path id="Trazado_658141" data-name="Trazado 658141" d="M571.559,120.42a1.876,1.876,0,0,1-1.138,2.338c-.851.168-1.719-.608-1.941-1.731a1.876,1.876,0,0,1,1.138-2.339c.851-.167,1.72.607,1.941,1.731" transform="translate(-195.038 -40.716)" fill="#222221"/>
        <path id="Trazado_658142" data-name="Trazado 658142" d="M564.705,129.457a4.2,4.2,0,0,0,1.386-1.58,1.85,1.85,0,0,0-.644-2.224A14.183,14.183,0,0,1,563.814,124a7.167,7.167,0,0,1-1.286-3.227c-.106-.654-1.1-.376-1,.275a8.054,8.054,0,0,0,1.182,3.177,9.685,9.685,0,0,0,1.575,1.767c.368.336,1.034.764.935,1.262a2,2,0,0,1-.61.927c-.106.108-.219.211-.334.309l-.133.108c.114-.093.065-.05.037-.03-.53.389-.016,1.286.521.891" transform="translate(-192.669 -41.31)" fill="#222221"/>
        <path id="Trazado_658143" data-name="Trazado 658143" d="M550.624,136.518c.332,1.684-1.25,3.414-3.534,3.865s-4.4-.549-4.737-2.233,1.25-3.415,3.534-3.865,4.405.549,4.737,2.233" transform="translate(-186.076 -46.038)" fill="#d46a55"/>
        <path id="Trazado_658144" data-name="Trazado 658144" d="M578.891,130.943c.332,1.684-1.25,3.414-3.534,3.865s-4.4-.549-4.737-2.233,1.25-3.415,3.534-3.865,4.405.549,4.737,2.233" transform="translate(-195.775 -44.125)" fill="#d46a55"/>
        <path id="Trazado_658145" data-name="Trazado 658145" d="M555.953,140.852A6.692,6.692,0,0,0,561.68,143a8.028,8.028,0,0,0,5.307-3.11c.4-.53-.5-1.045-.891-.522a6.965,6.965,0,0,1-4.571,2.619,5.676,5.676,0,0,1-4.842-1.869.516.516,0,0,0-.73.73" transform="translate(-190.706 -47.746)" fill="#222221"/>
        <path id="Trazado_658146" data-name="Trazado 658146" d="M549.9,114.227c.307.947-1,.791-2.779,1.367s-3.348,1.668-3.655.721.884-2.182,2.66-2.759,3.466-.277,3.773.671" transform="translate(-186.457 -38.863)" fill="#222221"/>
        <path id="Trazado_658147" data-name="Trazado 658147" d="M566.784,111.543c.076.993,1.228.351,3.09.21s3.73.272,3.655-.721-1.646-1.683-3.509-1.542-3.311,1.06-3.236,2.053" transform="translate(-194.472 -37.562)" fill="#222221"/>
        <path id="Trazado_658148" data-name="Trazado 658148" d="M566.291,149.581c.086.435-.535.924-1.387,1.092s-1.611-.048-1.7-.483.643-.376,1.5-.544,1.5-.5,1.589-.064" transform="translate(-193.244 -51.25)" fill="#cf866b"/>
        <path id="Trazado_658149" data-name="Trazado 658149" d="M686.423,276.835c-2.072-25.256-10.2-36.165-10.2-36.165l-23.041-.644v50.822h.568v33.06h27.414s6.835-27.87,5.26-47.073" transform="translate(-224.118 -82.357)" fill="#e79e9e"/>
        <path id="Trazado_658150" data-name="Trazado 658150" d="M602.452,276.835c2.072-25.256,10.2-36.165,10.2-36.165l23.042-.644v50.822h-.568v33.06H607.712s-6.835-27.87-5.26-47.073" transform="translate(-206.631 -82.357)" fill="#e79e9e"/>
        <path id="Trazado_658151" data-name="Trazado 658151" d="M607.911,178.411l3.977-17.344s2.508-9.375-.16-12.774c0,0-25.844,13.991-13.434,42.483,1.529,3.509,49.375.755,49.375.755V185.8s-24.064-11.415-39.758-7.388" transform="translate(-204.129 -50.882)" fill="#cf866b"/>
        <path id="Trazado_658152" data-name="Trazado 658152" d="M670.954,90.732s7.316-9.072,10.73-2.634-3.512,15.12-12.584,10.731Z" transform="translate(-229.58 -29.436)" fill="#e9a585"/>
        <path id="Trazado_658153" data-name="Trazado 658153" d="M681.429,96.4a4.645,4.645,0,0,1-3.36,2.644c-3.822.583-5.97-4.392-5.224-8.766a21.586,21.586,0,0,0-1.892,1.991l-1.853,8.1c7.733,3.742,13.9-2.014,13.44-7.782a14.34,14.34,0,0,1-1.112,3.816" transform="translate(-229.58 -30.977)" fill="#cf866b"/>
        <path id="Trazado_658154" data-name="Trazado 658154" d="M680.488,97.527c0-.091.012-.181.021-.271.007-.068,0-.026,0,.026,0-.024.007-.049.011-.074.009-.055.017-.109.028-.164.025-.133.056-.265.091-.4.041-.148.088-.294.142-.437l.045-.116c.018-.045-.005.011-.007.017.01-.023.019-.045.03-.068.036-.08.074-.16.115-.238a3.473,3.473,0,0,1,.653-.908,3.569,3.569,0,0,1,1.249-.821.432.432,0,0,0,.293-.516.423.423,0,0,0-.516-.293,4.54,4.54,0,0,0-2.289,1.91,5.117,5.117,0,0,0-.652,1.871,3.912,3.912,0,0,0-.049.479.42.42,0,0,0,.84,0" transform="translate(-233.199 -31.995)" fill="#222221"/>
        <path id="Trazado_658155" data-name="Trazado 658155" d="M680.89,96.777a1.266,1.266,0,0,1,.154.048l.074.029c.053.02-.118-.053-.045-.019l.047.022a2.271,2.271,0,0,1,.209.112c.034.02.066.041.1.064l.058.04.029.022c.052.037-.072-.058-.034-.027a3,3,0,0,1,.222.206c.035.038.068.079.1.119s-.054-.076-.026-.034c.008.012.017.024.026.035.02.028.039.056.057.084.03.046.057.093.082.141.015.028.03.057.043.087a.2.2,0,0,0,.021.045c-.021-.024-.034-.085-.009-.019a2.531,2.531,0,0,1,.126.459.318.318,0,0,1,.009.058c.005-.044-.009-.07,0-.006,0,.047.009.094.011.141.005.1.005.2,0,.3a.424.424,0,0,0,.42.42.428.428,0,0,0,.42-.42,2.792,2.792,0,0,0-.606-1.913,2.571,2.571,0,0,0-1.047-.734,1.525,1.525,0,0,0-.218-.072.42.42,0,0,0-.223.809" transform="translate(-233.521 -32.925)" fill="#222221"/>
        <path id="Trazado_658156" data-name="Trazado 658156" d="M652.129,117.768l.493,10.931a5.409,5.409,0,0,0,1.935,3.906l4.877,4.077s-15.618,16.69-30.223.5l4.74-4.381a5.408,5.408,0,0,0,1.73-4.259l-.365-6.872Z" transform="translate(-215.894 -40.408)" fill="#e8af8e"/>
        <path id="Trazado_658157" data-name="Trazado 658157" d="M653.107,146.184l8.8,1.138.652,38.665,3.994,32.331s-32.183,12.106-55.78-3.886l3.572-41.33,5.174-26.919,5.516-.725s11.91,13.8,28.075.725" transform="translate(-209.566 -49.91)" fill="#508d7e"/>
        <path id="Trazado_658158" data-name="Trazado 658158" d="M612.1,222.011l-1.327,15.364c23.6,15.992,55.78,3.886,55.78,3.886l-3.575-28.938c-15.482,7.626-34.13,12.654-50.878,9.688" transform="translate(-209.566 -72.852)" fill="#417164"/>
        <path id="Trazado_658159" data-name="Trazado 658159" d="M655.5,121.9l-.187-4.136-16.813,3.9.338,6.342c1.736,1.362,12.334,7.068,16.662-6.108" transform="translate(-219.082 -40.408)" fill="#a8624b"/>
        <path id="Trazado_658160" data-name="Trazado 658160" d="M634.032,58.307S616.48,63.168,622.359,83.73a5.06,5.06,0,0,1,.039,2.559c-.825,3.489-2.944,14.138,13.741,18.456a4.75,4.75,0,0,0,1.955.083c4.225-.687,19.686-4.517,20.254-23.8.657-22.344-24.316-22.72-24.316-22.72" transform="translate(-213.129 -20.006)" fill="#e8af8e"/>
        <path id="Trazado_658161" data-name="Trazado 658161" d="M652.5,93.888a1.631,1.631,0,1,0,1.569-2.074,1.876,1.876,0,0,0-1.569,2.074" transform="translate(-223.885 -31.503)" fill="#222221"/>
        <path id="Trazado_658162" data-name="Trazado 658162" d="M631.839,93.888a1.631,1.631,0,1,0,1.569-2.074,1.876,1.876,0,0,0-1.569,2.074" transform="translate(-216.795 -31.503)" fill="#222221"/>
        <path id="Trazado_658163" data-name="Trazado 658163" d="M640.415,100.415a2.987,2.987,0,0,1-1.307-1.019c-.305-.517.278-1.079.573-1.478a9.792,9.792,0,0,0,1.237-2.081,8.133,8.133,0,0,0,.554-3.394c-.022-.663-1.055-.666-1.033,0a7,7,0,0,1-.662,3.424,16.756,16.756,0,0,1-1.3,1.963,1.8,1.8,0,0,0-.166,2.222,4.08,4.08,0,0,0,1.586,1.254c.6.28,1.123-.609.521-.891" transform="translate(-218.907 -31.548)" fill="#222221"/>
        <path id="Trazado_658164" data-name="Trazado 658164" d="M652.9,105.915c0,1.716,1.887,3.108,4.215,3.108s4.216-1.392,4.216-3.108-1.887-3.108-4.216-3.108-4.215,1.392-4.215,3.108" transform="translate(-224.02 -35.275)" fill="#d46a55"/>
        <path id="Trazado_658165" data-name="Trazado 658165" d="M624.085,105.915c0,1.716,1.887,3.108,4.215,3.108s4.216-1.392,4.216-3.108-1.887-3.108-4.216-3.108-4.215,1.392-4.215,3.108" transform="translate(-214.134 -35.275)" fill="#d46a55"/>
        <path id="Trazado_658166" data-name="Trazado 658166" d="M645.925,110.709a5.636,5.636,0,0,1-4.286,2.736,6.985,6.985,0,0,1-5.1-1.7c-.495-.441-1.227.287-.73.73a8.006,8.006,0,0,0,5.951,1.993,6.74,6.74,0,0,0,5.055-3.238c.369-.555-.525-1.073-.891-.521" transform="translate(-218.101 -37.905)" fill="#222221"/>
        <path id="Trazado_658167" data-name="Trazado 658167" d="M650.088,83.888c-.118.989,1.136.581,2.991.8s3.607.989,3.725,0-1.289-1.97-3.144-2.192-3.454.4-3.572,1.388" transform="translate(-223.054 -28.292)" fill="#222221"/>
        <path id="Trazado_658168" data-name="Trazado 658168" d="M632.93,84.437c.118.989-1.137.581-2.991.8s-3.607.989-3.725,0,1.29-1.97,3.144-2.192,3.454.4,3.572,1.388" transform="translate(-214.863 -28.48)" fill="#222221"/>
        <path id="Trazado_658169" data-name="Trazado 658169" d="M642.515,121.618c0,.443.7.8,1.572.8s1.571-.36,1.571-.8-.7-.244-1.571-.244-1.572-.2-1.572.244" transform="translate(-220.458 -41.63)" fill="#cf866b"/>
        <path id="Trazado_658170" data-name="Trazado 658170" d="M617.41,92.01a6.928,6.928,0,1,0,6.929-6.929A6.929,6.929,0,0,0,617.41,92.01Z" transform="translate(-211.844 -29.193)" fill="none" stroke="#fff" stroke-miterlimit="10" stroke-width="1.352"/>
        <path id="Trazado_658171" data-name="Trazado 658171" d="M646.734,92.01a6.928,6.928,0,1,0,6.929-6.929A6.929,6.929,0,0,0,646.734,92.01Z" transform="translate(-221.906 -29.193)" fill="none" stroke="#fff" stroke-miterlimit="10" stroke-width="1.352"/>
        <path id="Trazado_658172" data-name="Trazado 658172" d="M638.74,95.7a5.492,5.492,0,0,1,5.461,0" transform="translate(-219.163 -32.583)" fill="none" stroke="#fff" stroke-miterlimit="10" stroke-width="1.352"/>
        <path id="Trazado_658173" data-name="Trazado 658173" d="M617.055,170.687s-7.214,15.4,6.631,21.36,41.7-7.216,41.7-7.216,8.223-4.531,3.02-18.208c0,0-7.794-12.167-28.9-5.874a6.448,6.448,0,0,1-8.081-3.986Z" transform="translate(-211.078 -53.788)" fill="#984b3c"/>
        <path id="Trazado_658174" data-name="Trazado 658174" d="M613.733,181.986s-15.414,17.513-7.148,21.156,7.025-8.442,15.286-15.066c0,0,.02-5.937-8.138-6.091" transform="translate(-207.294 -62.443)" fill="#984b3c"/>
        <path id="Trazado_658175" data-name="Trazado 658175" d="M602.1,133.953s-6.182-4.932-7.44-9.337c0,0-3.062,2.853-1.615,5.706,0,0-1.868,2.769-.388,5.412,0,0,.221,7.048,4.794,6.315s4.65-8.1,4.65-8.1" transform="translate(-203.156 -42.758)" fill="#823026"/>
        <path id="Trazado_658176" data-name="Trazado 658176" d="M629.736,133.953s6.182-4.932,7.44-9.337c0,0,3.062,2.853,1.615,5.706,0,0,1.867,2.769.388,5.412,0,0-.221,7.048-4.793,6.315s-4.651-8.1-4.651-8.1" transform="translate(-216.073 -42.758)" fill="#984b3c"/>
        <path id="Trazado_658177" data-name="Trazado 658177" d="M595.976,146.807a5.556,5.556,0,0,1-2.493,4.085c-2.028,1.347-3.541,2.073-3.578,5.023-.063,5.034,7.111,11.831,21.774,6.356,0,0,8.245-3.9,11.076-12.838,0,0-2.392-13.908-13.53-14.034-9.15-.1-12.822,6.757-13.249,11.408" transform="translate(-202.407 -46.458)" fill="#984b3c"/>
        <path id="Trazado_658178" data-name="Trazado 658178" d="M617.532,170.811s9.164-2.667,14.45-13.687l1.888,2.585a26.131,26.131,0,0,1-17.306,13.8Z" transform="translate(-211.554 -53.912)" fill="#d46a55"/>
        <path id="Trazado_658179" data-name="Trazado 658179" d="M673.659,178.41l-3.977-17.344s-2.508-9.375.16-12.774c0,0,6.4-.384,12.03,9.276,4.118,7.063,6.7,30.966-.514,34.989-3.344,1.864-47.456-1.028-47.456-1.028V185.8s24.064-11.415,39.758-7.388" transform="translate(-217.503 -50.881)" fill="#e8af8e"/>
        <path id="Trazado_658180" data-name="Trazado 658180" d="M680.5,159.013a4.748,4.748,0,0,0,4.321-4.615c.462-4.447.881-7.342,4.237-5.58s5.79,12.712-5.034,13.467Z" transform="translate(-233.493 -50.883)" fill="#984b3c"/>
        <path id="Trazado_658181" data-name="Trazado 658181" d="M627.306,208.443a5.835,5.835,0,0,0-1.406-8.162c-2.867-2.061-7.241-4.553-9.966-2.986-4.33,2.488-6.418,7.791-4.373,8.668s2.824-2.917,4.284-3.5a7.4,7.4,0,0,0-2.748,3.56,1.255,1.255,0,0,0,.11,1.178c.347.521.93,1.2,1.575,1.123,1.035-.118,1.776-3.4,3.721-3.876,0,0-1.831.472-2.809,3.217a1.752,1.752,0,0,0,.92,2.191c.432.189.87.236,1.128-.131.644-.919,1.92-2.838,2.986-2.028s4.467,3.509,6.517.83l.06-.081" transform="translate(-209.566 -67.526)" fill="#e8af8e"/>
        <path id="Trazado_658182" data-name="Trazado 658182" d="M615.02,207.813c.222-.355.468-.7.723-1.029a8.669,8.669,0,0,1,1.606-1.671,3.634,3.634,0,0,1,.54-.331,1.2,1.2,0,0,1,.206-.08,1.455,1.455,0,0,1,.141-.038l.047-.01c.1-.02-.062.005.036-.006a.338.338,0,0,0,.328-.328.331.331,0,0,0-.328-.328,3.739,3.739,0,0,0-2.105,1.253,13.413,13.413,0,0,0-1.484,1.823c-.095.137-.188.274-.276.415-.224.359.344.689.567.331" transform="translate(-210.812 -69.993)" fill="#222221"/>
        <path id="Trazado_658183" data-name="Trazado 658183" d="M618.623,211.175a7.374,7.374,0,0,1,.539-1,4.863,4.863,0,0,1,1.4-1.542,1.837,1.837,0,0,1,1.07-.33.328.328,0,0,0,0-.656c-1.584-.033-2.721,1.531-3.382,2.788-.07.133-.139.269-.2.407a.339.339,0,0,0,.118.449.33.33,0,0,0,.449-.118" transform="translate(-212.053 -71.248)" fill="#222221"/>
        <path id="Trazado_658184" data-name="Trazado 658184" d="M624.954,189.225s-3.713,23.033,5.224,21.711,1.447-10.887,4.908-20.893c0,0-3.146-5.034-10.132-.818" transform="translate(-214.17 -64.349)" fill="#984b3c"/>
        <path id="Trazado_658185" data-name="Trazado 658185" d="M651.635,66.641s.944,14.815,3.273,14.424.944-8.173,4.405-8.75c0,0,2.412-.614,4.069,3.7,0,0,4.825-8.556,2.559-15.688s-7.384-7.3-7.384-7.3-11.145-10.237-25.543-5.034-18.173-4.363-18.845.587,2.926,30.6,33.217,11.8c0,0-3.461,2.957-3.083,5.6.277,1.935,1.039,3.178,7.331.661" transform="translate(-210.708 -15.961)" fill="#222221"/>
        <path id="Trazado_658186" data-name="Trazado 658186" d="M558.734,173.874s-13.754,15.822-30.222-.5l-5.859,5.658-1.2,36.387h43.917s4.323-33.446,1.05-38.983Z" transform="translate(-178.918 -59.487)" fill="#7a5fa0"/>
        <path id="Trazado_658187" data-name="Trazado 658187" d="M577.652,173.28l.283,49.779h8.382l-3.161-49.991s-3.365-.719-5.5.212" transform="translate(-198.203 -59.292)" fill="#b5a2b8"/>
        <path id="Trazado_658188" data-name="Trazado 658188" d="M515.022,218.653s1.762,27.271,0,35.661c0,0,6.633,3.776,18.4,21.229l-6.209,2.937s-26.853-18.292-27.089-22.991-.908-36.836-.908-36.836Z" transform="translate(-171.288 -75.024)" fill="#e8af8e"/>
        <path id="Trazado_658189" data-name="Trazado 658189" d="M517.567,173.34l-3.1,32.135s-13.239-3.02-24.567,1.511c0,0-1.888-4.5,3.146-7.726,0,0-2.054-27.47,24.523-25.92" transform="translate(-167.973 -59.454)" fill="#7a5fa0"/>
        <path id="Trazado_658190" data-name="Trazado 658190" d="M524.021,173.28l.283,49.779h8.382l-3.161-49.991s-3.365-.719-5.5.212" transform="translate(-179.801 -59.292)" fill="#b5a2b8"/>
        <path id="Trazado_658191" data-name="Trazado 658191" d="M497.972,294.395s-13.444.048-14.451-15.939c-.539-8.565.221-13.932,1.044-17.07a1.46,1.46,0,0,0-2.164-1.61l-4.544,2.693s-2.14-14.6-6.545-13.342-9.314,21.02,1.133,32.347c0,0-4.641-3.771-6.223-3.018s-.322,22.526,27.115,23.156Z" transform="translate(-159.816 -85.453)" fill="#bc705c"/>
        <path id="Trazado_658192" data-name="Trazado 658192" d="M572.319,294.051s.755,6.545,2.937,8.391,3.776,5.622,1.343,6.629c0,0,9.4,21.4-14.013,28.948v2.669H492.354s-4.405-23.813,7.048-30.736,28.241-7.148,30.923-12.636,11.87-8.257,11.87-8.257,21.858,7.971,30.123,4.992" transform="translate(-168.65 -99.181)" fill="#f2dbd1"/>
        <path id="Trazado_658193" data-name="Trazado 658193" d="M504.8,326.525c.818-4.908,10.665-7.558,8.748-14.19a57.673,57.673,0,0,0-14.147,5.6c-6.613,4-7.936,13.62-7.876,21.045a9.269,9.269,0,0,0,2.618.862c7.1,0,9.768-7.1,10.657-13.32" transform="translate(-168.651 -107.168)" fill="#bc705c"/>
        <path id="Trazado_658194" data-name="Trazado 658194" d="M611.17,305.05c-2.181-1.846-2.937-8.391-2.937-8.391-2.588.933-6.51.792-10.676.158-1.369,3.832-2.222,7.758-.008,9.233,4.44,4.441,8.88,3.552,13.32,9.768,1.234,1.481,2.262,1.793,3.16,1.38a25.493,25.493,0,0,0-1.517-5.52c2.433-1.006.839-4.783-1.343-6.629" transform="translate(-204.564 -101.789)" fill="#bc705c"/>
        <path id="Trazado_658195" data-name="Trazado 658195" d="M598.664,284.192l1.259,9.439a45.582,45.582,0,0,1-32.6-3.018l4.657-7.3Z" transform="translate(-194.659 -97.209)" fill="#1d3345"/>
        <path id="Trazado_658196" data-name="Trazado 658196" d="M578.641,233.957s10.636-5.727,18.5-1.259,10.877,12.659,20.516,15.67c11.076,3.46,3.273,20.138-7.741,20.7l-8.936.126s1.07,3.367-.188,3.461-4.437-2.549-4.437-2.549.692,2.014-1.2,2.266-3.3-3.273-3.3-3.273a4.422,4.422,0,0,1-3.713,2.989c-2.832.189-4.594-4.405-4.594-4.405a5.536,5.536,0,0,1-5.475,3.4c-4.343,0,.566-37.13.566-37.13" transform="translate(-197.732 -79.258)" fill="#f2dbd1"/>
        <path id="Trazado_658197" data-name="Trazado 658197" d="M569.828,235.389s7.363,4.09,5.349,12.523-3.516,13.16-3.4,18.628-11.579,15.985-16.865,0a2.429,2.429,0,0,1-2.392,1.048c-1.594-.252-2.727-2.936-1.217-5.2s2.475-5.538,3.1-15.859,14.083-12.083,15.418-11.139" transform="translate(-188.919 -80.69)" fill="#bc705c"/>
        <path id="Trazado_658198" data-name="Trazado 658198" d="M599.3,357.086a34.212,34.212,0,0,0,.029-4.257,115.188,115.188,0,0,0-1.306-13.016c-.1-.655-1.093-.376-1,.275a111.744,111.744,0,0,1,1.274,12.9,33.369,33.369,0,0,1-.034,4.1c-.06.662.973.658,1.033,0" transform="translate(-204.848 -116.468)" fill="#222221"/>
        <path id="Trazado_658199" data-name="Trazado 658199" d="M574.2,355.972a26.068,26.068,0,0,1-2.651-5.529,23.6,23.6,0,0,1-1.168-12.845c.138-.648-.857-.926-1-.275a24.517,24.517,0,0,0,1.1,13.195,27.341,27.341,0,0,0,2.825,5.974c.364.552,1.259.036.891-.521" transform="translate(-195.209 -115.614)" fill="#222221"/>
        <path id="Trazado_658200" data-name="Trazado 658200" d="M532.469,338.868c2.581,3.811,3.816,9.565.482,13.293a14.876,14.876,0,0,1-7.221,3.972.516.516,0,0,0,.274,1c4.24-1.2,8.725-3.6,9.775-8.248a13.54,13.54,0,0,0-1.4-8.693,14.247,14.247,0,0,0-1.023-1.841c-.37-.547-1.265-.032-.891.521" transform="translate(-180.262 -116.013)" fill="#222221"/>
        <path id="Trazado_658201" data-name="Trazado 658201" d="M540.527,300.822a3.961,3.961,0,0,1,4.178-2.734c3.231.346,5.745-2.1,7.12-1.249,1.136.7-.374,2.37-1.924,3.067-1.135.51-2.712.439-2.515.7a7.558,7.558,0,0,0,2.815,1.906c1.259.312,7.674,1.393,7.974,1.4,2.239.085,2.008,1.191,2.008,1.191-.053,1.68-4.349,1.155-5.547,1.024-1.807-.2-4.779-.746-4.779-.746l-.1.257s8.59,4.634,9.034,4.879a1,1,0,0,1,.585,1.275c-.168.35-.673.723-1.746.418a57.82,57.82,0,0,1-9.245-3.591s4.609,3.088,6.011,4.775c.465.56,1.231,1.447.637,2.036-.678.672-2.01-.347-2.227-.487a49.017,49.017,0,0,1-6.129-4.714l-.312.154s3.6,3.57,4.06,4.936c.045.131.288.781-.234,1.1-.82.5-1.239-.348-1.333-.518-.468-.84-5.463-5.05-5.986-5.4-1.229-.827-3.382-2.562-3.938-4.86a4.449,4.449,0,0,1,1.593-4.825" transform="translate(-184.862 -101.789)" fill="#e8af8e"/>
        <path id="Trazado_658202" data-name="Trazado 658202" d="M560.242,94.316s-11.562,5.3-23.738-.339c0,0-2.256,20.944-10.194,20.28,0,0-2.533-2.434-2.3-10.485s12.4-19.484,22.3-18.047a19.533,19.533,0,0,1,13.929,8.591" transform="translate(-179.792 -29.372)" fill="#222221"/>
        <path id="Trazado_658203" data-name="Trazado 658203" d="M639.216,266.719a3.245,3.245,0,0,1-3.17.9c-2.26-.562-5.844-1.68-4.986-2.949,1.234-1.825,7.4-3.683,9.037-1.573.93,1.2.051,2.62-.881,3.624" transform="translate(-216.483 -89.951)" fill="#222221"/>
        <path id="Trazado_658204" data-name="Trazado 658204" d="M596.476,166.043a2.587,2.587,0,0,0,2.528.717c1.8-.449,4.659-1.339,3.975-2.352-.983-1.455-5.9-2.937-7.205-1.255-.741.956-.04,2.089.7,2.89" transform="translate(-204.312 -55.724)" fill="#222221"/>
        <path id="Trazado_658205" data-name="Trazado 658205" d="M596.2,263.032a.573.573,0,0,1-.976-.555c.594-1.678,1.865-3.518,4.581-3.344s4,2.2,4.589,3.961a.574.574,0,0,1-.988.539c-1.6-1.822-4.306-3.715-7.206-.6" transform="translate(-204.218 -88.909)" fill="#222221"/>
        <path id="Trazado_658206" data-name="Trazado 658206" d="M614.7,158.065c-.268.39-.748.028-.617-.476.375-1.438,1.178-3.014,2.9-2.865s2.528,1.883,2.9,3.393c.125.509-.363.866-.625.462-1.012-1.561-2.722-3.183-4.555-.515" transform="translate(-210.696 -53.085)" fill="#222221"/>
        <path id="Trazado_658207" data-name="Trazado 658207" d="M601.854,156.086c.21.307.587.022.484-.373-.294-1.129-.925-2.367-2.273-2.25s-1.985,1.479-2.277,2.665c-.1.4.285.68.49.363.8-1.226,2.138-2.5,3.577-.4" transform="translate(-205.106 -52.653)" fill="#222221"/>
        <path id="Trazado_658208" data-name="Trazado 658208" d="M677.28,103.164a1.294,1.294,0,1,0,1.294-1.293,1.294,1.294,0,0,0-1.294,1.293" transform="translate(-232.387 -34.954)" fill="#fff"/>
      </g>
    </g>
  </g>
</svg>
