<svg xmlns="http://www.w3.org/2000/svg" xmlns:xlink="http://www.w3.org/1999/xlink" width="83.583" height="83.655" viewBox="0 0 83.583 83.655">
  <defs>
    <clipPath id="clip-path">
      <rect id="Rectángulo_309893" data-name="Rectángulo 309893" width="83.583" height="83.655" fill="none"/>
    </clipPath>
  </defs>
  <g id="Grupo_995640" data-name="Grupo 995640" transform="translate(-180 -1128.938)">
    <g id="Grupo_995637" data-name="Grupo 995637" transform="translate(3 633)">
      <circle id="Elipse_8159" data-name="Elipse 8159" cx="37.602" cy="37.602" r="37.602" transform="translate(181 503)" fill="#f46464"/>
    </g>
    <g id="Grupo_996942" data-name="Grupo 996942" transform="translate(180 1128.938)">
      <g id="Grupo_995688" data-name="Grupo 995688" clip-path="url(#clip-path)">
        <path id="Trazado_654611" data-name="Trazado 654611" d="M33.7,27.257c0-1.277-.008-2.393.006-3.508a1.118,1.118,0,0,0-.256-.686c-.355-.505-.665-1.044-1.047-1.527A5.847,5.847,0,0,1,31,16.863a2.591,2.591,0,0,0-.2-1.151c-1.2-4-2.382-8-3.626-11.983a2.191,2.191,0,0,1,.586-2.415A3.868,3.868,0,0,1,30.925,0C37.5.062,44.075.028,50.651.028a4.355,4.355,0,0,1,3.22,2.316,1.968,1.968,0,0,1-.129,1.232c-1.187,3.972-2.354,7.95-3.59,11.907a9.792,9.792,0,0,0-.255,3,2.454,2.454,0,0,1-.437,1.5,10.7,10.7,0,0,1-1.025,1.536c-1.66,1.614-1.207,3.659-1.244,5.61,0,.168.011.315.224.394,1.251.465,2.5.947,3.82,1.452,0-2.955-.008-5.79,0-8.625a12.133,12.133,0,0,1,24.26-.445c.074,5.928.018,11.857.02,17.786v1.064c2.077-1.273,4.3-.925,6.463-.95,1.354-.016,1.932.854,1.425,2.123q-3.924,9.829-7.863,19.652a2.794,2.794,0,0,1-.773,1.078q-5.455,4.836-10.9,9.683a3.246,3.246,0,0,0-.468,2.4.314.314,0,0,0,.181.132c1.056.261,1.163,1.048,1.153,1.96-.024,2.388,0,4.777-.01,7.165,0,1.161-.483,1.655-1.625,1.656q-21.286.005-42.572,0c-1.2,0-1.66-.477-1.663-1.7-.005-2.472.011-4.945-.009-7.418a1.484,1.484,0,0,1,1.03-1.633c.122-.041.255-.023.324-.2a3.005,3.005,0,0,0-.643-2.512q-5.389-4.782-10.779-9.565a2.783,2.783,0,0,1-.756-1.089Q4.121,49.746.195,39.964c-.528-1.321.04-2.157,1.452-2.168.984-.007,1.967,0,2.951,0a6.2,6.2,0,0,1,3.366.914c.594.373.7.235.786-.387a35.91,35.91,0,0,1,2.328-8.837,17.4,17.4,0,0,1,4.014-6.157,11.355,11.355,0,0,1,16.869,1.451c.585.746,1.091,1.553,1.736,2.479m14.838,3.667c0,1.811.015,3.58-.005,5.349a1.349,1.349,0,0,1-1.987,1.358,23.305,23.305,0,0,1-3.263-1.33,6.041,6.041,0,0,0-5.961-.114c-.473.228-.611.374-.516.9a62.923,62.923,0,0,1,.926,12.662,1.335,1.335,0,0,1-.863,1.4c-.446.146-.505.381-.5.789.023,1.6.017,3.2,0,4.8a1.006,1.006,0,0,0,.364.871A6.751,6.751,0,0,1,39.1,63.052c-.02,3.062-.006,6.123,0,9.185,0,.282-.105.573.359.7a1.381,1.381,0,0,1,.993,1.56c-.019,1.488-.006,2.977-.006,4.466,0,2.028,0,2.009,2.055,2.008.505,0,.666-.1.656-.64-.036-1.966-.008-3.932-.018-5.9,0-.645.171-1.239.818-1.413.586-.157.539-.5.538-.927-.007-3.146-.036-6.292.007-9.438a6.426,6.426,0,0,1,3.424-5.792,1.08,1.08,0,0,0,.623-1.114c-.022-4.017-.013-8.033-.011-12.05,0-1.3.226-1.591,1.488-1.954a3.9,3.9,0,0,1,.57-.144c.512-.066.661-.329.653-.848-.032-2.106-.008-4.213-.016-6.32,0-.838.272-1.9-.133-2.455-.432-.6-1.515-.722-2.316-1.049a.944.944,0,0,0-.246,0m31.709,9.607c-2.953-.183-4.113.5-5.31,3.091q-1.834,3.967-3.662,7.936a1.588,1.588,0,0,0-.184,1.031,5.292,5.292,0,0,1-2.876,6.05c-2.823,1.555-5.658,3.089-8.489,4.63-.837.455-1.675.909-2.518,1.353a1.231,1.231,0,0,1-1.481-.211,1.262,1.262,0,0,1-.41-1.3,1.7,1.7,0,0,1,1-1.061Q61.6,59.185,66.877,56.3a2.657,2.657,0,1,0-2.432-4.7q-7.454,3.7-14.89,7.433a4.019,4.019,0,0,0-2.367,3.855c0,3.09.018,6.179-.016,9.268-.007.612.181.726.751.722,3.623-.026,7.246-.014,10.87-.014,1.883,0,1.9,0,1.876-1.92a2.351,2.351,0,0,1,.72-2.038c3.151-2.752,6.22-5.6,9.412-8.3a11.047,11.047,0,0,0,3.34-4.689c1.938-5.131,4.037-10.2,6.105-15.38M3.353,40.523c.065.182.106.311.156.437q3.434,8.585,6.862,17.172a2.4,2.4,0,0,0,.706.917c3.278,2.909,6.567,5.806,9.827,8.735,2.407,2.162,1.973,1.235,1.989,4.4,0,.553.149.694.7.691q6.069-.035,12.139,0c.574,0,.683-.18.679-.707-.023-3.091-.011-6.182-.012-9.272a4.026,4.026,0,0,0-2.358-3.864q-7.48-3.752-14.967-7.491a2.847,2.847,0,0,0-1.7-.345,2.635,2.635,0,0,0-2.277,2.165,2.591,2.591,0,0,0,1.476,2.845c3.589,1.968,7.188,3.92,10.778,5.886.892.489,1.173,1.2.8,1.929-.395.763-1.167.936-2.091.434C22.427,62.489,18.8,60.529,15.2,58.533a5.223,5.223,0,0,1-2.724-5.816,1.854,1.854,0,0,0-.171-1.2c-1.216-2.618-2.419-5.242-3.63-7.863s-2.279-3.266-5.317-3.135m37.106-32.4c-2.021,0-4.042.016-6.063-.011-.518-.007-.719.088-.713.672.032,3.087.015,6.174.017,9.262a1.1,1.1,0,0,0,.105.651,27.942,27.942,0,0,0,4.7,6.117,2.463,2.463,0,0,0,3.684.1A8.678,8.678,0,0,0,43.18,24,36.353,36.353,0,0,0,47.018,18.8a1.363,1.363,0,0,0,.169-.8c0-3.059-.021-6.119.016-9.178.007-.632-.218-.715-.766-.706-1.992.031-3.985.012-5.978.012M72.837,26.535c-.119-2.734.194-5.287-.18-7.822A9.41,9.41,0,0,0,54.086,18.7a58.115,58.115,0,0,0-.146,6.984c-.006.223-.122.491.1.689,2.734-3.192,5.451-6.375,8.182-9.546a1.356,1.356,0,0,1,2.3-.005c2.733,3.171,5.448,6.357,8.317,9.708m-21.6,28.6c.376-.176.652-.3.921-.433q5.457-2.724,10.912-5.451a7.149,7.149,0,0,1,1.886-.69,5.725,5.725,0,0,1,4.259,1.007c.909-1.97,1.794-3.906,2.7-5.834.181-.385.074-.549-.309-.651-.785-.21-1.567-.431-2.344-.671-.368-.114-.556-.057-.672.353a3.693,3.693,0,0,1-1.37,1.969,6.527,6.527,0,0,1-4.967,1.076c-1.941-.242-3.485-1.077-4.1-3.089-.158-.518-.448-.36-.78-.264-1.831.528-3.66,1.065-5.5,1.556a.733.733,0,0,0-.646.865c.03,1.993.012,3.987.012,5.981Zm5.4-25.446c0,.533.017,1.067-.006,1.6a1.076,1.076,0,0,0,.341.891c1.581,1.556,3.127,3.147,4.716,4.693a2.144,2.144,0,0,0,3.4-.01c.834-.794,1.638-1.617,2.446-2.437.865-.877,2.054-1.629,2.484-2.686s.094-2.432.116-3.667a1.352,1.352,0,0,0-.348-.986c-1.984-2.292-3.963-4.588-5.911-6.91-.4-.481-.608-.444-.99.014-1.583,1.9-3.159,3.8-4.827,5.621-1.035,1.129-1.824,2.261-1.418,3.877M23,44.546c.167-.022.476-.042.776-.1,2.756-.57,5.371-3.634,5.719-6.7a1.617,1.617,0,0,0-.2-1.345c-2.035-2.645-4.036-5.316-6.033-7.99-.282-.377-.424-.485-.76-.028-1.979,2.687-3.984,5.355-5.991,8.021a1.255,1.255,0,0,0-.256,1.006,8.891,8.891,0,0,0,3.283,5.868A5.462,5.462,0,0,0,23,44.546m6.649,36.409c2.472,0,4.945-.01,7.417.008.468,0,.707-.049.689-.621-.045-1.4-.029-2.809-.006-4.213.007-.43-.1-.579-.559-.577q-7.543.023-15.087,0c-.458,0-.564.153-.556.58.023,1.376.032,2.753,0,4.129-.014.537.122.715.688.708,2.472-.032,4.944-.014,7.417-.014m24.236,0c2.472,0,4.945-.021,7.417.015.606.009.751-.172.732-.752-.043-1.347-.032-2.7,0-4.045.01-.464-.105-.625-.6-.623q-7.5.027-15,0c-.492,0-.612.154-.6.621.028,1.348.039,2.7,0,4.045-.018.577.122.763.73.754,2.444-.037,4.888-.015,7.332-.015M35.031,46.4a57.163,57.163,0,0,0-1.347-11.113c-.82-3.435-1.937-6.744-4.356-9.443a8.4,8.4,0,0,0-4.395-2.654c-.224-.053-.657-.27-.663.171a3.478,3.478,0,0,0,.406,2.486C27.046,28.9,29.33,32.033,31.7,35.1a3.018,3.018,0,0,1,.612,2.348q-.511,4.6-.984,9.2c-.063.61-.436,1.392-.08,1.787.392.434,1.22.138,1.855.145,1.961.021,1.961.007,1.929-2.182M14.461,49.528c.326-.242.21-.514.187-.747-.363-3.714-.719-7.428-1.117-11.138a3.31,3.31,0,0,1,.612-2.592c2.244-2.913,4.395-5.9,6.636-8.813a3.552,3.552,0,0,0,.789-2.378c-.012-.771-.266-.809-.9-.646a9.55,9.55,0,0,0-5.918,4.915c-2.052,3.565-2.84,7.514-3.512,11.515a7.251,7.251,0,0,0,.82,4.978c.734,1.319,1.281,2.742,1.924,4.112.126.27.181.592.476.793M30.938,6.787c.269-1.216,1.051-1.379,2.012-1.375q7.454.034,14.909,0c.988-.006,1.794.147,2.1,1.345L50.824,3.9c.316-1.042.225-1.168-.868-1.169q-5.728,0-11.455,0-3.833,0-7.665,0c-.955,0-1.078.176-.8,1.1s.568,1.864.9,2.96M17.495,45.236c0,.984.009,1.923,0,2.863-.005.387.251.365.5.384a6.922,6.922,0,0,1,2.626.815c2.322,1.175,4.657,2.323,6.975,3.506.54.276.714.226.7-.426-.035-1.681-.011-3.364-.011-5.046V45.22c-4.378,2.7-5.884,2.7-10.79.016M36.4,26.612a10.475,10.475,0,0,1-.012,1.447,1.485,1.485,0,0,0,.8,1.577c.971.661,1.9,1.383,2.824,2.111a.579.579,0,0,0,.86.008c1.058-.828,2.148-1.614,3.219-2.424.17-.129.409-.228.4-.5a12.72,12.72,0,0,0-.073-2.236c-3,2.4-4.776,2.414-8.016.017m17.537,6.416c0,2.373,0,4.716,0,7.06,0,.2-.076.527.3.424,1.187-.32,2.366-.667,3.547-1.006a.272.272,0,0,0,.136-.089,5.221,5.221,0,0,0-.275-2.729c-1.222-1.21-2.45-2.413-3.717-3.66m18.882.043c-1.207,1.172-2.387,2.313-3.562,3.459a4.2,4.2,0,0,0-.44,2.832.752.752,0,0,0,.41.244c.992.293,1.991.559,2.981.859.48.145.626.017.621-.492-.022-2.3-.01-4.591-.01-6.9m-12.2,6.482c.272,1.179-.517,2.478.761,3.187a3.973,3.973,0,0,0,3.949,0c1.3-.712.524-2,.816-3.191a5.073,5.073,0,0,1-5.526.007M33.679,53.547c0-2.347,0-2.347-2.141-2.265a.466.466,0,0,1-.084,0c-.364-.052-.492.1-.481.469.024.786.007,1.573.008,2.359,0,.168-.02.356.164.444a14.089,14.089,0,0,0,2.416,1.126,7.535,7.535,0,0,0,.117-2.048c0-.028,0-.056,0-.084M45.8,31.414l-2.618,1.972L45.8,34.427Zm-10.225.61c.639,1.816.639,1.816,1.878,1.209a4.927,4.927,0,0,0-1.878-1.209" transform="translate(0 0.001)" fill="#020202"/>
        <path id="Trazado_654612" data-name="Trazado 654612" d="M119.825,91.535a.943.943,0,0,1,.246,0c.8.327,1.884.452,2.316,1.049.4.558.13,1.616.133,2.454.007,2.107-.017,4.214.016,6.32.008.519-.141.782-.653.848a3.887,3.887,0,0,0-.57.144c-1.262.363-1.488.658-1.488,1.954,0,4.017-.01,8.034.011,12.05a1.081,1.081,0,0,1-.623,1.114,6.426,6.426,0,0,0-3.424,5.792c-.043,3.145-.014,6.292-.007,9.438,0,.426.048.77-.538.927-.647.173-.821.767-.818,1.412.009,1.966-.019,3.933.018,5.9.01.537-.151.64-.656.641-2.055,0-2.055.02-2.055-2.009,0-1.489-.014-2.978.006-4.466a1.38,1.38,0,0,0-.992-1.56c-.465-.123-.359-.414-.36-.7,0-3.061-.017-6.123,0-9.185a6.751,6.751,0,0,0-2.364-5.439,1,1,0,0,1-.364-.871c.014-1.6.019-3.2,0-4.8-.006-.408.054-.644.5-.789a1.334,1.334,0,0,0,.863-1.4,62.923,62.923,0,0,0-.926-12.662c-.1-.526.043-.672.516-.9a6.039,6.039,0,0,1,5.961.114,23.268,23.268,0,0,0,3.263,1.33,1.349,1.349,0,0,0,1.987-1.358c.02-1.768.005-3.537.005-5.349" transform="translate(-71.289 -60.609)" fill="#e9edf0"/>
        <path id="Trazado_654613" data-name="Trazado 654613" d="M172.713,119.933c-2.068,5.178-4.167,10.249-6.105,15.38A11.05,11.05,0,0,1,163.268,140c-3.193,2.7-6.261,5.551-9.412,8.3a2.352,2.352,0,0,0-.72,2.038c.02,1.92.006,1.92-1.877,1.92-3.623,0-7.246-.013-10.87.014-.57,0-.758-.11-.751-.722.034-3.089.016-6.179.016-9.268a4.02,4.02,0,0,1,2.368-3.856q7.441-3.726,14.89-7.433a2.658,2.658,0,1,1,2.432,4.7q-5.271,2.89-10.557,5.755a1.7,1.7,0,0,0-1,1.061,1.26,1.26,0,0,0,.41,1.3,1.231,1.231,0,0,0,1.481.211c.843-.443,1.681-.9,2.518-1.353,2.831-1.541,5.665-3.075,8.488-4.63a5.292,5.292,0,0,0,2.876-6.05,1.589,1.589,0,0,1,.184-1.03q1.834-3.967,3.661-7.936c1.2-2.588,2.357-3.274,5.311-3.091" transform="translate(-92.468 -79.401)" fill="#e8c5a6"/>
        <path id="Trazado_654614" data-name="Trazado 654614" d="M9.925,119.929c3.038-.13,4.1.511,5.317,3.135s2.414,5.245,3.63,7.863a1.854,1.854,0,0,1,.171,1.2,5.223,5.223,0,0,0,2.724,5.816c3.606,2,7.232,3.957,10.853,5.924.924.5,1.7.329,2.092-.434.376-.727.1-1.44-.8-1.929-3.591-1.966-7.189-3.918-10.778-5.887a2.59,2.59,0,0,1-1.476-2.845,2.636,2.636,0,0,1,2.277-2.165,2.85,2.85,0,0,1,1.7.345q7.484,3.745,14.966,7.491a4.025,4.025,0,0,1,2.358,3.864c0,3.091-.011,6.182.012,9.272,0,.528-.1.711-.679.707q-6.069-.041-12.139,0c-.547,0-.694-.138-.7-.691-.015-3.166.418-2.239-1.989-4.4-3.26-2.929-6.549-5.825-9.827-8.735a2.4,2.4,0,0,1-.706-.916q-3.416-8.592-6.862-17.172c-.05-.125-.091-.255-.156-.437" transform="translate(-6.572 -79.406)" fill="#e8c5a6"/>
        <path id="Trazado_654615" data-name="Trazado 654615" d="M106.487,24.02c1.993,0,3.986.019,5.978-.012.548-.009.773.074.766.706-.036,3.058-.017,6.118-.016,9.177a1.363,1.363,0,0,1-.169.8,36.371,36.371,0,0,1-3.838,5.206,8.676,8.676,0,0,1-.992.907,2.463,2.463,0,0,1-3.684-.1,27.951,27.951,0,0,1-4.7-6.117,1.1,1.1,0,0,1-.105-.651c0-3.087.016-6.175-.017-9.262-.006-.584.195-.679.713-.672,2.02.027,4.042.011,6.063.011m-.047,12.786a7.919,7.919,0,0,0,3.167-.714,1.355,1.355,0,0,0,.82-1.776,1.33,1.33,0,0,0-1.877-.693,5.011,5.011,0,0,1-4.144.006,1.309,1.309,0,0,0-1.87.7,1.339,1.339,0,0,0,.816,1.772,7.938,7.938,0,0,0,3.087.7m-1.32-8.7a1.348,1.348,0,1,0-1.363,1.311A1.358,1.358,0,0,0,105.12,28.1m4.024,1.311a1.348,1.348,0,1,0-1.322-1.351,1.36,1.36,0,0,0,1.322,1.351" transform="translate(-66.028 -15.897)" fill="#e8c5a7"/>
        <path id="Trazado_654616" data-name="Trazado 654616" d="M178.5,47.75c-2.869-3.352-5.585-6.537-8.317-9.708a1.356,1.356,0,0,0-2.3.005c-2.732,3.17-5.448,6.354-8.182,9.546-.225-.2-.109-.466-.1-.689a57.975,57.975,0,0,1,.146-6.984,9.409,9.409,0,0,1,18.571.009c.375,2.534.061,5.088.18,7.822" transform="translate(-105.666 -21.213)" fill="#b9866d"/>
        <path id="Trazado_654617" data-name="Trazado 654617" d="M151.642,138.175V133.9c0-1.994.018-3.987-.012-5.98a.734.734,0,0,1,.646-.866c1.841-.491,3.67-1.029,5.5-1.556.332-.1.622-.254.781.264.616,2.012,2.159,2.846,4.1,3.089a6.527,6.527,0,0,0,4.967-1.076A3.693,3.693,0,0,0,169,125.8c.116-.41.3-.466.672-.353.776.24,1.559.461,2.344.671.382.1.489.266.309.651-.9,1.928-1.79,3.864-2.7,5.834a5.725,5.725,0,0,0-4.259-1.007,7.137,7.137,0,0,0-1.886.69q-5.455,2.728-10.913,5.451c-.27.134-.545.257-.921.433" transform="translate(-100.408 -83.038)" fill="#d74f46"/>
        <path id="Trazado_654618" data-name="Trazado 654618" d="M167.424,68.573c-.406-1.616.383-2.748,1.418-3.877,1.668-1.819,3.244-3.725,4.828-5.621.382-.457.586-.5.99-.014,1.948,2.322,3.927,4.618,5.911,6.91a1.352,1.352,0,0,1,.348.986c-.022,1.235.316,2.605-.116,3.667s-1.619,1.809-2.484,2.686c-.808.82-1.613,1.644-2.446,2.437a2.144,2.144,0,0,1-3.4.01c-1.59-1.546-3.136-3.138-4.716-4.693a1.076,1.076,0,0,1-.341-.891c.022-.532.006-1.066.006-1.6m6.767,3.355a7.981,7.981,0,0,0,3.087-.7,1.354,1.354,0,0,0,.821-1.838,1.326,1.326,0,0,0-1.9-.63,4.914,4.914,0,0,1-4.063,0,1.321,1.321,0,0,0-1.887.665,1.352,1.352,0,0,0,.852,1.825,8.014,8.014,0,0,0,3.093.677m-1.374-7.411a1.347,1.347,0,1,0-1.305,1.368,1.355,1.355,0,0,0,1.305-1.368m4.015-1.326a1.347,1.347,0,1,0,1.38,1.292,1.352,1.352,0,0,0-1.38-1.292" transform="translate(-110.795 -38.881)" fill="#e8c5a6"/>
        <path id="Trazado_654619" data-name="Trazado 654619" d="M54.848,99.6a5.462,5.462,0,0,1-3.459-1.268,8.892,8.892,0,0,1-3.283-5.868,1.256,1.256,0,0,1,.256-1.006c2.007-2.667,4.012-5.334,5.991-8.021.336-.457.478-.349.76.028,2,2.674,4,5.345,6.033,7.99a1.619,1.619,0,0,1,.2,1.346c-.348,3.061-2.964,6.125-5.72,6.7-.3.062-.609.082-.776.1m-.318-2.705a5.336,5.336,0,0,0,2.054-.491,1.3,1.3,0,0,0,.746-1.666,1.268,1.268,0,0,0-1.688-.828,2.441,2.441,0,0,1-1.851,0,1.3,1.3,0,0,0-1.665.758,1.328,1.328,0,0,0,.744,1.74,4.674,4.674,0,0,0,1.661.49m-1.154-7.047a1.4,1.4,0,0,0-1.331-1.354,1.347,1.347,0,0,0-1.354,1.391,1.307,1.307,0,0,0,1.351,1.293,1.35,1.35,0,0,0,1.334-1.33m5.4,0a1.4,1.4,0,0,0-1.331-1.354,1.347,1.347,0,0,0-1.354,1.391,1.307,1.307,0,0,0,1.351,1.293,1.349,1.349,0,0,0,1.334-1.33" transform="translate(-31.845 -55.051)" fill="#e6c4a5"/>
        <path id="Trazado_654620" data-name="Trazado 654620" d="M71.888,229.059c-2.472,0-4.945-.018-7.417.014-.567.007-.7-.171-.689-.708.036-1.376.027-2.753,0-4.129-.007-.427.1-.581.557-.58q7.543.024,15.086,0c.456,0,.566.147.559.577-.024,1.4-.039,2.81.006,4.213.018.572-.221.625-.689.621-2.472-.018-4.944-.008-7.417-.008" transform="translate(-42.236 -148.104)" fill="#4f96e1"/>
        <path id="Trazado_654621" data-name="Trazado 654621" d="M143.715,229.057c-2.444,0-4.889-.022-7.332.015-.608.009-.749-.177-.73-.754.043-1.347.032-2.7,0-4.045-.01-.467.11-.623.6-.621q7.5.027,15,0c.495,0,.61.158.6.623-.028,1.348-.039,2.7,0,4.045.019.58-.127.761-.733.752-2.472-.036-4.944-.015-7.417-.015" transform="translate(-89.827 -148.102)" fill="#4f96e1"/>
        <path id="Trazado_654622" data-name="Trazado 654622" d="M82.527,91.65c.032,2.189.032,2.2-1.929,2.182-.635-.007-1.463.29-1.855-.145-.356-.395.017-1.178.08-1.787q.479-4.6.984-9.2a3.017,3.017,0,0,0-.612-2.348c-2.368-3.064-4.652-6.193-7.021-9.255a3.477,3.477,0,0,1-.406-2.486c.005-.441.438-.224.663-.171a8.4,8.4,0,0,1,4.395,2.654c2.419,2.7,3.536,6.007,4.356,9.443A57.162,57.162,0,0,1,82.527,91.65" transform="translate(-47.497 -45.254)" fill="#b8866c"/>
        <path id="Trazado_654623" data-name="Trazado 654623" d="M36.25,94.883c-.295-.2-.35-.524-.476-.793-.643-1.37-1.189-2.794-1.923-4.112A7.251,7.251,0,0,1,33.031,85c.673-4,1.46-7.95,3.512-11.515a9.55,9.55,0,0,1,5.918-4.915c.63-.163.884-.126.9.645a3.551,3.551,0,0,1-.789,2.379c-2.241,2.915-4.392,5.9-6.636,8.813A3.31,3.31,0,0,0,35.32,83c.4,3.71.755,7.424,1.117,11.138.023.233.139.506-.187.747" transform="translate(-21.79 -45.354)" fill="#b8866c"/>
        <path id="Trazado_654624" data-name="Trazado 654624" d="M89.559,12.133c-.334-1.1-.621-2.027-.9-2.96s-.155-1.1.8-1.1q3.833-.006,7.665,0,5.728,0,11.455,0c1.093,0,1.184.127.869,1.169-.275.91-.55,1.819-.864,2.859-.307-1.2-1.113-1.35-2.1-1.345q-7.454.042-14.908,0c-.961,0-1.743.159-2.012,1.375" transform="translate(-58.621 -5.345)" fill="#ba876d"/>
        <path id="Trazado_654625" data-name="Trazado 654625" d="M51.779,133.883c4.906,2.686,6.412,2.689,10.79-.016v2.111c0,1.682-.023,3.365.011,5.046.014.653-.16.7-.7.426-2.318-1.183-4.653-2.332-6.975-3.506a6.917,6.917,0,0,0-2.626-.815c-.253-.019-.51,0-.5-.384.014-.939,0-1.879,0-2.863" transform="translate(-34.285 -88.646)" fill="#93c093"/>
        <path id="Trazado_654626" data-name="Trazado 654626" d="M107.673,78.748c3.241,2.4,5.02,2.381,8.016-.017a12.686,12.686,0,0,1,.073,2.236c.011.273-.228.372-.4.5-1.071.811-2.161,1.6-3.219,2.425a.579.579,0,0,1-.86-.009c-.922-.729-1.853-1.45-2.824-2.111a1.485,1.485,0,0,1-.8-1.577,10.481,10.481,0,0,0,.012-1.447" transform="translate(-71.278 -52.135)" fill="#d5b69a"/>
        <path id="Trazado_654627" data-name="Trazado 654627" d="M159.649,97.776c1.267,1.246,2.5,2.449,3.717,3.659a5.218,5.218,0,0,1,.275,2.73.273.273,0,0,1-.136.089c-1.181.339-2.361.686-3.547,1.006-.381.1-.3-.226-.3-.424-.006-2.344,0-4.687,0-7.06" transform="translate(-105.717 -64.747)" fill="#b9866d"/>
        <path id="Trazado_654628" data-name="Trazado 654628" d="M207.5,97.9c0,2.311-.013,4.607.01,6.9.005.508-.141.637-.621.492-.99-.3-1.989-.566-2.981-.859a.754.754,0,0,1-.41-.244,4.2,4.2,0,0,1,.44-2.832c1.175-1.147,2.355-2.288,3.562-3.459" transform="translate(-134.687 -64.831)" fill="#b9866d"/>
        <path id="Trazado_654629" data-name="Trazado 654629" d="M179.446,117.077a5.073,5.073,0,0,0,5.526-.007c-.292,1.187.486,2.48-.816,3.191a3.973,3.973,0,0,1-3.949,0c-1.278-.709-.488-2.008-.761-3.187" transform="translate(-118.828 -77.523)" fill="#d5b69a"/>
        <path id="Trazado_654630" data-name="Trazado 654630" d="M94.394,154.03c0,.028,0,.056,0,.084a7.535,7.535,0,0,1-.117,2.048,14.088,14.088,0,0,1-2.416-1.126c-.184-.087-.164-.276-.164-.444,0-.787.016-1.574-.008-2.36-.011-.371.117-.521.481-.469a.465.465,0,0,0,.084,0c2.141-.081,2.141-.081,2.141,2.265" transform="translate(-60.715 -100.482)" fill="#e6c4a5"/>
        <path id="Trazado_654631" data-name="Trazado 654631" d="M130.452,93v3.013l-2.618-1.041L130.452,93" transform="translate(-84.651 -61.583)" fill="#81c8e4"/>
        <path id="Trazado_654632" data-name="Trazado 654632" d="M105.315,94.8a4.927,4.927,0,0,1,1.878,1.209c-1.239.607-1.239.607-1.878-1.209" transform="translate(-69.739 -62.777)" fill="#81c8e4"/>
        <path id="Trazado_654633" data-name="Trazado 654633" d="M111.771,55.367a7.918,7.918,0,0,1-3.087-.7,1.339,1.339,0,0,1-.816-1.772,1.309,1.309,0,0,1,1.869-.7,5.011,5.011,0,0,0,4.144-.006,1.33,1.33,0,0,1,1.877.693,1.355,1.355,0,0,1-.82,1.776,7.9,7.9,0,0,1-3.168.713" transform="translate(-71.36 -34.46)" fill="#060504"/>
        <path id="Trazado_654634" data-name="Trazado 654634" d="M110.438,33.414a1.348,1.348,0,1,1-1.29-1.383,1.358,1.358,0,0,1,1.29,1.383" transform="translate(-71.347 -21.21)" fill="#0b0908"/>
        <path id="Trazado_654635" data-name="Trazado 654635" d="M125.041,34.725a1.348,1.348,0,1,1,1.371-1.3,1.356,1.356,0,0,1-1.371,1.3" transform="translate(-81.926 -21.209)" fill="#0b0908"/>
        <path id="Trazado_654636" data-name="Trazado 654636" d="M179.7,91.292a8.016,8.016,0,0,1-3.093-.677,1.352,1.352,0,0,1-.852-1.826,1.321,1.321,0,0,1,1.887-.665,4.915,4.915,0,0,0,4.063,0,1.325,1.325,0,0,1,1.9.63,1.354,1.354,0,0,1-.821,1.838,7.987,7.987,0,0,1-3.088.7" transform="translate(-116.309 -58.246)" fill="#060504"/>
        <path id="Trazado_654637" data-name="Trazado 654637" d="M178.319,73.287a1.348,1.348,0,1,1-1.348-1.326,1.361,1.361,0,0,1,1.348,1.326" transform="translate(-116.297 -47.652)" fill="#0b0908"/>
        <path id="Trazado_654638" data-name="Trazado 654638" d="M192.913,71.961A1.347,1.347,0,1,1,191.6,73.32a1.357,1.357,0,0,1,1.313-1.359" transform="translate(-126.876 -47.652)" fill="#0b0908"/>
        <path id="Trazado_654639" data-name="Trazado 654639" d="M62.241,117.831a4.681,4.681,0,0,1-1.661-.49,1.328,1.328,0,0,1-.744-1.74,1.3,1.3,0,0,1,1.665-.758,2.441,2.441,0,0,0,1.851,0,1.268,1.268,0,0,1,1.688.828,1.3,1.3,0,0,1-.746,1.666,5.338,5.338,0,0,1-2.054.491" transform="translate(-39.556 -75.99)" fill="#060504"/>
        <path id="Trazado_654640" data-name="Trazado 654640" d="M58.474,100.345a1.349,1.349,0,0,1-1.334,1.33,1.307,1.307,0,0,1-1.351-1.293,1.347,1.347,0,0,1,1.354-1.391,1.4,1.4,0,0,1,1.331,1.354" transform="translate(-36.943 -65.551)" fill="#060504"/>
        <path id="Trazado_654641" data-name="Trazado 654641" d="M74.446,100.345a1.349,1.349,0,0,1-1.334,1.33,1.307,1.307,0,0,1-1.351-1.293,1.347,1.347,0,0,1,1.354-1.391,1.4,1.4,0,0,1,1.331,1.354" transform="translate(-47.52 -65.551)" fill="#060504"/>
      </g>
    </g>
  </g>
</svg>
