<svg xmlns="http://www.w3.org/2000/svg" width="203.607" height="208.762" viewBox="0 0 203.607 208.762">
  <g id="_14" data-name="14" transform="translate(243.436 -294.08)">
    <g id="OBJECTS" transform="translate(-243.436 294.08)">
      <rect id="Rectángulo_343739" data-name="Rectángulo 343739" width="190.633" height="190.633" rx="15.99" transform="translate(12.974 4.561)" fill="#dee4f0"/>
      <path id="Trazado_664406" data-name="Trazado 664406" d="M305.589,396.851s6.061-.645,8.277,9.5c2.45,11.232,5.921,28.876,6.038,40.894.059,6.413-4.936,6.823-8.477,9.121a19.873,19.873,0,0,1-9.121-9.321c-3.13-6.73-1.407-32.147-1.407-32.147l-.223-17.645,4.912-.4Z" transform="translate(-287.692 -262.294)" fill="#4b8b7a"/>
      <path id="Trazado_664407" data-name="Trazado 664407" d="M366.94,396.943s6.624-.551,18.7,1.067c12.263,1.641,16.285,3.154,18.559,4.01,4.889,1.817-9.414,10.305-19.943,7.245S367.034,402.418,366.94,396.943Z" transform="translate(-276.224 -262.292)" fill="#32293f"/>
      <path id="Trazado_664408" data-name="Trazado 664408" d="M415.82,453.981c.774-.152,1.548-.3,2.321-.469-1-6.413-1.735-11.032-1.735-11.032Z" transform="translate(-267.797 -254.426)" fill="none"/>
      <path id="Trazado_664409" data-name="Trazado 664409" d="M348.308,424.171c11,4.244,22.5,7.011,33.988,9.6a247.237,247.237,0,0,0,39.182,6.038,222.864,222.864,0,0,0,28.665-.352c-3.517-10.212-7.1-15.464-9.543-18.676-6.6-8.711-22.4-14.268-22.4-14.268l-12.4-2.767,2.5-16.566-29.076-2.392L376.375,399.8s-12.873.75-12.932,1.149c0,0-16.285,1.524-26.274,12.556-1.5,1.653-2.966,3.341-4.42,5.03,5.288,1.594,10.423,3.634,15.57,5.628Z" transform="translate(-282.119 -264.372)" fill="#fcbe8e"/>
      <path id="Trazado_664410" data-name="Trazado 664410" d="M400.276,397.227l1.512-10.036L372.713,384.8l-2.263,11.982c7.5,1.208,18.841,2.286,29.838.446Z" transform="translate(-275.619 -264.37)" fill="#eca377"/>
      <path id="Trazado_664411" data-name="Trazado 664411" d="M383.186,410.025c14.01,1.876,21.631-2.943,25.523-7.2-2.251-.61-4.268-1.172-4.268-1.172s-5.581,6.249-20.763,4.221c-14.374-1.923-15.98-9.145-15.98-9.145s-2.228.223-4.889.551c2.38,4.432,7.961,11.079,20.376,12.744Z" transform="translate(-276.936 -262.313)" fill="#3c7766"/>
      <path id="Trazado_664412" data-name="Trazado 664412" d="M416.233,453.441l1.114-.211c-.668-5.053-1.137-8.16-1.137-8.16l.023,8.371Z" transform="translate(-267.73 -253.979)" fill="#a4b1c8" opacity="0.4"/>
      <path id="Trazado_664413" data-name="Trazado 664413" d="M423.324,404.164c-.985-.223-3.341-.844-5.487-1.419-3.892,4.256-11.513,9.074-25.523,7.2-12.416-1.665-18-8.312-20.376-12.744-2.228.281-4.772.633-6.554,1.008a41.3,41.3,0,0,0-16.449,6.648c-7.5,4.924-26.109,19.521-39.135,51.457,0,0,3.236,2.72,18.008,1.735H461.392c0-43.6-29.767-52.031-38.068-53.872Z" transform="translate(-286.075 -262.232)" fill="#4b8b7a"/>
      <path id="Trazado_664414" data-name="Trazado 664414" d="M311.88,404.952h0v-.012Z" transform="translate(-285.717 -260.898)" fill="#4b8b7a"/>
      <path id="Trazado_664415" data-name="Trazado 664415" d="M311.88,404.952h0v-.012Z" transform="translate(-285.717 -260.898)" fill="#a4b1c8" opacity="0.4"/>
      <path id="Trazado_664416" data-name="Trazado 664416" d="M344.685,456.895l-.645-.082,2.673-30.283c2-14.972,14.456-28.2,14.585-28.325a.323.323,0,0,1,.457.457c-.129.129-12.439,13.2-14.409,27.962l-2.673,30.283Z" transform="translate(-280.172 -262.076)" fill="#3c7766"/>
      <path id="Trazado_664417" data-name="Trazado 664417" d="M417.462,447.939a.324.324,0,0,1-.281-.293c-.012-.129-1.2-13.412-1.36-17.574-.363-9.239-11.384-25.2-11.5-25.347a.31.31,0,0,1,.082-.446.318.318,0,0,1,.446.082c.457.657,11.232,16.273,11.607,25.7.164,4.15,1.348,17.41,1.36,17.551a.327.327,0,0,1-.293.352h-.07Z" transform="translate(-269.79 -261.022)" fill="#3c7766"/>
      <path id="Trazado_664418" data-name="Trazado 664418" d="M331.357,318.147s-5.252,37.4,6.835,53.6,21.221,21.326,37.435,24.538,62.173-3.611,67.789-13.365,15.147-39.862,10.048-60.144S331.357,318.147,331.357,318.147Z" transform="translate(-282.555 -276.855)" fill="#44332c"/>
      <path id="Trazado_664419" data-name="Trazado 664419" d="M442.279,320.2s.141,21.5-.856,46.931c-.8,20.587-18.055,40.085-43.25,40.718-23.683.6-47.858-9.883-53.907-43.32s.223-60.344,30.588-66.522,60.32-3.7,67.425,22.17Z" transform="translate(-280.492 -279.822)" fill="#fcbe8e"/>
      <path id="Trazado_664420" data-name="Trazado 664420" d="M398.089,309.393c-.117-.188-.2-.293-.2-.293S397.96,309.205,398.089,309.393Z" transform="translate(-270.888 -277.421)" fill="#f6a100"/>
      <path id="Trazado_664421" data-name="Trazado 664421" d="M356.183,369.368l-4.76-19.544s-17.457-7.152-19.1,11S349.747,380.647,356.183,369.368Z" transform="translate(-282.209 -270.64)" fill="#fcbe8e"/>
      <path id="Trazado_664422" data-name="Trazado 664422" d="M358.634,339.858s-3.845-4.76,4.9-10.177,11.689-4.033,12.955-1.1c1.161,2.673-.95,6.53-5.909,9.45-5.944,3.494-9.86,4.561-11.947,1.829Z" transform="translate(-277.801 -274.508)" fill="#44332c"/>
      <path id="Trazado_664423" data-name="Trazado 664423" d="M421.353,338.241s3.271-5.17-6.05-9.543-12.076-2.65-12.99.41c-.832,2.79,1.7,6.378,6.964,8.7C415.6,340.6,419.606,341.2,421.353,338.241Z" transform="translate(-270.152 -274.497)" fill="#44332c"/>
      <path id="Trazado_664424" data-name="Trazado 664424" d="M373.763,350.871c-.094,2.474-1.829,4.42-3.857,4.338s-3.6-2.157-3.505-4.631,1.829-4.42,3.857-4.338S373.857,348.4,373.763,350.871Z" transform="translate(-276.318 -271.019)"/>
      <path id="Trazado_664425" data-name="Trazado 664425" d="M412.023,351.361c-.094,2.474-1.829,4.42-3.857,4.338s-3.6-2.157-3.505-4.631,1.829-4.42,3.857-4.338S412.117,348.888,412.023,351.361Z" transform="translate(-269.721 -270.934)"/>
      <path id="Trazado_664426" data-name="Trazado 664426" d="M349.486,369.343a.628.628,0,0,1-.152-.035.379.379,0,0,1-.164-.492c.047-.082,4.279-8.676-1.665-12.979a8.055,8.055,0,0,0-6.225-1.735,10.05,10.05,0,0,0-5.792,3.916.363.363,0,1,1-.6-.41,10.627,10.627,0,0,1,6.261-4.221,8.787,8.787,0,0,1,6.788,1.864c6.436,4.678,1.934,13.8,1.888,13.893a.359.359,0,0,1-.34.2Z" transform="translate(-281.761 -269.806)" fill="#6c4820"/>
      <path id="Trazado_664427" data-name="Trazado 664427" d="M339.961,360.958a.345.345,0,0,1-.281-.152.359.359,0,0,1,.094-.5c.059-.047,6.354-4.268,10.7.457a.365.365,0,1,1-.539.492c-3.928-4.256-9.708-.387-9.754-.352a.308.308,0,0,1-.223.059Z" transform="translate(-280.935 -268.901)" fill="#6c4820"/>
      <path id="Trazado_664428" data-name="Trazado 664428" d="M393.562,364.177a.372.372,0,0,1-.328-.223.376.376,0,0,1,.2-.481,9.8,9.8,0,0,0,4.4-3.8c1.09-2,.9-5.1-.41-6.483a2.568,2.568,0,0,0-3.2-.317c-.047.023-.105.059-.2.105-4.584,2.427-6.565,1.172-7.41-.3-1.559-2.708.7-23.53.973-25.9a.364.364,0,0,1,.4-.317.358.358,0,0,1,.317.4c-.715,6.366-2.286,23.331-1.067,25.453,1.008,1.747,3.165,1.747,6.436.023.105-.059.176-.094.223-.117a3.292,3.292,0,0,1,4.045.481c1.524,1.618,1.77,5.041.516,7.328a10.372,10.372,0,0,1-4.76,4.127.346.346,0,0,1-.152.023Z" transform="translate(-272.927 -274.429)" fill="#6c4820"/>
      <path id="Trazado_664429" data-name="Trazado 664429" d="M389.867,367.151a10.091,10.091,0,0,1-6.6-4.115.286.286,0,0,1,.094-.4.292.292,0,0,1,.41.094,8.908,8.908,0,0,0,9.59,3.634.289.289,0,0,1,.352.211.3.3,0,0,1-.211.352,9.519,9.519,0,0,1-3.623.223Z" transform="translate(-273.417 -268.2)" fill="#6c4820"/>
      <path id="Trazado_664430" data-name="Trazado 664430" d="M420.27,368.973l.668-20.107s15.64-10.563,20.951,6.87-13.014,22.956-21.607,13.237Z" transform="translate(-267.03 -271.112)" fill="#fcbe8e"/>
      <path id="Trazado_664431" data-name="Trazado 664431" d="M426.145,367.679a.729.729,0,0,0,.141-.07.37.37,0,0,0,.059-.516c-.059-.07-5.956-7.621-1.02-13.049a8.021,8.021,0,0,1,5.745-2.966c3.588-.117,6.436,2.626,6.472,2.65a.365.365,0,0,0,.516-.516,10.647,10.647,0,0,0-7-2.861,8.76,8.76,0,0,0-6.261,3.212c-5.346,5.885.926,13.9,1,13.987a.359.359,0,0,0,.375.129Z" transform="translate(-266.621 -270.31)" fill="#6c4820"/>
      <path id="Trazado_664432" data-name="Trazado 664432" d="M433.108,357.584a.368.368,0,0,0,.246-.211.357.357,0,0,0-.2-.481c-.07-.035-7.093-2.872-10.387,2.638a.368.368,0,1,0,.633.375c2.978-4.971,9.414-2.368,9.485-2.333a.294.294,0,0,0,.223.012Z" transform="translate(-266.608 -269.313)" fill="#6c4820"/>
      <path id="Trazado_664433" data-name="Trazado 664433" d="M378.718,367.873c-.821,3.435-6.706,4.971-13.131,3.423s-10.974-5.581-10.153-9,6.706-4.971,13.131-3.423,10.974,5.581,10.153,9.016Z" transform="translate(-278.224 -268.945)" fill="#eca377"/>
      <path id="Trazado_664434" data-name="Trazado 664434" d="M400.7,368.237c.7,3.459,6.53,5.194,13.014,3.881s11.161-5.194,10.458-8.652-6.53-5.194-13.014-3.881S400,364.778,400.7,368.237Z" transform="translate(-270.416 -268.793)" fill="#eca377"/>
      <path id="Trazado_664435" data-name="Trazado 664435" d="M422.417,285.656c-23.425-5.206-45.994,3.306-54.423,7.1.809-4.9-1.325-10.657-2.978-10.681-2.181-.035-1.888,9.59-1.747,12.533a1.985,1.985,0,0,0-.258.047c-.891-2.2-3.623-8.078-6.612-6.014-2.04,1.407.328,4.479,2.814,6.929-7.668,2.333-25.476,6.8-27.938,27.821-2.919,24.9,7.773,36.872,7.773,36.872s3.189.914,15.171-3.33c3.623-1.278,14.784-50.191,27.552-37.165,27.118,27.657,40.987,25.1,64.775,30.213,8.371,1.806,5.1,7.234,8.746-8.711s-3.248-49.007-32.874-55.6Z" transform="translate(-282.46 -282.08)" fill="#44332c"/>
      <path id="Trazado_664436" data-name="Trazado 664436" d="M310.381,412.936s.035-.023.059-.035c2.943-2.1,1.606-23.858-4.174-25.453s-10.927-1.512-11.349.188c-.786,3.154,10.81,7.222,10.81,7.222s-14.233-3.67-14.819-.539,14.327,6.19,14.327,6.19-14.925-1.794-15.628,1.1c-1.008,4.959,16.5,4.842,16.5,4.842s-13.94,2.11-13.811,5.885c.082,2.321,5.487,3.025,10.528,2.6-1.419,3.271-2.556,7.2-.34,8.09,3.154,1.266,6.624-6.777,7.9-10.083Z" transform="translate(-289.564 -264.111)" fill="#fcbe8e"/>
      <path id="Trazado_664437" data-name="Trazado 664437" d="M416.783,443.623s.023-.035.035-.059c1.829-3.119,23.624-3.7,25.723,1.911s2.462,10.751.809,11.325c-3.072,1.055-8.148-10.13-8.148-10.13s4.912,13.858,1.852,14.714-7.421-13.729-7.421-13.729,3.1,14.714.281,15.663c-4.854,1.442-6.284-16-6.284-16s-.868,14.081-4.643,14.268c-2.321.117-3.505-5.206-3.517-10.259-3.142,1.712-6.952,3.177-8.031,1.055-1.536-3.025,6.167-7.2,9.356-8.758Z" transform="translate(-269.276 -254.642)" fill="#fcbe8e"/>
    </g>
  </g>
</svg>
