<svg xmlns="http://www.w3.org/2000/svg" xmlns:xlink="http://www.w3.org/1999/xlink" width="505" height="279.211" viewBox="0 0 505 279.211">
  <defs>
    <clipPath id="clip-path">
      <rect id="Rectángulo_309891" data-name="Rectángulo 309891" width="279.211" height="398.771" fill="#fff6db"/>
    </clipPath>
    <clipPath id="clip-path-2">
      <rect id="Rectángulo_343407" data-name="Rectángulo 343407" width="505" height="272.109" fill="none"/>
    </clipPath>
    <clipPath id="clip-path-4">
      <rect id="Rectángulo_343394" data-name="Rectángulo 343394" width="29.876" height="52.744" fill="none"/>
    </clipPath>
    <clipPath id="clip-path-5">
      <rect id="Rectángulo_343395" data-name="Rectángulo 343395" width="0.457" height="1.459" fill="none"/>
    </clipPath>
    <clipPath id="clip-path-6">
      <rect id="Rectángulo_343396" data-name="Rectángulo 343396" width="2.435" height="0.457" fill="none"/>
    </clipPath>
    <clipPath id="clip-path-7">
      <rect id="Rectángulo_343397" data-name="Rectángulo 343397" width="3.672" height="3.06" fill="none"/>
    </clipPath>
    <clipPath id="clip-path-8">
      <rect id="Rectángulo_343398" data-name="Rectángulo 343398" width="1.311" height="0.26" fill="none"/>
    </clipPath>
    <clipPath id="clip-path-9">
      <rect id="Rectángulo_343399" data-name="Rectángulo 343399" width="3.933" height="1.372" fill="none"/>
    </clipPath>
  </defs>
  <g id="_4" data-name="4" transform="translate(-911.5 -7992.623)">
    <g id="Grupo_995696" data-name="Grupo 995696" transform="translate(1353.085 7992.623) rotate(90)">
      <g id="Grupo_995683" data-name="Grupo 995683" clip-path="url(#clip-path)">
        <path id="Trazado_654602" data-name="Trazado 654602" d="M269.487,196.521s29.8,85.627-14.933,126.838-103.148-59.071-147.773,44.456C75.268,440.923-9.981,403.528.964,326.13c12.454-88.072,55.906-28.186,30.084-222.649C18.261,7.186,197.286-63.975,269.487,196.521" transform="translate(0 -8.39)" fill="#fff6db"/>
        <path id="Trazado_654603" data-name="Trazado 654603" d="M469.957,33.161s18.293,9.567,15.849,23.28-25.155,1.952-28.862-10.305,6.712-17.488,13.013-12.975" transform="translate(-265.394 -16.467)" fill="#fff6db"/>
        <path id="Trazado_654604" data-name="Trazado 654604" d="M400.55,7.266c1.417-6.107,7.486-9.005,12.427-6.175,3.889,2.228,7.639,6,6.5,12.071-2.2,11.748-12.657,5.515-17.2,1.4-1.925-1.747-2.172-5.4-1.733-7.291" transform="translate(-232.928 0)" fill="#fff6db"/>
        <path id="Trazado_654605" data-name="Trazado 654605" d="M533.034,692.31s17.856-7.7,24.2,2.33-15.4,19.708-24.6,15.131-5.945-15.47.4-17.461" transform="translate(-306.56 -359.787)" fill="#fff6db"/>
        <path id="Trazado_654606" data-name="Trazado 654606" d="M616.028,662.911c-4.693,1.57-6.8,7.772-4.5,12.705,1.81,3.884,4.812,7.591,9.483,6.305,9.038-2.489,8.554-13.466,1.605-17.939a9.454,9.454,0,0,0-6.59-1.071" transform="translate(-355.238 -345.808)" fill="#fff6db"/>
      </g>
    </g>
    <g id="Grupo_997173" data-name="Grupo 997173" transform="translate(911.5 7999.725)">
      <g id="Grupo_997172" data-name="Grupo 997172" clip-path="url(#clip-path-2)">
        <g id="Grupo_997171" data-name="Grupo 997171" transform="translate(0 0)">
          <g id="Grupo_997170" data-name="Grupo 997170" clip-path="url(#clip-path-2)">
            <path id="Trazado_662707" data-name="Trazado 662707" d="M253.69,1029.409a11.194,11.194,0,0,1-10.663,7.485c-24.589-.221-107.056-.933-150.658-.933-51.629,0-111.663,10.321-82.962-55.1,8.484-19.337-27.173-88.465,2.856-118.494,8.227-8.227,26.176-11.521,48.632-10.555,14.9.641,24.182,2.276,41.532,6.475,4.579,1.108,10.294,2.392,14.91,3.731,4.29,1.245,26.48,5.85,30.755,7.287,11.346,3.816,15.516,8,26.172,13.1,29.993,14.361,51.243,31.467,63.061,54.382,25.514,49.47,20.941,79.6,16.365,92.615" transform="translate(0 -784.057)" fill="#e1be68"/>
            <path id="Trazado_662708" data-name="Trazado 662708" d="M649.012,1703.708c-9.257,17.9-86.634,11.708-119.084-5.077s-30.891-30.792-11.9-37.509c8.773-3.1,9.045-2.033,9.045-2.033s23.173,1.992,54.15,3.817c50.206,2.957,77.041,22.907,67.784,40.8" transform="translate(-464.45 -1527.244)" fill="#bb9958"/>
            <path id="Trazado_662709" data-name="Trazado 662709" d="M2207.489,1734.161c30.135,6.209,49.7,8.936,42.613-20.476-22.911-11.327-46.4,3.36-42.613,20.476" transform="translate(-2031.909 -1573.999)" fill="#bb9958"/>
            <path id="Trazado_662710" data-name="Trazado 662710" d="M2301.582,1746.872c23.867,4.917,45.819,12.455,36.867-21.981-16.51-6.042-36.706,7.922-36.867,21.981" transform="translate(-2118.906 -1586.655)" fill="#e1be68"/>
            <path id="Trazado_662711" data-name="Trazado 662711" d="M2193.236,1958.074c22.644,20.83,38.021,33.238,47.075,4.37-13.817-21.5-44.6-17.922-47.075-4.37" transform="translate(-2019.16 -1792.57)" fill="#bb9958"/>
            <path id="Trazado_662712" data-name="Trazado 662712" d="M2301.582,2055.6c17.935,16.5,28.431,34.5,38.476.365-10.644-8.9-24.308-10.323-38.476-.365" transform="translate(-2118.906 -1886.087)" fill="#e1be68"/>
            <path id="Trazado_662713" data-name="Trazado 662713" d="M460.874,1385.3c-36.037-4.186-65.084-23.651-46.273-53.963,26.432-6.609,43.731,28.307,46.273,53.963" transform="translate(-376.259 -1224.917)" fill="#bb9958"/>
            <path id="Trazado_662714" data-name="Trazado 662714" d="M422.8,1378.477c-36.037-4.186-63.486-27.861-44.675-58.173,21.2,1.742,42.132,32.517,44.675,58.173" transform="translate(-342.492 -1215.512)" fill="#e1be68"/>
            <path id="Trazado_662715" data-name="Trazado 662715" d="M1865.726,998.822l18.848,29.49,33.4,5.136-9.923,11.22s-26.689-2.4-33.02-5.149-22.04-20.395-22.04-20.395Z" transform="translate(-1705.919 -919.546)" fill="#9d4949"/>
            <path id="Trazado_662716" data-name="Trazado 662716" d="M1922.281,818.191l17.65,29.33c-.685,6.462-6.831,9.389-13.662,10.147Z" transform="translate(-1769.71 -753.251)" fill="#e1cdc3"/>
            <path id="Trazado_662717" data-name="Trazado 662717" d="M1065.741,709.641c5.389,20.716,11.79,33.554,11.79,33.554a7.728,7.728,0,0,1-2.162,9.248c-9.341,7.858-82.03,34.764-42.177,24.707,4.412-1.113,16.963,2.577,32.521,14.458L991.9,795.039l53.566-37.828L1016,733.98c-9.843-19.172-.775-26.986,26.159-32.91,16.346-3.6,22.957,6.153,23.586,8.571" transform="translate(-913.17 -644.701)" fill="#f6e2da"/>
            <path id="Trazado_662718" data-name="Trazado 662718" d="M1072.821,996.419c-2.771,11.5-11.93,13.935-22.685,21.2,0,0-5.3,10.828,10.258,22.71l-74.275,7.09c4.362-14.223,15.791-36.567,17.559-36.57l3.692-37.433c-.112-4.106,1.229-5.448,9.351,5.977,1.435,2.018,8.934,6.251,11.562,8.878,5.783,5.783,1.639,11.745,9.647,15.164,9.973,4.258,20.906-6.558,25.235-4.883,8.52,3.3,9.656-2.137,9.656-2.137" transform="translate(-907.851 -893.426)" fill="#e1cdc3"/>
            <path id="Trazado_662719" data-name="Trazado 662719" d="M1063.922,1622.458c-46.061,3.656-65.708,0-77.627,14.678-5.107,6.29-6.122,18.352,5.406,28.106s19.228,7.863,19.228,7.863c22.13-1.3,33.546-6.639,52.012-12.209Z" transform="translate(-904.656 -1493.684)" fill="#971c40"/>
            <path id="Trazado_662720" data-name="Trazado 662720" d="M1066.023,1831.154c-18.466,5.57-29.882,10.907-52.012,12.209,0,0-7.7,1.891-19.228-7.863s-9.875-21.348-5.405-28.106c20.4,3.962,29.761,27.3,71.017,23.307l-5.585-3.338,5.5,1.1-1.876-5.557Z" transform="translate(-907.739 -1663.942)" fill="#711d3f"/>
            <path id="Trazado_662721" data-name="Trazado 662721" d="M785.633,2120.01c21.468-13.715,77.3-18.281,88.2,26.478-37.375,22.144-84.142,16.047-88.2-26.478" transform="translate(-723.277 -1943.004)" fill="#bb9958"/>
            <path id="Trazado_662722" data-name="Trazado 662722" d="M717.227,2151.868c21.468-13.716,80.9-7.314,93.628,26.478-34.854,24.665-92.194,16.047-93.628-26.478" transform="translate(-660.301 -1974.862)" fill="#e1be68"/>
            <path id="Trazado_662723" data-name="Trazado 662723" d="M445.615,1748.472c-47.024,8.012-83.661,2.028-71.1-43.167,36.1-16.328,71.1,14.831,71.1,43.167" transform="translate(-342.493 -1565.804)" fill="#bb9958"/>
            <path id="Trazado_662724" data-name="Trazado 662724" d="M439.867,1782.184c-37.244,6.346-86.812,9.714-71.1-43.167,25.9-8.48,61.066,18.265,71.1,43.167" transform="translate(-336.744 -1599.516)" fill="#e1be68"/>
            <path id="Trazado_662725" data-name="Trazado 662725" d="M478.488,1983.356c-30.374-3-51.972-12.889-36.584-38.658,25.041-3.974,41.374,21.17,36.584,38.658" transform="translate(-402.142 -1789.962)" fill="#bb9958"/>
            <path id="Trazado_662726" data-name="Trazado 662726" d="M471.682,1987.944c-24.057-2.379-55.215-8.678-36.584-38.658,17.419-.855,34.6,21.593,36.584,38.658" transform="translate(-395.337 -1794.55)" fill="#e1be68"/>
            <path id="Trazado_662727" data-name="Trazado 662727" d="M779.979,2408.236c-33.025,12.318-57.81-.691-63.282-13.469,22.326-21.246,56.016-7.34,63.282,13.469" transform="translate(-659.813 -2194.935)" fill="#bb9958"/>
            <path id="Trazado_662728" data-name="Trazado 662728" d="M779.979,2464.589c-25.722,14.209-57.81,6.637-63.282-13.469,16.847-12.869,49.525-2.244,63.282,13.469" transform="translate(-659.813 -2251.289)" fill="#e1be68"/>
            <path id="Trazado_662729" data-name="Trazado 662729" d="M1510.486,356.158a12.284,12.284,0,1,1-17.372,0,12.284,12.284,0,0,1,17.372,0" transform="translate(-1371.293 -324.578)" fill="#33111d"/>
            <path id="Trazado_662730" data-name="Trazado 662730" d="M1510.485,415.264a12.284,12.284,0,0,1-17.372-17.372c.966,12.291,10.269,17.08,17.372,17.372" transform="translate(-1371.293 -366.311)" fill="#33111d"/>
            <path id="Trazado_662731" data-name="Trazado 662731" d="M1595.623,309.382l-32.236-2.86,5.53,20.483c.3,2.208-1.415,7.74-1.415,7.74l-4.078,3-6.422,1.8s10.469,13.76,21.352,12.437c9.49-1.154,4.457-9.884,4.457-9.884s9.853-21.946,12.811-32.722" transform="translate(-1433.424 -282.193)" fill="#c97b71"/>
            <path id="Trazado_662732" data-name="Trazado 662732" d="M1715.353,226.169l-3.429,5.709a19.443,19.443,0,0,1-7.307-2.754,9.508,9.508,0,0,1-4.237-8.221l-3.134-34.11,18.693,40.653Z" transform="translate(-1562.537 -171.967)" fill="#9d4949"/>
            <path id="Trazado_662733" data-name="Trazado 662733" d="M1671.542,92.536c7.541-.118,12.15,10.135,9.959,18.619-.355,1.374-.094,1.381-.49,3.446-.035.184-.076.39-.12.612a27.73,27.73,0,0,0-.173,9.384c.049.335.091.7.126,1.112.2,2.376-2.315,10.244-4.116,15.5a5.445,5.445,0,0,1-6.8,3.431c-5.825-1.851-14.844-5.083-16.725-7.871-2.826-4.191-3.713-7.534-4.313-12.925l-4.483-11.324c-1.02-8.083,4.42-19.548,12.567-19.676Z" transform="translate(-1513.78 -85.191)" fill="#c97b71"/>
            <path id="Trazado_662734" data-name="Trazado 662734" d="M1598.455,23.506c-4.089-16.009-18.708-11.376-18.708-11.376s-11.573,9.45-10.342,13.98c.978,3.618,3.519,5.03.323,7.16s-2.325-2.027-4.542-.236-2.728,8.071-2.728,8.071c-16.65-3.951-8.5-43.714,12.615-40.971,23.538,3.058,28.2,11.79,23.382,23.371" transform="translate(-1430.258 0.001)" fill="#33111d"/>
            <path id="Trazado_662735" data-name="Trazado 662735" d="M1679.146,177.862c3.422-4.583,14.5-5.59,13.441-25.024l-11.829,1.465c-5.8,7.748-5.927,15.161-1.611,23.559" transform="translate(-1543.098 -140.707)" fill="#33111d"/>
            <path id="Trazado_662736" data-name="Trazado 662736" d="M1883.458,99.1l7.244-4.633,14.3,2.317c1.191,10.9-.322,12.679-3.311,16.15.01-9.233-8.288-16.635-18.232-13.834" transform="translate(-1733.968 -86.967)" fill="#33111d"/>
            <path id="Trazado_662737" data-name="Trazado 662737" d="M1883.458,63.049c22.379-21.458,30.153,7.872,18.232,13.834,5.418-11.949.433-21.8-18.232-13.834" transform="translate(-1733.968 -50.918)" fill="#33111d"/>
            <path id="Trazado_662738" data-name="Trazado 662738" d="M1634.071,390.2c-.007.027-.014.054-.021.081a7.941,7.941,0,0,0,.2,5.238,9.048,9.048,0,0,0,1.991,2.75c.5.377.639,1.656.833,2.386.608,2.291,2.339,1.848,3.311.613l.012-.03c.769-2.012,1.731-4.305,1.37-6.5a31.266,31.266,0,0,0-1.12-4.819,3.37,3.37,0,0,0-6.576.278" transform="translate(-1504.04 -356.667)" fill="#c97b71"/>
            <path id="Trazado_662739" data-name="Trazado 662739" d="M1650.657,413.731a.291.291,0,0,0,.262-.22l.06-.168a4.059,4.059,0,0,0,.368-2.281.954.954,0,0,0-.527-.62,2.519,2.519,0,0,0-.653-.179c-.338-.055-.382-.062-.492-.607-.066-.325.223-.645.545-.944a1.248,1.248,0,0,0,.2-.213c-.014.025.006.012.029,0a1.688,1.688,0,0,0,.788-1.162,4.18,4.18,0,0,0-.7-2.668c-.448-.811-.97-1.22-1.572-1.2-1.236.032-2.259,1.914-2.3,1.994a.477.477,0,0,0,.059.533.238.238,0,0,0,.392-.088c.009-.017.9-1.651,1.853-1.674.432-.02.779.285,1.12.9a3.3,3.3,0,0,1,.6,2.029.958.958,0,0,1-.485.648.63.63,0,0,0-.2.181c-.012.013-.051.047-.1.091a1.918,1.918,0,0,0-.776,1.789c.2.962.492,1.077.959,1.153a2.118,2.118,0,0,1,.55.148.3.3,0,0,1,.187.195,3.757,3.757,0,0,1-.353,1.647l-.062.172a.447.447,0,0,0,.129.509.215.215,0,0,0,.113.036" transform="translate(-1515.919 -371.444)" fill="#9d4949"/>
            <path id="Trazado_662740" data-name="Trazado 662740" d="M1974.4,397.209l2.834-1.476c.909-.531.55-1.294.032-2.11l-.151-.237c-1.367-2.151-1.561-5.331-1.8-7.869,0,0,.012-1.583,1-1.974.551-.217.6,1.216.659,2.5a22.8,22.8,0,0,0,1.446,6.748c.415,1.023,2.162,3.044-.112,3.8Z" transform="translate(-1817.688 -353.082)" fill="#9d4949"/>
            <path id="Trazado_662741" data-name="Trazado 662741" d="M1987.305,344.384a6.264,6.264,0,0,0-1.717,4.857l1.479,4.771,3.577-.178,4.623-8.246c-1.468-1.705-4.536-1.65-7.962-1.2" transform="translate(-1827.964 -316.805)" fill="#9d4949"/>
            <path id="Trazado_662742" data-name="Trazado 662742" d="M1887.272,417.532a1.921,1.921,0,1,1-1.72-2.282,2.027,2.027,0,0,1,1.72,2.282" transform="translate(-1733.968 -382.286)" fill="#33111d"/>
            <path id="Trazado_662743" data-name="Trazado 662743" d="M1846.27,410.524c.032.441,1.216-.186,1.883-.428a7.678,7.678,0,0,1,2.559-.46c2.3-.013,2.616.7,3.017.351.465-.406-1.6-1.517-4.741-1.292a2.874,2.874,0,0,0-2.718,1.828" transform="translate(-1699.731 -376.23)" fill="#33111d"/>
            <path id="Trazado_662744" data-name="Trazado 662744" d="M1827.774,406.743c-1.511.487-2.333.518-3.2-.533.21,1.831,1.115,2.354,2.008,2.2Z" transform="translate(-1679.758 -373.969)" fill="#33111d"/>
            <path id="Trazado_662745" data-name="Trazado 662745" d="M2028.236,419.767c.07,1.17.829,2.038,1.7,1.938a2.042,2.042,0,0,0,1.443-2.3c-.07-1.17-.829-2.038-1.7-1.938a2.041,2.041,0,0,0-1.443,2.3" transform="translate(-1867.251 -384.326)" fill="#33111d"/>
            <path id="Trazado_662746" data-name="Trazado 662746" d="M2023.417,412.969c-.023.441-.883-.186-1.367-.428a4.222,4.222,0,0,0-1.858-.46c-1.669-.013-1.9.7-2.191.352-.337-.406,1.162-1.517,3.442-1.292a2.314,2.314,0,0,1,1.973,1.828" transform="translate(-1857.79 -378.481)" fill="#33111d"/>
            <path id="Trazado_662747" data-name="Trazado 662747" d="M2073.267,409.188c1.1.487,1.694.518,2.323-.533-.153,1.831-.81,2.354-1.458,2.2Z" transform="translate(-1908.713 -376.22)" fill="#33111d"/>
            <path id="Trazado_662748" data-name="Trazado 662748" d="M1826.406,324.618a17.8,17.8,0,0,0-8.387-.474,1.176,1.176,0,0,1-1.351-.957l-.006-.115a.742.742,0,0,1,.635-.759c3.774-.8,6.569-.836,9.741.728a1.18,1.18,0,0,1,.543.537l.011.023c.331.7-.362,1.286-1.185,1.017" transform="translate(-1672.473 -296.23)" fill="#33111d"/>
            <path id="Trazado_662749" data-name="Trazado 662749" d="M2008.016,332.513a12.469,12.469,0,0,1,6.913.113.839.839,0,0,0,1.05-.837l0-.111a.848.848,0,0,0-.581-.78c-3.185-1.039-5.5-1.261-8.017.041a.858.858,0,0,0-.411.484l-.007.021a.841.841,0,0,0,1.056,1.069" transform="translate(-1847.625 -303.844)" fill="#33111d"/>
            <path id="Trazado_662750" data-name="Trazado 662750" d="M1893.683,590.524s2.982,4.962,7.292,5.3c2.031.158.308-1.28.353-2.566s2.074-2.2.038-2.273-7.684-.459-7.684-.459" transform="translate(-1743.382 -543.654)" fill="#762929"/>
            <path id="Trazado_662751" data-name="Trazado 662751" d="M1899.71,594.165c1.222-.053,3.542-.544,3.494.426.066,1.324-2.063,1.626-3.623,1.349-3.589-.638-5.955-3.71-5.906-5.417.742.953,3.6,3.747,6.035,3.641" transform="translate(-1743.374 -543.654)" fill="#9d4949"/>
            <path id="Trazado_662752" data-name="Trazado 662752" d="M1902.391,590.542l-.157,1.951a11.2,11.2,0,0,1-8.55-1.969,24.711,24.711,0,0,0,8.708.018" transform="translate(-1743.382 -543.654)" fill="#fff"/>
            <path id="Trazado_662753" data-name="Trazado 662753" d="M1893.683,580.44s8.1,2.154,10.817.225c.109-.078-.085-.165-.312-.124-1.324.239-.773-.967-1.651-.934-.651.024-.626.824-1.279.826s-.562-.844-1.215-.861c-1.335-.034-1.995,1.284-6.058.69a.279.279,0,0,0-.3.179" transform="translate(-1743.382 -533.57)" fill="#9d4949"/>
            <path id="Trazado_662754" data-name="Trazado 662754" d="M1471.14,713.786s9.745,14.685,18.843,13.142c4.406-.747,4.457-9.884,4.457-9.884l5.679,7.028c-.1,3.389,0,8.247-.833,8.215l-5.675-3.27-3.627-2.09-3.876,3.217-6.31,5.237c-8.252-4.7-13.684-9.706-18.785-18.455a71.491,71.491,0,0,1,10.128-3.141" transform="translate(-1345.052 -657.133)" fill="#fff"/>
            <path id="Trazado_662755" data-name="Trazado 662755" d="M2494.965,2498.193l8,15.94,3.831,7.636,21.7,43.244a4.4,4.4,0,0,1-2.126,6.021,12.155,12.155,0,0,1-9.132.188l-1.575-.94a21.235,21.235,0,0,1-9.094-11.051l-2.019-5.62-6.632-6.572a9.313,9.313,0,0,1-2.757-6.573l-.044-9.736-17.537-24.8Z" transform="translate(-2280.932 -2299.912)" fill="#c97b71"/>
            <path id="Trazado_662756" data-name="Trazado 662756" d="M2731.952,2947.225a12.158,12.158,0,0,1-11.309,1.4l-1.575-.94a21.237,21.237,0,0,1-9.095-11.051l-2.018-5.62-6.632-6.571a9.311,9.311,0,0,1-2.757-6.573l-.044-9.736c4.111,14.642,26.8,38.06,28.937,25.429l5.273,10.509a2.489,2.489,0,0,1-.78,3.153" transform="translate(-2484.341 -2677.316)" fill="#2c1f37"/>
            <path id="Trazado_662757" data-name="Trazado 662757" d="M1952.576,1595.634c19.97,1.675,29.015,32.27,29.015,32.27l25.611,52.438c-8.179-2.612-12.849,4.745-13.745,9.093l-32.061-35.652a35.838,35.838,0,0,1-5.671-9.121l-8.776-20.421c-16.957-28.489,5.626-28.607,5.626-28.607" transform="translate(-1786.61 -1468.989)" fill="#711d3f"/>
            <path id="Trazado_662758" data-name="Trazado 662758" d="M2555.173,2291.725l12.8,12.414,6.134,5.947,34.737,33.676a4.4,4.4,0,0,1-.023,6.385,12.155,12.155,0,0,1-8.559,3.188l-1.8-.369a21.233,21.233,0,0,1-12.229-7.436l-3.758-4.641-8.427-4.019a9.314,9.314,0,0,1-4.77-5.3l-3.25-9.178-24.73-17.634Z" transform="translate(-2339.603 -2109.832)" fill="#c97b71"/>
            <path id="Trazado_662759" data-name="Trazado 662759" d="M2897.327,2704.039a12.158,12.158,0,0,1-10.215,5.05l-1.8-.369a21.232,21.232,0,0,1-12.229-7.436l-3.758-4.641-8.427-4.019a9.314,9.314,0,0,1-4.77-5.3l-3.251-9.177c8.707,12.469,37.849,27.1,35.7,14.472l8.442,8.184a2.489,2.489,0,0,1,.3,3.234" transform="translate(-2626.449 -2465.586)" fill="#2c1f37"/>
            <path id="Trazado_662760" data-name="Trazado 662760" d="M1764.419,1617.484c19.406-5,34.722,22.059,34.722,22.059l41.462,41.067c-8.583.23-10.567,8.715-9.98,13.115l-42.02-23.094a35.841,35.841,0,0,1-8.36-6.742l-15.015-16.388c-25.4-21.308-.808-30.018-.808-30.018" transform="translate(-1614.533 -1488.537)" fill="#971c40"/>
            <path id="Trazado_662761" data-name="Trazado 662761" d="M1371.2,1514.9c13.291,7.469,40.691-8.253,40.691-8.253l-.534-12.31s-21.64,5.378-30.949,5.885c-13.206-2.047-18.653,9.37-9.208,14.678" transform="translate(-1257.997 -1375.734)" fill="#c97b71"/>
            <rect id="Rectángulo_343387" data-name="Rectángulo 343387" width="2.397" height="24.141" transform="translate(178.363 94.386) rotate(-11.095)" fill="#344e7f"/>
            <rect id="Rectángulo_343388" data-name="Rectángulo 343388" width="3.033" height="13.268" transform="translate(177.398 91.12) rotate(-11.095)" fill="#5175b2"/>
            <path id="Trazado_662762" data-name="Trazado 662762" d="M2268.015,1162.519a.588.588,0,0,0-.57-.947c-.421-.226-.49-2.413-.537-3.861-.1-3.063-.209-6.534-1.983-8.125a3.333,3.333,0,0,0-2.581-.806.588.588,0,1,0,.089,1.172,2.174,2.174,0,0,1,1.707.509c1.4,1.256,1.507,4.6,1.593,7.288.076,2.38.132,4.1.945,4.747a1.182,1.182,0,0,0,.994.23.585.585,0,0,0,.343-.206" transform="translate(-2082.283 -1057.589)" fill="#344e7f"/>
            <path id="Trazado_662763" data-name="Trazado 662763" d="M2236.82,1109.934l1.946-.382-.391-1.993a.992.992,0,0,0-1.947.382Z" transform="translate(-2058.907 -1018.915)" fill="#344e7f"/>
            <path id="Trazado_662764" data-name="Trazado 662764" d="M1907.757,1410.965l10.624-1.865a34.939,34.939,0,0,1,6.476-5.032c2.784-1.412,13.741,2.763,13.741,2.763l-9.076,16.826-15.862-2.523-5.37,2.141c-2.74-1.967-4.01-10.4-.533-12.309" transform="translate(-1754.394 -1292.359)" fill="#c97b71"/>
            <path id="Trazado_662765" data-name="Trazado 662765" d="M2077.929,1056.482l41.95-62.194,39.886,3.107-41.186,59.087Z" transform="translate(-1913.004 -915.371)" fill="#a15959"/>
            <rect id="Rectángulo_343389" data-name="Rectángulo 343389" width="75.02" height="1.378" transform="matrix(0.559, -0.829, 0.829, 0.559, 164.362, 140.732)" fill="#653647"/>
            <path id="Trazado_662766" data-name="Trazado 662766" d="M2624.93,1405.554s4.066,4.1,4.066,8.666-12.205,12.205-12.205,12.205l-11.234-3.161s.734-11.478,5.252-15.367c3.07-2.643,11.378,1.59,11.378,1.59Z" transform="translate(-2398.756 -1293.995)" fill="#c97b71"/>
            <path id="Trazado_662767" data-name="Trazado 662767" d="M2757.4,950.323l-1.175,1.446,2.852.19-2.952,3.709-18.212-1.354,2.835-3.708,4.151.3,2.18-2.46c1.717-1.717,10.321-.994,10.321,1.878" transform="translate(-2520.608 -872.321)" fill="#dbdbdb"/>
            <path id="Trazado_662768" data-name="Trazado 662768" d="M1224.324,1101.3c-8.432-15.925-11.625-30.04-12.7-51.183h18.961c3.643,17.072,5.22,32.163,8.7,41.036Z" transform="translate(-1115.453 -966.769)" fill="#c97b71"/>
            <path id="Trazado_662769" data-name="Trazado 662769" d="M1186.845,809.474c-6.4,6.4-9.254,25.046-7.639,40.177,8.16,5.231,20.3,4.781,27.617-2l-5.968-26.844c-4.834-12.084-4.128-21.211-14.011-11.329" transform="translate(-1085.204 -741.364)" fill="#f6e2da"/>
            <path id="Trazado_662770" data-name="Trazado 662770" d="M1818.331,894.29a1.1,1.1,0,1,1-1.1-1.1,1.1,1.1,0,0,1,1.1,1.1" transform="translate(-1671.985 -822.298)" fill="#e1cdc3"/>
            <path id="Trazado_662771" data-name="Trazado 662771" d="M1910.623,1261.022a1.1,1.1,0,1,1-1.1-1.1,1.1,1.1,0,0,1,1.1,1.1" transform="translate(-1756.952 -1159.922)" fill="#e1cdc3"/>
            <path id="Trazado_662772" data-name="Trazado 662772" d="M1855.19,1081.837a1.1,1.1,0,1,1-1.1-1.1,1.1,1.1,0,0,1,1.1,1.1" transform="translate(-1705.919 -994.959)" fill="#e1cdc3"/>
            <path id="Trazado_662773" data-name="Trazado 662773" d="M5523.817,2223.771v-.864a3.3,3.3,0,0,0-3.3-3.3h7.622a3.73,3.73,0,1,1,0,7.459h-7.622a3.3,3.3,0,0,0,3.3-3.3" transform="translate(-5082.357 -2043.439)" fill="#cc69bf"/>
            <path id="Trazado_662774" data-name="Trazado 662774" d="M5483.331,2133.082a3.3,3.3,0,0,0,3.3-3.3v-.864a3.3,3.3,0,0,0-3.3-3.3h6.8a3.73,3.73,0,0,1,0,7.459h-6.8Z" transform="translate(-5048.121 -1956.912)" fill="#c7e375"/>
            <path id="Trazado_662775" data-name="Trazado 662775" d="M5354.083,1851.125a3.3,3.3,0,0,0,3.3-3.3v-.864a3.3,3.3,0,0,0-3.3-3.3h3.937a3.73,3.73,0,0,1,0,7.459h-3.937Z" transform="translate(-4929.131 -1697.334)" fill="#cc6d6d"/>
            <path id="Trazado_662776" data-name="Trazado 662776" d="M5331.473,1757.138v-5.791a1.657,1.657,0,0,0-.461-1.14,2.125,2.125,0,0,1,3.528,1.605v5.325h-3.066Z" transform="translate(-4907.891 -1610.806)" fill="#c7e375"/>
            <path id="Trazado_662777" data-name="Trazado 662777" d="M5398.236,1945.111a3.3,3.3,0,0,0,3.3-3.3v-.864a3.3,3.3,0,0,0-3.3-3.3h4.915a3.73,3.73,0,0,1,0,7.46h-4.915Z" transform="translate(-4969.78 -1783.86)" fill="#6481e8"/>
            <path id="Trazado_662778" data-name="Trazado 662778" d="M5441.182,2039.1a3.3,3.3,0,0,0,3.3-3.3v-.864a3.3,3.3,0,0,0-3.3-3.3h5.865a3.73,3.73,0,1,1,0,7.459h-5.865Z" transform="translate(-5009.317 -1870.385)" fill="#da9e52"/>
            <path id="Trazado_662779" data-name="Trazado 662779" d="M5069.522,2223.771v-.864a3.3,3.3,0,0,1,3.3-3.3h32.5a3.3,3.3,0,0,1,3.3,3.3v.864a3.3,3.3,0,0,1-3.3,3.3h-32.5a3.3,3.3,0,0,1-3.3-3.3" transform="translate(-4667.155 -2043.439)" fill="#e381d1"/>
            <path id="Trazado_662780" data-name="Trazado 662780" d="M5133.255,2125.621h3.346a3.3,3.3,0,0,1,3.3,3.3v.864a3.3,3.3,0,0,1-3.3,3.3h-26.594a3.3,3.3,0,0,1-3.3-3.3v-.864a3.3,3.3,0,0,1,3.3-3.3h23.249Z" transform="translate(-4701.391 -1956.911)" fill="#e0ff96"/>
            <path id="Trazado_662781" data-name="Trazado 662781" d="M5253.626,1843.665H5255a3.3,3.3,0,0,1,3.3,3.3v.864a3.3,3.3,0,0,1-3.3,3.3h-4.812a3.73,3.73,0,1,1,0-7.459h3.443Z" transform="translate(-4830.044 -1697.334)" fill="#e38686"/>
            <path id="Trazado_662782" data-name="Trazado 662782" d="M5322.871,1763.277h-1.2v-5.325a2.121,2.121,0,0,1,.742-1.605,1.657,1.657,0,0,1,.461,1.14Z" transform="translate(-4899.289 -1616.946)" fill="#e0ff96"/>
            <path id="Trazado_662783" data-name="Trazado 662783" d="M5204.684,1937.65h3.5a3.3,3.3,0,0,1,3.3,3.3v.864a3.3,3.3,0,0,1-3.3,3.3h-12.8a3.721,3.721,0,0,1-3.369-2.154,3.274,3.274,0,0,1-.216-1.144v-.864a3.271,3.271,0,0,1,.216-1.144,3.721,3.721,0,0,1,3.369-2.154h9.3Z" transform="translate(-4779.731 -1783.859)" fill="#7c94fb"/>
            <path id="Trazado_662784" data-name="Trazado 662784" d="M5168.652,2031.636h3.409a3.3,3.3,0,0,1,3.3,3.3v.864a3.3,3.3,0,0,1-3.3,3.3h-19.9a3.3,3.3,0,0,1-3.3-3.3v-.864a3.3,3.3,0,0,1,3.3-3.3h16.495Z" transform="translate(-4740.196 -1870.385)" fill="#ecb76b"/>
            <rect id="Rectángulo_343390" data-name="Rectángulo 343390" width="99.791" height="57.688" transform="translate(393.217 194.29)" fill="#5085d0"/>
            <rect id="Rectángulo_343391" data-name="Rectángulo 343391" width="68.963" height="57.688" transform="translate(393.217 194.29)" fill="#7ab8e6"/>
            <path id="Trazado_662785" data-name="Trazado 662785" d="M5182.6,2575.9h-22.8a5.611,5.611,0,1,1,0-11.223h22.8a5.611,5.611,0,1,1,0,11.223" transform="translate(-4745.104 -2361.123)" fill="#5085d0"/>
            <path id="Trazado_662786" data-name="Trazado 662786" d="M5220.8,2575.9h-20.087a5.335,5.335,0,0,1-5.335-5.335v-.553a5.335,5.335,0,0,1,5.335-5.335H5220.8a5.335,5.335,0,0,1,5.335,5.335v.553a5.335,5.335,0,0,1-5.335,5.335" transform="translate(-4783.021 -2361.123)" fill="#4873b7"/>
            <rect id="Rectángulo_343392" data-name="Rectángulo 343392" width="121.925" height="10.762" transform="translate(380.031 183.528)" fill="#5085d0"/>
            <rect id="Rectángulo_343393" data-name="Rectángulo 343393" width="93.12" height="10.762" transform="translate(380.031 183.528)" fill="#7ab8e6"/>
            <path id="Trazado_662787" data-name="Trazado 662787" d="M5740.995,2635.024a26.492,26.492,0,1,1-23.173-29.439,26.492,26.492,0,0,1,23.173,29.439" transform="translate(-5236.724 -2398.607)" fill="#fff"/>
            <path id="Trazado_662788" data-name="Trazado 662788" d="M5834.486,2934.544l1.262-10.6-11.281-5.4-5.331,6.769,4.287,11.5Z" transform="translate(-5357.273 -2686.899)" fill="#cdc7c1"/>
            <path id="Trazado_662789" data-name="Trazado 662789" d="M5783.336,3167.82l-8.188-5.481-7.184-2.564c2.669,5.178,6.763,6.55,15.373,8.045" transform="translate(-5310.163 -2908.984)" fill="#cdc7c1"/>
            <path id="Trazado_662790" data-name="Trazado 662790" d="M5684.733,2852.077c-2.371-5.3-2.11-10.844-.6-16.5l2.533.3,1.1,11.416Z" transform="translate(-5231.918 -2610.521)" fill="#cdc7c1"/>
            <path id="Trazado_662791" data-name="Trazado 662791" d="M6087.936,3137.853l2.089-6.282,8.625-3.951,4.209,2.177c-3.72,5.276-8.018,9.362-14.923,8.055" transform="translate(-5604.739 -2879.382)" fill="#cdc7c1"/>
            <path id="Trazado_662792" data-name="Trazado 662792" d="M6339.84,2900.326l-.293-7.857,1.1-4.114c1.457,3.15.483,7.482-.812,11.971" transform="translate(-5836.379 -2659.107)" fill="#cdc7c1"/>
            <path id="Trazado_662793" data-name="Trazado 662793" d="M6154.585,2784.4l-3.483,6.209-9.517-4.445.15-11.122,7.137-1.3Z" transform="translate(-5654.129 -2553.591)" fill="#cdc7c1"/>
            <path id="Trazado_662794" data-name="Trazado 662794" d="M5832.129,2663.5l-8.846,5.721-7.826-2.851,3.426-7.044,10.58-1.111Z" transform="translate(-5353.886 -2447.232)" fill="#cdc7c1"/>
            <path id="Trazado_662795" data-name="Trazado 662795" d="M6113.557,2625.926c-1.764-3.194-6.766-5.712-12.934-7.524Z" transform="translate(-5616.418 -2410.58)" fill="#cdc7c1"/>
            <path id="Trazado_662796" data-name="Trazado 662796" d="M5847.939,3135.859a.946.946,0,0,1,.207.047,1.019,1.019,0,0,1,.639,1.291l-1.164,3.443a1.019,1.019,0,1,1-1.931-.651l1.164-3.443a1.019,1.019,0,0,1,1.085-.687" transform="translate(-5381.67 -2886.96)" fill="#cdc7c1"/>
            <path id="Trazado_662797" data-name="Trazado 662797" d="M6000.827,3107.313a1.036,1.036,0,0,1,.379.124l8.073,4.545a1.02,1.02,0,0,1-1,1.778l-8.073-4.545a1.02,1.02,0,0,1,.62-1.9" transform="translate(-5523.493 -2860.68)" fill="#cdc7c1"/>
            <path id="Trazado_662798" data-name="Trazado 662798" d="M5941.483,3243.7a1.019,1.019,0,0,1-.106,2.031l-11.618.175a1,1,0,0,1-1.034-1,1.018,1.018,0,0,1,1-1.033l11.618-.175a.765.765,0,0,1,.136.006" transform="translate(-5458.164 -2986.245)" fill="#cdc7c1"/>
            <path id="Trazado_662799" data-name="Trazado 662799" d="M5731.575,2970.375a1,1,0,0,1,.148.03l6.021,1.637a1.019,1.019,0,1,1-.535,1.966l-6.021-1.637a1.019,1.019,0,0,1,.387-2" transform="translate(-5275.613 -2734.611)" fill="#cdc7c1"/>
            <path id="Trazado_662800" data-name="Trazado 662800" d="M5876.8,2784.047c.036,0,.071.01.107.019a1.019,1.019,0,0,1,.767,1.22l-2.2,9.656a1.006,1.006,0,0,1-1.22.767,1.018,1.018,0,0,1-.767-1.22l2.2-9.656a1.02,1.02,0,0,1,1.113-.786" transform="translate(-5407.28 -2563.071)" fill="#cdc7c1"/>
            <path id="Trazado_662801" data-name="Trazado 662801" d="M5724.568,2748.129a1.019,1.019,0,0,1,.565,1.766l-6.826,6.224a1.019,1.019,0,0,1-1.372-1.507l6.826-6.224a1.016,1.016,0,0,1,.807-.259" transform="translate(-5262.877 -2530.004)" fill="#cdc7c1"/>
            <path id="Trazado_662802" data-name="Trazado 662802" d="M6013.806,2711.953a1.008,1.008,0,0,1,.373.121l9.364,5.18a1.019,1.019,0,1,1-.986,1.783l-9.364-5.18a1.019,1.019,0,0,1,.614-1.9" transform="translate(-5535.442 -2496.7)" fill="#cdc7c1"/>
            <path id="Trazado_662803" data-name="Trazado 662803" d="M6025.707,2917.354a1.02,1.02,0,0,1,.335,1.925l-8.981,4.479a1.019,1.019,0,1,1-.909-1.825l8.98-4.479a1.009,1.009,0,0,1,.574-.1" transform="translate(-5538.131 -2685.798)" fill="#cdc7c1"/>
            <path id="Trazado_662804" data-name="Trazado 662804" d="M6214.275,2973.346a1,1,0,0,1,.148.03,1.018,1.018,0,0,1,.715,1.25l-3.062,11.226a1.019,1.019,0,0,1-1.967-.535l3.062-11.226a1.02,1.02,0,0,1,1.1-.745" transform="translate(-5717.182 -2737.346)" fill="#cdc7c1"/>
            <path id="Trazado_662805" data-name="Trazado 662805" d="M6293.682,2895.126a1.013,1.013,0,0,1,.578.271l2.712,2.559a1.019,1.019,0,1,1-1.4,1.481l-2.712-2.559a1.019,1.019,0,0,1,.821-1.753" transform="translate(-5793.104 -2665.334)" fill="#cdc7c1"/>
            <path id="Trazado_662806" data-name="Trazado 662806" d="M6222.951,2711.6a1,1,0,0,1,.194.043,1.018,1.018,0,0,1,.657,1.282l-1.262,3.914a1,1,0,0,1-1.283.657,1.017,1.017,0,0,1-.657-1.281l1.262-3.915a1.018,1.018,0,0,1,1.089-.7" transform="translate(-5726.827 -2496.37)" fill="#cdc7c1"/>
            <path id="Trazado_662807" data-name="Trazado 662807" d="M5987.716,2616.8a1.019,1.019,0,0,1,.175,1.988l-7.494,2.268a1.019,1.019,0,0,1-.589-1.951l7.494-2.267a1.012,1.012,0,0,1,.415-.037" transform="translate(-5504.525 -2409.101)" fill="#cdc7c1"/>
            <path id="Trazado_662808" data-name="Trazado 662808" d="M5830.621,2642.982c.259.031,1.036.124,1.21.345l1.252,1.334a1.019,1.019,0,0,1-1.6,1.261l-1.252-1.334a1.019,1.019,0,0,1,.17-1.432c.221-.174-.038-.205.221-.174" transform="translate(-5367.284 -2433.2)" fill="#cdc7c1"/>
            <g id="Grupo_997154" data-name="Grupo 997154" transform="translate(475.124 206.925)" opacity="0.25">
              <g id="Grupo_997153" data-name="Grupo 997153">
                <g id="Grupo_997152" data-name="Grupo 997152" clip-path="url(#clip-path-4)">
                  <path id="Trazado_662809" data-name="Trazado 662809" d="M5992.191,2607.152c-.109-.4,8.393,1.473,12.047,4.6a12.936,12.936,0,0,1,3.284,2.751,26.468,26.468,0,0,1,7.746,15.285l.1-.363c1.458,3.15.483,7.483-.811,11.971l-.028-.749a26.326,26.326,0,0,1-5.542,10.262c-3.247,4.531-6.961,8.1-12.461,7.972-.465.137-.943.236-1.417.347a1,1,0,0,1-.8.438l-1.728.026a51.787,51.787,0,0,1-6.361.1c22.168-.141,25.332-44.393,5.973-52.633" transform="translate(-5986.218 -2607.099)" fill="#490036"/>
                </g>
              </g>
            </g>
            <path id="Trazado_662810" data-name="Trazado 662810" d="M3794.479,2115.035l-11.183,26.871-34.248,19.212,1.108,9.01s33.648-9.819,42.08-14.809,17.7-32.016,17.7-32.016Z" transform="translate(-3451.488 -1947.165)" fill="#d4948a"/>
            <path id="Trazado_662811" data-name="Trazado 662811" d="M3892.976,1549.848l-15.853,5.931s-11.984-29.521-13.646-40.479a17.493,17.493,0,0,1,6.777-16.178c14.563-11.691,22.722,50.727,22.722,50.727" transform="translate(-3556.669 -1378.793)" fill="#8e6255"/>
            <path id="Trazado_662812" data-name="Trazado 662812" d="M4654.966,3019.923l1.694,1.193c4.871-7.073,7.025-1.37,8.9,7.738l-7.645,4.117s-2.843-10.977-2.953-13.048" transform="translate(-4285.503 -2778.409)" fill="#f0c8b6"/>
            <path id="Trazado_662813" data-name="Trazado 662813" d="M4675.609,2935.926c-.308-3,.508-6.645,3.874-10.519,14.584,9.527,16.144,5.469,26.32,22.373-1.667,1.917-3.92,1.791-6.7-.625-7.2-8.037-10.881-1.957-14.59-3.492-2.125-7.944-4.972-11.3-8.9-7.738" transform="translate(-4304.452 -2693.219)" fill="#faf0ed"/>
            <path id="Trazado_662814" data-name="Trazado 662814" d="M4728.252,2905.705c14.739,9.183,16.482,10.223,24.124,20.2a1.638,1.638,0,0,1,.183,2.069l-1.132,1.3c-6.96-11.9-13.426-13.663-26.32-22.373l1.064-1.225c.485-.558,1.336-.435,2.082.029" transform="translate(-4350.077 -2674.712)" fill="#c8b1a7"/>
            <path id="Trazado_662815" data-name="Trazado 662815" d="M4735.3,3019.923l9.5,1.193c4.871-7.073,7.025-1.37,8.9,7.738l-15.445,4.117s-2.843-10.977-2.954-13.048" transform="translate(-4359.465 -2778.409)" fill="#f0c8b6"/>
            <path id="Trazado_662816" data-name="Trazado 662816" d="M4854.24,2935.926c-.309-3,.507-6.645,3.873-10.519,14.584,9.527,16.144,5.469,26.32,22.373-1.667,1.917-3.921,1.791-6.7-.625-7.2-8.037-10.881-1.957-14.59-3.492-2.125-7.944-4.972-11.3-8.9-7.738" transform="translate(-4468.905 -2693.219)" fill="#faf0ed"/>
            <path id="Trazado_662817" data-name="Trazado 662817" d="M4906.886,2905.705c14.738,9.183,16.482,10.223,24.124,20.2a1.638,1.638,0,0,1,.183,2.069l-1.132,1.3c-6.96-11.9-13.427-13.663-26.32-22.373l1.064-1.225c.484-.558,1.336-.435,2.081.029" transform="translate(-4514.532 -2674.712)" fill="#c8b1a7"/>
            <path id="Trazado_662818" data-name="Trazado 662818" d="M3657.777,2718.9s-48.8,3.147-39.538,31.249c4.8,14.543,68.5,7.734,68.5,7.734l-9.383-37.823Z" transform="translate(-3329.983 -2503.103)" fill="#304670"/>
            <path id="Trazado_662819" data-name="Trazado 662819" d="M3903.922,2746.509c-1.8.414-49.226,8.47-32.647,36.572,5.75,9.746,71.725.22,71.725.22,1.823-4.577,1.329-10.531-3.9-13.684l-2.937-1.565c1.672-5.2,2.195-13.15,1.675-20.815Z" transform="translate(-3560.781 -2528.519)" fill="#3e5985"/>
            <path id="Trazado_662820" data-name="Trazado 662820" d="M4125.107,1970.988c22.544,11.74,26.252,34.348,27.149,62.282-15.977,11.14-28.805-3.328-49.265-2.92,7.821-15.7-12.144-30.086,4.558-48.792Z" transform="translate(-3775.198 -1814.551)" fill="#d1daf2"/>
            <path id="Trazado_662821" data-name="Trazado 662821" d="M3871.033,1390.472a9.973,9.973,0,1,1-11.727-7.836,9.973,9.973,0,0,1,11.727,7.836" transform="translate(-3545.602 -1272.718)" fill="#aa7969"/>
            <path id="Trazado_662822" data-name="Trazado 662822" d="M4180.9,1912.671l-11.089,8.012,1.515,10.92c.256,3,14.144,1.749,12.906-6.3Z" transform="translate(-3838.854 -1760.863)" fill="#f0c8b6"/>
            <path id="Trazado_662823" data-name="Trazado 662823" d="M4179.091,1959.89c-2.441,2.047-6.078,4.505-9.28,4.264l.734,5.292c4.956-.781,9-5.205,8.546-9.556" transform="translate(-3838.854 -1804.334)" fill="#d4948a"/>
            <path id="Trazado_662824" data-name="Trazado 662824" d="M3912.16,1499.794c-.971,14.582,2.591,18.593,2.749,21.681a20.152,20.152,0,0,0,1.752,6.631c4.914,9.924,14.293,9.64,19.545,6.4,6.917-4.265,4.918-5.046,7.236-9.027l-2.278-25.968c-7.9-4.68-11.935-14.161-29,.282" transform="translate(-3601.499 -1373.679)" fill="#f0c8b6"/>
            <path id="Trazado_662825" data-name="Trazado 662825" d="M4070.741,1933.077a.627.627,0,0,1-.015-1.253c.044,0,4.436-.156,6.273-3.483a.626.626,0,1,1,1.1.605c-2.189,3.965-7.13,4.126-7.34,4.131Z" transform="translate(-3747.072 -1774.991)" fill="#d4948a"/>
            <path id="Trazado_662826" data-name="Trazado 662826" d="M4154,1925.124a.625.625,0,0,1-.537-.3l-.873-1.45a.626.626,0,1,1,1.073-.646l.873,1.45a.627.627,0,0,1-.536.95" transform="translate(-3822.914 -1769.839)" fill="#d4948a"/>
            <path id="Trazado_662827" data-name="Trazado 662827" d="M4012.568,1847.884c-.059-.3-1.856-.1-2.834-.281-1.359-.39-1.811-2.54.228-3.937,0,0,.027-1.671-.034-3.377a.309.309,0,0,0-.618-.009,25.554,25.554,0,0,1-.314,3.192c-2.149.838-1.815,4.487.211,4.9,1.5.257,3.439-.1,3.362-.485" transform="translate(-3689.452 -1693.95)" fill="#d4948a"/>
            <path id="Trazado_662828" data-name="Trazado 662828" d="M4276.006,1796.113c-.042,2.005,1.549,3.3,2.239,3.316s-.36-1.5-.317-3.5,1.161-3.743.471-3.757-2.351,1.941-2.393,3.946" transform="translate(-3936.62 -1649.923)" fill="#6e4a3a"/>
            <path id="Trazado_662829" data-name="Trazado 662829" d="M4034.3,1744.237l7.1-1.412a.983.983,0,0,0-.383-1.928l-7.1,1.412a.983.983,0,0,0,.383,1.928" transform="translate(-3713.016 -1602.706)" fill="#401022"/>
            <path id="Trazado_662830" data-name="Trazado 662830" d="M3919.933,1772.667l3.257-.648a.822.822,0,0,0,.646-.967l-.063-.315a.822.822,0,0,0-.967-.646l-3.257.648a.822.822,0,0,0-.646.967l.063.315a.823.823,0,0,0,.967.646" transform="translate(-3607.847 -1629.585)" fill="#401022"/>
            <path id="Trazado_662831" data-name="Trazado 662831" d="M4074.577,1818.385a1.771,1.771,0,0,0,2.04,1.352c.728-.233.936-1.136.6-2.2s-1.2-1.729-1.932-1.5-1.044,1.28-.705,2.339" transform="translate(-3751.054 -1671.864)" fill="#33111d"/>
            <path id="Trazado_662832" data-name="Trazado 662832" d="M4062.258,1812.749c.793-2.013,3.092-2.228,4.941-1.818.641.142.627,1.123-.014.981-1.434-.318-4.007-.557-4.634,1.034-.24.61-.531.406-.293-.2" transform="translate(-3739.756 -1667.039)" fill="#33111d"/>
            <path id="Trazado_662833" data-name="Trazado 662833" d="M3971.547,1832.739c.223,1.078.979,1.8,1.574,1.744s.8-.861.582-1.939-.885-1.909-1.481-1.855-.9.972-.675,2.051" transform="translate(-3656.259 -1685.384)" fill="#33111d"/>
            <path id="Trazado_662834" data-name="Trazado 662834" d="M3950.47,1828.645c.813-1.784,2.52-1.606,3.825-.908.453.242.329,1.173-.124.931-1.012-.541-2.867-1.2-3.51.213-.246.541-.435.3-.192-.236" transform="translate(-3636.818 -1682.212)" fill="#33111d"/>
            <path id="Trazado_662835" data-name="Trazado 662835" d="M3895.878,1441.219c13.065,1.915,20.983,13.89,11.654,25.473,0,0-1.959,6.073-4.06,4.757-12.358-3.73-19.243-8.129-20.773-17.342h0c-6.727-2.046-8.959,1.142-8.2,9.1-10.923-5.6,6.208-24.208,21.376-21.985" transform="translate(-3563.803 -1326.661)" fill="#aa7969"/>
            <path id="Trazado_662836" data-name="Trazado 662836" d="M4170.083,1354.937a9.974,9.974,0,1,1-11.728-7.836,9.974,9.974,0,0,1,11.728,7.836" transform="translate(-3820.915 -1240.003)" fill="#aa7969"/>
            <path id="Trazado_662837" data-name="Trazado 662837" d="M4233.912,1643.559c9.946-1.575,19.174-11.146,19.174-11.146s-15.354-18.118-18.541-34.144l-12.369,10.684Z" transform="translate(-3887.064 -1471.415)" fill="#aa7969"/>
            <path id="Trazado_662838" data-name="Trazado 662838" d="M3786.859,2383.933c6.033,5.614,11.839,12.7,19.776,10.7,4.958-1.251,4.632-5.661-.29-7-5.5-1.5-8.191-7.445-11.406-10.785-3.273-3.4-7.379-1.615-9.123-.118-1.5,1.288-.523,5.746,1.043,7.2" transform="translate(-3484.65 -2186.406)" fill="#813636"/>
            <path id="Trazado_662839" data-name="Trazado 662839" d="M3641.791,1965.7c-1.812,3.753,1.882,3.871,5.635,5.683s6.142,4.633,7.955.88a7.546,7.546,0,0,0-13.59-6.563" transform="translate(-3352.306 -1805.758)" fill="#984747"/>
            <path id="Trazado_662840" data-name="Trazado 662840" d="M3663.415,2001.442c-1.291,2.672,1.34,2.756,4.012,4.046s4.373,3.3,5.664.626a5.372,5.372,0,0,0-9.675-4.673" transform="translate(-3372.339 -1839.792)" fill="#e8a368"/>
            <path id="Trazado_662841" data-name="Trazado 662841" d="M3575.715,2387.886c4.873,12.855-1.231,20.642-11,24.343s-19.5,1.917-24.371-10.938-.9-26.277,8.863-29.979,21.634,3.719,26.506,16.573" transform="translate(-3257.432 -2182.226)" fill="#984747"/>
            <path id="Trazado_662842" data-name="Trazado 662842" d="M3683.749,2399c11.282,9.772,5.629,18.554-3.847,18.266-4-.122-10.107-.672-12.886-8.005s-.828-17.169,2.821-18.552,8.3,3.432,13.913,8.292" transform="translate(-3374.754 -2200.737)" fill="#e8a368"/>
            <path id="Trazado_662843" data-name="Trazado 662843" d="M3417.482,2037.968c4.088,10.787-3.776,16.422-14.563,20.511s-20.411,5.081-24.5-5.705a20.887,20.887,0,1,1,39.063-14.806" transform="translate(-3109.022 -1863.795)" fill="#984747"/>
            <path id="Trazado_662844" data-name="Trazado 662844" d="M3312.831,2101.607c3.844,1.609,1.156,4.146-.453,7.99s-1.529,7.54-5.374,5.931a7.546,7.546,0,1,1,5.826-13.922" transform="translate(-3040.261 -1934.262)" fill="#984747"/>
            <path id="Trazado_662845" data-name="Trazado 662845" d="M3347.021,2132.935c2.737,1.145.823,2.952-.322,5.689s-1.088,5.368-3.825,4.223a5.372,5.372,0,1,1,4.148-9.912" transform="translate(-3074.513 -1963.26)" fill="#e8a368"/>
            <path id="Trazado_662846" data-name="Trazado 662846" d="M3524.137,2172.323c2.155,5.686-2.568,12.748-10.551,15.774s-16.2.868-18.355-4.818,4.913-6.564,12.895-9.589,13.856-7.053,16.011-1.367" transform="translate(-3217.455 -1997.268)" fill="#e8a368"/>
            <path id="Trazado_662847" data-name="Trazado 662847" d="M3507.7,2157.114a5.338,5.338,0,1,1-6.883-3.1,5.338,5.338,0,0,1,6.883,3.1" transform="translate(-3219.781 -1982.731)" fill="#e8a368"/>
            <path id="Trazado_662848" data-name="Trazado 662848" d="M3673.874,2094.132a5.338,5.338,0,1,1-6.883-3.1,5.338,5.338,0,0,1,6.883,3.1" transform="translate(-3372.769 -1924.747)" fill="#e8a368"/>
            <path id="Trazado_662849" data-name="Trazado 662849" d="M3651.317,2181.452c.548,1.446-.976,3.364-3.4,4.284s-4.84.494-5.387-.952.976-3.363,3.4-4.283,4.84-.494,5.388.951" transform="translate(-3353.317 -2006.988)" fill="#401022"/>
            <path id="Trazado_662850" data-name="Trazado 662850" d="M3695.918,2304.032a6.648,6.648,0,0,0,5.577-2.726c.375-.506,1.238-.02.859.49a7.667,7.667,0,0,1-6.442,3.224.5.5,0,0,1,.006-.989" transform="translate(-3402.132 -2118.455)" fill="#984747"/>
            <path id="Trazado_662851" data-name="Trazado 662851" d="M3554.819,2201.93a2.039,2.039,0,1,1-2.629-1.184,2.039,2.039,0,0,1,2.629,1.184" transform="translate(-3269.041 -2025.951)" fill="#401022"/>
            <path id="Trazado_662852" data-name="Trazado 662852" d="M3557.525,2211.932a.558.558,0,1,1-.72-.324.558.558,0,0,1,.72.324" transform="translate(-3274.17 -2036.039)" fill="#fff"/>
            <path id="Trazado_662853" data-name="Trazado 662853" d="M3718.962,2144.025a2.039,2.039,0,1,1-2.63-1.184,2.04,2.04,0,0,1,2.63,1.184" transform="translate(-3420.156 -1972.642)" fill="#401022"/>
            <path id="Trazado_662854" data-name="Trazado 662854" d="M3721.669,2154.027a.558.558,0,1,1-.72-.324.559.559,0,0,1,.72.324" transform="translate(-3425.286 -1982.731)" fill="#fff"/>
            <path id="Trazado_662855" data-name="Trazado 662855" d="M3453.03,2463.452c-3.481,7.322-6.238,14.7-3.908,22.815,1.408,4.905,6.211,2.12,7.415-2.811,1.419-5.813,4-6.551,6.442-11.677,2.2-4.618-7.757-12.939-9.949-8.328" transform="translate(-3174.572 -2266.687)" fill="#984747"/>
            <path id="Trazado_662856" data-name="Trazado 662856" d="M3929.238,2681.243c-1.488-5.427-12.33-3.965-13.884-3.686-.651.117-10.473,15.2-8.441,13.651,1.841,1.636,12.052.251,15.446-.836,3.6-1.154,8.093-4.707,6.88-9.129" transform="translate(-3596.567 -2464.683)" fill="#984747"/>
            <path id="Trazado_662857" data-name="Trazado 662857" d="M3590,2735.559c-3.137-4-10.072-3.284-12.078-3.094a4.048,4.048,0,0,0-3.579,4.318c.035,3.3-.258,6.823,1.975,9.531a10.189,10.189,0,0,0,7.745,3.612c6.51-.446,9.787-9.455,5.938-14.367" transform="translate(-3290.652 -2515.431)" fill="#984747"/>
            <path id="Trazado_662858" data-name="Trazado 662858" d="M3632.675,2795.477a5.151,5.151,0,1,1-6.642-2.991,5.151,5.151,0,0,1,6.642,2.991" transform="translate(-3335.173 -2570.538)" fill="#e8a368"/>
            <path id="Trazado_662859" data-name="Trazado 662859" d="M4080.02,2711.629c-1.745,2.247-4.424,3.086-5.984,1.875s-1.409-4.014.336-6.261,4.424-3.086,5.983-1.875,1.409,4.014-.336,6.261" transform="translate(-3749.689 -2490.133)" fill="#e8a368"/>
            <path id="Trazado_662860" data-name="Trazado 662860" d="M3542.26,2263.945c.209.828-1.341,1.933-3.463,2.468s-4.01.3-4.219-.53,1.341-1.933,3.462-2.468,4.01-.3,4.219.53" transform="translate(-3254.023 -2083.504)" fill="#984747"/>
            <path id="Trazado_662861" data-name="Trazado 662861" d="M3779.039,2181.734c.457.721-.078,1.88-1.194,2.588s-2.393.7-2.85-.023.077-1.88,1.194-2.588,2.393-.7,2.851.023" transform="translate(-3475.223 -2008.066)" fill="#984747"/>
            <path id="Trazado_662862" data-name="Trazado 662862" d="M4082.957,2677.214c.649.01,1.317.045,1.981.115-.665-.07-1.333-.1-1.981-.115" transform="translate(-3758.894 -2464.724)" fill="#e8a368"/>
            <path id="Trazado_662863" data-name="Trazado 662863" d="M4132.6,2682.721a8.878,8.878,0,0,1,2.591,1,8.884,8.884,0,0,0-2.591-1" transform="translate(-3804.599 -2469.794)" fill="#e8a368"/>
            <path id="Trazado_662864" data-name="Trazado 662864" d="M4031.517,2679.1c-.239.024-.461.048-.664.072h0c.2-.024.425-.049.664-.073" transform="translate(-3710.926 -2466.458)" fill="#e8a368"/>
            <path id="Trazado_662865" data-name="Trazado 662865" d="M4048.83,2677.257c.807-.06,1.736-.1,2.708-.083-.973-.016-1.9.023-2.708.083" transform="translate(-3727.476 -2464.684)" fill="#e8a368"/>
            <path id="Trazado_662866" data-name="Trazado 662866" d="M4165.252,2695.372a4.637,4.637,0,0,1,1.757,1.811,4.637,4.637,0,0,0-1.757-1.811" transform="translate(-3834.657 -2481.441)" fill="#e8a368"/>
            <g id="Grupo_997157" data-name="Grupo 997157" transform="translate(332.338 218.946)" opacity="0.2">
              <g id="Grupo_997156" data-name="Grupo 997156">
                <g id="Grupo_997155" data-name="Grupo 997155" clip-path="url(#clip-path-5)">
                  <path id="Trazado_662867" data-name="Trazado 662867" d="M4187.669,2758.554a5.893,5.893,0,0,1-.457,1.459,5.893,5.893,0,0,0,.457-1.459" transform="translate(-4187.212 -2758.554)" fill="#490036"/>
                </g>
              </g>
            </g>
            <g id="Grupo_997160" data-name="Grupo 997160" transform="translate(321.499 226.169)" opacity="0.2">
              <g id="Grupo_997159" data-name="Grupo 997159">
                <g id="Grupo_997158" data-name="Grupo 997158" clip-path="url(#clip-path-6)">
                  <path id="Trazado_662868" data-name="Trazado 662868" d="M4053.086,2849.567c-.731.159-1.558.315-2.436.457.877-.142,1.7-.3,2.436-.457" transform="translate(-4050.651 -2849.567)" fill="#490036"/>
                </g>
              </g>
            </g>
            <g id="Grupo_997163" data-name="Grupo 997163" transform="translate(327.867 221.737)" opacity="0.2">
              <g id="Grupo_997162" data-name="Grupo 997162">
                <g id="Grupo_997161" data-name="Grupo 997161" clip-path="url(#clip-path-7)">
                  <path id="Trazado_662869" data-name="Trazado 662869" d="M4134.555,2793.724a11.331,11.331,0,0,1-3.672,3.06,11.331,11.331,0,0,0,3.672-3.06" transform="translate(-4130.882 -2793.724)" fill="#490036"/>
                </g>
              </g>
            </g>
            <g id="Grupo_997166" data-name="Grupo 997166" transform="translate(306.404 188.514)" opacity="0.2">
              <g id="Grupo_997165" data-name="Grupo 997165">
                <g id="Grupo_997164" data-name="Grupo 997164" clip-path="url(#clip-path-8)">
                  <path id="Trazado_662870" data-name="Trazado 662870" d="M3860.465,2375.136a5.606,5.606,0,0,1,1.311.26,5.606,5.606,0,0,0-1.311-.26" transform="translate(-3860.464 -2375.136)" fill="#490036"/>
                </g>
              </g>
            </g>
            <g id="Grupo_997169" data-name="Grupo 997169" transform="translate(323.934 224.797)" opacity="0.2">
              <g id="Grupo_997168" data-name="Grupo 997168">
                <g id="Grupo_997167" data-name="Grupo 997167" clip-path="url(#clip-path-9)">
                  <path id="Trazado_662871" data-name="Trazado 662871" d="M4081.334,2833.649c.73-.159,1.365-.323,1.856-.48a12.341,12.341,0,0,0,2.077-.892,12.361,12.361,0,0,1-2.077.892c-.491.157-1.125.321-1.856.48" transform="translate(-4081.333 -2832.277)" fill="#490036"/>
                </g>
              </g>
            </g>
            <path id="Trazado_662872" data-name="Trazado 662872" d="M4322.992,2954.081l-23.122-2.879-11.929,1.465,4.325-2.02-2.071-2.071,10.635,1.807,22.889.933a28.469,28.469,0,0,1-.726,2.766" transform="translate(-3947.608 -2714.547)" fill="#304670"/>
            <path id="Trazado_662873" data-name="Trazado 662873" d="M3825.791,2274.229l-12.362,29.324-38.6,4.1,5.274,7.614s33.833,6.688,42.266,1.7,18.876-34.469,18.876-34.469Z" transform="translate(-3475.223 -2093.724)" fill="#f0c8b6"/>
            <path id="Trazado_662874" data-name="Trazado 662874" d="M3635.489,2657.553s-8.445,3.991-13.545,3.594-9.574-5.939-9.574-5.939l.474-7.547,7.519.515,1.481-1.636,5.312.045,5.952,2.894Z" transform="translate(-3325.657 -2436.485)" fill="#f0c8b6"/>
            <path id="Trazado_662875" data-name="Trazado 662875" d="M4317.553,2204.518l-8.564,17.048q10.51,11.484,21.787,7.675l4.565-12.977c6.552-18.105-12.673-22.994-17.788-11.746" transform="translate(-3966.986 -2024.013)" fill="#ebf0fd"/>
            <path id="Trazado_662876" data-name="Trazado 662876" d="M3442.154,485.21h-38.667a5.858,5.858,0,0,1-5.858-5.857V440.685a5.858,5.858,0,0,1,5.858-5.857h38.667a5.857,5.857,0,0,1,5.857,5.857v38.667a5.857,5.857,0,0,1-5.857,5.857" transform="translate(-3127.961 -400.316)" fill="#b6d6fc"/>
            <path id="Trazado_662877" data-name="Trazado 662877" d="M3485.621,526.135h-36.03a3.315,3.315,0,0,1-3.314-3.315V486.79a3.315,3.315,0,0,1,3.314-3.315h36.03a3.315,3.315,0,0,1,3.315,3.315v36.03a3.315,3.315,0,0,1-3.315,3.315" transform="translate(-3172.746 -445.102)" fill="#fff"/>
            <path id="Trazado_662878" data-name="Trazado 662878" d="M3485.621,526.135c0-41.846,9.522-39.345-39.345-39.345a3.315,3.315,0,0,1,3.314-3.315h36.03a3.315,3.315,0,0,1,3.315,3.315v36.03a3.315,3.315,0,0,1-3.315,3.315" transform="translate(-3172.746 -445.102)" fill="#eae5e2"/>
            <rect id="Rectángulo_343400" data-name="Rectángulo 343400" width="18.822" height="2.352" transform="translate(291.236 64.311) rotate(-64.079)" fill="#8bacfb"/>
            <rect id="Rectángulo_343401" data-name="Rectángulo 343401" width="2.352" height="25.683" transform="translate(280.491 46.823) rotate(-44.997)" fill="#8bacfb"/>
            <rect id="Rectángulo_343402" data-name="Rectángulo 343402" width="2.351" height="7.55" transform="translate(293.684 37.61)" fill="#8bacfb"/>
            <rect id="Rectángulo_343403" data-name="Rectángulo 343403" width="2.351" height="7.55" transform="translate(293.684 74.246)" fill="#8bacfb"/>
            <rect id="Rectángulo_343404" data-name="Rectángulo 343404" width="7.55" height="2.351" transform="translate(309.403 58.528)" fill="#8bacfb"/>
            <rect id="Rectángulo_343405" data-name="Rectángulo 343405" width="7.55" height="2.351" transform="translate(272.767 58.528)" fill="#8bacfb"/>
          </g>
        </g>
      </g>
    </g>
  </g>
</svg>
