<svg xmlns="http://www.w3.org/2000/svg" width="146.139" height="146.49" viewBox="0 0 146.139 146.49">
  <g id="_8" data-name="8" transform="translate(49.683 52.927)">
    <rect id="Rectángulo_49533" data-name="Rectángulo 49533" width="89.789" height="83.368" transform="translate(6.667 10.195)" fill="#ffde96"/>
    <g id="problema" transform="translate(-50.683 -53.927)">
      <path id="Trazado_148662" data-name="Trazado 148662" d="M75.736,64.085a4.145,4.145,0,1,1-8.289,0V62.013H59.157V57.6a8.289,8.289,0,0,0,0-16.052V33H34.289A8.3,8.3,0,0,0,26,41.289V86.881a8.3,8.3,0,0,0,8.289,8.289H79.881a8.3,8.3,0,0,0,8.289-8.289V62.013H75.736Zm-45.591-22.8a4.149,4.149,0,0,1,4.145-4.145H55.013v8.289h2.072a4.145,4.145,0,1,1,0,8.289H55.013v8.289H50.6a8.289,8.289,0,0,0-16.052,0H30.145Zm4.145,49.736a4.149,4.149,0,0,1-4.145-4.145V66.157h8.289V64.085a4.145,4.145,0,0,1,8.289,0v2.072h8.289v4.408a8.289,8.289,0,0,0,0,16.052v4.408ZM79.618,66.157h4.408V86.881a4.149,4.149,0,0,1-4.145,4.145H59.157V82.736H57.085a4.145,4.145,0,0,1,0-8.289h2.072V66.157h4.408a8.289,8.289,0,0,0,16.052,0Z" transform="translate(26.808 34.315)"/>
      <path id="Trazado_148663" data-name="Trazado 148663" d="M49.434,32.085a4.145,4.145,0,1,1,8.289,0v2.072H70.157V25.868a8.289,8.289,0,0,0,0-16.579V1H45.289A8.3,8.3,0,0,0,37,9.289V34.157H49.434Zm-3.881-2.072H41.145V9.289a4.149,4.149,0,0,1,4.145-4.145H66.013v8.289h4.145a4.145,4.145,0,0,1,0,8.289H66.013v8.289H61.6a8.289,8.289,0,0,0-16.052,0Z" transform="translate(38.604 0)"/>
      <path id="Trazado_148666" data-name="Trazado 148666" d="M63.723,19a20.712,20.712,0,0,0-8.289,39.7V69.016l10.44-8.7A20.714,20.714,0,0,0,63.723,19ZM64.9,56.242l-.667.046-4.654,3.879V55.825l-1.38-.487a16.583,16.583,0,1,1,6.7.9Z" transform="translate(45.038 19.302)"/>
      <path id="Trazado_148667" data-name="Trazado 148667" d="M44,58h4.145v4.145H44Z" transform="translate(46.11 61.123)"/>
      <path id="Trazado_148668" data-name="Trazado 148668" d="M48,58h4.145v4.145H48Z" transform="translate(50.4 61.123)"/>
      <path id="Trazado_148669" data-name="Trazado 148669" d="M29,51h4.145v4.145H29Z" transform="translate(30.025 53.617)"/>
      <path id="Trazado_148670" data-name="Trazado 148670" d="M29,55h4.145v4.145H29Z" transform="translate(30.025 57.906)"/>
      <path id="Trazado_148671" data-name="Trazado 148671" d="M41,5h4.145V9.145H41Z" transform="translate(42.893 4.289)"/>
      <path id="Trazado_148672" data-name="Trazado 148672" d="M45,5h4.145V9.145H45Z" transform="translate(47.183 4.289)"/>
      <path id="Trazado_148673" data-name="Trazado 148673" d="M30,37h4.145v4.145H30Z" transform="translate(31.098 38.604)"/>
      <path id="Trazado_148674" data-name="Trazado 148674" d="M34,37h4.145v4.145H34Z" transform="translate(35.387 38.604)"/>
      <path id="Trazado_148675" data-name="Trazado 148675" d="M67.315,32.873V8.253a7.253,7.253,0,0,0-14.506,0V28.121L40.9,29.209a14.506,14.506,0,1,0-20.676,1.113A22.812,22.812,0,0,0,1,52.808v6.217A10.373,10.373,0,0,0,11.362,69.387h2.072v50.772a9.287,9.287,0,0,0,16.579,5.79,9.287,9.287,0,0,0,16.579-5.79V44.322l11.394-1.14a10.331,10.331,0,0,0,9.33-10.31ZM19.651,19.651A10.362,10.362,0,1,1,30.013,30.013,10.373,10.373,0,0,1,19.651,19.651ZM26.9,69.387a7.253,7.253,0,1,0,0-14.506H17.579V50.736H34.157V75.6H17.579V69.387ZM22.76,125.34a5.185,5.185,0,0,1-5.181-5.181V79.749H27.94v40.411A5.185,5.185,0,0,1,22.76,125.34Zm14.506,0a5.185,5.185,0,0,1-5.181-5.181V79.749H38.3V71.459h4.145v48.7A5.185,5.185,0,0,1,37.266,125.34Zm5.181-84.769V67.315H38.3V46.591H13.434v8.289H9.289v4.145H26.9a3.109,3.109,0,1,1,0,6.217H11.362a6.225,6.225,0,0,1-6.217-6.217V52.808A18.671,18.671,0,0,1,23.8,34.157l6.1-.006c.039,0,.077.006.116.006s.079-.006.12-.006l2.141,0L56.953,31.9V8.253a3.109,3.109,0,1,1,6.217,0V32.873a6.2,6.2,0,0,1-5.6,6.186Z" transform="translate(0)"/>
      <path id="Trazado_618623" data-name="Trazado 618623" d="M211.582,444.61c4.733,0,9.3-.02,13.864.009,2.2.014,4.489.34,5.794-2.739l2.022,2.454c-2.751,1.4-2.351,3.876-2.333,6.25.027,3.5.007,7,.007,10.595H211.582Zm7.816,8.827,6.144-6.016H214.068c0,3.512-.043,6.944.072,10.371.011.316,1.025.844,1.584.857,3.38.081,6.763.049,10.144.034.756,0,1.512-.089,2.246-.136v-9.017l-7.977,8.255-3.8-3.848,1.488-1.947Z" transform="translate(-113.182 -393.864)"/>
    </g>
  </g>
</svg>
