<svg xmlns="http://www.w3.org/2000/svg" xmlns:xlink="http://www.w3.org/1999/xlink" width="233" height="233" viewBox="0 0 233 233">
  <defs>
    <clipPath id="clip-path">
      <rect id="Rectángulo_313219" data-name="Rectángulo 313219" width="177.001" height="176.918" fill="none"/>
    </clipPath>
  </defs>
  <g id="_11" data-name="11" transform="translate(-1103.5 -4024)">
    <circle id="Elipse_8219" data-name="Elipse 8219" cx="116.5" cy="116.5" r="116.5" transform="translate(1103.5 4024)" fill="#ffda72"/>
    <g id="Grupo_997032" data-name="Grupo 997032" transform="translate(1126 4051.544)">
      <g id="Grupo_997031" data-name="Grupo 997031" clip-path="url(#clip-path)">
        <path id="Trazado_658246" data-name="Trazado 658246" d="M117,0h10.7c2.459.478,4.93.9,7.375,1.441,26.7,5.91,45.49,32.876,41.359,59.834-3.247,21.189-15.136,35.747-35,43.75a3.488,3.488,0,0,0-2.2,2.238q-8.834,23.31-32.159,32.162a2.974,2.974,0,0,0-2,1.946A54.192,54.192,0,0,1,1.348,134.748c-.482-2.1-.456-4.307-1.348-6.315V116.66c.7-.546.488-1.392.611-2.091,3.653-20.8,15.4-34.97,34.968-42.721a2.871,2.871,0,0,0,1.9-1.824C43.322,54.31,54.183,43.568,69.811,37.617a3.054,3.054,0,0,0,2.013-1.934C78.962,17.57,91.914,6.04,110.861,1.31,112.9.8,115.044.864,117,0M89.965,89.9a33.157,33.157,0,0,1,18.229-14.88c1.212-.41,1.126-1.386,1.486-2.193.434-.971-.561-1.034-1-1.365a13.885,13.885,0,0,1-5.283-7.395,1.557,1.557,0,0,0-1.646-1.352c-7.6-.716-12.49-8.324-9.624-15.289a7.743,7.743,0,0,0,.25-5.749c-.092-.282-.166-.57-.237-.857-3.773-15.2,6.96-29.305,22.388-29.4,5.587-.034,11.175-.047,16.762.009a23.312,23.312,0,0,1,21.762,16.264c1.707,5.4,1.037,10.679-.507,15.941a3.149,3.149,0,0,0,.239,2.525,11.336,11.336,0,0,1-9.195,16.564,1.455,1.455,0,0,0-1.548,1.234,12.6,12.6,0,0,1-5.27,7.371c-1.2.787-1.069,1.49-.734,2.586.293.959,1.059,1.034,1.746,1.282a33.03,33.03,0,0,1,16.538,12.942c1.192,1.766,1.212,1.8,2.735.209C168.375,76.495,173,62.474,170.514,46.224c-3.917-25.588-28.995-43.96-54.6-40.056A48.5,48.5,0,0,0,75.655,65.913,47.537,47.537,0,0,0,89.965,89.9M55.683,124.217a33.222,33.222,0,0,1,18.276-14.95c1.212-.411,1.121-1.391,1.48-2.2.43-.967-.568-1.031-1.007-1.362a13.883,13.883,0,0,1-5.277-7.395,1.556,1.556,0,0,0-1.648-1.348c-7.531-.71-12.427-8.176-9.659-15.11a9.633,9.633,0,0,0,.179-6.443c-2.705-10.572.851-19.971,9.833-26.076.493-.335.958-.577,1.015-1.312.1-1.336.35-2.662.546-4.053A47.044,47.044,0,0,0,40.487,81.464c-2.331,16.676,3.051,30.825,15.2,42.753M35.209,78.12c-.8.354-1.448.622-2.08.925A48.409,48.409,0,0,0,20.25,157.26c.871.87,1.325,1.234,2.107-.164a24.348,24.348,0,0,1,5.2-6.285c.774-.685.717-1.1.115-1.844a22.027,22.027,0,0,1-4.858-14.355c.035-7.605.009-15.21.009-22.816A30.932,30.932,0,0,1,33.456,87.841c.393-.354.821-.631.845-1.269a75.147,75.147,0,0,1,.907-8.452M123.5,17.128c-3.49,0-6.283-.028-9.075.005A17.435,17.435,0,0,0,97.317,37.5c.511,3.2.511,3.2,3.546,2.6a2.155,2.155,0,0,1,.7-.1c1.225.189,1.577-.534,1.907-1.545a9.71,9.71,0,0,1,4.02-5.289,1.967,1.967,0,0,0,1.072-2.583c-.4-1.293-.216-2.368,1.647-2.067a10.251,10.251,0,0,0,2.49.008c1.013-.089,1.368.216,1.551,1.311.765,4.571,3.931,7.815,8.113,8.309,4.829.571,9.695.86,14.509,1.524,3.171.437,6.44-.222,9.528.933.784.293,1.022-.151,1.24-.8,3.215-9.635-3.592-20.771-13.635-22.359-3.73-.59-7.472-.118-10.506-.309M136.97,53.457c0-2.259-.036-4.519.018-6.776.022-.917-.132-1.341-1.207-1.423-3.73-.284-7.444-.777-11.174-1.056-5.056-.377-9.537-1.892-12.789-6.03-.5-.633-.847-.6-1.4-.087a5.576,5.576,0,0,0-1.967,4.228c-.019,5.945-.064,11.89.012,17.833a8.458,8.458,0,0,0,8.315,8.328c3.921.079,7.846.071,11.767,0a8.526,8.526,0,0,0,8.416-8.425c.05-2.2.009-4.4.013-6.6M34.593,94.79a24.132,24.132,0,0,0-5.983,15.255c-.172,8.616-.11,17.239-.034,25.857a15.389,15.389,0,0,0,3.735,9.795c.439.535.789.968,1.591.466a33.04,33.04,0,0,1,5.97-2.734,1.97,1.97,0,0,0,.461-3.387,14.165,14.165,0,0,1-6.094-12.052q.02-8.382,0-16.764a11.831,11.831,0,0,1,1.631-6.114c.291-.5.727-.948.523-1.625a66.368,66.368,0,0,1-1.8-8.7m98.469,12.678a65.875,65.875,0,0,1-8.37.952,51.9,51.9,0,0,1-20.067-3.183c-1.6-.594-2.268.643-3.139,1.336-.541.431.635,2.351,1.6,2.7a33.066,33.066,0,0,1,17.561,14.039c.421.677.667.964,1.4.25a49.068,49.068,0,0,0,11.014-16.09M60.768,170.72a48.172,48.172,0,0,0,21.118-8.083c.69-.468.361-.87.1-1.328a27.635,27.635,0,0,0-12.426-11.362c-1.064-.5-1.307-.113-1.4.894a41.624,41.624,0,0,1-.613,4.224,42.162,42.162,0,0,1-6.774,15.655m-13.369-.1a3.652,3.652,0,0,0-.232-.65,40.669,40.669,0,0,1-6.92-19.356c-.12-1.427-.867-.876-1.555-.55A28.078,28.078,0,0,0,26.6,160.99c-.625,1.012-.279,1.374.527,1.908a49.028,49.028,0,0,0,9.09,4.805A42,42,0,0,0,47.4,170.621m49.809-68.55A55.882,55.882,0,0,1,74.193,78.387c0,5.609-.032,10.653.009,15.7a8.521,8.521,0,0,0,8.706,8.655c3.679.035,7.358,0,11.038.011a7.774,7.774,0,0,0,3.262-.678m-57.223,10.6c0,5.881-.137,11.266.048,16.639a7.77,7.77,0,0,0,6.619,7.377,65.769,65.769,0,0,0,15.244.009c.245-.025.613.044.778-.522a55.485,55.485,0,0,1-22.689-23.5m14.167,41.45c2.258,0,4.516.005,6.775,0,.506,0,1.056.139,1.168-.69.436-3.218,1.267-6.411-.021-9.649a1.452,1.452,0,0,0-1.655-1.107c-4.159.053-8.32.068-12.478-.025-1.013-.023-1.256.4-1.583,1.185-1.261,3.045-.469,6.071-.107,9.12.121,1.021.564,1.216,1.484,1.19,2.138-.062,4.278-.02,6.418-.02m40.219-25.532c.828,2.5,1.586,4.811,2.355,7.115.219.656.695.438,1.173.348a48.311,48.311,0,0,0,17.952-7.45c.827-.553.746-.99.316-1.7a29.725,29.725,0,0,0-6.188-7.317c-.854-.728-1.323-.919-1.826.392-1.126,2.931-2.443,5.79-3.631,8.7-.326.8-.624.965-1.4.472-2-1.27-4.057-2.466-6.111-3.656-.321-.186-.746-.857-1.126-.142-.578,1.087-1.046,2.233-1.51,3.242m-11.84.08c-.315-.746-.711-1.539-.985-2.373-.376-1.144-.836-1.445-1.962-.678-1.811,1.234-3.762,2.262-5.612,3.441-.854.544-1.236.488-1.642-.533-1.182-2.973-2.507-5.888-3.737-8.841-.278-.667-.454-1.047-1.211-.439a28,28,0,0,0-6.783,7.946c-.31.539-.19.818.291,1.145a47.677,47.677,0,0,0,18.225,7.675c.423.079.879.213,1.058-.307.791-2.3,1.548-4.6,2.359-7.036m49.3-26.878.35-.066A48.108,48.108,0,0,0,150.263,94.1c.769-.52.414-.953.115-1.459a28.719,28.719,0,0,0-6.325-7.427c-.853-.716-1.181-.6-1.582.41-1.1,2.755-2.337,5.453-3.424,8.211-.481,1.222-.885,1.712-2.2.794-1.794-1.257-3.739-2.3-5.637-3.408-.3-.174-.759-.733-1.02-.166-.6,1.305-1.806,2.473-1.306,4.1.592,1.927,1.283,3.824,1.921,5.737.171.511.253,1.092,1.027.9m-15.119-7.215a14.459,14.459,0,0,0-1.093-2.834c-.3-.905-.7-1.023-1.518-.5-1.9,1.208-3.892,2.267-5.763,3.512-1.067.71-1.421.422-1.848-.653-1.134-2.858-2.407-5.662-3.581-8.505-.33-.8-.551-1.214-1.441-.475a28.684,28.684,0,0,0-6.533,7.676c-.3.52-.414.879.208,1.3a47.987,47.987,0,0,0,18.2,7.656c.416.078.884.219,1.064-.3.792-2.292,1.548-4.6,2.308-6.873m-17.91,47.156a54.751,54.751,0,0,1-13.742.824c-.719-.067-.928.354-1.124.865a20.176,20.176,0,0,1-3.359,5.812c-.518.618-.4.938.144,1.428a30.563,30.563,0,0,1,5.737,6.976c.381.633.617.865,1.276.226a48.625,48.625,0,0,0,11.069-16.132M68.48,55.878c-4.739,5-6.574,10.4-5.3,16.763.484,2.409.472,2.244,2.889,1.922,1.934-.258,3.242-.864,3.65-2.924.174-.882,1.2-1.508.866-2.6a61.737,61.737,0,0,1-2.11-13.167M60.194,159.827c-3.824,0-7.374.009-10.923-.008-.658,0-1.063.095-.724.875a36.269,36.269,0,0,0,5.113,8.477c.373.458.64.6,1.082.048a34.9,34.9,0,0,0,5.453-9.393m28.3-51.389v-.024c-2.189,0-4.379.036-6.566-.022a1.009,1.009,0,0,0-1.17.75c-.287.748.183.915.682,1.162,2.116,1.047,4.236,2.086,6.325,3.185a1.425,1.425,0,0,0,1.477-.038c2.049-1.05,4.112-2.072,6.167-3.111.452-.228,1.04-.328.793-1.117-.221-.708-.641-.819-1.318-.8-2.129.05-4.26.018-6.39.018m34.353-34.272v.008c-2.19,0-4.382.042-6.57-.024-.706-.021-1.077.129-1.3.813-.259.782.313.9.773,1.126,2.058,1.035,4.122,2.059,6.173,3.107a1.423,1.423,0,0,0,1.477.048c2.09-1.1,4.213-2.14,6.33-3.188.5-.246.972-.409.682-1.161a1.008,1.008,0,0,0-1.169-.751c-2.129.059-4.262.022-6.393.022M68.485,85.609c0-1.541-.042-3.084.016-4.623.032-.844-.156-1.174-1.077-1a5.743,5.743,0,0,0,.025,11.278c.734.125,1.084.016,1.052-.849-.06-1.6-.017-3.2-.017-4.8m74.193-34.222c0,1.541.038,3.083-.015,4.622-.029.834.149,1.174,1.076,1a5.743,5.743,0,0,0-.03-11.277c-.738-.124-1.08-.005-1.047.855.06,1.6.017,3.2.017,4.8m-39.951-.035c0-1.541-.04-3.084.016-4.623.031-.847-.17-1.165-1.083-1a5.743,5.743,0,0,0,.04,11.279c.747.126,1.075-.007,1.044-.859-.058-1.6-.017-3.2-.016-4.8M78.5,141.756a46.378,46.378,0,0,1-8.214-2.3c-1.37-.561-1.892.586-2.748,1.047-.909.489-.075,1.142-.01,1.7.089.775.623,1.141,1.391,1.376a24.7,24.7,0,0,1,3.276,1.326c3.7,1.739,3.761,1.729,5.715-1.912.192-.359.351-.735.59-1.239m4.036-24.513c-1.77-.889-3.264-1.59-4.71-2.379-1.658-.9-3.089.012-4.255.813-.826.567.323,1.6.565,2.426.247.842.693,1.623,1.01,2.448.226.588.44.915,1.138.478,1.99-1.246,4.014-2.437,6.252-3.786m11.844,0c1.52.919,2.782,1.683,4.046,2.443,2.958,1.781,2.959,1.78,4.3-1.351,1.194-2.792,1.016-3.129-1.927-3.77a2.136,2.136,0,0,0-1.531.231c-1.523.794-3.069,1.541-4.886,2.445m34.274-34.256c1.459.887,2.758,1.686,4.066,2.47,2.914,1.747,2.915,1.744,4.255-1.427,1.2-2.839,1.161-2.907-1.824-3.669a2.006,2.006,0,0,0-1.533.139c-1.569.821-3.165,1.59-4.963,2.487m-11.882.011c-1.8-.9-3.343-1.65-4.867-2.432-1.6-.823-2.963.134-4.1.88-.762.5.292,1.514.538,2.287.286.9.758,1.734,1.074,2.624.256.723.6.724,1.182.365,1.958-1.2,3.937-2.377,6.177-3.723m5.869,19.738c.3,0,.6-.02.89,0,1.346.106,2.055-.187,1.319-1.736a20.919,20.919,0,0,1-1.036-3.023c-.167-.561-.35-.939-1.051-.957-.768-.019-1.028.348-1.193,1.009-.185.745-.471,1.465-.714,2.2-.835,2.516-.835,2.516,1.784,2.508m-34.1,34.262c2.6-.008,2.6-.008,1.775-2.476-.277-.836-.567-1.67-.806-2.517a.9.9,0,0,0-1.034-.723c-.526.005-.9.112-1.062.685-.223.791-.5,1.567-.756,2.347-.886,2.692-.887,2.692,1.883,2.684m-.072-11.412c.85,0,2.729-2.348,2.444-3.358a2.648,2.648,0,0,0-4.9.016c-.258,1.065,1.589,3.345,2.458,3.342m34.281-34.249c.825-.013,2.723-2.463,2.4-3.394a2.573,2.573,0,0,0-2.494-1.6c-.91.05-2.193.515-2.4,1.684s1.587,3.322,2.489,3.308" fill="#030202"/>
        <path id="Trazado_658247" data-name="Trazado 658247" d="M0,69.239c.965-2.175.931-4.558,1.391-6.837,4.77-23.618,24.754-43.5,48.473-48.147,1.28-.251,2.557-.515,3.864-.779.094-.614-.519-.686-.855-.914-2.6-1.769-5.207-3.53-7.853-5.227-.783-.5-.9-.887-.315-1.637.913-1.16,1.52-3.039,2.645-3.4.871-.279,2.355,1.273,3.536,2.059C57.85,8.988,64.8,13.634,72.221,18.582c-1.052,0-1.653.005-2.253,0-7.132-.076-14.22.04-21.238,1.735C27.882,25.35,10.383,43.842,6.748,64.862A57.581,57.581,0,0,0,5.742,74.6c0,.858-.255,1.122-1.108,1.086-1.542-.066-3.089-.02-4.634-.02Z" transform="translate(0 -1.455)" fill="#040404"/>
        <path id="Trazado_658248" data-name="Trazado 658248" d="M223.342,100.039a47.538,47.538,0,0,1-14.309-23.986A48.5,48.5,0,0,1,249.29,16.308c25.606-3.9,50.684,14.468,54.6,40.056,2.487,16.25-2.138,30.271-13.457,42.126-1.523,1.6-1.543,1.557-2.735-.209a33.031,33.031,0,0,0-16.538-12.942c-.688-.248-1.454-.324-1.746-1.283-.335-1.1-.465-1.8.734-2.586a12.6,12.6,0,0,0,5.27-7.371,1.455,1.455,0,0,1,1.548-1.234A11.337,11.337,0,0,0,286.162,56.3a3.149,3.149,0,0,1-.239-2.525c1.544-5.262,2.214-10.536.507-15.94a23.314,23.314,0,0,0-21.762-16.264c-5.587-.056-11.175-.043-16.762-.009-15.429.093-26.162,14.2-22.389,29.4.072.288.146.576.237.857a7.74,7.74,0,0,1-.25,5.749c-2.865,6.965,2.025,14.573,9.625,15.289a1.557,1.557,0,0,1,1.646,1.352,13.886,13.886,0,0,0,5.283,7.395c.439.33,1.434.393,1,1.365-.361.806-.275,1.782-1.486,2.192a33.159,33.159,0,0,0-18.229,14.88" transform="translate(-133.377 -10.14)" fill="#e3e6ea"/>
        <path id="Trazado_658249" data-name="Trazado 658249" d="M127.469,203.215c-12.145-11.928-17.527-26.077-15.2-42.753A47.044,47.044,0,0,1,141.2,122.968c-.2,1.391-.442,2.716-.546,4.053-.057.735-.522.977-1.015,1.312-8.982,6.105-12.538,15.5-9.833,26.076a9.631,9.631,0,0,1-.179,6.443c-2.767,6.933,2.129,14.4,9.66,15.11a1.556,1.556,0,0,1,1.648,1.348,13.883,13.883,0,0,0,5.277,7.395c.439.331,1.437.395,1.007,1.362-.358.806-.268,1.787-1.48,2.2a33.221,33.221,0,0,0-18.276,14.951" transform="translate(-71.786 -78.998)" fill="#e3e6ea"/>
        <path id="Trazado_658250" data-name="Trazado 658250" d="M45.441,218.473a75.061,75.061,0,0,0-.907,8.452c-.024.638-.453.915-.845,1.269a30.931,30.931,0,0,0-10.628,23.954c0,7.605.026,15.21-.009,22.816a22.027,22.027,0,0,0,4.858,14.355c.6.747.658,1.159-.115,1.844a24.342,24.342,0,0,0-5.2,6.286c-.782,1.4-1.236,1.035-2.107.164A48.409,48.409,0,0,1,43.362,219.4c.632-.3,1.28-.571,2.079-.925" transform="translate(-10.233 -140.353)" fill="#e3e6ea"/>
        <path id="Trazado_658251" data-name="Trazado 658251" d="M297.927,47.882c3.034.191,6.776-.281,10.506.309,10.043,1.588,16.85,12.724,13.635,22.359-.218.653-.456,1.1-1.241.8-3.088-1.155-6.356-.5-9.527-.933-4.815-.663-9.68-.953-14.509-1.524-4.182-.494-7.347-3.738-8.113-8.309-.183-1.094-.538-1.4-1.551-1.311a10.255,10.255,0,0,1-2.491-.008c-1.863-.3-2.043.774-1.647,2.067a1.967,1.967,0,0,1-1.072,2.583A9.711,9.711,0,0,0,277.9,69.21c-.33,1.012-.682,1.734-1.907,1.545a2.155,2.155,0,0,0-.7.1c-3.035.6-3.035.6-3.546-2.6a17.435,17.435,0,0,1,17.109-20.366c2.792-.033,5.585-.005,9.075-.005" transform="translate(-174.426 -30.754)" fill="#626c78"/>
        <path id="Trazado_658252" data-name="Trazado 658252" d="M331.752,121.193c0,2.2.04,4.4-.01,6.6a8.526,8.526,0,0,1-8.416,8.425c-3.921.067-7.846.075-11.767-.005a8.458,8.458,0,0,1-8.315-8.328c-.076-5.944-.031-11.889-.011-17.833a5.575,5.575,0,0,1,1.967-4.228c.556-.508.906-.546,1.4.087,3.252,4.138,7.733,5.653,12.789,6.03,3.73.278,7.445.772,11.174,1.055,1.075.082,1.229.506,1.207,1.423-.054,2.258-.017,4.517-.02,6.776m-17.6,9.329c1.189,0,2.379.035,3.566-.006a11.833,11.833,0,0,0,9.467-4.884c1.7-2.246,1.679-2.259-.863-3.539a18.338,18.338,0,0,1-1.744-.885c-.785-.508-1.189-.323-1.658.483a6.2,6.2,0,0,1-5.809,3.128c-1.486-.01-2.971,0-4.457,0-3.731,0-3.663,0-3.762,3.782-.039,1.469.2,2.2,1.877,1.958a24.368,24.368,0,0,1,3.384-.035" transform="translate(-194.784 -67.735)" fill="#f3cdae"/>
        <path id="Trazado_658253" data-name="Trazado 658253" d="M85.8,265.093a66.387,66.387,0,0,0,1.8,8.7c.2.677-.232,1.123-.523,1.625a11.838,11.838,0,0,0-1.631,6.114q.033,8.382,0,16.764a14.164,14.164,0,0,0,6.094,12.052,1.97,1.97,0,0,1-.461,3.387,33.029,33.029,0,0,0-5.97,2.734c-.8.5-1.152.069-1.592-.466a15.391,15.391,0,0,1-3.734-9.795c-.075-8.619-.138-17.241.034-25.857A24.134,24.134,0,0,1,85.8,265.093" transform="translate(-51.205 -170.303)" fill="#fbd25a"/>
        <path id="Trazado_658254" data-name="Trazado 658254" d="M315.149,296.26a49.067,49.067,0,0,1-11.014,16.09c-.73.713-.977.427-1.4-.25a33.065,33.065,0,0,0-17.561-14.039c-.969-.344-2.145-2.264-1.6-2.7.871-.693,1.541-1.93,3.139-1.336a51.9,51.9,0,0,0,20.067,3.183,65.879,65.879,0,0,0,8.37-.952" transform="translate(-182.087 -188.792)" fill="#e3e6ea"/>
        <path id="Trazado_658255" data-name="Trazado 658255" d="M169.946,439.728a42.16,42.16,0,0,0,6.774-15.655,41.547,41.547,0,0,0,.613-4.224c.094-1.006.336-1.394,1.4-.894a27.637,27.637,0,0,1,12.426,11.362c.266.458.595.86-.1,1.328a48.173,48.173,0,0,1-21.118,8.083" transform="translate(-109.178 -269.008)" fill="#a6dc70"/>
        <path id="Trazado_658256" data-name="Trazado 658256" d="M94.617,439.545a41.979,41.979,0,0,1-11.179-2.918,49.008,49.008,0,0,1-9.09-4.805c-.806-.534-1.152-.9-.527-1.908a28.082,28.082,0,0,1,12.089-10.926c.688-.326,1.435-.877,1.555.55a40.677,40.677,0,0,0,6.92,19.356,3.653,3.653,0,0,1,.232.65" transform="translate(-47.218 -268.924)" fill="#a6dc70"/>
        <path id="Trazado_658257" data-name="Trazado 658257" d="M230.485,242.9a7.78,7.78,0,0,1-3.262.678c-3.679-.01-7.358.024-11.038-.011a8.521,8.521,0,0,1-8.706-8.655c-.041-5.044-.009-10.087-.009-15.7A55.882,55.882,0,0,0,230.485,242.9" transform="translate(-133.277 -140.833)" fill="#f3ccae"/>
        <path id="Trazado_658258" data-name="Trazado 658258" d="M111.735,315.092a55.49,55.49,0,0,0,22.689,23.5c-.166.565-.533.5-.779.521a65.746,65.746,0,0,1-15.244-.008,7.77,7.77,0,0,1-6.619-7.377c-.185-5.374-.048-10.758-.048-16.639" transform="translate(-71.75 -202.424)" fill="#f3ccae"/>
        <path id="Trazado_658259" data-name="Trazado 658259" d="M136.206,410.394c-2.139,0-4.28-.042-6.418.02-.92.027-1.362-.168-1.484-1.189-.363-3.05-1.154-6.076.107-9.12.327-.79.57-1.208,1.583-1.186,4.158.093,8.319.079,12.478.025a1.452,1.452,0,0,1,1.655,1.107c1.288,3.238.457,6.431.021,9.649-.112.829-.661.688-1.168.689-2.258.009-4.516,0-6.775,0" transform="translate(-82.054 -256.276)" fill="#f3cdae"/>
        <path id="Trazado_658260" data-name="Trazado 658260" d="M263.922,342.4c.463-1.009.931-2.155,1.509-3.242.381-.716.806-.044,1.127.142,2.053,1.19,4.106,2.386,6.111,3.656.779.494,1.077.328,1.4-.471,1.189-2.909,2.5-5.767,3.632-8.7.5-1.311.972-1.12,1.826-.392a29.715,29.715,0,0,1,6.188,7.317c.43.712.512,1.15-.316,1.7a48.309,48.309,0,0,1-17.951,7.45c-.478.091-.954.309-1.173-.347-.769-2.3-1.528-4.612-2.355-7.116" transform="translate(-169.551 -213.817)" fill="#fa7664"/>
        <path id="Trazado_658261" data-name="Trazado 658261" d="M191.1,342.354c-.812,2.432-1.568,4.74-2.359,7.036-.179.52-.634.386-1.058.307a47.68,47.68,0,0,1-18.225-7.675c-.48-.327-.6-.606-.291-1.145a28,28,0,0,1,6.783-7.946c.757-.608.933-.227,1.211.439,1.23,2.954,2.555,5.868,3.737,8.841.406,1.022.788,1.078,1.642.534,1.85-1.18,3.8-2.207,5.612-3.441,1.126-.767,1.586-.466,1.962.678.274.834.67,1.627.985,2.372" transform="translate(-108.567 -213.688)" fill="#fa7664"/>
        <path id="Trazado_658262" data-name="Trazado 658262" d="M363.189,254.062c-.773.19-.856-.391-1.027-.9-.638-1.913-1.329-3.81-1.921-5.737-.5-1.625.707-2.793,1.306-4.1.26-.567.722-.009,1.02.165,1.9,1.106,3.842,2.15,5.637,3.408,1.31.919,1.714.428,2.2-.793,1.087-2.759,2.327-5.457,3.424-8.212.4-1.007.729-1.126,1.582-.41a28.707,28.707,0,0,1,6.325,7.427c.3.506.654.938-.116,1.459a48.1,48.1,0,0,1-18.076,7.627l-.351.067" transform="translate(-231.353 -152.272)" fill="#00c0e9"/>
        <path id="Trazado_658263" data-name="Trazado 658263" d="M286.852,246.8c-.761,2.277-1.516,4.582-2.308,6.873-.179.519-.648.378-1.063.3a47.989,47.989,0,0,1-18.2-7.656c-.622-.422-.511-.78-.208-1.3a28.684,28.684,0,0,1,6.533-7.676c.89-.739,1.111-.326,1.441.475,1.174,2.843,2.447,5.647,3.581,8.505.427,1.076.781,1.364,1.848.653,1.871-1.245,3.866-2.3,5.763-3.512.817-.52,1.215-.4,1.518.5a14.457,14.457,0,0,1,1.093,2.834" transform="translate(-170.134 -152.228)" fill="#00c0e9"/>
        <path id="Trazado_658264" data-name="Trazado 658264" d="M242.988,396.365A48.622,48.622,0,0,1,231.92,412.5c-.659.639-.9.407-1.276-.226a30.554,30.554,0,0,0-5.737-6.976c-.543-.491-.663-.811-.144-1.428a20.186,20.186,0,0,0,3.359-5.812c.2-.511.4-.932,1.124-.865a54.769,54.769,0,0,0,13.742-.824" transform="translate(-144.18 -254.636)" fill="#e3e6ea"/>
        <path id="Trazado_658265" data-name="Trazado 658265" d="M181.289,156.271a61.738,61.738,0,0,0,2.11,13.167c.332,1.087-.692,1.713-.866,2.6-.407,2.06-1.716,2.666-3.649,2.924-2.418.322-2.405.487-2.89-1.922-1.278-6.361.556-11.761,5.3-16.763" transform="translate(-112.809 -100.393)" fill="#b7733a"/>
        <path id="Trazado_658266" data-name="Trazado 658266" d="M147.195,446.965a34.916,34.916,0,0,1-5.453,9.393c-.442.556-.709.41-1.082-.048a36.286,36.286,0,0,1-5.113-8.478c-.339-.781.066-.878.724-.875,3.55.017,7.1.008,10.923.008" transform="translate(-87 -287.137)" fill="#fbe59b"/>
        <path id="Trazado_658267" data-name="Trazado 658267" d="M233.421,303.179c2.13,0,4.261.031,6.389-.018.677-.016,1.1.1,1.319.8.247.79-.341.889-.793,1.117-2.055,1.038-4.118,2.061-6.167,3.111a1.424,1.424,0,0,1-1.477.038c-2.089-1.1-4.209-2.139-6.326-3.186-.5-.246-.969-.413-.681-1.162a1.008,1.008,0,0,1,1.17-.749c2.187.058,4.377.022,6.566.022v.024" transform="translate(-144.93 -194.74)" fill="#f3ccae"/>
        <path id="Trazado_658268" data-name="Trazado 658268" d="M329.288,207.374c2.131,0,4.263.037,6.393-.022a1.007,1.007,0,0,1,1.169.751c.29.752-.185.915-.682,1.161-2.118,1.048-4.24,2.089-6.33,3.188a1.423,1.423,0,0,1-1.477-.048c-2.051-1.049-4.115-2.073-6.173-3.108-.46-.231-1.032-.344-.773-1.126.226-.684.6-.835,1.3-.813,2.189.066,4.38.024,6.571.024v-.008" transform="translate(-206.444 -133.208)" fill="#f3ccae"/>
        <path id="Trazado_658269" data-name="Trazado 658269" d="M181.281,229.228c0,1.6-.043,3.2.017,4.8.033.865-.318.974-1.052.849a5.743,5.743,0,0,1-.025-11.278c.921-.169,1.109.161,1.077,1-.059,1.539-.017,3.082-.017,4.623" transform="translate(-112.796 -143.619)" fill="#f3ccae"/>
        <path id="Trazado_658270" data-name="Trazado 658270" d="M398.985,133.478c0-1.6.043-3.2-.017-4.8-.032-.86.309-.979,1.047-.855a5.743,5.743,0,0,1,.03,11.277c-.928.173-1.106-.166-1.076-1,.054-1.539.015-3.081.015-4.622" transform="translate(-256.307 -82.09)" fill="#f3ccae"/>
        <path id="Trazado_658271" data-name="Trazado 658271" d="M277.045,133.441c0,1.6-.042,3.2.017,4.8.031.852-.3.985-1.044.859a5.743,5.743,0,0,1-.04-11.279c.914-.169,1.115.148,1.083,1-.056,1.539-.016,3.082-.016,4.623" transform="translate(-174.317 -82.088)" fill="#f3ccae"/>
        <path id="Trazado_658272" data-name="Trazado 658272" d="M199.085,392.037c-.239.5-.4.881-.59,1.239-1.954,3.642-2.019,3.651-5.715,1.913a24.787,24.787,0,0,0-3.276-1.326c-.767-.234-1.3-.6-1.391-1.375-.064-.561-.9-1.214.011-1.7.855-.461,1.378-1.608,2.747-1.047a46.382,46.382,0,0,0,8.214,2.3" transform="translate(-120.585 -250.281)" fill="#fbd25a"/>
        <path id="Trazado_658273" data-name="Trazado 658273" d="M214.188,322.939c-2.237,1.349-4.262,2.54-6.251,3.786-.7.437-.911.11-1.138-.478-.317-.824-.763-1.605-1.01-2.447-.242-.825-1.391-1.859-.565-2.426,1.166-.8,2.6-1.717,4.255-.813,1.446.789,2.94,1.49,4.71,2.379" transform="translate(-131.652 -205.696)" fill="#f85f43"/>
        <path id="Trazado_658274" data-name="Trazado 658274" d="M263.947,322.969c1.816-.9,3.363-1.651,4.885-2.445a2.136,2.136,0,0,1,1.531-.232c2.942.641,3.121.978,1.927,3.77-1.339,3.131-1.339,3.131-4.3,1.351-1.264-.761-2.525-1.525-4.046-2.443" transform="translate(-169.567 -205.73)" fill="#f85f43"/>
        <path id="Trazado_658275" data-name="Trazado 658275" d="M359.8,227.2c1.8-.9,3.394-1.666,4.963-2.487a2.008,2.008,0,0,1,1.533-.139c2.985.762,3.024.83,1.824,3.669-1.339,3.171-1.341,3.174-4.254,1.427-1.308-.784-2.607-1.583-4.066-2.47" transform="translate(-231.144 -144.213)" fill="#00acd8"/>
        <path id="Trazado_658276" data-name="Trazado 658276" d="M309.962,227.164c-2.24,1.346-4.218,2.518-6.177,3.723-.583.359-.926.358-1.182-.365-.316-.89-.788-1.726-1.074-2.624-.246-.773-1.3-1.789-.538-2.287,1.141-.745,2.5-1.7,4.1-.88,1.524.782,3.064,1.533,4.867,2.432" transform="translate(-193.19 -144.171)" fill="#00acd8"/>
        <path id="Trazado_658277" data-name="Trazado 658277" d="M338.891,277.037c-2.618.008-2.618.008-1.784-2.508.242-.731.529-1.45.714-2.2.164-.661.425-1.028,1.193-1.009.7.018.884.4,1.051.957A20.959,20.959,0,0,0,341.1,275.3c.735,1.549.027,1.842-1.319,1.736-.295-.023-.594,0-.89,0" transform="translate(-216.25 -174.306)" fill="#fbd25a"/>
        <path id="Trazado_658278" data-name="Trazado 658278" d="M243.3,372.851c-2.77.009-2.769.009-1.883-2.684.257-.781.533-1.557.756-2.347.162-.573.536-.68,1.062-.685a.9.9,0,0,1,1.034.723c.238.847.529,1.681.806,2.517.82,2.469.822,2.468-1.775,2.476" transform="translate(-154.754 -235.857)" fill="#fbd25a"/>
        <path id="Trazado_658279" data-name="Trazado 658279" d="M242.961,342.231c-.869,0-2.716-2.277-2.458-3.343a2.649,2.649,0,0,1,4.9-.016c.285,1.01-1.594,3.356-2.444,3.358" transform="translate(-154.49 -216.649)" fill="#f7bd00"/>
        <path id="Trazado_658280" data-name="Trazado 658280" d="M338.792,246.451c-.9.014-2.694-2.139-2.489-3.308s1.489-1.634,2.4-1.684a2.573,2.573,0,0,1,2.494,1.6c.318.931-1.579,3.381-2.4,3.394" transform="translate(-216.04 -155.118)" fill="#f7bd00"/>
        <path id="Trazado_658281" data-name="Trazado 658281" d="M311,349.5c3.182,2.123,6.011,4.058,8.9,5.905.94.6,1.219,1.072.412,2.013-.913,1.066-1.326,3.044-2.523,3.22-1.02.149-2.285-1.258-3.418-2.012q-9.933-6.608-19.854-13.235c-.376-.251-.743-.514-1.512-1.047,3.388,0,6.324.017,9.26,0a55.64,55.64,0,0,0,36-12.793c13.4-11.023,20.4-25.331,21.121-42.668.054-1.291.3-1.681,1.655-1.656,4.407.082,4.362.013,3.953,4.484q-2.926,31.959-30,49.149c-7.069,4.5-14.433,7.051-23.983,8.643" transform="translate(-188.235 -184.522)" fill="#040404"/>
        <path id="Trazado_658282" data-name="Trazado 658282" d="M382.557,352.182a.631.631,0,0,1-.523-.405c-.691-1.31-1.435-2.593-2.087-3.921-.484-.988.541-1.02,1-1.294A46.092,46.092,0,0,0,397.9,329.417a42.689,42.689,0,0,0,4.29-10.491c.246-.956.58-1.133,1.553-.924,4.547.973,4.584.945,3.081,5.325a51.082,51.082,0,0,1-23.18,28.25c-.357.21-.724.4-1.086.6" transform="translate(-244.007 -204.243)" fill="#040404"/>
        <path id="Trazado_658283" data-name="Trazado 658283" d="M449.3,287.339c2.871,0,2.871,0,2.7,2.919-.177,3.042-.177,3.042-3.168,2.79-.294-.025-.588-.071-.882-.072-1.528,0-2.276-.594-1.734-2.218a2.833,2.833,0,0,0,.071-.7c.176-2.716.175-2.716,3.013-2.716" transform="translate(-286.546 -184.594)" fill="#040404"/>
        <path id="Trazado_658284" data-name="Trazado 658284" d="M40.931,115.6c-1.408-.323-2.732-.642-4.064-.929-1.264-.272-.568-1.111-.418-1.652A50.921,50.921,0,0,1,52.97,87.217a53.233,53.233,0,0,1,7.878-5.475c.717-.413,1.1-.438,1.482.385.617,1.339,1.949,2.692,1.829,3.927-.118,1.215-2.157,1.57-3.314,2.36a45.52,45.52,0,0,0-18.779,25.747c-.437,1.529-.428,1.532-1.135,1.444" transform="translate(-23.206 -52.333)" fill="#040404"/>
        <path id="Trazado_658285" data-name="Trazado 658285" d="M34.761,197.09c-2.978,0-2.978,0-2.792-3,.183-2.959.183-2.959,3.066-2.716.118.01.236.013.354.024,2.507.222,2.507.222,2.306,2.7,0,.059-.009.118-.013.177-.193,2.812-.193,2.812-2.92,2.812" transform="translate(-20.495 -122.882)" fill="#040404"/>
        <path id="Trazado_658286" data-name="Trazado 658286" d="M324.37,158.348a24.038,24.038,0,0,0-3.384.033c-1.68.245-1.916-.489-1.877-1.958.1-3.781.031-3.782,3.762-3.782,1.486,0,2.972-.008,4.458,0a6.2,6.2,0,0,0,5.809-3.128c.469-.806.874-.99,1.658-.483a18.421,18.421,0,0,0,1.744.886c2.542,1.279,2.558,1.292.863,3.539a11.833,11.833,0,0,1-9.467,4.884c-1.187.041-2.377.006-3.566.009" transform="translate(-205.002 -95.56)" fill="#030202"/>
      </g>
    </g>
  </g>
</svg>
