<svg id="_13" data-name="13" xmlns="http://www.w3.org/2000/svg" xmlns:xlink="http://www.w3.org/1999/xlink" width="505" height="303.628" viewBox="0 0 505 303.628">
  <defs>
    <clipPath id="clip-path">
      <rect id="Rectángulo_343334" data-name="Rectángulo 343334" width="505" height="303.628" fill="none"/>
    </clipPath>
    <clipPath id="clip-path-3">
      <rect id="Rectángulo_343330" data-name="Rectángulo 343330" width="11.873" height="9.615" fill="none"/>
    </clipPath>
    <clipPath id="clip-path-4">
      <rect id="Rectángulo_343331" data-name="Rectángulo 343331" width="21.4" height="13.377" fill="none"/>
    </clipPath>
    <clipPath id="clip-path-5">
      <rect id="Rectángulo_343332" data-name="Rectángulo 343332" width="13.018" height="11.348" fill="none"/>
    </clipPath>
  </defs>
  <g id="Grupo_997058" data-name="Grupo 997058" clip-path="url(#clip-path)">
    <g id="Grupo_997057" data-name="Grupo 997057">
      <g id="Grupo_997056" data-name="Grupo 997056" clip-path="url(#clip-path)">
        <path id="Trazado_658435" data-name="Trazado 658435" d="M628.42,32.4a28.29,28.29,0,0,0-3.145-12.983A28.525,28.525,0,0,0,598.442.469c-.364,0-.724.014-1.084.027l-.005-.127a36.459,36.459,0,0,0-16.57,4.7,47.5,47.5,0,0,0-12.429,10.454c-5.246,6.067-9.311,13.177-12.528,19.446A36.008,36.008,0,0,0,555.1,20.6a22.329,22.329,0,0,0-6.785-10.33,15.493,15.493,0,0,0-8.583-3.586,10.934,10.934,0,0,0-3.329.256q-.67-.344-1.369-.634a19.749,19.749,0,0,0-6.389-4.426A23.263,23.263,0,0,0,515.751.3a18.715,18.715,0,0,0-13.039,7.974c-2.466-.1-7.024.787-10.777,7.521-5.677,10.184-5.167,20.32,1.437,28.541q.869,1.082,1.848,2.078a27.909,27.909,0,0,0,4.531,9.082l.014.017c2.24,2.461,6.561,4.878,11.684,5.992a23.637,23.637,0,0,0,11,2.57q.336,0,.674-.009a31.266,31.266,0,0,0,11.6-2.61,10.66,10.66,0,0,0,4.116-.254c4.347-1.041,8.347-4.5,11.566-10.016A44.024,44.024,0,0,0,555.6,36.49c6.308-12.5,15.895-28.731,32.235-33.963A28.6,28.6,0,0,0,577.1,10.115a28.437,28.437,0,0,0,2.174,46.144A28.4,28.4,0,0,0,607.1,59.968,28.53,28.53,0,0,0,628.42,32.4M536.339,7.455a17.7,17.7,0,0,1,5.35,4.35,20.12,20.12,0,0,1,4.461,11.206,9.44,9.44,0,0,0-1.564-1.29q-.118-.7-.284-1.384a18.543,18.543,0,0,0-6.433-10.183A18.866,18.866,0,0,0,536.1,7.522q.119-.035.24-.067M493.357,30.507c-1.647-3.5.73-9.646,6.056-15.664q.492-.557,1.011-1.1-.156.7-.256,1.428a11.184,11.184,0,0,0-.105,1.975,34.311,34.311,0,0,0-1.89,3.167,37.076,37.076,0,0,0-3.8,11.6,4.651,4.651,0,0,1-1.017-1.4m.933,1.978a35.841,35.841,0,0,0-.333,4.507q-.223-.54-.415-1.1a19.158,19.158,0,0,1-1.021-6.34,5.714,5.714,0,0,0,.4,1.161,5.164,5.164,0,0,0,1.371,1.772M506.247,9.7c.162.083.321.171.478.264a30.3,30.3,0,0,0-6.181,6.479,11.316,11.316,0,0,1,.1-1.213,17.459,17.459,0,0,1,.44-2.178q.538-.543,1.1-1.073.77-.622,1.617-1.24A7.878,7.878,0,0,1,506.247,9.7m-1.375-.063q.219-.176.441-.35c.085.032.17.065.254.1q-.357.112-.7.25m2.3.612a8.579,8.579,0,0,1,2.58,2.722,33.107,33.107,0,0,0-4.131,5.382A9.438,9.438,0,0,0,502.91,19.6l-.044.037a7.346,7.346,0,0,0-1,1.293,6.047,6.047,0,0,1-1.314-3.654,29.538,29.538,0,0,1,6.621-7.024m-.2-.7c.128-.022.257-.041.386-.058l-.218.16c-.056-.035-.111-.069-.168-.1m32.118,21.328a15.283,15.283,0,0,0-4.248-7.521,14.428,14.428,0,0,1,1.366-.97,5.425,5.425,0,0,0,3.368,1.42,2.728,2.728,0,0,0,2.247-1.256l.019-.033a2.8,2.8,0,0,0,.272-1.382,7.273,7.273,0,0,1,2.031.868c.938,5.929-.833,12.215-4.719,17.586a23.173,23.173,0,0,0-.335-8.712m-4.906,21.505a27.925,27.925,0,0,1-1.809,2.558,17.529,17.529,0,0,1-1.467,1.621,7.444,7.444,0,0,1,.639-2.724,23.823,23.823,0,0,0,2.637-1.454m-2.307.753c.17-.329.362-.662.576-.994a23.271,23.271,0,0,1,4.63-5.554,34.511,34.511,0,0,1-2.3,4.81,23.025,23.025,0,0,1-2.9,1.738m.876,2.107a29.244,29.244,0,0,0,2.385-3.5,23.982,23.982,0,0,0,7.42-8.654,5.285,5.285,0,0,1,2.879-.249,40.653,40.653,0,0,1-12.294,14.437,19.487,19.487,0,0,1-1.9,1.168,4.31,4.31,0,0,1-.308-1.235,18.076,18.076,0,0,0,1.82-1.964m2.971-4.549a35.261,35.261,0,0,0,2.107-4.736,23.278,23.278,0,0,1,2.881-1.985,8.4,8.4,0,0,1,1.148-.616,23.593,23.593,0,0,1-6.137,7.336m1.7-5.031a23.761,23.761,0,0,0-5.385,6.223,12,12,0,0,0-.865,1.589,25.2,25.2,0,0,1-3.372,1.276q-1.244.373-2.529.625a12.937,12.937,0,0,1-.167-3.779c.044-.506.11-1.017.2-1.529a12.831,12.831,0,0,0,6.281-2.34,32.46,32.46,0,0,0,7.035-6.309,32.411,32.411,0,0,1-1.194,4.245M524.117,8.942a5.149,5.149,0,0,0-5.139,3.013l-.01.021a4.552,4.552,0,0,0,.226,3.686,4.971,4.971,0,0,0,3.023,2.6,5.276,5.276,0,0,0,6.158-2.895,6.491,6.491,0,0,0,.611-3.452,8.131,8.131,0,0,1,1.882,2.991l.008.02a15.862,15.862,0,0,1,.69,1.858,3.174,3.174,0,0,0-.118,2.451,3.252,3.252,0,0,0,.8,1.24c.024.308.04.614.049.915a17.015,17.015,0,0,0-2.1-1.1l-.022-.009a15.9,15.9,0,0,0-13.2,1.6q.283-.651.5-1.325A9.876,9.876,0,0,0,517.1,12.8l-.013-.022a8.112,8.112,0,0,0-2.311-2.2,11.389,11.389,0,0,1,4.065-3.369c2.42-1.088,4.991-.752,7.641,1a5.539,5.539,0,0,1,1.688,2.337,7.942,7.942,0,0,0-4.056-1.6m4.3,2.438a5.986,5.986,0,0,1-.474,3.778,4.807,4.807,0,0,1-5.6,2.639,4.473,4.473,0,0,1-2.708-2.348,4.07,4.07,0,0,1-.215-3.281,4.684,4.684,0,0,1,4.668-2.743,7.727,7.727,0,0,1,4.333,1.955m11.7,9.085a9.356,9.356,0,0,0-3.848,1.332c-.131-.122-.255-.246-.37-.373a4.53,4.53,0,0,0,2.893-2.332,6.336,6.336,0,0,0,.544-1.422,7.107,7.107,0,0,1,2.034,2.46,3.468,3.468,0,0,1,.148.4,7.051,7.051,0,0,0-1.4-.064m1.5.569a2.33,2.33,0,0,1-.2,1.261,2.231,2.231,0,0,1-1.848,1.03,4.786,4.786,0,0,1-2.918-1.2,8.781,8.781,0,0,1,3.5-1.18,6.554,6.554,0,0,1,1.469.086m-3.257-2.172a4.061,4.061,0,0,1-2.815,2.144l0,0-.011-.013a18.281,18.281,0,0,1-3.075-4.647,3.29,3.29,0,0,1,3.248-.717,11.449,11.449,0,0,1,3.209,1.718,6.006,6.006,0,0,1-.554,1.52m-5.572,2.849c0-.269-.013-.542-.028-.818a4.588,4.588,0,0,0,1.85.692l.021,0h.022a5.825,5.825,0,0,0,.692-.056,6.667,6.667,0,0,0,.492.525,15.266,15.266,0,0,0-1.35.974,15.307,15.307,0,0,0-1.7-1.32m1.337,1.621a19.177,19.177,0,0,0-1.511,1.44,22.434,22.434,0,0,0,.174-2.486,14.685,14.685,0,0,1,1.336,1.046m.851-2.245c-.1.008-.2.014-.311.017a3.9,3.9,0,0,1-1.951-.855,17.9,17.9,0,0,0-.628-3.409c.011-.02.023-.039.034-.059a18.6,18.6,0,0,0,2.856,4.306M532.157,19.6a2.754,2.754,0,0,1-.255-.527,2.719,2.719,0,0,1-.11-1.455,17.387,17.387,0,0,1,.365,1.982m-17.278,3.683a23.2,23.2,0,0,0-2.191,1.9,7.14,7.14,0,0,0-2.056-5.7,6.976,6.976,0,0,0,.636-2.815,26.853,26.853,0,0,1,3.214-5.711,7.608,7.608,0,0,1,2.2,2.084,9.41,9.41,0,0,1,.327,7.368,14.326,14.326,0,0,1-.786,1.93q-.681.439-1.346.944m.853-.027a14.173,14.173,0,0,1-3.429,4c.018-.056.035-.111.05-.163a8.7,8.7,0,0,0,.254-1.15,23.165,23.165,0,0,1,2.565-2.277q.279-.212.56-.412m-5.766,5.882a7.468,7.468,0,0,0,.7-.282q.277-.134.551-.289a8.9,8.9,0,0,1-2.359,2.775c-.026-.125-.05-.251-.073-.379q.553-.936,1.177-1.825m-1.288,1.078q-.045-.372-.072-.755.315-.042.633-.115c-.192.286-.379.577-.561.87m1.827-1.819c.467-.618.96-1.215,1.476-1.786q-.043.174-.094.347a7.968,7.968,0,0,1-.285.806,9.642,9.642,0,0,1-1.1.633m-.84.331a6.6,6.6,0,0,1-1.085.248,18.079,18.079,0,0,1,.309-4,30.816,30.816,0,0,1,.876-4.036,8.106,8.106,0,0,0,.642-1,6.837,6.837,0,0,1,1.742,5.787,26.583,26.583,0,0,0-2.484,3.006M508.413,24.9a18.48,18.48,0,0,0-.314,4.131,6.528,6.528,0,0,1-5.638-2.569c-.027-.039-.055-.077-.081-.117q.627-1.818,1.437-3.586a5.9,5.9,0,0,0,5.241-1.059,30.515,30.515,0,0,0-.646,3.2m.024,6.761-.069.047.057-.1.013.055m5.9-21.347q-.261-.148-.533-.282,1-.739,2.056-1.369a15.372,15.372,0,0,0-1.522,1.651m-.3.384a25.733,25.733,0,0,0-2.845,4.884,7.546,7.546,0,0,0-.517-1.843q-.147-.351-.326-.686a28.167,28.167,0,0,1,3.019-2.692c.228.1.452.216.67.338m-3.26,5.834c-.332.793-.631,1.592-.9,2.382a5.034,5.034,0,0,0-2.7-.765,5.908,5.908,0,0,0-.9.071,32.571,32.571,0,0,1,3.717-4.8q.126.248.234.5a6.844,6.844,0,0,1,.549,2.606m-1.055,2.857q-.22.679-.408,1.341-.158.208-.334.409a5.462,5.462,0,0,1-4.961,1.177q.249-.525.514-1.043.658-1.289,1.391-2.486a4.722,4.722,0,0,1,3.8.6m-5.62,1.664q-.28.548-.543,1.1a4.33,4.33,0,0,1-.455-.217,4.449,4.449,0,0,1-.892-.645,6.812,6.812,0,0,1,.979-1.3,9.477,9.477,0,0,1,2.05-1.011q-.595,1-1.14,2.07m-1.23,1.311a4.748,4.748,0,0,0,.484.233q-.723,1.581-1.3,3.208a4.5,4.5,0,0,1-.07-4.062,4.928,4.928,0,0,0,.888.622m-.686,4.545a7.048,7.048,0,0,0,5.936,2.6q.05.7.159,1.365-.382.657-.727,1.331a14.255,14.255,0,0,1-5.977,1.622q-.516.018-1,.01a39.9,39.9,0,0,1,1.614-6.932m5.727,5.656q.337-.194.643-.4a8.922,8.922,0,0,0,3.858,5.554,6.762,6.762,0,0,0,1,.492,15.7,15.7,0,0,0,4.538,9.071,15.58,15.58,0,0,1-6.591,1.7,16.159,16.159,0,0,1-5.637-.842,18.317,18.317,0,0,1-.521-4.017,23.772,23.772,0,0,1,2.706-11.563m5.942,2.04c.412-2.975,1.981-5.007,4.416-5.72,1.411-.413,2.742.274,3.561,1.838.873,1.665.941,4.064-.456,5.194-2.528,2.047-5.2,2.719-7.521,1.939a12.647,12.647,0,0,1,0-3.251m.076,3.784c2.421.72,5.166,0,7.75-2.1,1.59-1.287,1.543-3.957.58-5.8-.935-1.784-2.477-2.56-4.126-2.077-2.629.77-4.319,2.943-4.76,6.118a12.914,12.914,0,0,0-.026,3.12,6.27,6.27,0,0,1-.688-.355,8.513,8.513,0,0,1-3.685-5.436,9.321,9.321,0,0,0,3.013-3.781,14.617,14.617,0,0,0,4.6-5.407,15.56,15.56,0,0,1,13.411-1.94,16.924,16.924,0,0,1,2.3,1.226,21.967,21.967,0,0,1-.271,3.445c-2.632,3.026-4.544,6.921-4.824,10.172a6.22,6.22,0,0,0,.173,2.019,23.88,23.88,0,0,1-8.97,9.442,15.063,15.063,0,0,1-4.479-8.656m17.925-12.006c0,.012,0,.025-.007.038a48.963,48.963,0,0,1-4.109,10.536,5.554,5.554,0,0,1-.051-1.33,18.779,18.779,0,0,1,4.168-9.244M523.223,44.01a28.234,28.234,0,0,0,4.362-5.736,7.973,7.973,0,0,0,1.12,2.1A24.27,24.27,0,0,0,524.9,49.6a8.876,8.876,0,0,1-4.958-1.4,10.854,10.854,0,0,1-1.139-.824,20.1,20.1,0,0,0,4.421-3.369m8.094,3.317a12.429,12.429,0,0,1-5.923,2.246,23.466,23.466,0,0,1,3.643-8.783,6.59,6.59,0,0,0,1.98,1.593,4.3,4.3,0,0,0,5.026-.611l.015-.014a2.965,2.965,0,0,0,.634-3.28l-.034-.052a3.6,3.6,0,0,0-4.016-1.357A8.013,8.013,0,0,0,529,39.976a7.35,7.35,0,0,1-1.1-2.266,49.122,49.122,0,0,0,4.415-11.179c.058-.287.114-.588.165-.9a18.781,18.781,0,0,1,1.99-1.971A14.673,14.673,0,0,1,538.619,31a23.19,23.19,0,0,1,.191,9.414,31.806,31.806,0,0,1-7.495,6.917m-1.99-6.935a7.774,7.774,0,0,1,3.461-2.861,3.107,3.107,0,0,1,3.48,1.185,2.512,2.512,0,0,1-.55,2.7,3.84,3.84,0,0,1-4.482.539,6.186,6.186,0,0,1-1.909-1.56m12.712-19.766a3.854,3.854,0,0,0-.232-.692,7.832,7.832,0,0,0-2.364-2.786,9.05,9.05,0,0,0-.907-5.769,18.008,18.008,0,0,1,5.3,9.073q.113.467.2.938a7.609,7.609,0,0,0-2-.764m-3.029-3.8a11.745,11.745,0,0,0-3.172-1.663l-.017,0a5.278,5.278,0,0,0-1.182-.14,3.469,3.469,0,0,0-2.381.844,6.53,6.53,0,0,1-.02-5.332,5.465,5.465,0,0,1,2.027-2.189A21.3,21.3,0,0,1,537.5,10.48q.2.374.4.762l.013.022a8.438,8.438,0,0,1,1.1,5.559m-7.2-6.512a6.7,6.7,0,0,0-.234,5.025q-.118-.3-.249-.592a8.821,8.821,0,0,0-2.474-3.647,5.978,5.978,0,0,0-2.065-3.269l-.02-.014A9.289,9.289,0,0,0,521.84,6.1a23.016,23.016,0,0,1,3.6-.683,28.585,28.585,0,0,1,8.336,2.662,5.883,5.883,0,0,0-1.972,2.231m-18.5-.509a11.215,11.215,0,0,0-2.672-.753,11.979,11.979,0,0,0-1.507-.136,24.764,24.764,0,0,1,14.389-3.763l.221.026A24.587,24.587,0,0,0,513.305,9.8m-.445.342a28.733,28.733,0,0,0-2.757,2.471,9.066,9.066,0,0,0-2.518-2.665q.384-.278.775-.541a11.323,11.323,0,0,1,4.5.735m-11.238,11.24a5.129,5.129,0,0,0,.225,5.026,40.388,40.388,0,0,0-1.755,7.416,9.311,9.311,0,0,1-5.3-1.559A36.216,36.216,0,0,1,498.6,20.534q.716-1.36,1.526-2.612a6.14,6.14,0,0,0,1.5,3.462m-6.9,11.429a10.055,10.055,0,0,0,5.308,1.494,36.4,36.4,0,0,0,.227,10.9,20.11,20.11,0,0,1-5.805-7.121,34.809,34.809,0,0,1,.271-5.276m5.792,1.509c.354.007.719,0,1.095-.009a15.355,15.355,0,0,0,5.589-1.371,24.012,24.012,0,0,0-2.469,11.2,18.825,18.825,0,0,0,.46,3.81,18.7,18.7,0,0,1-4.365-2.323,35.689,35.689,0,0,1-.31-11.309m4.814,14.194a16.63,16.63,0,0,0,2.117,4.8q.156.241.32.476a35.047,35.047,0,0,1-5.172-2.379,28.029,28.029,0,0,1-1.627-5.1,19.048,19.048,0,0,0,4.362,2.2m.553.183a16.577,16.577,0,0,0,5.506.771,16.212,16.212,0,0,0,6.957-1.845,11.28,11.28,0,0,0,1.34.989,9.334,9.334,0,0,0,5.129,1.476c-.082.5-.144.989-.186,1.468a13.447,13.447,0,0,0,.174,3.91,33.073,33.073,0,0,1-16.255-1.4,16.033,16.033,0,0,1-2.665-5.37m19.033,7.24a5.964,5.964,0,0,0,2.185,3.42,18.129,18.129,0,0,1-2.933,1.253,17.983,17.983,0,0,1-9.941-1.855,16.57,16.57,0,0,1-5.125-4,33.409,33.409,0,0,0,15.815,1.185m2.651,3.718.132.073q.1.063.206.122-.749.233-1.509.4.588-.274,1.171-.6m.006-.562a5.39,5.39,0,0,1-2.18-3.245q1.3-.256,2.554-.632a26.118,26.118,0,0,0,2.969-1.088,7.271,7.271,0,0,0-.481,2.882,16.861,16.861,0,0,1-2.863,2.084M530.5,57.6a4.632,4.632,0,0,0,.313,1.069,19.033,19.033,0,0,1-2.262.966,5.362,5.362,0,0,1-.5-.259A17.309,17.309,0,0,0,530.5,57.6m.528,1.5q.1.183.227.356a4.349,4.349,0,0,0,.506.594,6.238,6.238,0,0,1-2.51-.161q.9-.348,1.777-.79m.622.076q-.1-.146-.192-.3a19.976,19.976,0,0,0,1.965-1.205,40.692,40.692,0,0,0,11.381-12.6q.6-1.036,1.12-2.077a3.01,3.01,0,0,1,1.308,1.079c2,4.136-5.17,9.9-8.619,12.67-.283.227-.545.437-.768.62a15.166,15.166,0,0,1-5.471,2.583,3.945,3.945,0,0,1-.725-.774M545.654,42.4a5.343,5.343,0,0,0-2.788.074,34.961,34.961,0,0,0,3.2-12.056,23.759,23.759,0,0,0,.641-6.019,10.617,10.617,0,0,1,1.94,4.484,27.092,27.092,0,0,1-3,13.517m-.06-12.077-.005.033a34.136,34.136,0,0,1-3.37,12.324,8.876,8.876,0,0,0-1.76.883,23.724,23.724,0,0,0-2.337,1.556,32.178,32.178,0,0,0,1.142-4.5c4.242-5.5,6.265-12.043,5.423-18.245a9.32,9.32,0,0,1,1.516,1.4,23.244,23.244,0,0,1-.609,6.555M536.838,9.369a22.091,22.091,0,0,0-2.077-1.313,7.392,7.392,0,0,1,.857-.375,18.288,18.288,0,0,1,1.22,1.688m-1.549-2.081a7.693,7.693,0,0,0-1.035.493,27.789,27.789,0,0,0-6.816-2.463,19.457,19.457,0,0,1,7.349,1.412q.255.272.5.558m-6.1-4.48.046-.14a19,19,0,0,1,4.72,3.232,20.576,20.576,0,0,0-7.779-1.035q-.365.028-.727.065-.931-.153-1.9-.262a24.923,24.923,0,0,0-15.161,4.113c-.074.048-.147.1-.22.146a10.947,10.947,0,0,0-1.873.263c-.178-.087-.359-.168-.542-.244,7.027-5.364,15.756-8.667,23.434-6.138M515.828.775a23.167,23.167,0,0,1,11.257.994C519.738.4,511.735,3.712,505.227,8.746a8.972,8.972,0,0,0-1.978-.436c3.019-4.446,8.017-6.8,12.579-7.535M502.949,8.77a8.461,8.461,0,0,1,1.818.337c-1.012.8-1.986,1.649-2.913,2.524q-.224.182-.443.365a15.569,15.569,0,0,1,1.538-3.226m-9.2,35.26c-6.473-8.057-6.967-18-1.392-28,3.466-6.217,7.6-7.279,10.008-7.279h.047a16.477,16.477,0,0,0-1.69,3.839,25.8,25.8,0,0,0-7.564,10.69,19.239,19.239,0,0,0-.075,12.773,20.006,20.006,0,0,0,.883,2.151c0,.009,0,.018,0,.026a32.506,32.506,0,0,0,.983,7.2q-.624-.678-1.2-1.395m.748-4.8a20.6,20.6,0,0,0,5.891,6.679,29.083,29.083,0,0,0,1.514,5.1,31.278,31.278,0,0,1-6.226-4.83,31.9,31.9,0,0,1-1.179-6.952m5.632,15.959a27.216,27.216,0,0,1-4.157-8.041,32.262,32.262,0,0,0,6.24,4.6,24.475,24.475,0,0,0,1.565,3,21.641,21.641,0,0,0,6.151,5.881,21.553,21.553,0,0,1-9.8-5.438m4.052-.709a23.778,23.778,0,0,1-1.262-2.338,35.763,35.763,0,0,0,5.351,2.337A17.071,17.071,0,0,0,514,59.188a18.377,18.377,0,0,0,8.029,1.993,22.7,22.7,0,0,1-3.916.462,26.985,26.985,0,0,1-6.487-.595,21,21,0,0,1-7.446-6.566m18.933,9.1a23.89,23.89,0,0,1-9.784-1.734,27.02,27.02,0,0,0,4.8.281,22.242,22.242,0,0,0,6.138-1.04,19.189,19.189,0,0,0,4.26-.933,6.645,6.645,0,0,0,3.717.312,5.254,5.254,0,0,0,1.645.8,30.654,30.654,0,0,1-10.775,2.315M550,50.939c-3.151,5.395-7.045,8.779-11.261,9.789a11.114,11.114,0,0,1-3.125.331q1.024-.478,2.024-1.028a30.616,30.616,0,0,0,11.134-10.24c1.3-2.042,2.749-5.01,4.428-8.446.515-1.052,1.054-2.156,1.621-3.3A43,43,0,0,1,550,50.939m5.142-14.612c-.852,1.689-1.642,3.3-2.376,4.806-1.673,3.423-3.118,6.379-4.4,8.4a31.007,31.007,0,0,1-13.716,11.415,5.353,5.353,0,0,1-1.733-.623,16.193,16.193,0,0,0,5.228-2.571c.234-.191.495-.4.777-.627,3.824-3.073,10.941-8.792,8.742-13.277l-.018-.031a3.48,3.48,0,0,0-1.5-1.249,27.492,27.492,0,0,0,3-13.729l0-.023a11.118,11.118,0,0,0-2.452-5.228,20.707,20.707,0,0,0-4.616-12.095,18.209,18.209,0,0,0-5-4.2,10.842,10.842,0,0,1,2.638-.129c5.151.357,11.781,4.115,14.939,13.577a36.42,36.42,0,0,1,.5,15.584M598.442.938a28.035,28.035,0,0,1,24.995,15.393,28.468,28.468,0,0,0-23.5-12.408c-.866,0-1.722.045-2.569.121-.847-.076-1.7-.121-2.569-.121A28.3,28.3,0,0,0,579.286,8.54a27.9,27.9,0,0,1,19.156-7.6m-30,32.624a27.852,27.852,0,0,1,2.242-10.974,28.339,28.339,0,0,0,2.419,19.343,28.568,28.568,0,0,0,21.716,18.48H594.8a27.838,27.838,0,0,1-15.254-4.536,27.981,27.981,0,0,1-11.1-22.315M594.8,4.392h.019a28.232,28.232,0,0,0-5.53,1.6,28.575,28.575,0,0,0-16.535,11.793,28.063,28.063,0,0,1,4.673-7.333A27.866,27.866,0,0,1,594.8,4.392m28.01,28.01a27.886,27.886,0,0,1-7,18.492,27.964,27.964,0,0,1-42.275-9.146,27.989,27.989,0,0,1,15.9-35.308,27.967,27.967,0,0,1,22.265,3.647,27.98,27.98,0,0,1,11.1,22.315M596.456,5.082a28.652,28.652,0,0,0-3.7.249,16.087,16.087,0,0,1,13.234,1.4,28.347,28.347,0,0,0-9.531-1.646m-10.464,2.5a28.428,28.428,0,0,0-13.84,31.028,27.965,27.965,0,0,1-.322-18.393A28.173,28.173,0,0,1,585.992,7.587M574.945,45.019A28.426,28.426,0,0,0,613.96,52.81a23.325,23.325,0,0,1-39.015-7.791m41.2,6.216a28.725,28.725,0,0,0,6-6.514,28.168,28.168,0,0,1-15.187,14.8,27.963,27.963,0,0,1-7.013.889h-.019a28.466,28.466,0,0,0,16.219-9.177m1.686-2.1a28.406,28.406,0,0,0-1-34.769,27.93,27.93,0,0,1,6.238,27.918,28.187,28.187,0,0,1-5.24,6.85m7.108-15.576A28.473,28.473,0,0,0,611.982,9.706a28.345,28.345,0,0,0-12.06-5.313h.019a28.032,28.032,0,0,1,24.9,15.21,27.967,27.967,0,0,1-.632,20.32,28.432,28.432,0,0,0,.725-6.36M575.419,12.212A28.426,28.426,0,0,0,571.4,20.04,28.423,28.423,0,0,0,574.432,51.6a27.938,27.938,0,0,1,.987-39.384m21.037,49.359a27.837,27.837,0,0,1-11.183-2.337,28.336,28.336,0,0,0,9.531,1.646c.866,0,1.722-.045,2.569-.121.847.076,1.7.121,2.569.121a28.646,28.646,0,0,0,3.7-.248,27.953,27.953,0,0,1-7.187.939M610.4,58.377a28.617,28.617,0,0,0,13.1-15.908,28.386,28.386,0,0,0,2.729-19.735A28,28,0,0,1,610.4,58.377" transform="translate(-297.775 0)" fill="#c8cbe3"/>
        <path id="Trazado_658436" data-name="Trazado 658436" d="M371.639,646.7h0a1.676,1.676,0,0,0,2-1.3l14.637-77.98-7.7-1.9-10.239,79.32a1.676,1.676,0,0,0,1.3,1.869" transform="translate(-225.958 -345.059)" fill="#c8cbe3"/>
        <path id="Trazado_658437" data-name="Trazado 658437" d="M509.818,646.7h0a1.676,1.676,0,0,1-2-1.3l-14.637-77.98,7.7-1.9,10.239,79.32a1.676,1.676,0,0,1-1.3,1.869" transform="translate(-300.925 -345.059)" fill="#c8cbe3"/>
        <path id="Trazado_658438" data-name="Trazado 658438" d="M420.463,452.08s-64.8,8.3-66.791-10.62c-3.246-30.814-8.052-45.257-10.966-54.077-1.9-5.742-3-9.1-2.339-13.052,1.67-10.01,11.64-12.284,20.981-7.613,8.791,4.4,59.116,85.362,59.116,85.362" transform="translate(-207.565 -222.341)" fill="#52a1fa"/>
        <path id="Trazado_658439" data-name="Trazado 658439" d="M417.681,451.225c-12.928-.427-53.318,4.364-60.215-25.267-4.135-17.765-10.311-32.9-14.76-38.574-1.9-5.741-3-9.1-2.339-13.051,1.67-10.01,11.64-12.284,20.981-7.613,8.791,4.4,51.552,76.117,56.333,84.506" transform="translate(-207.566 -222.342)" fill="#297ad6"/>
        <path id="Trazado_658440" data-name="Trazado 658440" d="M499.986,529.706c-.235,1.707-.486,3.4-.747,5.051-2.084,13.334-4.741,24.617-5.275,26.821v0c-.06.254-.094.389-.094.389h-7.636c-1.147-5.81-2.1-11.227-2.824-16.319a132.063,132.063,0,0,1-1.536-23.552c.306-8.3,1.125-15.915,1.793-23.578l-3.754-2.148-44.373-25.4-15.291-8.758h29.3s41.8,13.554,48.89,25.371c4.767,7.951,3.781,25.872,1.543,42.124" transform="translate(-256.423 -282.028)" fill="#f0b7aa"/>
        <path id="Trazado_658441" data-name="Trazado 658441" d="M585.349,716.966l-2.467,8.068,1.544,12.542,2.483.121,2.265-10.979,4.009,7.29a6.821,6.821,0,0,0,4.922,3.857c5.859.76,17.308.957,17.783-2.887.487-3.951-10.611-4.12-13.852-8.464-3.139-4.207-6.912-9.71-6.912-9.71Z" transform="translate(-355.658 -437.372)" fill="#141a1f"/>
        <path id="Trazado_658442" data-name="Trazado 658442" d="M489.635,561.62l-9.777.164c-.3-.254-.6-.542-.915-.856v0c-3.086-3.123-6.863-9.116-10.554-15.927-6.949-12.811-13.6-28.513-14.813-33.448-7.255-9.416-41.125-2.615-50.945-17.2-7.882-11.711-6.967-32.787-6.967-32.787,6.646.209,15.1-1.035,21.34,0a17.55,17.55,0,0,1,2.585.613c20.772,6.714,42.878,15.291,52.1,28.323a24.978,24.978,0,0,1,3.157,5.959c3.5,9.717,5.922,20.462,8.342,32.376.348,1.711.692,3.474,1.031,5.275,1.625,8.548,3.231,18.007,5.417,27.516" transform="translate(-241.402 -281.375)" fill="#ffd3c9"/>
        <path id="Trazado_658443" data-name="Trazado 658443" d="M607.832,719.055l-2.467,8.068,1.545,12.542,2.483.121,2.265-10.979,4.009,7.29a6.821,6.821,0,0,0,4.922,3.857c5.859.759,17.309.957,17.783-2.888.487-3.951-10.611-4.12-13.853-8.465-3.139-4.207-6.912-9.71-6.912-9.71Z" transform="translate(-369.376 -438.646)" fill="#30334d"/>
        <path id="Trazado_658444" data-name="Trazado 658444" d="M481.823,487.579c-10.367-1.547-11.479,14.323-21.855,21.49a18.8,18.8,0,0,1-7.991,3.131c-11.266-7.166-42.4-1.88-53.855-17.89-8.216-11.479-4.055-32.1-4.055-32.1,1.186.037,3.189.062,5.676.078,11.447.062,33.19-.078,33.19-.078s41.8,13.556,48.889,25.372" transform="translate(-239.805 -282.025)" fill="#30334d"/>
        <path id="Trazado_658445" data-name="Trazado 658445" d="M459.968,509.068a18.8,18.8,0,0,1-7.991,3.132c-11.266-7.166-42.4-1.88-53.855-17.89-8.217-11.48-4.055-32.1-4.055-32.1,1.186.037,3.189.062,5.676.078.029,7.269.024,24.919,11.425,31.587,8.933,5.225,40.382,6.849,48.8,15.2" transform="translate(-239.805 -282.025)" fill="#23273d"/>
        <path id="Trazado_658446" data-name="Trazado 658446" d="M464.523,285.327a17.419,17.419,0,0,0-1.594-3.253.089.089,0,0,0-.154.09,18.271,18.271,0,0,1,2.078,12.185,24.312,24.312,0,0,1-.95,3.365c-.082.246.315.421.425.179a13.594,13.594,0,0,0,.91-3.067,18.344,18.344,0,0,0,.323-3.184,17.859,17.859,0,0,0-1.038-6.314" transform="translate(-282.364 -172.088)" fill="#30334d"/>
        <path id="Trazado_658447" data-name="Trazado 658447" d="M466.7,237.8c-.843-1.521-3.18-2.677-4.824-3.263-.041-.014-.071.053-.03.072,1.4.657,3.572,1.575,4.367,2.909a7.416,7.416,0,0,1,.994,4.754,7.734,7.734,0,0,1-2.347,4.515,22.825,22.825,0,0,1-4.244,3.069q-1.357.825-2.76,1.569c-.949.5-1.923.959-2.863,1.479-.17.094-.055.392.136.322a32.359,32.359,0,0,0,5.326-2.733,25.055,25.055,0,0,0,4.51-3.218,8.238,8.238,0,0,0,2.53-4.5,7.571,7.571,0,0,0-.8-4.97" transform="translate(-277.575 -143.108)" fill="#30334d"/>
        <path id="Trazado_658448" data-name="Trazado 658448" d="M458.116,360.8l-8.253,15.884s1.658,8.624,3.764,11.914c1.228,1.907,5.76,3.13,11.307,3.581a61.693,61.693,0,0,0,18.666-1.3c6.462,4.7,12.237,2.9,15.159.181,3.769-3.491-7.864-2.49-8.441-4.037-.439-1.192,2.369-2.3,1.322-3.609-1.617-2.008-7.64,1.978-7.64,1.978-5.913-.945-10.627-2.186-15.236-3.177-2.206-.478-6.124-1.8-8.412-2.1Z" transform="translate(-274.493 -220.15)" fill="#ffd3c9"/>
        <path id="Trazado_658449" data-name="Trazado 658449" d="M446.2,324.342l-14.488,21.564s7.31,19.184,10.487,21.456c3.365,2.406,10.562,2.759,16.109,3.21l.046-10.453c-1.45-.314-3.466-.857-5.255-1.327a3.311,3.311,0,0,1-2.471-3.232c.11-11.981-.373-27.146-4.427-31.218" transform="translate(-263.416 -197.904)" fill="#ffc880"/>
        <path id="Trazado_658450" data-name="Trazado 658450" d="M382.441,233.792c-2.2-2.216-6.594-2.393-9.245-.746-1.969,1.223-2.641,1.759-4.625,2.958-3.008,1.817-6.941.719-10.3,1.736a8.52,8.52,0,0,0-4.673,3.651,6.759,6.759,0,0,0-2.8,3.676,7.577,7.577,0,0,0-.257,2.916,7.54,7.54,0,0,1-.149,3.373c-.739,1.891-2.93,2.891-4.671,3.637a62.809,62.809,0,0,1-6.334,2.134,32.067,32.067,0,0,0-6.013,2.329,8.707,8.707,0,0,0-4.1,4.2,5.587,5.587,0,0,0-.386,2.84,5.958,5.958,0,0,0,1.063,2.492c.927,1.386,2.305,3.013,1.247,4.718a5.8,5.8,0,0,1-1.9,1.691c-.759.484-1.544.917-2.258,1.47a12.243,12.243,0,0,0-3.581,4.481,10.944,10.944,0,0,0-.508,1.316,8.8,8.8,0,0,0,3.5,9.557c2.927,2.22,9.984-3.791,11.716,1.764.394,1.262,4.6,5.067,5.891,5.35,12.187,2.674,24.015-15.821,26.751-23.626,7.616-8.935,8.876-16.481,6.458-25.219,2.294-2.117,6.661-6.136,7.289-9.194a7.424,7.424,0,0,0-2.121-7.5m-30.513,18.422c-.849,1.8-2.746,2.838-4.579,3.613-4.488,1.894-9.544,3.07-12.884,6.615a5.173,5.173,0,0,0-1.688,3.872c.147,1.461,1.263,2.684,1.435,4.143a4.82,4.82,0,0,1-2.153,4.161,31.677,31.677,0,0,1-4.3,2.336,7.41,7.41,0,0,0-1.05.695,14.144,14.144,0,0,1,2.031-1.457,13.277,13.277,0,0,0,2.122-1.451A3.331,3.331,0,0,0,332,272.734a3.757,3.757,0,0,0-.591-2.35c-.449-.782-1.02-1.486-1.463-2.271a4.6,4.6,0,0,1-.606-2.718,6.842,6.842,0,0,1,3.2-4.872,22.564,22.564,0,0,1,5.845-2.585c2.1-.677,4.228-1.248,6.291-2.026a24.71,24.71,0,0,0,2.937-1.307,8.358,8.358,0,0,0,2.285-1.685,4.354,4.354,0,0,0,1.146-2.58c.1-1.144-.176-2.278-.175-3.42a6.6,6.6,0,0,1,2.268-4.88c.046-.04.1-.074.144-.113a8.155,8.155,0,0,0-.945,3.153c-.2,2.4.616,4.958-.41,7.133" transform="translate(-196.848 -141.529)" fill="#30334d"/>
        <path id="Trazado_658451" data-name="Trazado 658451" d="M434.472,370.369c-11.788-1.571-21.464,3.323-33.475,2.391a39.514,39.514,0,0,1-4.449-.6,5.515,5.515,0,0,1-4.448-5.95l3.962-38.646,3.489-11.886.807-2.725,5.314-1.944,8.768-.482c10.245,4.449,16.347,15.8,10.134,29.1-6.034,12.928,9.9,30.736,9.9,30.736" transform="translate(-239.23 -189.476)" fill="#ffb657"/>
        <path id="Trazado_658452" data-name="Trazado 658452" d="M435.727,296.475c0,4.08-4.969,4.563-8.768.482L429.03,291,430.4,287.5l4.893,3.3.421,5.033Z" transform="translate(-260.518 -175.422)" fill="#ffd3c9"/>
        <path id="Trazado_658453" data-name="Trazado 658453" d="M404.541,345.4c-2.739,7.451-5.519,25.231-3.545,35.421a39.514,39.514,0,0,1-4.448-.6,5.514,5.514,0,0,1-4.448-5.95l3.962-38.646,3.489-11.886c3.072,2.418,5.894,4.865,5.894,4.865a28,28,0,0,1-.9,16.793" transform="translate(-239.23 -197.539)" fill="#f5aa4a"/>
        <path id="Trazado_658454" data-name="Trazado 658454" d="M437.544,365.547c-2.095,3.222-14.1.129-14.1.129s-14.713.11-20.83-.14c-7.382-.264-16.265-.973-19.6-2.683-3.406-1.766.778-25.718,3.35-32.085a65.671,65.671,0,0,1,7.688-14.013l-4.3,14.611,2.641,22.8c3.975.514,26.756,5.463,29.995,5.947,9.166-2.015,16.827,2.864,15.156,5.436" transform="translate(-232.92 -193.274)" fill="#ffd3c9"/>
        <path id="Trazado_658455" data-name="Trazado 658455" d="M405.815,356.8l-.933,10.008c-7.382-.264-20.7-.508-24.033-2.218-3.406-1.766-3.553-28.345.7-37.085,4.561-9.384,10.424-10.755,10.424-10.755,12.564,8.8-2.076,16.793-1.654,37.409,3.975.514,11.4,1.445,15.5,2.64" transform="translate(-230.841 -193.275)" fill="#ffc880"/>
        <path id="Trazado_658456" data-name="Trazado 658456" d="M438.96,296.243c-.391.05-.822.09-1.283.11-2.516.131-4.381-2.787-5.4-4.933l1.159-3.239,6.317,2.637Z" transform="translate(-263.76 -175.84)" fill="#f0bbaf"/>
        <path id="Trazado_658457" data-name="Trazado 658457" d="M442.322,256.1s-2.439,5.169-10.628,7.086c0,0-2.556-2.788-3.659-1.046s1.568,4.821,1.568,4.821c.307,5.063,3.949,9.08,7.724,8.131,8.584-2.157,4.995-18.991,4.995-18.991" transform="translate(-261.011 -156.263)" fill="#ffd3c9"/>
        <path id="Trazado_658458" data-name="Trazado 658458" d="M625.547,579.086l-32.054-81.727a31.165,31.165,0,0,0,12.6-11.089l17.589-27.73a1.48,1.48,0,0,0-.711-2.147,1.96,1.96,0,0,0-2.465.619l-17.589,27.73c-5.175,8.159-15.037,13.227-25.737,13.227H528.013c-11.146,0-21.513-5.636-26.412-14.358l-14.9-26.529a1.94,1.94,0,0,0-2.426-.724,1.493,1.493,0,0,0-.832,2.113L498.343,485a30.039,30.039,0,0,0,9.938,10.389c-.019.042-.045.081-.061.125L475.742,579.22a1.555,1.555,0,0,0,1.2,1.973,2.062,2.062,0,0,0,.532.07,1.8,1.8,0,0,0,1.734-1.118l27.417-69.3h87.359a2.054,2.054,0,0,0,.431-.05l27.659,69.215a1.8,1.8,0,0,0,1.734,1.118,2.063,2.063,0,0,0,.531-.07,1.554,1.554,0,0,0,1.2-1.973m-117.808-71.4,3.684-10.487a36.784,36.784,0,0,0,16.59,3.931h49.165a37.216,37.216,0,0,0,13.026-2.337l3.124,8.893Z" transform="translate(-290.235 -278.357)" fill="#c8cbe3"/>
        <path id="Trazado_658459" data-name="Trazado 658459" d="M576.03,447.484H334.61a2.5,2.5,0,0,1-2.5-2.5v-.575a2.5,2.5,0,0,1,2.5-2.5H576.03a2.5,2.5,0,0,1,2.5,2.5v.575a2.5,2.5,0,0,1-2.5,2.5" transform="translate(-202.646 -269.645)" fill="#2363a8"/>
        <path id="Trazado_658460" data-name="Trazado 658460" d="M500.991,359.449,492.7,388.942H473.488V391.6h60.06l9.034-32.149Z" transform="translate(-288.909 -219.325)" fill="#c8cbe3"/>
        <path id="Trazado_658461" data-name="Trazado 658461" d="M759.267,335.855c-10.516,6.649-24.285,16.7-24.285,16.7s-29.149-1.68-37.825-4.817c-4.475.445-14.652-2.688-16.174-7.03-2.755-7.859,8.9-.506,12.016-.341,3.442.181-4.663-4.947.019-4.453,1.824.193,5.7,2.289,6.695,4.6,1.086.745,33.716,2.752,33.716,2.752S749.8,327.391,762.089,319.9c1.842,5.962-.912,10.113-2.822,15.954" transform="translate(-415.262 -195.194)" fill="#ffd3c9"/>
        <path id="Trazado_658462" data-name="Trazado 658462" d="M788.95,336.246c-5.254,4.232-13.012,12.786-21.109,15.41-4.455,1.444-29.335-4.743-34.8-6.067a16.974,16.974,0,0,1,1.24-9.192c6.629,1.49,30.053,2.158,30.053,2.158,6.912-7.585,14.768-27.848,28.029-25.233,8.918,1.759,4.927,16.2-3.414,22.924" transform="translate(-447.155 -191.039)" fill="#e35166"/>
        <path id="Trazado_658463" data-name="Trazado 658463" d="M800.475,505.151c10.429,17.577,14.612,44.9,15.907,65.054-2.542.472-4.7,1.656-7.4,2.07-5.141-14.475-26.883-53.835-25.427-65.965,2.037-16.973,16.388-25.6,27.012-35.744,6.337-.557,12.249-1.4,18.441-1.939,5.587,18.617-14.043,27.717-28.535,36.525" transform="translate(-478.061 -285.942)" fill="#ffd3c9"/>
        <path id="Trazado_658464" data-name="Trazado 658464" d="M796.356,504c7.271,16.615,10.42,35.177,11.692,53.21-3.724,1.017-8.543,3.114-12.591,2.465-5-13.546-21.478-43.7-23.937-56.094-2.3-11.576,19.889-26.568,30.77-37.057,6.564-.18,12.606-2.751,19.071-2.971C833.621,493.765,811.1,494.923,796.356,504" transform="translate(-470.659 -282.846)" fill="#141a1f"/>
        <path id="Trazado_658465" data-name="Trazado 658465" d="M821.8,727.721c3.022.558,5.451-.782,7.915-1.891,3.2,4.121,4.686,7.908,4.525,11.774-10.213,2.42-18.6,3.855-28.843,6.165,1.465-11.361,9.851-8.474,16.4-16.048" transform="translate(-491.429 -442.88)" fill="#141a1f"/>
        <path id="Trazado_658466" data-name="Trazado 658466" d="M745.906,520.516c6.809,19.271,5.6,46.882,2.945,66.906-2.586-.031-4.927.71-7.659.591-2.226-15.2-11-60.061-7.208-71.677,5.3-16.252,16.158-19.9,28.553-27.78,6.325.686,12.288,1.008,18.466,1.686,1.858,19.348-19.167,24.455-35.1,30.275" transform="translate(-447.284 -298.103)" fill="#ffd3c9"/>
        <path id="Trazado_658467" data-name="Trazado 658467" d="M740.761,519.377a161.284,161.284,0,0,1,2.047,54.382c-3.552,1.121-9.918,1.479-13.761.054-2.269-14.26-11.257-50.124-8.608-62.478,2.633-12.28,22.921-20.648,35.635-28.819,6.473,1.1,10.7,1.01,17.085,2.053,6.146,32.021-16.173,28.774-32.4,34.809" transform="translate(-439.296 -294.417)" fill="#30334d"/>
        <path id="Trazado_658468" data-name="Trazado 658468" d="M722.637,739.162c2.856,1.135,5.5.293,8.132-.315,2.337,4.665,3.048,9.1,2.138,12.864-10.489.387-18.989-.274-29.481,0-2.854-12.864,11.311-6.4,19.211-12.55" transform="translate(-428.982 -450.823)" fill="#30334d"/>
        <path id="Trazado_658469" data-name="Trazado 658469" d="M852.076,372.311c0,.03.082.094.041.142-10.449,1.226-21.77-1.748-32.178-.1,3.1-14.227,2.873-25.2,1.113-39.471l-.1.045c-.6-3.546,10.005-21.882,11.033-22.285,1.367-.542,1.491-4.005,2.925-4.614,2.959.729,3.389-1.169,6.818.075s6.467,4.384,8.944,9.167c8.462,16.341.281,38.25,1.409,57.046" transform="translate(-500.303 -186.507)" fill="#ffd3c9"/>
        <path id="Trazado_658470" data-name="Trazado 658470" d="M860.213,294.4c-4.564,3-17.34,8.308-9.584.191a25.051,25.051,0,0,0,1.439-9.087c2.309-.064,4.615-.12,6.924-.209-.012,1.472.23,6.89,1.221,9.1" transform="translate(-517.538 -174.078)" fill="#f0bbaf"/>
        <path id="Trazado_658471" data-name="Trazado 658471" d="M847.927,373.834a2.9,2.9,0,0,1-1.963,2.8,42.976,42.976,0,0,1-5.126,1.134,89.344,89.344,0,0,1-14.89.539c-4.848-.174-12.216-.313-16.2-2.148,1.607-7.676,2.141-40.843,6.571-52.6,2.827-7.5,9.5-13.451,10.859-14.991-5.3,5.508,5.389,2.374,9.584-.365,8.412,2.91,13.725,15.751,13.846,21.521.3,14.389-3.757,29.29-2.677,44.11" transform="translate(-494.082 -188.057)" fill="#d94559"/>
        <path id="Trazado_658472" data-name="Trazado 658472" d="M751.123,353.6c-9.212,8.363-21.039,20.641-21.039,20.641s-29,3.373-38.089,1.78c-4.331,1.21-14.9-.12-17.144-4.136-4.069-7.266,8.676-2.033,11.777-2.409,3.422-.415-5.447-4.069-.749-4.39,1.83-.125,6.009,1.272,7.387,3.373,1.2.546,33.686-3.1,33.686-3.1s13.384-18.458,24.2-27.956c2.843,5.555.846,10.119-.028,16.2" transform="translate(-411.29 -205.873)" fill="#ffd3c9"/>
        <path id="Trazado_658473" data-name="Trazado 658473" d="M783.509,355.159c-4.445,5.075-10.611,14.838-18.135,18.82-4.139,2.19-29.714.388-35.324.027-.918-2.209-.77-6.64,0-9.614,6.786.324,29.611-2.712,29.611-2.712,5.5-8.664,9.743-29.978,23.256-29.69,9.087.194,7.648,15.111.591,23.169" transform="translate(-445.069 -202.569)" fill="#ed6376"/>
        <path id="Trazado_658474" data-name="Trazado 658474" d="M836.8,248.408c-1.188,5.245-2.985,14.221.168,18.093,2,2.45,10.887,1.6,14.144-5.056,1.67-1.921.817-5.7-.788-7.456-1.145-1.252-1.362,1.406-3.323,1.015-.745-.148.253-6.249-2.08-7.211s-5.76,2.035-8.121.616" transform="translate(-509.617 -151.077)" fill="#ffd3c9"/>
        <path id="Trazado_658475" data-name="Trazado 658475" d="M856.808,247a16.568,16.568,0,0,0,.637-1.6,8.042,8.042,0,0,0,.453-3.153,5.575,5.575,0,0,0-.861-2.655,4.426,4.426,0,0,0-2.2-1.7,8.269,8.269,0,0,0-2.743-.406,4.212,4.212,0,0,1-1.351-.586c-.592-.448-2.855-2.876-4.959-2.27-1.609.463-1.842,1.455-2.675,1.626a7.887,7.887,0,0,1-.863-.4,8.37,8.37,0,0,0-2-.891,3.744,3.744,0,0,0-3.1.769,3.273,3.273,0,0,0-.878.794c-1.3,1.662-2.189,4.25-1.16,5.817s4.692.706,4.944,2.018a15.191,15.191,0,0,0,.419,2.07,3.129,3.129,0,0,0,1.289,2.706,12.354,12.354,0,0,0,2.038.913,3.73,3.73,0,0,1,.726.433c.088,1.408-.3,3.482,1.668,4.283,2.977,1.211,2.363,3.053,4.719,3.379a4.426,4.426,0,0,0,5.083-3.442c.605-2.624,2.129-1.294,2.576-4.035.433-2.65-1.037-2.782-1.757-3.676m-19.1-11.529a3.019,3.019,0,0,1,.958-.345,3.407,3.407,0,0,1,1.969.308c.382.171.745.379,1.108.584-1.259-.437-2.735-.984-4.035-.547m4.805,13.69a3.116,3.116,0,0,1-1.872-2.254,3.641,3.641,0,0,0,2.986,2.2.953.953,0,0,1,.812.819,16.542,16.542,0,0,0-1.926-.768m14.04-2.6a2.883,2.883,0,0,1,.039-1.793c.794-3,.5-4.32-.961-5.733a5.972,5.972,0,0,0-2.662-1.309,4.967,4.967,0,0,1,3.663,1.839,6.271,6.271,0,0,1,.507,5.458,14.15,14.15,0,0,1-.585,1.538" transform="translate(-509.281 -143.108)" fill="#30334d"/>
        <path id="Trazado_658476" data-name="Trazado 658476" d="M902.275,643.757h0a1.676,1.676,0,0,1-2-1.3l-14.637-80.307,7.7-1.9,10.239,81.646a1.676,1.676,0,0,1-1.3,1.869" transform="translate(-540.391 -341.843)" fill="#c8cbe3"/>
        <path id="Trazado_658477" data-name="Trazado 658477" d="M764.1,643.757h0a1.676,1.676,0,0,0,2-1.3l14.637-80.307-7.7-1.9-10.239,81.646a1.676,1.676,0,0,0,1.3,1.869" transform="translate(-465.424 -341.843)" fill="#c8cbe3"/>
        <path id="Trazado_658478" data-name="Trazado 658478" d="M769.982,440.734a6.007,6.007,0,0,0,4.724,8.74c15.65,1.605,54.565,4.056,56.156-11.046,5.36-50.874,14.974-57.118,13.306-67.128s-17.9-9.974-27.594-6.086c-13.529,5.425,1.235,32.851-12.261,53.471-8.739,13.353-28.425,10.7-34.33,22.049" transform="translate(-469.405 -221.364)" fill="#52a1fa"/>
        <path id="Trazado_658479" data-name="Trazado 658479" d="M846.336,371.327c-.98-5.883-6.991-8.293-13.748-8.494a8.536,8.536,0,0,1,3.784,5.806c1.668,10.01-7.946,16.254-13.306,67.127-1.416,13.437-32.378,12.979-50.212,11.583a5.951,5.951,0,0,0,4.02,2.151c15.65,1.605,54.565,4.056,56.156-11.047,5.359-50.874,14.974-57.117,13.306-67.127" transform="translate(-471.573 -221.39)" fill="#4592eb"/>
        <path id="Trazado_658480" data-name="Trazado 658480" d="M209.815,638.579c-2-8.61-3.33-33.347,1.276-49.931,3.987-14.358.069-22.779.029-22.863l.851-.41c.17.352,4.121,8.8.029,23.526-4.563,16.432-3.249,40.937-1.265,49.465Z" transform="translate(-126.9 -344.975)" fill="#0d3f75"/>
        <path id="Trazado_658481" data-name="Trazado 658481" d="M203.293,669.014c-.644-.225-3.791-2.549-2.525-26.228,1.276-23.875-11.137-27.738-11.263-27.774l.262-.908c.541.157,13.26,4.115,11.944,28.732-1.237,23.141,1.906,25.287,1.939,25.306Z" transform="translate(-115.631 -374.708)" fill="#0d3f75"/>
        <path id="Trazado_658482" data-name="Trazado 658482" d="M220.31,658.106c-.7-3.007.59-9.578,1.956-16.534a112.125,112.125,0,0,0,2.061-12.809,63.769,63.769,0,0,0-.833-11.2c-.709-5.415-1.378-10.529-.256-14.142a6.917,6.917,0,0,1,4.542-4.659,7.775,7.775,0,0,1,7.063,1.426l-.581.744a6.808,6.808,0,0,0-6.2-1.267,5.906,5.906,0,0,0-3.923,4.037c-1.061,3.415-.4,8.43.29,13.738a64.405,64.405,0,0,1,.84,11.383,112.658,112.658,0,0,1-2.077,12.937c-1.287,6.552-2.618,13.328-1.963,16.137Z" transform="translate(-134.307 -365.149)" fill="#0d3f75"/>
        <path id="Trazado_658483" data-name="Trazado 658483" d="M124.895,588.426c2.733-1.127,5.912-6.472,8.9-6.346.681,3.4-4.357,3.547-6.249,5.566-1.565,2.082,5.865,3.222,9.075,1.091,2.691-1.633,1.543-5.5,4.431-11.279,2.4-4.977,4.2-5.14,4.389-8.116.352-5.446-5.3-10.383-5.9-10.028-.242.144.448,1.076.75,3.523.216.2.217,9.839-2.287,6.68-1.754-4,2.792-6.977-.267-11.511-2.3-3.4-8.181-3.271-8.306-2.848,2.988.684,4.912,8.339,3.634,11.427-.919,1.789-1.665.289-1.933-1.513-1.668-5.811-2.144-8.989-6.435-11.3-5.26-2.834-9.361,2.181-15.985,3.35,0,0-1.509,8.112,1.777,12.571,3.163,4.291,7.517.193,10.989,1.195a1.956,1.956,0,0,1,1,3.229c-1.329,1.964-4.451,2.166-6.7,2.287-3.733.2-5.069-.586-5.486.11-1.166,1.807,4.694,6.717,7.842,5.555,3.994.273,8.375-6.508,12.409-4.81.131,3.17-7.769,6.778-11.175,7.041-1.808-.066-3.041-.867-3.209-.586.87,1.75,6.224,5.561,8.747,4.714" transform="translate(-66.12 -337.373)" fill="#195494"/>
        <path id="Trazado_658484" data-name="Trazado 658484" d="M144.088,596.356a5.729,5.729,0,0,0,2.542-1,6.03,6.03,0,0,0,1.748-1.973,20.708,20.708,0,0,0,1.171-2.675,26.8,26.8,0,0,1,1.329-2.872,13.043,13.043,0,0,1,.725-1.238,1.4,1.4,0,0,1,.94-.683s.006,0,.011,0c.064.036.129.069.193.108.213.126.423.258.628.4a.9.9,0,0,1,.043-.095,11.948,11.948,0,0,0-1.161-.69s0-.005,0-.006a1.985,1.985,0,0,1-.357-.464,1.082,1.082,0,0,1-.187-.53,2.378,2.378,0,0,1,.218-.816c.1-.256.215-.512.331-.763a45.753,45.753,0,0,0,2.459-5.311,7.238,7.238,0,0,0,.052-4.762c-.024-.061-.118-.019-.094.045a6.113,6.113,0,0,1,.337,2.807,14.719,14.719,0,0,1-1.856,5.188c-.467.908-.945,1.812-1.327,2.76a1.623,1.623,0,0,0-.168,1.13,2.071,2.071,0,0,0,.341.593,24.491,24.491,0,0,0-3.559-1.294l-.168-.053v0a5.2,5.2,0,0,1-1.235-2.427,11.209,11.209,0,0,1,.471-5.433c.13-.485.263-.971.386-1.46a10.035,10.035,0,0,0,.28-1.394,2.741,2.741,0,0,0-.651-2.272c-.047-.046-.128.019-.079.066a3.015,3.015,0,0,1,.525,2.829c-.391,1.913-1.143,3.764-1.214,5.736a6.206,6.206,0,0,0,1.329,4.3,19.845,19.845,0,0,1-3.314-1.267,10.964,10.964,0,0,1-1.624-1.051s0-.008-.009-.012-.011-.006-.019-.009c-.462-.358-.9-.744-1.329-1.144-.709-.667-1.387-1.366-2.089-2.042a9.657,9.657,0,0,1-.692-2.978c-.184-1.819-.05-3.705-.646-5.46a4.263,4.263,0,0,0-3.591-3.124c-.067,0-.076.1-.009.1a3.551,3.551,0,0,1,2.488,1.273c1.237,1.392,1.433,3.321,1.522,5.1a15.054,15.054,0,0,0,.741,4.907c-.09-.086-.18-.174-.272-.26a16.978,16.978,0,0,0-2.99-2.218,38.007,38.007,0,0,0-7.061-2.925.052.052,0,0,0-.035.1q.444.148.886.3a31.337,31.337,0,0,1,6.735,2.969,4.874,4.874,0,0,0-1.98.17,2.977,2.977,0,0,1-2.445-.172.052.052,0,0,0-.06.084,2.848,2.848,0,0,0,2.309.237,4.446,4.446,0,0,1,2.453-.134s.005,0,.009,0h0A19.639,19.639,0,0,1,139.9,578.9c.845.827,1.663,1.682,2.562,2.453.086.073.174.145.261.217a3.915,3.915,0,0,0-2.787.2,10.182,10.182,0,0,0-2.645,1.858,15.908,15.908,0,0,1-2.564,1.879,13.576,13.576,0,0,1-5.855,1.741c-.067,0-.048.106.018.1a13.627,13.627,0,0,0,6.042-1.841,16.856,16.856,0,0,0,2.477-1.845,9.64,9.64,0,0,1,2.67-1.84,3.509,3.509,0,0,1,2.989.019,11.719,11.719,0,0,0,2.424,1.442,36.493,36.493,0,0,0,3.7,1.258l.317.1a4.654,4.654,0,0,0-1.959.849,10.33,10.33,0,0,0-1.65,1.6,23,23,0,0,1-1.64,1.714,17.516,17.516,0,0,1-3.763,2.64c-.06.031-.015.127.042.1a17.819,17.819,0,0,0,2.153-1.324,17.591,17.591,0,0,0,1.75-1.438c.564-.53,1.078-1.1,1.591-1.681a9.53,9.53,0,0,1,1.688-1.595,4.369,4.369,0,0,1,2.007-.78s0,0,0,0a16.371,16.371,0,0,1,2.69,1.112,1.512,1.512,0,0,0-.853.644,11.7,11.7,0,0,0-.817,1.388,26.766,26.766,0,0,0-1.294,2.808,19.338,19.338,0,0,1-1.2,2.732,5.89,5.89,0,0,1-1.813,1.962,5.625,5.625,0,0,1-2.364.892c-.065.009-.047.111.018.1" transform="translate(-78.607 -345.972)" fill="#8db5e0"/>
        <path id="Trazado_658485" data-name="Trazado 658485" d="M264.719,581.639c-2.922.443-7.285,4.876-10.156,4.041.149-3.466,5.078-2.406,7.4-3.915,2.016-1.649-4.928-4.528-8.553-3.223-3,.944-2.81,4.97-6.993,9.9-3.515,4.262-5.3,3.991-6.2,6.836-1.641,5.205,2.673,11.348,3.341,11.146.269-.082-.179-1.152.112-3.6-.162-.246,2.136-9.607,3.813-5.942.75,4.3-4.375,6.11-2.486,11.243,1.419,3.848,7.166,5.127,7.388,4.747-2.74-1.376-2.782-9.27-.8-11.964,1.319-1.518,1.685.116,1.516,1.93.234,6.041-.062,9.24,3.554,12.51,4.432,4.007,9.61.113,16.323.559,0,0,3.4-7.519,1.272-12.632-2.048-4.921-7.255-1.981-10.387-3.781a1.956,1.956,0,0,1-.2-3.373c1.759-1.591,4.839-1.042,7.056-.622,3.673.7,4.783,1.778,5.354,1.2,1.563-1.477-2.957-7.643-6.292-7.264-3.813-1.218-9.685,4.323-13.2,1.712.629-3.11,9.163-4.73,12.531-4.173,1.74.5,2.746,1.567,2.977,1.334-.428-1.907-4.719-6.885-7.371-6.664" transform="translate(-146.347 -352.808)" fill="#195494"/>
        <path id="Trazado_658486" data-name="Trazado 658486" d="M261.506,584.516a5.719,5.719,0,0,0-2.707.368,6.035,6.035,0,0,0-2.168,1.5,20.816,20.816,0,0,0-1.775,2.319,26.758,26.758,0,0,1-1.975,2.473,12.967,12.967,0,0,1-1,1.03,1.393,1.393,0,0,1-1.076.439s-.007,0-.012,0c-.053-.051-.109-.1-.161-.151-.177-.173-.349-.351-.515-.537a.857.857,0,0,1-.064.081,11.944,11.944,0,0,0,.962.947.01.01,0,0,0,0,.007,1.99,1.99,0,0,1,.236.535,1.08,1.08,0,0,1,.055.559,2.374,2.374,0,0,1-.406.74c-.162.224-.331.446-.5.662a45.855,45.855,0,0,0-3.655,4.571,7.242,7.242,0,0,0-1.186,4.612c.008.065.111.047.1-.022a6.108,6.108,0,0,1,.343-2.806,14.712,14.712,0,0,1,3.039-4.6c.671-.771,1.35-1.535,1.948-2.364a1.622,1.622,0,0,0,.433-1.057,2.075,2.075,0,0,0-.19-.656,24.51,24.51,0,0,0,3.147,2.1l.151.091v0a5.205,5.205,0,0,1,.621,2.652,11.206,11.206,0,0,1-1.754,5.164c-.242.44-.487.881-.722,1.325a10.07,10.07,0,0,0-.6,1.287,2.743,2.743,0,0,0,.09,2.362c.035.056.129.012.093-.046a3.016,3.016,0,0,1,.165-2.873c.836-1.764,2.007-3.383,2.546-5.281a6.2,6.2,0,0,0-.265-4.492,19.85,19.85,0,0,1,2.917,2.02,10.984,10.984,0,0,1,1.326,1.408s0,.009.006.014l.016.013c.363.458.7.938,1.017,1.428.53.817,1.021,1.658,1.542,2.481a9.66,9.66,0,0,1-.038,3.057c-.255,1.81-.836,3.611-.675,5.456a4.264,4.264,0,0,0,2.742,3.89c.065.019.1-.079.033-.1a3.551,3.551,0,0,1-2.113-1.829c-.869-1.646-.6-3.567-.261-5.319a15.045,15.045,0,0,0,.451-4.942c.067.1.133.212.2.318a17.014,17.014,0,0,0,2.375,2.867,38.01,38.01,0,0,0,6.16,4.524.052.052,0,0,0,.058-.086q-.395-.25-.789-.5a31.292,31.292,0,0,1-5.833-4.49,4.862,4.862,0,0,0,1.963.308,2.975,2.975,0,0,1,2.333.75c.043.051.121-.017.078-.068a2.85,2.85,0,0,0-2.185-.781,4.447,4.447,0,0,1-2.414-.455s-.006,0-.009,0h0a19.678,19.678,0,0,1-2.187-2.969c-.624-1-1.214-2.03-1.9-2.993-.066-.092-.135-.183-.2-.273a3.914,3.914,0,0,0,2.754.473,10.17,10.17,0,0,0,3.012-1.174,15.953,15.953,0,0,1,2.938-1.213,13.579,13.579,0,0,1,6.1-.295c.065.014.071-.092.007-.1a13.625,13.625,0,0,0-6.306.348,16.88,16.88,0,0,0-2.845,1.2,9.639,9.639,0,0,1-3.031,1.151,3.509,3.509,0,0,1-2.9-.731,11.724,11.724,0,0,0-2.011-1.978,36.756,36.756,0,0,0-3.291-2.1l-.283-.174a4.661,4.661,0,0,0,2.105-.357,10.35,10.35,0,0,0,1.983-1.156,23.139,23.139,0,0,1,2-1.273,17.516,17.516,0,0,1,4.283-1.666c.066-.016.045-.12-.019-.1a17.633,17.633,0,0,0-4.448,1.751c-.674.38-1.31.814-1.946,1.253a9.54,9.54,0,0,1-2.019,1.146,4.375,4.375,0,0,1-2.135.279s0,0,0,0a16.382,16.382,0,0,1-2.347-1.722,1.511,1.511,0,0,0,.982-.422,11.667,11.667,0,0,0,1.124-1.154,26.8,26.8,0,0,0,1.926-2.418,19.289,19.289,0,0,1,1.821-2.366,5.889,5.889,0,0,1,2.228-1.474,5.63,5.63,0,0,1,2.508-.3c.066.007.072-.1.007-.1" transform="translate(-149.806 -356.635)" fill="#8db5e0"/>
        <path id="Trazado_658487" data-name="Trazado 658487" d="M166.813,503.278c2.607,1.395,8.754.454,10.555,2.84-2.194,2.687-5.508-1.111-8.268-1.289-2.6.115,1.238,6.576,4.923,7.7,2.971,1.041,5.225-2.3,11.525-3.744,5.367-1.311,6.635-.026,9.056-1.767,4.43-3.188,4.65-10.691,3.994-10.929-.265-.1-.546,1.029-2.244,2.817-.018.294-7.461,6.419-6.611,2.478,1.974-3.9,7.162-2.276,8.72-7.52,1.166-3.931-2.673-8.4-3.078-8.223,1.37,2.742-3.319,9.091-6.515,10.066-1.965.426-1.281-1.1-.06-2.454,3.427-4.98,5.579-7.366,4.639-12.149-1.153-5.863-7.632-5.842-12.743-10.216,0,0-7.224,3.988-8.579,9.359-1.3,5.168,4.627,5.928,6.059,9.245a1.956,1.956,0,0,1-1.86,2.82c-2.361.221-4.5-2.061-6.026-3.725-2.525-2.757-2.767-4.287-3.57-4.166-2.136.248-2.2,7.893.693,9.585,2.327,3.258,10.346,2.332,11.6,6.526-2.365,2.115-10.171-1.693-12.537-4.156-1.1-1.438-1.263-2.9-1.587-2.85-.8,1.784-.34,8.34,1.917,9.75" transform="translate(-100.392 -287.323)" fill="#4e88c7"/>
        <path id="Trazado_658488" data-name="Trazado 658488" d="M178.385,524.875a5.726,5.726,0,0,0,2.39,1.325,6.029,6.029,0,0,0,2.634.1,20.708,20.708,0,0,0,2.81-.8,26.618,26.618,0,0,1,3.062-.8,12.95,12.95,0,0,1,1.417-.227,1.393,1.393,0,0,1,1.125.292s.007,0,.011.005c.012.073.029.144.039.217.038.244.07.49.091.738a.864.864,0,0,1,.1-.026,11.984,11.984,0,0,0-.2-1.335.015.015,0,0,0,0-.007,1.989,1.989,0,0,1,.131-.57,1.082,1.082,0,0,1,.29-.481,2.379,2.379,0,0,1,.768-.35c.264-.082.532-.159.8-.23a45.707,45.707,0,0,0,5.664-1.475,7.242,7.242,0,0,0,3.711-2.984c.032-.058-.061-.1-.095-.044a6.11,6.11,0,0,1-1.954,2.044,14.722,14.722,0,0,1-5.186,1.863c-1,.216-2,.422-2.975.729a1.621,1.621,0,0,0-.979.588,2.065,2.065,0,0,0-.241.64,24.575,24.575,0,0,0-1.262-3.57c-.021-.055-.045-.11-.067-.164v0a5.2,5.2,0,0,1,1.09-2.5,11.2,11.2,0,0,1,4.5-3.088c.457-.208.917-.414,1.371-.63a10.054,10.054,0,0,0,1.254-.669,2.743,2.743,0,0,0,1.341-1.946c.005-.066-.1-.087-.1-.019a3.016,3.016,0,0,1-1.851,2.2c-1.725.913-3.633,1.509-5.2,2.707a6.206,6.206,0,0,0-2.476,3.758,19.859,19.859,0,0,1-1.128-3.365,10.949,10.949,0,0,1-.22-1.921s0-.008,0-.015,0-.012-.005-.02c-.016-.584,0-1.169.04-1.753.065-.971.174-1.939.25-2.91a9.65,9.65,0,0,1,1.86-2.426c1.288-1.3,2.83-2.392,3.806-3.968a4.264,4.264,0,0,0,.131-4.758c-.041-.053-.126.005-.085.059a3.551,3.551,0,0,1,.6,2.73c-.289,1.839-1.654,3.217-2.974,4.418a15.049,15.049,0,0,0-3.319,3.69c.009-.124.02-.25.028-.375a17.008,17.008,0,0,0-.187-3.718,38,38,0,0,0-2.228-7.311.052.052,0,0,0-.1.035q.167.436.333.873a31.338,31.338,0,0,1,1.986,7.088A4.875,4.875,0,0,0,187.8,505.1a2.974,2.974,0,0,1-1.421-2,.052.052,0,0,0-.1.008,2.85,2.85,0,0,0,1.283,1.934,4.448,4.448,0,0,1,1.662,1.808s.005,0,.007.007v0a19.68,19.68,0,0,1-.024,3.687c-.1,1.178-.242,2.353-.267,3.537,0,.113,0,.227,0,.339a3.913,3.913,0,0,0-1.924-2.027,10.167,10.167,0,0,0-3.115-.862,15.919,15.919,0,0,1-3.08-.786,13.586,13.586,0,0,1-5.065-3.415c-.044-.051-.112.03-.067.079a13.616,13.616,0,0,0,5.26,3.5,16.828,16.828,0,0,0,3,.741,9.629,9.629,0,0,1,3.117.892,3.508,3.508,0,0,1,1.884,2.32,11.724,11.724,0,0,0,.427,2.788,36.644,36.644,0,0,0,1.378,3.655l.122.309a4.663,4.663,0,0,0-1.9-.974,10.392,10.392,0,0,0-2.281-.261,22.756,22.756,0,0,1-2.365-.178,17.5,17.5,0,0,1-4.429-1.228c-.062-.027-.108.069-.047.093a17.788,17.788,0,0,0,2.39.821,17.562,17.562,0,0,0,2.222.438c.768.1,1.537.131,2.309.16a9.524,9.524,0,0,1,2.3.29,4.374,4.374,0,0,1,1.878,1.055s0,0,0,0a16.412,16.412,0,0,1,.851,2.785,1.51,1.51,0,0,0-1.039-.25,11.7,11.7,0,0,0-1.591.251,26.729,26.729,0,0,0-2.99.785,19.379,19.379,0,0,1-2.875.805,5.894,5.894,0,0,1-2.667-.153,5.625,5.625,0,0,1-2.19-1.259c-.049-.044-.116.034-.067.079" transform="translate(-107.187 -304.167)" fill="#daf2ee"/>
        <path id="Trazado_658489" data-name="Trazado 658489" d="M211.811,731.949c-.119,1.53-2.136,13.931-2.323,16.315H191.7c-.217-2.5-2.426-14.678-2.565-16.315Z" transform="translate(-115.403 -446.614)" fill="#d94559"/>
        <path id="Trazado_658490" data-name="Trazado 658490" d="M189.132,731.95c.02.236.083.971.178,2.06h6.849c6.227,0,10.671,5.286,10.646,11.514a3.25,3.25,0,0,1-1.259,2.742h3.941c.187-2.384,2.2-14.785,2.323-16.315Z" transform="translate(-115.403 -446.615)" fill="#c43348"/>
        <path id="Trazado_658491" data-name="Trazado 658491" d="M207.919,725.23h-21.79a2.195,2.195,0,1,1,0-4.295h21.79a2.195,2.195,0,1,1,0,4.295" transform="translate(-111.955 -439.894)" fill="#d94559"/>
        <path id="Trazado_658492" data-name="Trazado 658492" d="M581.747,774.392H129.168a1.284,1.284,0,0,1-1.284-1.284v-.3a1.284,1.284,0,0,1,1.284-1.285H581.747a1.284,1.284,0,0,1,1.284,1.285v.3a1.284,1.284,0,0,1-1.284,1.284" transform="translate(-78.031 -470.763)" fill="#c8cbe3"/>
        <path id="Trazado_658493" data-name="Trazado 658493" d="M41.115,774.392H1.284A1.284,1.284,0,0,1,0,773.107v-.3a1.284,1.284,0,0,1,1.284-1.285h39.83a1.284,1.284,0,0,1,1.284,1.285v.3a1.284,1.284,0,0,1-1.284,1.284" transform="translate(0 -470.763)" fill="#c8cbe3"/>
        <path id="Trazado_658494" data-name="Trazado 658494" d="M1045.4,552.466H979.041a14.826,14.826,0,1,0,0,29.652H1045.4a14.826,14.826,0,1,0,0-29.652" transform="translate(-588.336 -337.099)" fill="#c8cbe3"/>
        <path id="Trazado_658495" data-name="Trazado 658495" d="M1052.96,564.4H987.6a10.173,10.173,0,1,0,0,20.346h65.36a10.173,10.173,0,0,0,0-20.346" transform="translate(-596.398 -344.382)" fill="#fff"/>
        <path id="Trazado_658496" data-name="Trazado 658496" d="M1083.732,587.686H1055.9a1.425,1.425,0,1,1,0-2.85h27.833a1.425,1.425,0,1,1,0,2.85" transform="translate(-643.4 -356.85)" fill="#c8cbe3"/>
        <path id="Trazado_658497" data-name="Trazado 658497" d="M1062.42,681.734h3.53l-11.1-59.139h-3.531l1.383,7.368H995.293l1.383-7.368h-3.531l-11.1,59.139h3.531l9.044-48.18h58.757Z" transform="translate(-599.215 -379.89)" fill="#c8cbe3"/>
        <path id="Trazado_658498" data-name="Trazado 658498" d="M158.845,279.367A19.152,19.152,0,1,1,178,298.52a19.152,19.152,0,0,1-19.152-19.152" transform="translate(-96.923 -158.776)" fill="#c8cbe3"/>
        <path id="Trazado_658499" data-name="Trazado 658499" d="M162.752,281.751a17.629,17.629,0,1,1,17.629,17.629,17.63,17.63,0,0,1-17.629-17.629" transform="translate(-99.307 -161.159)" fill="#fff"/>
        <path id="Trazado_658500" data-name="Trazado 658500" d="M198.39,282.8a16.957,16.957,0,1,1-16.957-16.958A16.957,16.957,0,0,1,198.39,282.8" transform="translate(-100.358 -162.211)" fill="#fff"/>
        <path id="Trazado_658501" data-name="Trazado 658501" d="M198.39,282.8a16.957,16.957,0,1,1-16.957-16.958A16.957,16.957,0,0,1,198.39,282.8" transform="translate(-100.358 -162.211)" fill="#fff"/>
        <path id="Trazado_658502" data-name="Trazado 658502" d="M207.765,322.613c-.074,0-.134-.093-.134-.208v-9.451c0-.115.06-.208.134-.208s.134.093.134.208v9.451c0,.115-.06.208-.134.208" transform="translate(-126.69 -190.829)" fill="#c8cbe3"/>
        <path id="Trazado_658503" data-name="Trazado 658503" d="M207.373,334.878h-1.436a.106.106,0,0,0-.092.159l.718,1.244a.106.106,0,0,0,.184,0l.718-1.244a.106.106,0,0,0-.092-.159" transform="translate(-125.592 -204.333)" fill="#c8cbe3"/>
        <path id="Trazado_658504" data-name="Trazado 658504" d="M210.512,298.365a.248.248,0,0,1-.175-.423l5.151-5.152a.248.248,0,0,1,.35.35l-5.151,5.152a.247.247,0,0,1-.175.073" transform="translate(-128.297 -178.608)" fill="#c8cbe3"/>
        <path id="Trazado_658505" data-name="Trazado 658505" d="M222.783,290.87l-2.065.575a.1.1,0,0,0-.042.162l1.531,1.5a.1.1,0,0,0,.161-.045l.534-2.076a.1.1,0,0,0-.119-.117" transform="translate(-134.633 -177.478)" fill="#c8cbe3"/>
        <path id="Trazado_658506" data-name="Trazado 658506" d="M203.938,306.882a1.574,1.574,0,1,1,1.574,1.574,1.574,1.574,0,0,1-1.574-1.574" transform="translate(-124.437 -186.29)" fill="#c8cbe3"/>
        <path id="Trazado_658507" data-name="Trazado 658507" d="M205.889,268.576a.8.8,0,1,1,.8.8.8.8,0,0,1-.8-.8" transform="translate(-125.628 -163.389)" fill="#c8cbe3"/>
        <path id="Trazado_658508" data-name="Trazado 658508" d="M205.889,347.5a.8.8,0,1,1,.8.8.8.8,0,0,1-.8-.8" transform="translate(-125.628 -211.548)" fill="#c8cbe3"/>
        <path id="Trazado_658509" data-name="Trazado 658509" d="M245.721,308.109a.8.8,0,1,1,.8.8.8.8,0,0,1-.8-.8" transform="translate(-149.932 -187.51)" fill="#c8cbe3"/>
        <path id="Trazado_658510" data-name="Trazado 658510" d="M165.982,308.2a.8.8,0,1,1,.8.8.8.8,0,0,1-.8-.8" transform="translate(-101.277 -187.567)" fill="#c8cbe3"/>
        <path id="Trazado_658511" data-name="Trazado 658511" d="M880.948,191.168a6.018,6.018,0,1,1-2.352-8.18,6.019,6.019,0,0,1,2.352,8.18" transform="translate(-530.643 -111.195)" fill="#96a0de"/>
        <g id="Grupo_997049" data-name="Grupo 997049" transform="translate(339.186 73.464)" style="mix-blend-mode: multiply;isolation: isolate">
          <g id="Grupo_997048" data-name="Grupo 997048">
            <g id="Grupo_997047" data-name="Grupo 997047" clip-path="url(#clip-path-3)">
              <path id="Trazado_658512" data-name="Trazado 658512" d="M881.209,194.962a6.018,6.018,0,0,1-11.119-1.514,6.018,6.018,0,0,0,10.68-5,6.018,6.018,0,0,1,.439,6.51" transform="translate(-870.09 -188.452)" fill="#c8cae0"/>
            </g>
          </g>
        </g>
        <path id="Trazado_658513" data-name="Trazado 658513" d="M901.245,108.063c-3.6,1.905-7.246,4.546-9.05,7.533q-.174.29-.321.581l-15.923-8.812c1.827-2.965,2.429-5.454,1.9-12.25-.356-4.568-.042-11.215,3.385-16.543a18.048,18.048,0,0,1,15.422-8.622,16.785,16.785,0,0,1,9.1,1.887l0,0c.061.034.129.071.192.11s.131.068.192.1l0,0a16.789,16.789,0,0,1,6.434,6.712,18.036,18.036,0,0,1,.886,17.646c-2.694,5.734-7.327,9.063-12.219,11.655" transform="translate(-534.48 -42.653)" fill="#ffb957"/>
        <path id="Trazado_658514" data-name="Trazado 658514" d="M914.99,103.093a18.053,18.053,0,0,0-.959-3.167,18.945,18.945,0,0,1-1.271,6.623c-1.845,4.847-5.38,9.217-8.965,12.729a20.268,20.268,0,0,1-25.908,2.029l-.141-.1a12.388,12.388,0,0,1-1.794,4.476l15.923,8.811q.148-.291.322-.581c1.8-2.986,5.453-5.627,9.049-7.533,4.891-2.592,9.525-5.921,12.219-11.655a18.243,18.243,0,0,0,1.526-11.634" transform="translate(-534.48 -60.972)" fill="#f0a53e"/>
        <path id="Trazado_658515" data-name="Trazado 658515" d="M887.927,132.341c7.779-8.692,6.429-15.654,10.777-25.459.008,2.134-.157,4.271.056,6.4a76.975,76.975,0,0,1,6.833-5.49c-.395,2.81-.658,5.637-1.066,8.444,1.631-1.1,3.243-2.232,4.877-3.329-5.227,7.924-12.13,13.547-14.906,22.9l-.577-.164c2.912-9.829,8.1-12.672,13.306-20.519-1.152.794-2.331,1.55-3.477,2.353.488-2.752.673-5.554,1.042-8.323a51.5,51.5,0,0,0-6.461,5.4c-.127-1.578-.3-3.127-.286-4.715-3.749,9.357-2.115,14.446-9.682,22.91-.144-.138-.29-.276-.435-.413" transform="translate(-541.787 -65.216)" fill="#ffeb9b"/>
        <g id="Grupo_997052" data-name="Grupo 997052" transform="translate(350.03 29.921)" style="mix-blend-mode: overlay;isolation: isolate">
          <g id="Grupo_997051" data-name="Grupo 997051">
            <g id="Grupo_997050" data-name="Grupo 997050" clip-path="url(#clip-path-4)">
              <path id="Trazado_658516" data-name="Trazado 658516" d="M909.911,89.759c-5.865,1.211-11.2-.636-11.923-4.125s3.451-7.3,9.315-8.509,11.2.637,11.923,4.126-3.45,7.3-9.315,8.509" transform="translate(-897.907 -76.754)" fill="#9ea0a3"/>
            </g>
          </g>
        </g>
        <path id="Trazado_658517" data-name="Trazado 658517" d="M885.362,172.685l.414-.748a1.941,1.941,0,0,0,1.841-3.328l.019-.034-.34-.188-15.628-8.648-.339-.188-.019.035a1.941,1.941,0,0,0-1.842,3.328l-.414.748a1.936,1.936,0,0,0-1.747,3.394,7.31,7.31,0,0,0,.8,5.8l9.973,5.519a7.309,7.309,0,0,0,5.336-2.4,1.936,1.936,0,0,0,1.948-3.283" transform="translate(-528.735 -97.32)" fill="#3f4883"/>
        <g id="Grupo_997055" data-name="Grupo 997055" transform="translate(346.545 69.705)" style="mix-blend-mode: multiply;isolation: isolate">
          <g id="Grupo_997054" data-name="Grupo 997054">
            <g id="Grupo_997053" data-name="Grupo 997053" clip-path="url(#clip-path-5)">
              <path id="Trazado_658518" data-name="Trazado 658518" d="M899.487,186.885a1.943,1.943,0,0,1-2.387.867,7.31,7.31,0,0,1-5.335,2.4l-2.8-1.549a7.311,7.311,0,0,0,5.335-2.4,1.937,1.937,0,0,0,1.949-3.283l.414-.748a1.941,1.941,0,0,0,1.842-3.328l.019-.035,2.8,1.549-.019.035a1.941,1.941,0,0,1-1.842,3.328l-.414.748a1.95,1.95,0,0,1,.438,2.417" transform="translate(-888.966 -178.808)" fill="#afbae0"/>
            </g>
          </g>
        </g>
        <path id="Trazado_658519" data-name="Trazado 658519" d="M894.441,62.689l-3.1-4.494a.485.485,0,0,0-.795.555l3.1,4.494a.485.485,0,0,0,.795-.555" transform="translate(-543.33 -35.384)" fill="#ffb957"/>
        <path id="Trazado_658520" data-name="Trazado 658520" d="M915.057,47.263l-2.007-8.742a.488.488,0,0,0-.621-.289.5.5,0,0,0-.289.622q1,4.37,2.007,8.742a.487.487,0,0,0,.621.289.5.5,0,0,0,.289-.621" transform="translate(-556.549 -23.312)" fill="#ffb957"/>
        <path id="Trazado_658521" data-name="Trazado 658521" d="M941.019,50.651l-2.038,4.571c-.254.57.62.99.874.42l2.038-4.571c.254-.57-.619-.99-.874-.42" transform="translate(-572.911 -30.74)" fill="#ffb957"/>
        <path id="Trazado_658522" data-name="Trazado 658522" d="M319.244,110.931l-13.128,8.207-.821-1.313a19.129,19.129,0,0,1-2.642-5.916,14.225,14.225,0,0,1-.124-5.232,82.106,82.106,0,0,1,2.953-10.3q1.373-4.029.185-5.93a4.545,4.545,0,0,0-2.97-2.252,5.683,5.683,0,0,0-4.062,1.074,6.452,6.452,0,0,0-3.044,4.161q-.591,2.628,1.486,6.951L282.638,107.1q-3.931-7.825-2.068-15.26t11.536-13.483q7.531-4.708,14.126-4.459,8.944.319,13.372,7.4a12.889,12.889,0,0,1,1.918,6.681q.083,3.744-2.465,10.814-1.761,4.945-1.629,7.193a10.719,10.719,0,0,0,1.817,4.943m-11.4,11.977,14.061-8.791,7.754,12.4-14.061,8.79Z" transform="translate(-170.83 -45.084)" fill="#ed6376"/>
        <path id="Trazado_658523" data-name="Trazado 658523" d="M437.913,117.113l-9.83.837-.083-.983a12.173,12.173,0,0,1,.222-4.122,9.055,9.055,0,0,1,1.451-3,52.388,52.388,0,0,1,4.67-4.983q1.95-1.885,1.829-3.308a2.9,2.9,0,0,0-1.029-2.14,3.622,3.622,0,0,0-2.615-.572,4.111,4.111,0,0,0-2.936,1.475,7.151,7.151,0,0,0-1.178,4.373l-10.142-.387a13.717,13.717,0,0,1,3.264-9.254q3.218-3.674,10.461-4.29a15.981,15.981,0,0,1,9.306,1.579,9.824,9.824,0,0,1,5.43,8.084,8.217,8.217,0,0,1-.854,4.346,21,21,0,0,1-4.542,5.415,13.367,13.367,0,0,0-3.015,3.6,6.826,6.826,0,0,0-.407,3.33m-9.944,3.478,10.528-.9.791,9.286-10.528.9Z" transform="translate(-255.217 -55.32)" fill="#4e88c7"/>
        <path id="Trazado_658524" data-name="Trazado 658524" d="M1029.085,305.976h50.5V203.706h-50.5Zm46.58-4.554h-43.232V256.28h43.232Zm0-48.891h-43.232V207.356h43.232Z" transform="translate(-627.918 -124.296)" fill="#c8cbe3"/>
      </g>
    </g>
  </g>
</svg>
