<svg xmlns="http://www.w3.org/2000/svg" width="505" height="375.729" viewBox="0 0 505 375.729">
  <g id="_32" data-name="32" transform="translate(0 -55)">
    <g id="freepik--background-complete--inject-68" transform="translate(0 55)">
      <rect id="Rectángulo_343756" data-name="Rectángulo 343756" width="33.451" height="0.252" transform="translate(420.948 346.925)" fill="#ebebeb"/>
      <rect id="Rectángulo_343757" data-name="Rectángulo 343757" width="8.777" height="0.252" transform="translate(325.755 349.672)" fill="#ebebeb"/>
      <rect id="Rectángulo_343758" data-name="Rectángulo 343758" width="19.382" height="0.252" transform="translate(400.556 337.552)" fill="#ebebeb"/>
      <rect id="Rectángulo_343759" data-name="Rectángulo 343759" width="43.622" height="0.252" transform="translate(52.985 339.249)" fill="#ebebeb"/>
      <rect id="Rectángulo_343760" data-name="Rectángulo 343760" width="6.393" height="0.252" transform="translate(105.606 339.249)" fill="#ebebeb"/>
      <rect id="Rectángulo_343761" data-name="Rectángulo 343761" width="94.617" height="0.252" transform="translate(132.785 343.511)" fill="#ebebeb"/>
      <path id="Trazado_664465" data-name="Trazado 664465" d="M238.988,340.628H43.967a5.767,5.767,0,0,1-5.757-5.767V60.717A5.767,5.767,0,0,1,43.967,55H238.988a5.767,5.767,0,0,1,5.767,5.767V334.861A5.767,5.767,0,0,1,238.988,340.628ZM43.967,55.2a5.515,5.515,0,0,0-5.5,5.515V334.861a5.515,5.515,0,0,0,5.5,5.515H238.988a5.525,5.525,0,0,0,5.515-5.515V60.717a5.525,5.525,0,0,0-5.515-5.515Z" transform="translate(0.382 -55)" fill="#ebebeb"/>
      <path id="Trazado_664466" data-name="Trazado 664466" d="M455.3,340.628H260.267a5.777,5.777,0,0,1-5.767-5.767V60.717A5.777,5.777,0,0,1,260.267,55H455.3a5.767,5.767,0,0,1,5.747,5.717V334.861A5.767,5.767,0,0,1,455.3,340.628ZM260.267,55.2a5.525,5.525,0,0,0-5.515,5.515V334.861a5.525,5.525,0,0,0,5.515,5.515H455.3a5.525,5.525,0,0,0,5.515-5.515V60.717A5.525,5.525,0,0,0,455.3,55.2Z" transform="translate(2.545 -55)" fill="#ebebeb"/>
      <rect id="Rectángulo_343762" data-name="Rectángulo 343762" width="505" height="0.252" transform="translate(0 330.674)" fill="#ebebeb"/>
      <rect id="Rectángulo_343763" data-name="Rectángulo 343763" width="71.963" height="244.127" transform="translate(388.254 16.534)" fill="#fafafa"/>
      <rect id="Rectángulo_343764" data-name="Rectángulo 343764" width="89.971" height="155.58" transform="translate(372.074 102.949)" fill="#e0e0e0"/>
      <path id="Trazado_664467" data-name="Trazado 664467" d="M385.5,135.41v39.016h55.419V135.41Z" transform="translate(3.855 -54.196)" fill="#e0e0e0"/>
      <rect id="Rectángulo_343765" data-name="Rectángulo 343765" width="11.514" height="11.514" transform="translate(377.841 108.716)" fill="#fafafa"/>
      <rect id="Rectángulo_343766" data-name="Rectángulo 343766" width="11.514" height="11.514" transform="translate(400.152 108.716)" fill="#fafafa"/>
      <rect id="Rectángulo_343767" data-name="Rectángulo 343767" width="11.514" height="11.514" transform="translate(422.463 108.716)" fill="#fafafa"/>
      <rect id="Rectángulo_343768" data-name="Rectángulo 343768" width="11.524" height="11.514" transform="translate(444.774 108.716)" fill="#f0f0f0"/>
      <rect id="Rectángulo_343769" data-name="Rectángulo 343769" width="11.514" height="11.524" transform="translate(377.841 129.644)" fill="#f0f0f0"/>
      <rect id="Rectángulo_343770" data-name="Rectángulo 343770" width="11.514" height="11.524" transform="translate(400.152 129.644)" fill="#f0f0f0"/>
      <rect id="Rectángulo_343771" data-name="Rectángulo 343771" width="11.514" height="11.524" transform="translate(422.463 129.644)" fill="#fafafa"/>
      <rect id="Rectángulo_343772" data-name="Rectángulo 343772" width="11.524" height="11.524" transform="translate(444.774 129.644)" fill="#fafafa"/>
      <rect id="Rectángulo_343773" data-name="Rectángulo 343773" width="11.514" height="11.514" transform="translate(377.841 150.571)" fill="#f0f0f0"/>
      <rect id="Rectángulo_343774" data-name="Rectángulo 343774" width="11.514" height="11.514" transform="translate(400.152 150.571)" fill="#fafafa"/>
      <rect id="Rectángulo_343775" data-name="Rectángulo 343775" width="11.514" height="11.514" transform="translate(422.463 150.571)" fill="#fafafa"/>
      <rect id="Rectángulo_343776" data-name="Rectángulo 343776" width="11.514" height="11.514" transform="translate(400.152 90.617)" fill="#fafafa"/>
      <rect id="Rectángulo_343777" data-name="Rectángulo 343777" width="11.514" height="11.514" transform="translate(422.463 90.617)" fill="#f0f0f0"/>
      <rect id="Rectángulo_343778" data-name="Rectángulo 343778" width="11.524" height="11.514" transform="translate(444.774 150.571)" fill="#f0f0f0"/>
      <rect id="Rectángulo_343779" data-name="Rectángulo 343779" width="11.514" height="11.514" transform="translate(377.841 171.498)" fill="#fafafa"/>
      <rect id="Rectángulo_343780" data-name="Rectángulo 343780" width="11.514" height="11.514" transform="translate(400.152 171.498)" fill="#f0f0f0"/>
      <rect id="Rectángulo_343781" data-name="Rectángulo 343781" width="11.514" height="11.514" transform="translate(422.463 171.498)" fill="#f0f0f0"/>
      <rect id="Rectángulo_343782" data-name="Rectángulo 343782" width="11.524" height="11.514" transform="translate(444.774 171.498)" fill="#fafafa"/>
      <rect id="Rectángulo_343783" data-name="Rectángulo 343783" width="11.514" height="11.524" transform="translate(377.841 192.435)" fill="#f0f0f0"/>
      <rect id="Rectángulo_343784" data-name="Rectángulo 343784" width="11.514" height="11.524" transform="translate(400.152 192.435)" fill="#fafafa"/>
      <rect id="Rectángulo_343785" data-name="Rectángulo 343785" width="11.514" height="11.524" transform="translate(422.463 192.435)" fill="#fafafa"/>
      <rect id="Rectángulo_343786" data-name="Rectángulo 343786" width="11.524" height="11.524" transform="translate(444.774 192.435)" fill="#f0f0f0"/>
      <rect id="Rectángulo_343787" data-name="Rectángulo 343787" width="11.514" height="11.514" transform="translate(377.841 213.363)" fill="#f0f0f0"/>
      <rect id="Rectángulo_343788" data-name="Rectángulo 343788" width="11.514" height="11.514" transform="translate(400.152 213.363)" fill="#fafafa"/>
      <rect id="Rectángulo_343789" data-name="Rectángulo 343789" width="11.514" height="11.514" transform="translate(422.463 213.363)" fill="#f0f0f0"/>
      <rect id="Rectángulo_343790" data-name="Rectángulo 343790" width="11.524" height="11.514" transform="translate(444.774 213.363)" fill="#fafafa"/>
      <rect id="Rectángulo_343791" data-name="Rectángulo 343791" width="11.514" height="11.524" transform="translate(377.841 234.29)" fill="#fafafa"/>
      <rect id="Rectángulo_343792" data-name="Rectángulo 343792" width="11.514" height="11.524" transform="translate(400.152 234.29)" fill="#fafafa"/>
      <rect id="Rectángulo_343793" data-name="Rectángulo 343793" width="11.514" height="11.524" transform="translate(422.463 234.29)" fill="#f0f0f0"/>
      <rect id="Rectángulo_343794" data-name="Rectángulo 343794" width="11.524" height="11.524" transform="translate(444.774 234.29)" fill="#f0f0f0"/>
      <rect id="Rectángulo_343795" data-name="Rectángulo 343795" width="71.963" height="244.127" transform="translate(388.113 16.534)" fill="#fff" opacity="0.1"/>
      <g id="Grupo_998039" data-name="Grupo 998039" transform="translate(404.99 16.534)" opacity="0.3">
        <path id="Trazado_664468" data-name="Trazado 664468" d="M449.026,71.37H426.078L400.98,315.5h22.937Z" transform="translate(-400.98 -71.37)" fill="#fff"/>
      </g>
      <rect id="Rectángulo_343796" data-name="Rectángulo 343796" width="73.174" height="6.191" transform="translate(387.648 13.443)" fill="#e0e0e0"/>
      <rect id="Rectángulo_343797" data-name="Rectángulo 343797" width="73.174" height="6.191" transform="translate(387.648 258.53)" fill="#ebebeb"/>
      <path id="Trazado_664469" data-name="Trazado 664469" d="M459.855,324.93H380.53V62.33h79.325Zm-73.275-6.06h67.236V68.39H386.58Z" transform="translate(3.805 -54.927)" fill="#ebebeb"/>
      <rect id="Rectángulo_343798" data-name="Rectángulo 343798" width="71.963" height="244.127" transform="translate(309.757 16.534)" fill="#fafafa"/>
      <rect id="Rectángulo_343799" data-name="Rectángulo 343799" width="61.539" height="75.518" transform="translate(314.736 183.86)" fill="#e6e6e6"/>
      <path id="Trazado_664470" data-name="Trazado 664470" d="M367.47,245.33h-22.2v7.878h22.2Z" transform="translate(3.453 -53.097)" fill="#e6e6e6"/>
      <path id="Trazado_664471" data-name="Trazado 664471" d="M367.47,260.44h-22.2v7.878h22.2Z" transform="translate(3.453 -52.946)" fill="#fafafa"/>
      <path id="Trazado_664472" data-name="Trazado 664472" d="M367.47,275.55h-22.2v7.878h22.2Z" transform="translate(3.453 -52.794)" fill="#e6e6e6"/>
      <path id="Trazado_664473" data-name="Trazado 664473" d="M367.47,290.66h-22.2v7.878h22.2Z" transform="translate(3.453 -52.643)" fill="#fafafa"/>
      <path id="Trazado_664474" data-name="Trazado 664474" d="M339.12,245.33H316.93v7.878h22.19Z" transform="translate(3.169 -53.097)" fill="#fafafa"/>
      <path id="Trazado_664475" data-name="Trazado 664475" d="M339.12,260.44H316.93v7.878h22.19Z" transform="translate(3.169 -52.946)" fill="#fafafa"/>
      <path id="Trazado_664476" data-name="Trazado 664476" d="M339.12,275.55H316.93v7.878h22.19Z" transform="translate(3.169 -52.794)" fill="#e6e6e6"/>
      <path id="Trazado_664477" data-name="Trazado 664477" d="M339.12,290.66H316.93v7.878h22.19Z" transform="translate(3.169 -52.643)" fill="#fafafa"/>
      <rect id="Rectángulo_343800" data-name="Rectángulo 343800" width="71.963" height="244.127" transform="translate(309.525 16.534)" fill="#fff" opacity="0.1"/>
      <g id="Grupo_998040" data-name="Grupo 998040" transform="translate(326.493 16.534)" opacity="0.3">
        <path id="Trazado_664478" data-name="Trazado 664478" d="M371.306,71.37H348.369L323.26,315.5h22.947Z" transform="translate(-323.26 -71.37)" fill="#fff"/>
      </g>
      <rect id="Rectángulo_343801" data-name="Rectángulo 343801" width="73.174" height="6.191" transform="translate(309.151 13.443)" fill="#e0e0e0"/>
      <rect id="Rectángulo_343802" data-name="Rectángulo 343802" width="73.174" height="6.191" transform="translate(309.151 258.53)" fill="#ebebeb"/>
      <path id="Trazado_664479" data-name="Trazado 664479" d="M382.145,324.93H302.82V62.33h79.325Zm-73.286-6.06H376.1V68.39H308.86Z" transform="translate(3.028 -54.927)" fill="#ebebeb"/>
      <rect id="Rectángulo_343803" data-name="Rectángulo 343803" width="71.963" height="244.127" transform="translate(121.2 16.534)" fill="#fafafa"/>
      <rect id="Rectángulo_343804" data-name="Rectángulo 343804" width="71.963" height="244.127" transform="translate(121.059 16.534)" fill="#fff" opacity="0.1"/>
      <g id="Grupo_998041" data-name="Grupo 998041" transform="translate(137.946 16.534)" opacity="0.3">
        <path id="Trazado_664480" data-name="Trazado 664480" d="M184.626,71.37H161.678L136.58,315.5h22.937Z" transform="translate(-136.58 -71.37)" fill="#fff"/>
      </g>
      <rect id="Rectángulo_343805" data-name="Rectángulo 343805" width="73.174" height="6.191" transform="translate(120.604 13.443)" fill="#e0e0e0"/>
      <rect id="Rectángulo_343806" data-name="Rectángulo 343806" width="73.174" height="6.191" transform="translate(120.604 258.53)" fill="#ebebeb"/>
      <path id="Trazado_664481" data-name="Trazado 664481" d="M195.455,324.93H116.13V62.33h79.325Zm-73.276-6.06h67.226V68.39H122.18Z" transform="translate(1.161 -54.927)" fill="#ebebeb"/>
      <rect id="Rectángulo_343807" data-name="Rectángulo 343807" width="71.963" height="244.127" transform="translate(42.814 16.534)" fill="#fafafa"/>
      <rect id="Rectángulo_343808" data-name="Rectángulo 343808" width="55.701" height="46.743" transform="translate(48.228 119.917)" fill="#e6e6e6"/>
      <rect id="Rectángulo_343809" data-name="Rectángulo 343809" width="7.131" height="7.131" transform="translate(51.793 125.745)" fill="#fafafa"/>
      <rect id="Rectángulo_343810" data-name="Rectángulo 343810" width="7.131" height="7.131" transform="translate(65.61 125.745)" fill="#fafafa"/>
      <rect id="Rectángulo_343811" data-name="Rectángulo 343811" width="7.131" height="7.131" transform="translate(79.426 125.745)" fill="#fafafa"/>
      <rect id="Rectángulo_343812" data-name="Rectángulo 343812" width="7.131" height="7.131" transform="translate(93.233 125.745)" fill="#fafafa"/>
      <rect id="Rectángulo_343813" data-name="Rectángulo 343813" width="7.131" height="7.131" transform="translate(51.793 138.703)" fill="#fafafa"/>
      <rect id="Rectángulo_343814" data-name="Rectángulo 343814" width="7.131" height="7.131" transform="translate(65.61 138.703)" fill="#fafafa"/>
      <rect id="Rectángulo_343815" data-name="Rectángulo 343815" width="7.131" height="7.131" transform="translate(79.426 138.703)" fill="#fafafa"/>
      <rect id="Rectángulo_343816" data-name="Rectángulo 343816" width="7.131" height="7.131" transform="translate(93.233 138.703)" fill="#e6e6e6"/>
      <rect id="Rectángulo_343817" data-name="Rectángulo 343817" width="7.131" height="7.131" transform="translate(51.793 151.651)" fill="#e6e6e6"/>
      <rect id="Rectángulo_343818" data-name="Rectángulo 343818" width="7.131" height="7.131" transform="translate(65.61 151.651)" fill="#e6e6e6"/>
      <rect id="Rectángulo_343819" data-name="Rectángulo 343819" width="7.131" height="7.131" transform="translate(79.426 151.651)" fill="#fafafa"/>
      <rect id="Rectángulo_343820" data-name="Rectángulo 343820" width="7.131" height="7.131" transform="translate(93.233 151.651)" fill="#e6e6e6"/>
      <rect id="Rectángulo_343821" data-name="Rectángulo 343821" width="55.701" height="46.743" transform="translate(48.228 166.074)" fill="#e6e6e6"/>
      <rect id="Rectángulo_343822" data-name="Rectángulo 343822" width="7.131" height="7.131" transform="translate(51.793 171.892)" fill="#fafafa"/>
      <rect id="Rectángulo_343823" data-name="Rectángulo 343823" width="7.131" height="7.131" transform="translate(65.61 171.892)" fill="#fafafa"/>
      <rect id="Rectángulo_343824" data-name="Rectángulo 343824" width="7.131" height="7.131" transform="translate(79.426 171.892)" fill="#fafafa"/>
      <rect id="Rectángulo_343825" data-name="Rectángulo 343825" width="7.131" height="7.131" transform="translate(93.233 171.892)" fill="#fafafa"/>
      <rect id="Rectángulo_343826" data-name="Rectángulo 343826" width="7.131" height="7.131" transform="translate(51.793 184.85)" fill="#fafafa"/>
      <rect id="Rectángulo_343827" data-name="Rectángulo 343827" width="7.131" height="7.131" transform="translate(65.61 184.85)" fill="#fafafa"/>
      <rect id="Rectángulo_343828" data-name="Rectángulo 343828" width="7.131" height="7.131" transform="translate(79.426 184.85)" fill="#fafafa"/>
      <rect id="Rectángulo_343829" data-name="Rectángulo 343829" width="7.131" height="7.131" transform="translate(93.233 184.85)" fill="#e6e6e6"/>
      <rect id="Rectángulo_343830" data-name="Rectángulo 343830" width="7.131" height="7.131" transform="translate(51.793 197.809)" fill="#e6e6e6"/>
      <rect id="Rectángulo_343831" data-name="Rectángulo 343831" width="7.131" height="7.131" transform="translate(65.61 197.809)" fill="#e6e6e6"/>
      <rect id="Rectángulo_343832" data-name="Rectángulo 343832" width="7.131" height="7.131" transform="translate(79.426 197.809)" fill="#fafafa"/>
      <rect id="Rectángulo_343833" data-name="Rectángulo 343833" width="7.131" height="7.131" transform="translate(93.233 197.809)" fill="#e6e6e6"/>
      <rect id="Rectángulo_343834" data-name="Rectángulo 343834" width="55.701" height="46.743" transform="translate(48.228 212.221)" fill="#e6e6e6"/>
      <rect id="Rectángulo_343835" data-name="Rectángulo 343835" width="7.131" height="7.131" transform="translate(51.793 218.049)" fill="#fafafa"/>
      <rect id="Rectángulo_343836" data-name="Rectángulo 343836" width="7.131" height="7.131" transform="translate(65.61 218.049)" fill="#fafafa"/>
      <rect id="Rectángulo_343837" data-name="Rectángulo 343837" width="7.131" height="7.131" transform="translate(79.426 218.049)" fill="#fafafa"/>
      <rect id="Rectángulo_343838" data-name="Rectángulo 343838" width="7.131" height="7.131" transform="translate(93.233 218.049)" fill="#fafafa"/>
      <rect id="Rectángulo_343839" data-name="Rectángulo 343839" width="7.131" height="7.131" transform="translate(51.793 231.007)" fill="#fafafa"/>
      <rect id="Rectángulo_343840" data-name="Rectángulo 343840" width="7.131" height="7.131" transform="translate(65.61 231.007)" fill="#fafafa"/>
      <rect id="Rectángulo_343841" data-name="Rectángulo 343841" width="7.131" height="7.131" transform="translate(79.426 231.007)" fill="#fafafa"/>
      <rect id="Rectángulo_343842" data-name="Rectángulo 343842" width="7.131" height="7.131" transform="translate(93.233 231.007)" fill="#e6e6e6"/>
      <rect id="Rectángulo_343843" data-name="Rectángulo 343843" width="7.131" height="7.131" transform="translate(51.793 243.965)" fill="#e6e6e6"/>
      <rect id="Rectángulo_343844" data-name="Rectángulo 343844" width="7.131" height="7.131" transform="translate(65.61 243.965)" fill="#e6e6e6"/>
      <rect id="Rectángulo_343845" data-name="Rectángulo 343845" width="7.131" height="7.131" transform="translate(79.426 243.965)" fill="#fafafa"/>
      <rect id="Rectángulo_343846" data-name="Rectángulo 343846" width="7.131" height="7.131" transform="translate(93.233 243.965)" fill="#e6e6e6"/>
      <rect id="Rectángulo_343847" data-name="Rectángulo 343847" width="71.963" height="244.127" transform="translate(41.865 16.534)" fill="#fff" opacity="0.1"/>
      <g id="Grupo_998042" data-name="Grupo 998042" transform="translate(59.56 16.534)" opacity="0.3">
        <path id="Trazado_664482" data-name="Trazado 664482" d="M107.006,71.37H84.068L58.97,315.5H81.907Z" transform="translate(-58.97 -71.37)" fill="#fff"/>
      </g>
      <rect id="Rectángulo_343848" data-name="Rectángulo 343848" width="73.174" height="6.191" transform="translate(42.218 13.443)" fill="#e0e0e0"/>
      <rect id="Rectángulo_343849" data-name="Rectángulo 343849" width="73.174" height="6.191" transform="translate(42.218 258.53)" fill="#ebebeb"/>
      <path id="Trazado_664483" data-name="Trazado 664483" d="M117.845,324.93H38.52V62.33h79.325ZM44.57,318.87H111.8V68.39H44.57Z" transform="translate(0.385 -54.927)" fill="#ebebeb"/>
      <path id="Trazado_664484" data-name="Trazado 664484" d="M243.54,355.9l-.808.1c-.051-.414-4.959-41.5,5.171-75.073,10.1-33.33,3.131-54.641,3.03-54.843l.778-.263c.071.212,7.07,21.725-3.03,55.338C238.6,314.569,243.49,355.494,243.54,355.9Z" transform="translate(2.415 -53.292)" fill="#e0e0e0"/>
      <path id="Trazado_664485" data-name="Trazado 664485" d="M252.368,230.66a12.766,12.766,0,0,0-6.828-4.212l.192-.8a13.564,13.564,0,0,1,7.262,4.484Z" transform="translate(2.455 -53.293)" fill="#e0e0e0"/>
      <rect id="Rectángulo_343850" data-name="Rectángulo 343850" width="2.677" height="0.818" transform="translate(255.957 182.081) rotate(-29.47)" fill="#e0e0e0"/>
      <path id="Trazado_664486" data-name="Trazado 664486" d="M251.534,252.838a19.382,19.382,0,0,0-10.484-10.181l.3-.747A20.2,20.2,0,0,1,252.281,252.5Z" transform="translate(2.411 -53.131)" fill="#e0e0e0"/>
      <path id="Trazado_664487" data-name="Trazado 664487" d="M249.32,278.231H248.5a11.191,11.191,0,0,0-4.222-8.575l.505-.636A12.029,12.029,0,0,1,249.32,278.231Z" transform="translate(2.443 -52.86)" fill="#e0e0e0"/>
      <path id="Trazado_664488" data-name="Trazado 664488" d="M247.478,284.688l-.768-.293a8.2,8.2,0,0,1,4.646-4.585l.283.768a7.312,7.312,0,0,0-4.161,4.111Z" transform="translate(2.467 -52.752)" fill="#e0e0e0"/>
      <path id="Trazado_664489" data-name="Trazado 664489" d="M242.236,325.971l-.626-.515c1.01-1.2,1.747-5.757,2.151-8.2.091-.586.172-1.081.242-1.444l.8.151c-.061.353-.141.848-.242,1.424C243.963,321.052,243.287,324.708,242.236,325.971Z" transform="translate(2.416 -52.392)" fill="#e0e0e0"/>
      <path id="Trazado_664490" data-name="Trazado 664490" d="M241.847,338.881a8.08,8.08,0,0,0-7.787-5.373v-.818a8.9,8.9,0,0,1,8.605,5.939Z" transform="translate(2.341 -52.223)" fill="#e0e0e0"/>
      <rect id="Rectángulo_343851" data-name="Rectángulo 343851" width="8.625" height="0.818" transform="matrix(0.666, -0.746, 0.746, 0.666, 244.672, 301.632)" fill="#e0e0e0"/>
      <path id="Trazado_664491" data-name="Trazado 664491" d="M252.212,305.818c1.3,4.212-7.777,12.241-7.777,12.241s-12.029-1.5-13.332-5.727,1.747-11.11,7.575-12.908S250.869,301.606,252.212,305.818Z" transform="translate(2.308 -52.56)" fill="#f0f0f0"/>
      <path id="Trazado_664492" data-name="Trazado 664492" d="M262.086,255.231c-1.151,4.474-9.757,7.656-9.757,7.656s-6-6.939-4.848-11.413,5.909-9.413,9.938-8.373S263.237,250.757,262.086,255.231Z" transform="translate(2.473 -53.12)" fill="#ebebeb"/>
      <path id="Trazado_664493" data-name="Trazado 664493" d="M227.923,321.342c5.393,2.111,8.706,11.655,8.706,11.655s-8.9,4.8-14.3,2.7-11.11-8.08-9.575-11.989S222.519,319.241,227.923,321.342Z" transform="translate(2.125 -52.349)" fill="#f5f5f5"/>
      <path id="Trazado_664494" data-name="Trazado 664494" d="M239.545,269.411a11.554,11.554,0,0,0,3.686,2.091,3.929,3.929,0,0,0,3.939-.929c1.161-1.333.848-3.394.121-5-1.444-3.181-6.767-8.575-10.858-7.07C230.536,260.775,236.909,267.461,239.545,269.411Z" transform="translate(2.34 -52.968)" fill="#e6e6e6"/>
      <path id="Trazado_664495" data-name="Trazado 664495" d="M251.463,277.379c-.778.96-1.6,2.161-1.172,3.323a2.464,2.464,0,0,0,2.717,1.333,7.292,7.292,0,0,0,2.919-1.424c2.081-1.454,6.353-4.484,3.626-7.323S253.089,275.349,251.463,277.379Z" transform="translate(2.502 -52.826)" fill="#ebebeb"/>
      <path id="Trazado_664496" data-name="Trazado 664496" d="M234.21,237.33a2.141,2.141,0,0,0-1.949,1.576c-.172,1.01.687,1.939,1.515,2.576,2.07,1.6,8.282,5.9,9.676,1.747C244.764,239.31,236.957,237,234.21,237.33Z" transform="translate(2.322 -53.177)" fill="#e0e0e0"/>
      <path id="Trazado_664497" data-name="Trazado 664497" d="M245.6,223.813c-1.283.121-2.565-.343-3.848-.263s-2.717,1.111-2.424,2.374,1.707,1.545,2.889,1.626a23.534,23.534,0,0,0,6.06-.424,1.859,1.859,0,0,0,1.222-.616c.525-.768-.3-1.8-1.192-2.02a13.192,13.192,0,0,1-2.687-.636Z" transform="translate(2.393 -53.315)" fill="#e6e6e6"/>
      <path id="Trazado_664498" data-name="Trazado 664498" d="M258.039,232.555c1.293,0,2.535-.515,3.828-.515s2.777.929,2.576,2.2-1.606,1.667-2.788,1.818a23.047,23.047,0,0,1-6.06,0,1.879,1.879,0,0,1-1.273-.535c-.566-.737.192-1.808,1.01-2.141a12.787,12.787,0,0,0,2.646-.818Z" transform="translate(2.541 -53.23)" fill="#f0f0f0"/>
      <path id="Trazado_664499" data-name="Trazado 664499" d="M256.8,326.515a1.818,1.818,0,0,1,1.1-.545,1.242,1.242,0,0,1,1.091,1.071,3.586,3.586,0,0,1-.2,1.626c-.879,2.919-10.676,24.078-12.938,20.281-1.333-2.252,1.949-9.686,2.919-11.8a30.674,30.674,0,0,1,8.03-10.635Z" transform="translate(2.455 -52.29)" fill="#f0f0f0"/>
      <path id="Trazado_664500" data-name="Trazado 664500" d="M250.89,224.654a11.11,11.11,0,0,1,3.141-4.646c1.545-1.121,4.04-1.2,5.151.343,1.262,1.727,0,4.353-1.929,5.272s-4.181.636-6.3.343a5.859,5.859,0,0,0-.05-.939Z" transform="translate(2.509 -53.358)" fill="#e6e6e6"/>
      <path id="Trazado_664501" data-name="Trazado 664501" d="M258.106,382.91h0a94.436,94.436,0,0,1-31.714,0h0L214.06,346.55h56.388Z" transform="translate(2.141 -52.084)" fill="#f0f0f0"/>
      <circle id="Elipse_8241" data-name="Elipse 8241" cx="20.937" cy="20.937" r="20.937" transform="translate(232.159 16.685)" fill="#e0e0e0"/>
      <circle id="Elipse_8242" data-name="Elipse 8242" cx="20.937" cy="20.937" r="20.937" transform="translate(227.678 54.067) rotate(-80.78)" fill="#ebebeb"/>
      <path id="Trazado_664502" data-name="Trazado 664502" d="M266.163,91.686A16.806,16.806,0,1,1,249.356,74.88,16.806,16.806,0,0,1,266.163,91.686Z" transform="translate(2.325 -54.801)" fill="#fff" opacity="0.8"/>
      <path id="Trazado_664503" data-name="Trazado 664503" d="M248.295,93.119a1.707,1.707,0,1,1,2.414,0,1.707,1.707,0,0,1-2.414,0Z" transform="translate(2.478 -54.648)" fill="#e0e0e0"/>
      <path id="Trazado_664504" data-name="Trazado 664504" d="M249.2,91.323l9.918-.3.03,1.03-8.989.273-.97,15.635-1.02-.061Z" transform="translate(2.482 -54.64)" fill="#e0e0e0"/>
    </g>
    <g id="freepik--Shadow--inject-68" transform="translate(56.671 407.864)" opacity="0.22">
      <ellipse id="freepik--path--inject-68" cx="195.829" cy="11.433" rx="195.829" ry="11.433" fill="#f46464"/>
    </g>
    <g id="freepik--character-2--inject-68" transform="translate(243.71 167.767)">
      <path id="Trazado_664505" data-name="Trazado 664505" d="M431.393,364.273l5.131-81.669a52.682,52.682,0,0,0-52.581-55.984h0a52.68,52.68,0,0,0-52.59,49.705L326,371.717h97.465a7.949,7.949,0,0,0,7.929-7.444Z" transform="translate(-240.45 -166.05)" fill="#9da7d8"/>
      <path id="Trazado_664506" data-name="Trazado 664506" d="M431.575,361.334l4.949-78.709a52.682,52.682,0,0,0-52.581-55.984h0a52.68,52.68,0,0,0-52.59,49.705L326,371.716h94.526A11.11,11.11,0,0,0,431.575,361.334Z" transform="translate(-240.45 -166.05)" opacity="0.1"/>
      <path id="Trazado_664507" data-name="Trazado 664507" d="M415.729,371.717l5.6-89.112a52.692,52.692,0,0,0-52.581-55.984h0a52.672,52.672,0,0,0-52.591,49.715l-5.383,95.382Z" transform="translate(-240.603 -166.05)" fill="#9da7d8"/>
      <path id="Trazado_664508" data-name="Trazado 664508" d="M416.383,385.622h1.343a1.525,1.525,0,0,0,1.434-1.364l2.02-13.968H413l2.02,13.968a1.535,1.535,0,0,0,1.364,1.363Z" transform="translate(-239.58 -164.614)" fill="#9da7d8"/>
      <path id="Trazado_664509" data-name="Trazado 664509" d="M416.383,385.622h1.343a1.525,1.525,0,0,0,1.434-1.364l2.02-13.968H413l2.02,13.968a1.535,1.535,0,0,0,1.364,1.363Z" transform="translate(-239.58 -164.614)" fill="#fff" opacity="0.7"/>
      <path id="Trazado_664510" data-name="Trazado 664510" d="M285.731,385.622h1.212a1.454,1.454,0,0,0,1.3-1.363l1.828-13.968H282.64l1.808,13.968a1.454,1.454,0,0,0,1.283,1.364Z" transform="translate(-240.884 -164.614)" fill="#9da7d8"/>
      <path id="Trazado_664511" data-name="Trazado 664511" d="M285.731,385.622h1.212a1.454,1.454,0,0,0,1.3-1.363l1.828-13.968H282.64l1.808,13.968a1.454,1.454,0,0,0,1.283,1.364Z" transform="translate(-240.884 -164.614)" fill="#fff" opacity="0.5"/>
      <path id="Trazado_664512" data-name="Trazado 664512" d="M323.341,385.622h1.222a1.454,1.454,0,0,0,1.3-1.363l1.8-13.968H320.24l1.778,13.968a1.454,1.454,0,0,0,1.323,1.364Z" transform="translate(-240.508 -164.614)" fill="#9da7d8"/>
      <path id="Trazado_664513" data-name="Trazado 664513" d="M323.341,385.622h1.222a1.454,1.454,0,0,0,1.3-1.363l1.8-13.968H320.24l1.778,13.968a1.454,1.454,0,0,0,1.323,1.364Z" transform="translate(-240.508 -164.614)" fill="#fff" opacity="0.7"/>
      <path id="Trazado_664514" data-name="Trazado 664514" d="M375.883,385.622h1.343a1.545,1.545,0,0,0,1.444-1.364l2.02-13.968H372.5l2.02,13.968a1.525,1.525,0,0,0,1.363,1.363Z" transform="translate(-239.985 -164.614)" fill="#9da7d8"/>
      <path id="Trazado_664515" data-name="Trazado 664515" d="M375.883,385.622h1.343a1.545,1.545,0,0,0,1.444-1.364l2.02-13.968H372.5l2.02,13.968a1.525,1.525,0,0,0,1.363,1.363Z" transform="translate(-239.985 -164.614)" fill="#fff" opacity="0.5"/>
      <path id="Trazado_664516" data-name="Trazado 664516" d="M332.378,337.629H296.462l-2.374-34.623-.515-7.434h0l-.232-3.424a22.779,22.779,0,0,0-.354-2.677,3.12,3.12,0,0,0-.121-.6,2.02,2.02,0,0,0-.111-.424,20.715,20.715,0,0,0-5.464-9.3,17.635,17.635,0,0,0-11.221-5.05h34.9a17.524,17.524,0,0,1,12.231,5.05,20.735,20.735,0,0,1,5.474,9.3,2.022,2.022,0,0,1,.111.424,22.794,22.794,0,0,1,.475,3.272l.232,3.424h0Z" transform="translate(-240.95 -165.576)" fill="#9da7d8"/>
      <path id="Trazado_664517" data-name="Trazado 664517" d="M332.378,337.629H296.462l-2.374-34.623-.515-7.434h0l-.232-3.424a22.779,22.779,0,0,0-.354-2.677,3.12,3.12,0,0,0-.121-.6,2.02,2.02,0,0,0-.111-.424,20.715,20.715,0,0,0-5.464-9.3,17.635,17.635,0,0,0-11.221-5.05h34.9a17.524,17.524,0,0,1,12.231,5.05,20.735,20.735,0,0,1,5.474,9.3,2.022,2.022,0,0,1,.111.424,22.794,22.794,0,0,1,.475,3.272l.232,3.424h0Z" transform="translate(-240.95 -165.576)" opacity="0.1"/>
      <g id="Grupo_998043" data-name="Grupo 998043" transform="translate(119.89 153.57)" opacity="0.1">
        <path id="Trazado_664518" data-name="Trazado 664518" d="M360,318.7h14.423c3.515,0,6.353,2.222,6.353,4.959v8.524c0,2.747-2.838,4.959-6.353,4.959H360Z" transform="translate(-360 -318.7)"/>
      </g>
      <rect id="Rectángulo_343852" data-name="Rectángulo 343852" width="74.477" height="18.453" rx="5.42" transform="translate(130 172.013) rotate(180)" fill="#9da7d8"/>
      <path id="Trazado_664519" data-name="Trazado 664519" d="M450.666,294.473a20.463,20.463,0,0,1-16.978,20.2L430,363.89c-.323,4.181-3.363,7.383-7,7.383H383.39c3.636,0,6.666-3.2,6.989-7.383l2.02-26.26,1.707-22.988a20.382,20.382,0,0,0,14.675-10.767,11.1,11.1,0,0,0,.535-1.1,20.2,20.2,0,0,0,1.757-8.3,21.02,21.02,0,0,0-.424-4.171c-.111-.545-.253-1.091-.4-1.626a20.754,20.754,0,0,0-3.394-6.656h0A20.513,20.513,0,0,0,390.622,274h39.612a20.1,20.1,0,0,1,9.14,2.161,20.311,20.311,0,0,1,7.07,5.828h0A20.412,20.412,0,0,1,450.666,294.473Z" transform="translate(-239.877 -165.577)" fill="#9da7d8"/>
      <path id="Trazado_664520" data-name="Trazado 664520" d="M450.666,294.473a20.463,20.463,0,0,1-16.978,20.2L430,363.89c-.323,4.181-3.363,7.383-7,7.383H383.39c3.636,0,6.666-3.2,6.989-7.383l2.02-26.26,1.707-22.988a20.382,20.382,0,0,0,14.675-10.767,11.1,11.1,0,0,0,.535-1.1,20.2,20.2,0,0,0,1.757-8.3,21.02,21.02,0,0,0-.424-4.171c-.111-.545-.253-1.091-.4-1.626a20.754,20.754,0,0,0-3.394-6.656h0A20.513,20.513,0,0,0,390.622,274h39.612a20.1,20.1,0,0,1,9.14,2.161,20.311,20.311,0,0,1,7.07,5.828h0A20.412,20.412,0,0,1,450.666,294.473Z" transform="translate(-239.877 -165.577)" opacity="0.1"/>
      <path id="Trazado_664521" data-name="Trazado 664521" d="M412.351,294.482c0,10.1-6.656,18.513-15.392,20.2l-3.373,49.207c-.293,4.181-3.03,7.393-6.343,7.393H281.455c-3.293,0-6.06-3.212-6.343-7.393l-3.384-49.3c-8.565-1.8-15.039-10.1-15.039-20.079a21.776,21.776,0,0,1,3.424-11.827,19.19,19.19,0,0,1,6.838-6.474,16.917,16.917,0,0,1,8.292-2.172,17.614,17.614,0,0,1,12.241,5.05,20.684,20.684,0,0,1,5.464,9.292,2.2,2.2,0,0,1,.111.444,22.22,22.22,0,0,1,.475,3.262l.242,3.424h0l2.879,42.117h75.386l3.121-45.45c.444-6.424,3.575-11.777,7.918-14.312a17.171,17.171,0,0,1,9.605-3.727,10.11,10.11,0,0,1,1.111-.05,16.8,16.8,0,0,1,8.08,2.02,1.562,1.562,0,0,1,.222.121,19.029,19.029,0,0,1,6.424,5.828h0A21.846,21.846,0,0,1,412.351,294.482Z" transform="translate(-241.144 -165.576)" fill="#9da7d8"/>
      <path id="Trazado_664522" data-name="Trazado 664522" d="M370.3,371.253h-88.88c-3.293,0-6.06-3.212-6.343-7.393l-3.384-49.3c-8.565-1.8-15.039-10.1-15.039-20.079a21.775,21.775,0,0,1,3.424-11.827,19.19,19.19,0,0,1,6.838-6.474,16.918,16.918,0,0,1,8.292-2.171,17.614,17.614,0,0,1,12.241,5.05,20.685,20.685,0,0,1,5.464,9.292,2.2,2.2,0,0,1,.111.444,22.223,22.223,0,0,1,.475,3.262l.242,3.424h0l2.919,42.147h75.386Z" transform="translate(-241.144 -165.577)" fill="#fff" opacity="0.1"/>
      <path id="Trazado_664523" data-name="Trazado 664523" d="M358.573,231.845c-1.757,1.01-3.363,1.848-5.05,2.707s-3.343,1.646-5.05,2.434c-3.394,1.545-6.828,3.03-10.363,4.313a113.955,113.955,0,0,1-10.868,3.434,69.528,69.528,0,0,1-11.676,2.091l-.838.081h-.394a94.52,94.52,0,0,1-9.9-1.717c-3.171-.707-6.312-1.4-9.423-2.2s-6.2-1.616-9.292-2.5-6.151-1.808-9.211-2.848l1.4-7.009c6.353.4,12.7,1.01,18.978,1.666l9.383.939c3.091.3,6.252.566,9.019.667h-1.222a67.8,67.8,0,0,0,9.353-2.363c3.161-1.01,6.323-2.161,9.484-3.515s6.292-2.747,9.4-4.232c1.6-.727,3.141-1.495,4.656-2.252s3.131-1.566,4.515-2.283Z" transform="translate(-240.945 -166.124)" fill="#263238"/>
      <path id="Trazado_664524" data-name="Trazado 664524" d="M358.573,231.845c-1.757,1.01-3.363,1.848-5.05,2.707s-3.343,1.646-5.05,2.434c-3.394,1.545-6.828,3.03-10.363,4.313a113.955,113.955,0,0,1-10.868,3.434,69.528,69.528,0,0,1-11.676,2.091l-.838.081h-.394a94.52,94.52,0,0,1-9.9-1.717c-3.171-.707-6.312-1.4-9.423-2.2s-6.2-1.616-9.292-2.5-6.151-1.808-9.211-2.848l1.4-7.009c6.353.4,12.7,1.01,18.978,1.666l9.383.939c3.091.3,6.252.566,9.019.667h-1.222a67.8,67.8,0,0,0,9.353-2.363c3.161-1.01,6.323-2.161,9.484-3.515s6.292-2.747,9.4-4.232c1.6-.727,3.141-1.495,4.656-2.252s3.131-1.566,4.515-2.283Z" transform="translate(-240.945 -166.124)" opacity="0.1"/>
      <path id="Trazado_664525" data-name="Trazado 664525" d="M276.7,226.724a17.26,17.26,0,0,0-4.888-2.384L269.2,234.551l7.838,3.293.889-1.091a6.959,6.959,0,0,0-1.222-10.029Z" transform="translate(-241.018 -166.073)" fill="#ffc3bd"/>
      <path id="Trazado_664526" data-name="Trazado 664526" d="M269.268,234.591l2.616-10.211-7.312-3.989-2.2,7.191Z" transform="translate(-241.087 -166.113)" fill="#ffc3bd"/>
      <path id="Trazado_664527" data-name="Trazado 664527" d="M333.41,242.15h.4c3.858-.414,15.2-2.323,23.4-10.413-1.222-2.363-2.9-4.191-4.949-4.606C346.611,226.061,339.682,230.111,333.41,242.15Z" transform="translate(-240.376 -166.047)" opacity="0.2"/>
      <path id="Trazado_664528" data-name="Trazado 664528" d="M340,295.071c9.676-26.129,3.313-50.157,4.525-63.458A15.15,15.15,0,0,1,356.786,218.1c6.605-1.273,14.776-2.707,22.563-3.757a15.231,15.231,0,0,1,17.311,15.332c-.677,39.39-13.3,65.4-13.3,65.4l-20.4-.091Z" transform="translate(-240.31 -166.175)" fill="#9da7d8"/>
      <path id="Trazado_664529" data-name="Trazado 664529" d="M340,295.071c9.676-26.129,3.313-50.157,4.525-63.458A15.15,15.15,0,0,1,356.786,218.1c6.605-1.273,14.776-2.707,22.563-3.757a15.231,15.231,0,0,1,17.311,15.332c-.677,39.39-13.3,65.4-13.3,65.4l-20.4-.091Z" transform="translate(-240.31 -166.175)" fill="#fff" opacity="0.8"/>
      <g id="freepik--character-2--inject-102--inject-68" transform="translate(0 122.735)">
        <path id="Trazado_664530" data-name="Trazado 664530" d="M263.386,382.54l-2.586,17h8.211l5.393-17Z" transform="translate(-241.102 -287.226)" fill="#ffc3bd"/>
        <path id="Trazado_664531" data-name="Trazado 664531" d="M259.945,395.623l10.979-.263a.616.616,0,0,1,.687.606v8.08a1.848,1.848,0,0,1-1.808,1.646c-3.818,0-5.636-.141-10.464,0a123.435,123.435,0,0,1-15.372-1.01c-3.909-.667-2.848-4.333-1.081-4.393,7.979-.293,12.443-1.959,15.312-4.04a2.949,2.949,0,0,1,1.747-.626Z" transform="translate(-241.297 -287.098)" fill="#263238"/>
        <path id="Trazado_664532" data-name="Trazado 664532" d="M262.33,389.357l1.04-6.817h11.019l-2.646,8.5Z" transform="translate(-241.087 -287.226)" opacity="0.2"/>
        <path id="Trazado_664533" data-name="Trazado 664533" d="M335.737,288.21s-66.811.667-67.852,21.826c-1.475,30.421-6.615,76.76-6.615,76.76l12.595,3.464s17.978-45.985,18.675-69.751c18.8-3.737,67.1,0,72.781-12.342a33.047,33.047,0,0,0,2.141-20Z" transform="translate(-241.098 -288.17)" fill="#9da7d8"/>
        <path id="Trazado_664534" data-name="Trazado 664534" d="M335.737,288.21s-66.811.667-67.852,21.826c-1.475,30.421-6.615,76.76-6.615,76.76l12.595,3.464s17.978-45.985,18.675-69.751c18.8-3.737,67.1,0,72.781-12.342a33.047,33.047,0,0,0,2.141-20Z" transform="translate(-241.098 -288.17)" opacity="0.6"/>
        <path id="Trazado_664535" data-name="Trazado 664535" d="M321.56,389.056l4.454,11.534h9.009l-3.1-12.13Z" transform="translate(-240.495 -287.167)" fill="#ffc3bd"/>
        <path id="Trazado_664536" data-name="Trazado 664536" d="M332.78,391.788l-1.747-8.878-11.383,1.414,2.919,7.716Z" transform="translate(-240.514 -287.223)" opacity="0.2"/>
        <path id="Trazado_664537" data-name="Trazado 664537" d="M323.72,396.69h11.5a.707.707,0,0,1,.758.646h0l.555,8.615a1.778,1.778,0,0,1-1.788,1.737c-4.04-.071-5.919-.293-10.979-.293-3.1,0-9.383.3-13.675.3s-4.171-4.04-2.363-4.353c8.181-1.636,11.342-3.889,14.221-6.06a3.03,3.03,0,0,1,1.768-.6Z" transform="translate(-240.645 -287.085)" fill="#263238"/>
        <path id="Trazado_664538" data-name="Trazado 664538" d="M353.375,288.21s-60.6,4.111-59.105,25.25c1.626,23.149,25.9,76.831,25.9,76.831h12.211s-8.08-48.7-11.8-72.3c17.089,0,56.691,2.575,62.388-9.8a33.118,33.118,0,0,0,2.121-20Z" transform="translate(-240.768 -288.17)" fill="#9da7d8"/>
        <path id="Trazado_664539" data-name="Trazado 664539" d="M353.375,288.21s-60.6,4.111-59.105,25.25c1.626,23.149,25.9,76.831,25.9,76.831h12.211s-8.08-48.7-11.8-72.3c17.089,0,56.691,2.575,62.388-9.8a33.118,33.118,0,0,0,2.121-20Z" transform="translate(-240.768 -288.17)" opacity="0.5"/>
      </g>
      <path id="Trazado_664540" data-name="Trazado 664540" d="M361.951,203.55c1.394,5.393,1.828,12.12-5.707,14.9-2.091,3.333-3.111,6.848,4.939,5.6a24.785,24.785,0,0,0,16.251-9.191c-4.818-4.222-3.939-17.17-2.717-24.472Z" transform="translate(-240.163 -166.413)" fill="#ffc3bd"/>
      <path id="Trazado_664541" data-name="Trazado 664541" d="M361.234,213.14c-6.918,1.182-12.6,6.535-15.655,12.847s-3.787,13.5-3.727,20.523.859,14.009.667,21.018c-.212,8.08-2.161,13.807-4.949,21.422,0,1.808,2.737,2.828,5.05,3.3,4.828-10.534,8-20.614,7.666-32.189-.253-8.4-.364-17.978,1.01-26.26s11.282-19.1,10.807-20.594Z" transform="translate(-240.335 -166.185)" fill="#263238"/>
      <path id="Trazado_664542" data-name="Trazado 664542" d="M367.753,207.435a6.717,6.717,0,0,1-5.111,1.232,23.229,23.229,0,0,0-.283-3.919l8.363-6.868a18.913,18.913,0,0,1,.354,2.707A7.666,7.666,0,0,1,367.753,207.435Z" transform="translate(-240.087 -166.338)" opacity="0.3"/>
      <path id="Trazado_664543" data-name="Trazado 664543" d="M355.4,171.858c-8.837,5-8.928,19.129-6.2,27.27a12.241,12.241,0,0,0,21.442,3.6c4.323-5.464,3.7-10.979,3.484-20.473S364.245,166.869,355.4,171.858Z" transform="translate(-240.234 -166.616)" fill="#ffc3bd"/>
      <path id="Trazado_664544" data-name="Trazado 664544" d="M358.228,197.1c-2.848,1.222-5.969,2.808-8.848,2.464a12.231,12.231,0,0,0,21.21,3.03c3.565-4.484,4.666-7.514,3.656-15.675C368.711,193.4,364.318,194.475,358.228,197.1Z" transform="translate(-240.217 -166.447)" opacity="0.2"/>
      <path id="Trazado_664545" data-name="Trazado 664545" d="M366.612,175.038a8.08,8.08,0,0,0,.9,9.666c.8.838,1.778,1.485,2.545,2.343a6.908,6.908,0,0,1,1.737,4.909,5.05,5.05,0,0,1,4.8-4.272q-1.8,5.565-3.6,11.11a15.372,15.372,0,0,0,8.767-12.12C382.529,179.5,373.682,164.14,366.612,175.038Z" transform="translate(-240.056 -166.604)" fill="#263238"/>
      <path id="Trazado_664546" data-name="Trazado 664546" d="M346.195,175.578a6.191,6.191,0,0,0-1.4,2.636,2.444,2.444,0,0,0,1.01,2.606,3.686,3.686,0,0,0,2.4.121l8.08-1.4c4.626-.808,9.252-1.606,13.817-2.707,2.02-.485,4.353-1.263,5.161-3.2,2.616-6.312-8.555-7.131-12.292-6.959C356.608,167,350.174,170.66,346.195,175.578Z" transform="translate(-240.263 -166.65)" fill="#263238"/>
      <path id="Trazado_664547" data-name="Trazado 664547" d="M375.317,185.921c-2.646.6-3.777,4.4-3.707,6.848,0,2.777,2.02,4.585,4.363,2.909a8.555,8.555,0,0,0,3.313-5.333C379.761,187.729,377.973,185.325,375.317,185.921Z" transform="translate(-239.994 -166.458)" fill="#ffc3bd"/>
      <path id="Trazado_664548" data-name="Trazado 664548" d="M356.8,195.522a3.283,3.283,0,0,1-2.757.414c1.01-2.283.889-1.768,1.2-5.646Z" transform="translate(-240.17 -166.414)" fill="#ed847e"/>
      <path id="Trazado_664549" data-name="Trazado 664549" d="M361.424,183.019c-.758-.848-2.828-1.172-3.949-1.01h0a.444.444,0,0,1-.495-.364.485.485,0,0,1,.384-.535c1.414-.212,3.767.212,4.727,1.273h0a.454.454,0,0,1,0,.636.536.536,0,0,1-.2.131A.444.444,0,0,1,361.424,183.019Z" transform="translate(-240.141 -166.506)" fill="#263238"/>
      <path id="Trazado_664550" data-name="Trazado 664550" d="M348.442,184.9h0a.444.444,0,0,1-.121-.606,4.7,4.7,0,0,1,3.464-2.374h0a.414.414,0,0,1,.424.414.475.475,0,0,1-.434.495,3.808,3.808,0,0,0-2.727,1.909.454.454,0,0,1-.364.232.353.353,0,0,1-.242-.071Z" transform="translate(-240.228 -166.497)" fill="#263238"/>
      <path id="Trazado_664551" data-name="Trazado 664551" d="M356,199.582a38.153,38.153,0,0,1,2.676,3.878l.626-.263c2.848-1.232,3.656-2.949,3.7-4.474a6.484,6.484,0,0,0-1.081-3.4c-1.01,1.747-3.565,3.141-4.959,3.818C356.364,199.431,356,199.582,356,199.582Z" transform="translate(-240.15 -166.363)" fill="#2e353a"/>
      <path id="Trazado_664552" data-name="Trazado 664552" d="M356.93,199.138l.414.566a.848.848,0,0,0,1.01.273c2.1-1.01,3.495-2.02,4.04-3.161a.818.818,0,0,0,0-.687,6.384,6.384,0,0,0-.465-.808C360.869,197.067,358.324,198.461,356.93,199.138Z" transform="translate(-240.141 -166.363)" fill="#fff"/>
      <path id="Trazado_664553" data-name="Trazado 664553" d="M359.25,203.164c2.848-1.232,3.656-2.949,3.7-4.474a8.272,8.272,0,0,0-2.818,2.131,4.04,4.04,0,0,0-.879,2.343Z" transform="translate(-240.118 -166.33)" fill="#de5753"/>
      <path id="Trazado_664554" data-name="Trazado 664554" d="M351.657,188c-.495.091-.768.8-.626,1.555s.677,1.3,1.172,1.2.768-.788.626-1.545A1.343,1.343,0,0,0,351.657,188Z" transform="translate(-240.201 -166.437)" fill="#263238"/>
      <path id="Trazado_664555" data-name="Trazado 664555" d="M360.237,186.62c-.495.091-.768.788-.626,1.555s.677,1.3,1.172,1.2.768-.8.626-1.555S360.731,186.529,360.237,186.62Z" transform="translate(-240.115 -166.451)" fill="#263238"/>
      <path id="Trazado_664556" data-name="Trazado 664556" d="M347.87,192.074l6.373-1.434.111,2.707-5.929,1.414Z" transform="translate(-240.232 -166.41)" fill="#fff" opacity="0.9"/>
      <g id="Grupo_998044" data-name="Grupo 998044" transform="translate(115.951 21.664)" opacity="0.8">
        <path id="Trazado_664557" data-name="Trazado 664557" d="M356.1,190.241l.757,2.485,8.181-1.757-.485-2.868Z" transform="translate(-356.1 -188.1)" fill="#fff" opacity="0.9"/>
      </g>
      <path id="Trazado_664558" data-name="Trazado 664558" d="M354.22,191.644l-.04-1,1.939-.424.283.939Z" transform="translate(-240.169 -166.414)" fill="#263238"/>
      <path id="Trazado_664559" data-name="Trazado 664559" d="M351.92,293.927s11.5,4.454,14.14,5.323a33.016,33.016,0,0,0,9.464,2.172,11.615,11.615,0,0,0,8.959-3.343c2.747-2.929,3.606-7.373,4.323-11.544q3.151-18.372,6.323-36.744c1.01-6.06,3.666-15.15,3.444-18.574-.414-6.363-4.464-13.877-14.776-18.008-4.04-1.606-7.969-1.01-11.342,3.03-2.02,2.4-7.9,8.2-9.342,18.412-1.151,8.181-2.949,18.776-2.838,27.088C360.4,272.667,356.041,286.443,351.92,293.927Z" transform="translate(-240.191 -166.193)" fill="#263238"/>
      <path id="Trazado_664560" data-name="Trazado 664560" d="M398.08,227.749c1.172,10.645-4.717,37.481-5.848,39.1-4.828,15.564-18.089,7.171-20.008,6.454-3.343-1.232-6.747-3.646-9.928-5.252-6.171-3.03-12.019-5.535-17.756-9.342l3.232-6.383c6.292,2.141,24.1,6.747,27.038,7.464,1.273.333,6.232,2.929,6.181-.495.7-1.141,1.666-23.371,3.8-31.229a6.626,6.626,0,0,1,1.242-2.414l.192-.242a6.807,6.807,0,0,1,11.857,2.343Z" transform="translate(-240.265 -166.088)" fill="#263238"/>
      <path id="Trazado_664561" data-name="Trazado 664561" d="M398.08,227.749c1.172,10.645-4.717,37.481-5.848,39.1-4.828,15.564-18.089,7.171-20.008,6.454-3.343-1.232-6.747-3.646-9.928-5.252-6.171-3.03-12.019-5.535-17.756-9.342l3.232-6.383c6.292,2.141,24.1,6.747,27.038,7.464,1.273.333,6.232,2.929,6.181-.495.7-1.141,1.666-23.371,3.8-31.229a6.626,6.626,0,0,1,1.242-2.414l.192-.242a6.807,6.807,0,0,1,11.857,2.343Z" transform="translate(-240.265 -166.088)" fill="#fff" opacity="0.1"/>
      <path id="Trazado_664562" data-name="Trazado 664562" d="M345.57,267.886h-29.9L312.26,228.88h29.9Z" transform="translate(-240.588 -166.028)" fill="#263238"/>
      <path id="Trazado_664563" data-name="Trazado 664563" d="M345.57,267.886h-29.9L312.26,228.88h29.9Z" transform="translate(-240.588 -166.028)" fill="#fff" opacity="0.5"/>
      <path id="Trazado_664564" data-name="Trazado 664564" d="M344.52,267.7h-29.9L311.21,228.69h29.9Z" transform="translate(-240.598 -166.03)" fill="#9da7d8"/>
      <path id="Trazado_664565" data-name="Trazado 664565" d="M344.52,267.7h-29.9L311.21,228.69h29.9Z" transform="translate(-240.598 -166.03)" fill="#fff" opacity="0.8"/>
      <path id="Trazado_664566" data-name="Trazado 664566" d="M332.579,231.148H320l-.424-4.878h12.564Z" transform="translate(-240.515 -166.054)" fill="#9da7d8"/>
      <path id="Trazado_664567" data-name="Trazado 664567" d="M319.58,226.274l1.232-.424h13.019l.182,2.07-.97,1.121-.061,1.7-.4.414-.434-4.878Z" transform="translate(-240.515 -166.058)" fill="#9da7d8"/>
      <path id="Trazado_664568" data-name="Trazado 664568" d="M319.58,226.274l1.232-.424h13.019l.182,2.07-.97,1.121-.061,1.7-.4.414-.434-4.878Z" transform="translate(-240.515 -166.058)" opacity="0.5"/>
      <path id="Trazado_664569" data-name="Trazado 664569" d="M350.2,254.16l.677,3.646c-1.616,4.212-10.878,3.1-10.878,3.1V250.13l8.171,1.9A2.727,2.727,0,0,1,350.2,254.16Z" transform="translate(-240.31 -165.815)" fill="#ffc3bd"/>
      <path id="Trazado_664570" data-name="Trazado 664570" d="M340.079,250.13l.04,10.8-8.2.2-1.879-9.494Z" transform="translate(-240.41 -165.815)" fill="#ffc3bd"/>
      <path id="Trazado_664571" data-name="Trazado 664571" d="M370.917,337.629l3.121-45.45c.444-6.424,3.575-11.777,7.918-14.312a17.171,17.171,0,0,1,9.605-3.727,10.11,10.11,0,0,1,1.111-.05,16.8,16.8,0,0,1,8.08,2.02,1.562,1.562,0,0,1,.222.121,19.029,19.029,0,0,1,6.424,5.828h0a21.846,21.846,0,0,1,3.838,12.463c0,10.1-6.656,18.513-15.392,20.2l-3.383,49.167c-.293,4.181-3.03,7.393-6.343,7.393H369.17Z" transform="translate(-240.019 -165.576)" fill="#9da7d8"/>
      <path id="Trazado_664572" data-name="Trazado 664572" d="M370.917,337.629l3.121-45.45c.444-6.424,3.575-11.777,7.918-14.312a17.171,17.171,0,0,1,9.605-3.727,10.11,10.11,0,0,1,1.111-.05,16.8,16.8,0,0,1,8.08,2.02,1.562,1.562,0,0,1,.222.121,19.029,19.029,0,0,1,6.424,5.828h0a21.846,21.846,0,0,1,3.838,12.463c0,10.1-6.656,18.513-15.392,20.2l-3.383,49.167c-.293,4.181-3.03,7.393-6.343,7.393H369.17Z" transform="translate(-240.019 -165.576)" fill="#fff" opacity="0.1"/>
    </g>
    <g id="freepik--text-balloon--inject-68" transform="translate(140.39 118.398)">
      <path id="Trazado_664573" data-name="Trazado 664573" d="M219.032,127.639v42.228a4.04,4.04,0,0,1-4.04,4.04H171.744l-15.453,11.948a2.949,2.949,0,0,1-4.727-2.363v-9.585H149.15a4.04,4.04,0,0,1-4.04-4.04V127.629a3.979,3.979,0,0,1,4.04-3.959h65.913a3.969,3.969,0,0,1,3.969,3.969Z" transform="translate(-138.939 -117.711)" fill="none" stroke="#9da7d8" stroke-miterlimit="10" stroke-width="1"/>
      <rect id="Rectángulo_343853" data-name="Rectángulo 343853" width="8.252" height="1.01" transform="translate(31.34 0.01)" fill="#9da7d8"/>
      <path id="Trazado_664574" data-name="Trazado 664574" d="M140.01,129.678H139V124.7a6.939,6.939,0,0,1,6.939-6.929h18.412v1.01H145.919a5.939,5.939,0,0,0-5.929,5.919Z" transform="translate(-139 -117.77)" fill="#9da7d8"/>
      <path id="Trazado_664576" data-name="Trazado 664576" d="M186.75,144.55H163.52a2.02,2.02,0,0,1,0-4.04h23.23a2.02,2.02,0,0,1,0,4.04Z" transform="translate(-138.775 -117.543)" fill="#9da7d8"/>
      <path id="Trazado_664577" data-name="Trazado 664577" d="M183.538,152.47H163.56a2.02,2.02,0,0,1,0-4.04h19.978a2.02,2.02,0,1,1,0,4.04Z" transform="translate(-138.775 -117.463)" fill="#9da7d8"/>
      <path id="Trazado_664578" data-name="Trazado 664578" d="M180.326,160.38H163.56a2.02,2.02,0,0,1,0-4.04h16.766a2.02,2.02,0,1,1,0,4.04Z" transform="translate(-138.775 -117.384)" fill="#9da7d8"/>
    </g>
    <g id="freepik--character-1--inject-68" transform="translate(45.955 185.761)">
      <path id="Trazado_664579" data-name="Trazado 664579" d="M133.29,323.51H118.534c-3.6,0-6.5,2.272-6.5,5.05v8.726c0,2.808,2.909,5.05,6.5,5.05H133.29Z" transform="translate(-44.835 -183.076)" fill="#9da7d8"/>
      <path id="Trazado_664580" data-name="Trazado 664580" d="M65.232,365.563,60.1,283.894a52.671,52.671,0,0,1,52.57-55.974h0a52.682,52.682,0,0,1,52.6,49.715l5.373,95.381H73.13A7.949,7.949,0,0,1,65.232,365.563Z" transform="translate(-45.355 -184.032)" fill="#9da7d8"/>
      <path id="Trazado_664581" data-name="Trazado 664581" d="M65.05,362.6,60.1,283.894a52.671,52.671,0,0,1,52.57-55.974h0a52.682,52.682,0,0,1,52.6,49.715l5.373,95.381H76.16A11.11,11.11,0,0,1,65.05,362.6Z" transform="translate(-45.355 -184.032)" opacity="0.1"/>
      <path id="Trazado_664582" data-name="Trazado 664582" d="M80.9,373.017l-5.6-89.122a52.671,52.671,0,0,1,52.581-55.974h0a52.68,52.68,0,0,1,52.59,49.705l5.384,95.392Z" transform="translate(-45.203 -184.032)" fill="#9da7d8"/>
      <path id="Trazado_664583" data-name="Trazado 664583" d="M79.228,386.922H77.884a1.555,1.555,0,0,1-1.444-1.374L74.42,371.58h8.191l-2.02,13.968a1.535,1.535,0,0,1-1.363,1.374Z" transform="translate(-45.211 -182.595)" fill="#9da7d8"/>
      <path id="Trazado_664584" data-name="Trazado 664584" d="M79.228,386.922H77.884a1.555,1.555,0,0,1-1.444-1.374L74.42,371.58h8.191l-2.02,13.968a1.535,1.535,0,0,1-1.363,1.374Z" transform="translate(-45.211 -182.595)" fill="#fff" opacity="0.7"/>
      <path id="Trazado_664585" data-name="Trazado 664585" d="M209.873,386.922h-1.222a1.465,1.465,0,0,1-1.3-1.374l-1.8-13.968h7.424l-1.8,13.968A1.465,1.465,0,0,1,209.873,386.922Z" transform="translate(-43.899 -182.595)" fill="#9da7d8"/>
      <path id="Trazado_664586" data-name="Trazado 664586" d="M209.873,386.922h-1.222a1.465,1.465,0,0,1-1.3-1.374l-1.8-13.968h7.424l-1.8,13.968A1.465,1.465,0,0,1,209.873,386.922Z" transform="translate(-43.899 -182.595)" fill="#fff" opacity="0.5"/>
      <path id="Trazado_664587" data-name="Trazado 664587" d="M172.263,386.922h-1.232a1.465,1.465,0,0,1-1.3-1.374L167.92,371.58h7.434l-1.8,13.968a1.475,1.475,0,0,1-1.293,1.374Z" transform="translate(-44.276 -182.595)" fill="#9da7d8"/>
      <path id="Trazado_664588" data-name="Trazado 664588" d="M172.263,386.922h-1.232a1.465,1.465,0,0,1-1.3-1.374L167.92,371.58h7.434l-1.8,13.968a1.475,1.475,0,0,1-1.293,1.374Z" transform="translate(-44.276 -182.595)" fill="#fff" opacity="0.7"/>
      <path id="Trazado_664589" data-name="Trazado 664589" d="M119.728,386.922h-1.343a1.545,1.545,0,0,1-1.444-1.374l-2.02-13.968h8.191l-2.02,13.968a1.535,1.535,0,0,1-1.363,1.374Z" transform="translate(-44.806 -182.595)" fill="#9da7d8"/>
      <path id="Trazado_664590" data-name="Trazado 664590" d="M119.728,386.922h-1.343a1.545,1.545,0,0,1-1.444-1.374l-2.02-13.968h8.191l-2.02,13.968a1.535,1.535,0,0,1-1.363,1.374Z" transform="translate(-44.806 -182.595)" fill="#fff" opacity="0.5"/>
      <path id="Trazado_664591" data-name="Trazado 664591" d="M163.71,338.879h35.916L202,304.286l.5-7.434h0l.242-3.424a23.065,23.065,0,0,1,.343-2.676,3.052,3.052,0,0,1,.131-.586,2.111,2.111,0,0,1,.111-.434,20.685,20.685,0,0,1,5.464-9.292,17.624,17.624,0,0,1,11.211-5.05h-34.9a17.574,17.574,0,0,0-12.241,5.05,20.685,20.685,0,0,0-5.464,9.292,2.11,2.11,0,0,0-.111.434,22.657,22.657,0,0,0-.475,3.262l-.232,3.424h0Z" transform="translate(-44.318 -183.557)" fill="#9da7d8"/>
      <path id="Trazado_664592" data-name="Trazado 664592" d="M163.71,338.879h35.916L202,304.286l.5-7.434h0l.242-3.424a23.065,23.065,0,0,1,.343-2.676,3.052,3.052,0,0,1,.131-.586,2.111,2.111,0,0,1,.111-.434,20.685,20.685,0,0,1,5.464-9.292,17.624,17.624,0,0,1,11.211-5.05h-34.9a17.574,17.574,0,0,0-12.241,5.05,20.685,20.685,0,0,0-5.464,9.292,2.11,2.11,0,0,0-.111.434,22.657,22.657,0,0,0-.475,3.262l-.232,3.424h0Z" transform="translate(-44.318 -183.557)" opacity="0.1"/>
      <g id="Grupo_998045" data-name="Grupo 998045" transform="translate(70.155 136.889)" opacity="0.1">
        <path id="Trazado_664593" data-name="Trazado 664593" d="M135.736,320H121.3c-3.5,0-6.343,2.222-6.343,4.959v8.535c0,2.737,2.838,4.959,6.343,4.959h14.433Z" transform="translate(-114.96 -320)"/>
      </g>
      <rect id="Rectángulo_343854" data-name="Rectángulo 343854" width="74.477" height="18.453" rx="5.42" transform="translate(80.82 136.879)" fill="#9da7d8"/>
      <path id="Trazado_664594" data-name="Trazado 664594" d="M45.5,295.772a20.463,20.463,0,0,0,16.978,20.2L66.2,365.149c.323,4.181,3.353,7.393,6.989,7.393h39.622c-3.636,0-6.666-3.212-6.989-7.393l-2.02-26.26-1.737-22.937a20.452,20.452,0,0,1-14.655-10.777c-.192-.364-.364-.737-.525-1.111a20.109,20.109,0,0,1-1.768-8.292,20.381,20.381,0,0,1,.433-4.177c.112-.55.253-1.1.395-1.621a20.927,20.927,0,0,1,3.4-6.666h0a20.533,20.533,0,0,1,7.07-5.828,20.281,20.281,0,0,1,9.09-2.161H65.963a20.5,20.5,0,0,0-16.231,7.989h0A20.412,20.412,0,0,0,45.5,295.772Z" transform="translate(-45.5 -183.558)" fill="#9da7d8"/>
      <path id="Trazado_664595" data-name="Trazado 664595" d="M45.5,295.772a20.463,20.463,0,0,0,16.978,20.2L66.2,365.149c.323,4.181,3.353,7.393,6.989,7.393h39.622c-3.636,0-6.666-3.212-6.989-7.393l-2.02-26.26-1.737-22.937a20.452,20.452,0,0,1-14.655-10.777c-.192-.364-.364-.737-.525-1.111a20.109,20.109,0,0,1-1.768-8.292,20.381,20.381,0,0,1,.433-4.177c.112-.55.253-1.1.395-1.621a20.927,20.927,0,0,1,3.4-6.666h0a20.533,20.533,0,0,1,7.07-5.828,20.281,20.281,0,0,1,9.09-2.161H65.963a20.5,20.5,0,0,0-16.231,7.989h0A20.412,20.412,0,0,0,45.5,295.772Z" transform="translate(-45.5 -183.558)" opacity="0.1"/>
      <path id="Trazado_664596" data-name="Trazado 664596" d="M84.72,295.772c0,10.1,6.656,18.523,15.392,20.2l3.373,49.217c.293,4.191,3.03,7.393,6.343,7.393H215.616c3.293,0,6.06-3.2,6.343-7.393l3.384-49.288c8.555-1.8,15.029-10.1,15.029-20.089a21.775,21.775,0,0,0-3.414-11.827,19.251,19.251,0,0,0-6.848-6.474,17.008,17.008,0,0,0-8.282-2.161,17.554,17.554,0,0,0-12.241,5.05,20.735,20.735,0,0,0-5.474,9.292,3.028,3.028,0,0,0-.1.434,21.33,21.33,0,0,0-.475,3.262l-.242,3.424h0l-2.879,42.056H125.029l-3.121-45.45c-.454-6.424-3.575-11.777-7.918-14.312a17.312,17.312,0,0,0-9.605-3.727h-1.111a16.8,16.8,0,0,0-8.08,2.02,1.213,1.213,0,0,0-.232.111,19.321,19.321,0,0,0-6.424,5.828h0A21.776,21.776,0,0,0,84.72,295.772Z" transform="translate(-45.108 -183.557)" fill="#9da7d8"/>
      <path id="Trazado_664597" data-name="Trazado 664597" d="M126.367,372.543h88.88c3.293,0,6.06-3.2,6.343-7.393l3.383-49.288c8.555-1.8,15.029-10.1,15.029-20.089a21.776,21.776,0,0,0-3.414-11.827,19.251,19.251,0,0,0-6.848-6.474,17.008,17.008,0,0,0-8.282-2.161,17.554,17.554,0,0,0-12.241,5.05,20.735,20.735,0,0,0-5.474,9.292,3.031,3.031,0,0,0-.1.434,21.331,21.331,0,0,0-.475,3.262l-.242,3.424h0l-2.879,42.056H124.63Z" transform="translate(-44.709 -183.558)" fill="#fff" opacity="0.1"/>
      <path id="Trazado_664598" data-name="Trazado 664598" d="M153.13,388.991l8.615,2.384,7.737-20.25-8.615-2.384Z" transform="translate(-44.424 -182.623)" fill="#ffc3bd"/>
      <path id="Trazado_664599" data-name="Trazado 664599" d="M165.633,388.524a4.5,4.5,0,0,0-2.757-1.677l-8.838-1.727a.818.818,0,0,0-1.01.545l-2.737,8.08a1.768,1.768,0,0,0,1.081,2.262h.061c3.272,1.293,5.484.848,10.595,1.838,3.161.606,9.777,2.707,14.2,2.525s4.414-4.555,2.555-4.878C172.218,394.483,167.168,390.524,165.633,388.524Z" transform="translate(-44.453 -182.46)" fill="#263238"/>
      <g id="Grupo_998046" data-name="Grupo 998046" transform="translate(112.453 186.117)" opacity="0.2">
        <path id="Trazado_664600" data-name="Trazado 664600" d="M169.445,371.134l-3.99,10.443-8.615-2.4,3.979-10.433Z" transform="translate(-156.84 -368.74)"/>
      </g>
      <path id="Trazado_664601" data-name="Trazado 664601" d="M141.1,295.082s51.874-.283,50.258,17.089c-1.091,11.736-6.727,24.068-11.11,35.976-6.373,17.261-11.9,32.32-11.9,32.32l-11.817-4.091s10.615-49.914,17.766-55.025H130.435c-14.514,0-20.786-15.938-6.656-34.522C132.414,286.86,141.1,295.082,141.1,295.082Z" transform="translate(-44.797 -183.443)" fill="#9da7d8"/>
      <path id="Trazado_664602" data-name="Trazado 664602" d="M141.1,295.082s51.874-.283,50.258,17.089c.8,10.8-23.018,68.276-23.018,68.276l-11.817-4.09s10.615-49.914,17.766-55.025H130.435c-14.514,0-20.786-15.938-6.656-34.522C132.414,286.86,141.1,295.082,141.1,295.082Z" transform="translate(-44.797 -183.443)" opacity="0.6"/>
      <path id="Trazado_664603" data-name="Trazado 664603" d="M177.44,264.1c-6.383,5.828-18.917-7.969-20.937-9.605-4.323-3.535-17.029-15.392-16.362-19.513,2.02-12.12,21.9,5.05,27.644,16.887Z" transform="translate(-44.554 -184.002)" fill="#263238"/>
      <path id="Trazado_664604" data-name="Trazado 664604" d="M121.884,227.665c-3.2.677-6.666-.475-8.918,1.9s-3.192,5.706-3.515,8.959a59.589,59.589,0,0,0,.707,13.595q1.01,8.211,2.111,16.412a48.8,48.8,0,0,1-.515,13.5h0a2.171,2.171,0,0,0,1.232,2.353s24.836.848,32.057.576c3.838-.141,1.2-10.241,2.384-16.16.263-1.313,2.828-6.706,3.212-8.08,1.778-6.515.6-11-1.01-17.544-1.2-4.757-1.7-11.615-4.121-12.12C141.145,230.159,130.792,225.766,121.884,227.665Z" transform="translate(-44.862 -184.039)" fill="#9da7d8"/>
      <path id="Trazado_664605" data-name="Trazado 664605" d="M121.884,227.665c-3.2.677-6.666-.475-8.918,1.9s-3.192,5.706-3.515,8.959a59.589,59.589,0,0,0,.707,13.595q1.01,8.211,2.111,16.412a48.8,48.8,0,0,1-.515,13.5h0a2.171,2.171,0,0,0,1.232,2.353s24.836.848,32.057.576c3.838-.141,1.2-10.241,2.384-16.16.263-1.313,2.828-6.706,3.212-8.08,1.778-6.515.6-11-1.01-17.544-1.2-4.757-1.7-11.615-4.121-12.12C141.145,230.159,130.792,225.766,121.884,227.665Z" transform="translate(-44.862 -184.039)" fill="#fff" opacity="0.8"/>
      <path id="Trazado_664606" data-name="Trazado 664606" d="M118.361,232.314c-.333-.505-9.09-7.858-10.656.636-2.212,11.827,2.363,23.462,2.363,23.462s1.01,12.8,4.767,14.079,7.252,1.6,8.5-.6a13,13,0,0,0,1.252-5.464S124.169,241.121,118.361,232.314Z" transform="translate(-44.884 -184.022)" fill="#263238"/>
      <path id="Trazado_664607" data-name="Trazado 664607" d="M124.262,211.59c.9,5.444,1.656,15.392-2.232,18.9,0,0,9.5,4.979,15.746,13.665a8.231,8.231,0,0,0,2.889-9.191,8.019,8.019,0,0,0-4.04-4.828c-3.687-2.02-3.333-5.838-2.323-9.413Z" transform="translate(-44.735 -184.195)" fill="#e8bfbf"/>
      <path id="Trazado_664608" data-name="Trazado 664608" d="M125.47,220.74l3.545,1.364a11.625,11.625,0,0,0,4.767.768h0a7.6,7.6,0,0,0,0,3.373,6.807,6.807,0,0,1-7.07-2.262,11.706,11.706,0,0,1-1.242-3.242Z" transform="translate(-44.7 -184.103)" opacity="0.2"/>
      <path id="Trazado_664609" data-name="Trazado 664609" d="M212.669,371.79h9.656l-10.11-24.21-6.545,11.11Z" transform="translate(-43.898 -182.835)" fill="#ffc3bd"/>
      <path id="Trazado_664610" data-name="Trazado 664610" d="M221.523,369.306,210.2,366.73a.8.8,0,0,0-.949.515l-3.161,8.706a1.737,1.737,0,0,0,1.192,2.151h0c3.969.828,5.919,1.01,10.9,2.151,3.03.7,10.827,2.737,15.059,3.7s5.343-3.181,3.656-3.969c-7.555-3.495-11.645-6.838-13.837-9.686a2.727,2.727,0,0,0-1.535-.99Z" transform="translate(-43.895 -182.644)" fill="#263238"/>
      <g id="Grupo_998047" data-name="Grupo 998047" transform="translate(161.772 164.745)" opacity="0.2">
        <path id="Trazado_664611" data-name="Trazado 664611" d="M212.215,347.58l4.3,10.312-8.686,4.848-2.161-4.04Z" transform="translate(-205.67 -347.58)"/>
      </g>
      <path id="Trazado_664612" data-name="Trazado 664612" d="M111.55,283.933l-1.01,3.293c-.131.253.162.515.586.535l37.37,1.131c.343,0,.616-.141.646-.354l.434-3.313c0-.222-.263-.424-.616-.444L112.2,283.67A.677.677,0,0,0,111.55,283.933Z" transform="translate(-44.85 -183.474)" fill="#263238"/>
      <path id="Trazado_664613" data-name="Trazado 664613" d="M158.339,310.975c-12.292,5.242-25.624,10.474-32.876,10.474-14.524,0-27.422-10.484-13.675-34.34,8.646,0,23.664.242,23.664.242s28.28-8.08,48.864-5.7A23.23,23.23,0,0,1,204.4,300.188c5.212,26.26,13.241,54.661,13.241,54.661l-10.332,7.07S191.2,328.054,181.932,301.2C177.024,302.743,168,306.854,158.339,310.975Z" transform="translate(-44.896 -183.499)" fill="#9da7d8"/>
      <path id="Trazado_664614" data-name="Trazado 664614" d="M204.406,300.188a23.23,23.23,0,0,0-20.089-18.554c-20.543-2.343-48.864,5.7-48.864,5.7s-15.019-.273-23.664-.242c-13.968,23.755-.848,34.34,13.675,34.34,7.252,0,20.584-5.232,32.876-10.474,9.666-4.121,18.685-8.232,23.594-9.807,9.272,26.886,25.381,60.762,25.381,60.762l10.332-7.07S209.618,326.448,204.406,300.188Z" transform="translate(-44.897 -183.499)" opacity="0.5"/>
      <path id="Trazado_664615" data-name="Trazado 664615" d="M190.7,312.11a96.633,96.633,0,0,1-1.515,10.049c-.051-.111-.091-.212-.131-.323s0-.051,0-.081a1.809,1.809,0,0,0-.131-.323c-2.747-6.828-5.434-13.827-7.706-20.422h.071C187.169,303.5,191.179,307.06,190.7,312.11Z" transform="translate(-44.143 -183.301)" fill="#9da7d8"/>
      <path id="Trazado_664616" data-name="Trazado 664616" d="M190.7,312.11a96.633,96.633,0,0,1-1.515,10.049c-.051-.111-.091-.212-.131-.323s0-.051,0-.081a1.809,1.809,0,0,0-.131-.323c-2.747-6.828-5.434-13.827-7.706-20.422h.071C187.169,303.5,191.179,307.06,190.7,312.11Z" transform="translate(-44.143 -183.301)" opacity="0.6"/>
      <path id="Trazado_664617" data-name="Trazado 664617" d="M117.688,206.575c3.03,8.535,4.141,12.211,9.817,15.413,8.555,4.828,18.352-.788,17.927-10.1-.384-8.333-5.282-20.9-14.776-21.907a12.352,12.352,0,0,0-12.968,16.554Z" transform="translate(-44.786 -184.412)" fill="#e8bfbf"/>
      <path id="Trazado_664618" data-name="Trazado 664618" d="M132.871,205.325c.212.737.747,1.172,1.212,1.01s.646-.808.465-1.525-.737-1.172-1.212-1.01S132.669,204.618,132.871,205.325Z" transform="translate(-44.627 -184.273)" fill="#263238"/>
      <path id="Trazado_664619" data-name="Trazado 664619" d="M140.721,202.845c.212.747.747,1.182,1.212,1.01s.646-.808.465-1.525-.747-1.172-1.2-1.01A1.211,1.211,0,0,0,140.721,202.845Z" transform="translate(-44.548 -184.298)" fill="#263238"/>
      <path id="Trazado_664620" data-name="Trazado 664620" d="M141,201.44l1.555-1.01S142.061,202.016,141,201.44Z" transform="translate(-44.545 -184.307)" fill="#263238"/>
      <path id="Trazado_664621" data-name="Trazado 664621" d="M137.91,204.43a19.7,19.7,0,0,0,3.818,3.8,3.131,3.131,0,0,1-2.394,1.161Z" transform="translate(-44.576 -184.266)" fill="#ed847e"/>
      <path id="Trazado_664622" data-name="Trazado 664622" d="M112.2,212.133a25.664,25.664,0,0,1,1.4,4.757A6.6,6.6,0,0,1,108,223.758a6.333,6.333,0,0,0,7.3-3.3,8.615,8.615,0,0,1-4.272,4.707,9.161,9.161,0,0,0,7.322-3.525c-.475,1.232-1.01,2.454-1.434,3.686a15.826,15.826,0,0,0,5.707-5.979c.535-1.01.939-2.323.232-3.212s-1.828-.828-2.858-.848-2.272-.263-2.646-1.222.313-1.919,1.061-2.576a5.258,5.258,0,0,0,1.919-2.222,4.182,4.182,0,0,0-.141-2.081q-.7-2.788-1.374-5.585a5.8,5.8,0,0,0-.7-1.869c-2.02-3.03-4.272,1.414-5.05,2.919a13.241,13.241,0,0,0-.869,9.484Z" transform="translate(-44.875 -184.324)" fill="#263238"/>
      <path id="Trazado_664623" data-name="Trazado 664623" d="M117.1,214.742a7.131,7.131,0,0,0,4.686,2.717c2.475.3,3.343-2.02,2.353-4.131-.9-1.939-3.262-4.414-5.6-3.757S115.7,212.884,117.1,214.742Z" transform="translate(-44.792 -184.216)" fill="#e8bfbf"/>
      <path id="Trazado_664624" data-name="Trazado 664624" d="M133.044,199.275a.475.475,0,0,1-.374.384c-2.02.384-3.192,2.818-3.192,2.838a.465.465,0,0,1-.606.232.454.454,0,0,1-.222-.6c.091-.091,1.343-2.889,3.848-3.373a.465.465,0,0,1,.525.364.263.263,0,0,1,.02.151Z" transform="translate(-44.669 -184.323)" fill="#263238"/>
      <path id="Trazado_664625" data-name="Trazado 664625" d="M138.347,197.27a.5.5,0,0,0-.384.1c-.111.121-.485.333-.273.444,1.232.626,2.939,1.656,4.252,1.444.222,0,.747-.232.636-.394a.646.646,0,0,0-.606-.192c-1.01.141-2.434-.838-3.4-1.343a.909.909,0,0,0-.222-.061Z" transform="translate(-44.579 -184.338)" fill="#263238"/>
      <path id="Trazado_664626" data-name="Trazado 664626" d="M133.14,203.91l1.565-1.01S134.211,204.506,133.14,203.91Z" transform="translate(-44.624 -184.282)" fill="#263238"/>
      <path id="Trazado_664627" data-name="Trazado 664627" d="M133.23,186.287c-3.444-.626-3.889-.859-7.383-.636a17.433,17.433,0,0,0-9.787,3.384,15.958,15.958,0,0,0-5.343,8.545,24.7,24.7,0,0,0-.263,10.181,6.626,6.626,0,0,0,1.959,4.262,25.906,25.906,0,0,1,.919-5.363,8.726,8.726,0,0,1,3.03-4.454,4.737,4.737,0,0,0,1.616-1.434,5.888,5.888,0,0,0,.364-1.838,5.676,5.676,0,0,1,2.363-3.464,19.383,19.383,0,0,1,3.808-1.959c4.252-1.828,8.888-2.879,12.807-5.343A18.554,18.554,0,0,0,133.23,186.287Z" transform="translate(-44.855 -184.455)" fill="#263238"/>
      <path id="Trazado_664628" data-name="Trazado 664628" d="M115.568,199.812a6.686,6.686,0,0,0,3.606,2.252c1.677.384,5.868.283,6.121-.152s-1.242-5.141-2.939-5.424a11.454,11.454,0,0,0,4.1,2.545,13.393,13.393,0,0,0,5.252,0c.889-.2-1.1-3.878-2.545-4.929,4.353.909,8.959,1.949,12.12,5.05s4.525,8.009,4.363,12.585a6.262,6.262,0,0,0,2.333-4.969,18.554,18.554,0,0,1-1.283,14.413c4.626-3.8,6.353-10.433,5.141-16.291s-5.05-10.959-9.706-14.706c-4.04-3.2-8.848-5.6-13.968-5.717C121.447,184.268,109,191.9,115.568,199.812Z" transform="translate(-44.818 -184.466)" fill="#263238"/>
      <path id="Trazado_664629" data-name="Trazado 664629" d="M121.075,226.522c0-.333.081-.778.121-1.242a4.323,4.323,0,0,0-3.515-4.606h0a1.788,1.788,0,0,1-1.374-1.172c-.778-2.262-1.081-2.949-1.828-5.171-2.02-.495-4.454.263-6.565.485a18.4,18.4,0,0,0-.121,7.716,3.464,3.464,0,0,0,.646,1.576,27.542,27.542,0,0,0,6.3,3.878C116.56,228.542,119.116,226.694,121.075,226.522Z" transform="translate(-44.881 -184.169)" fill="#e8bfbf"/>
      <path id="Trazado_664630" data-name="Trazado 664630" d="M114.9,227.921s-5.565,35.905.172,41.41c3.363,3.212,6.272,1.434,8.08-.576a7.171,7.171,0,0,0,1.757-5.535L121,226.437S117.166,224.164,114.9,227.921Z" transform="translate(-44.83 -184.053)" fill="#e8bfbf"/>
      <path id="Trazado_664631" data-name="Trazado 664631" d="M174.133,260.306a15.251,15.251,0,0,0,4.707-7.555,14.735,14.735,0,0,0,.2-3.131c-.051-6.5-1.889-18.432-1.889-18.432l-5.282-1.747s-1.646,9.09-2.02,14.059c-.071,1.01-.182,2.131-.3,3.353-.232,2.222-.515,4.666-.768,6.7Z" transform="translate(-44.267 -184.016)" fill="#e8bfbf"/>
      <path id="Trazado_664632" data-name="Trazado 664632" d="M177.167,263.959c1.626-1.485,1.9-3.283,2.737-7.07.8-3.616-.1-8.08-.848-7.4a.727.727,0,0,0-.2.313c-1.283,3.03-6.272.374-7.686-1.141a10.311,10.311,0,0,1-1.6-1.939,1.626,1.626,0,0,1,0-1.838c-1.535-.636-2.767,5.4-2.02,6.888l.384,1.121a15.624,15.624,0,0,0,2.767,4.989l2.777,3.343Z" transform="translate(-44.282 -183.862)" fill="#263238"/>
      <path id="Trazado_664633" data-name="Trazado 664633" d="M171.706,230.281l-.626-9.231a37.507,37.507,0,0,0,5.05,1.969c2.565.879,6.06-.667,5.252,1.01a70.2,70.2,0,0,1-4.3,7.232Z" transform="translate(-44.244 -184.1)" fill="#e8bfbf"/>
      <path id="Trazado_664634" data-name="Trazado 664634" d="M171.08,221.141l3.959-9.242,5.171,3.161c1.424,3.091,1.252,9.09,1.252,9.09S174.272,224.434,171.08,221.141Z" transform="translate(-44.244 -184.192)" fill="#e8bfbf"/>
      <path id="Trazado_664635" data-name="Trazado 664635" d="M137.31,214.014c.131.656.606,1.121,1.01,1.01s.656-.7.515-1.353-.606-1.121-1.01-1.01S137.169,213.4,137.31,214.014Z" transform="translate(-44.582 -184.184)" fill="#263238"/>
      <path id="Trazado_664636" data-name="Trazado 664636" d="M125.029,338.879l-3.121-45.45c-.454-6.424-3.575-11.777-7.918-14.312a17.312,17.312,0,0,0-9.605-3.727h-1.111a16.8,16.8,0,0,0-8.08,2.02,1.209,1.209,0,0,0-.232.111,19.321,19.321,0,0,0-6.424,5.828h0A21.776,21.776,0,0,0,84.7,295.812c0,10.1,6.656,18.523,15.392,20.2l3.373,49.217c.293,4.191,3.03,7.393,6.343,7.393h16.938Z" transform="translate(-45.108 -183.557)" fill="#9da7d8"/>
      <path id="Trazado_664637" data-name="Trazado 664637" d="M125.029,338.879l-3.121-45.45c-.454-6.424-3.575-11.777-7.918-14.312a17.312,17.312,0,0,0-9.605-3.727h-1.111a16.8,16.8,0,0,0-8.08,2.02,1.209,1.209,0,0,0-.232.111,19.321,19.321,0,0,0-6.424,5.828h0A21.776,21.776,0,0,0,84.7,295.812c0,10.1,6.656,18.523,15.392,20.2l3.373,49.217c.293,4.191,3.03,7.393,6.343,7.393h16.938Z" transform="translate(-45.108 -183.557)" fill="#fff" opacity="0.1"/>
    </g>
    <g id="freepik--Table--inject-68" transform="translate(133.32 298.965)">
      <ellipse id="Elipse_8243" data-name="Elipse 8243" cx="33.875" cy="8.666" rx="33.875" ry="8.666" transform="translate(79.406 107.828)" fill="#263238"/>
      <ellipse id="Elipse_8244" data-name="Elipse 8244" cx="33.875" cy="7.221" rx="33.875" ry="7.221" transform="translate(79.406 107.828)" fill="#fff" opacity="0.3"/>
      <path id="Trazado_664638" data-name="Trazado 664638" d="M247.049,411.14h-5.6l-6.464-69.71h18.523Z" transform="translate(-130.97 -296.101)" fill="#263238"/>
      <path id="Trazado_664639" data-name="Trazado 664639" d="M253.513,341.466c0,2.02-4.141,3.676-9.262,3.676s-9.262-1.646-9.262-3.676,4.151-3.676,9.262-3.676S253.513,339.436,253.513,341.466Z" transform="translate(-130.97 -296.137)" fill="#263238"/>
      <path id="Trazado_664640" data-name="Trazado 664640" d="M253.513,341.466c0,2.02-4.141,3.676-9.262,3.676s-9.262-1.646-9.262-3.676,4.151-3.676,9.262-3.676S253.513,339.436,253.513,341.466Z" transform="translate(-130.97 -296.137)" fill="#fff" opacity="0.7"/>
      <path id="Trazado_664641" data-name="Trazado 664641" d="M132,342.532a3.131,3.131,0,0,1,1.081-2.182c7.827,7.878,57.489,13.948,117.584,13.948s109.757-6.06,117.594-13.948a3.131,3.131,0,0,1,1.081,2.182c0,8.9-53.136,16.16-118.675,16.16S132,351.43,132,342.532Z" transform="translate(-132 -296.112)" fill="#fff" opacity="0.7"/>
      <path id="Trazado_664642" data-name="Trazado 664642" d="M133.11,344.638C140.938,336.76,190.6,330.7,250.694,330.7s109.757,6.06,117.594,13.938c-7.838,7.878-57.5,13.948-117.594,13.948S140.938,352.516,133.11,344.638Z" transform="translate(-131.989 -296.208)" fill="#fff" opacity="0.7"/>
      <path id="Trazado_664643" data-name="Trazado 664643" d="M132,342.36c0-8.908,53.126-16.16,118.665-16.16s118.675,7.211,118.675,16.16a3.091,3.091,0,0,1-1.081,2.172c-7.838-7.878-57.5-13.938-117.594-13.938s-109.757,6.06-117.584,13.938A3.091,3.091,0,0,1,132,342.36Z" transform="translate(-132 -296.253)" fill="#fff" opacity="0.7"/>
      <path id="Trazado_664644" data-name="Trazado 664644" d="M295.351,334.461l-49.652-.939a1.01,1.01,0,0,1-.9-1.131h0a1.01,1.01,0,0,1,.949-1.091l49.652.939a1.01,1.01,0,0,1,.909,1.131h0a1.01,1.01,0,0,1-.96,1.091Z" transform="translate(-130.872 -296.202)" fill="#263238"/>
      <path id="Trazado_664645" data-name="Trazado 664645" d="M295.351,334.461l-49.652-.939a1.01,1.01,0,0,1-.9-1.131h0a1.01,1.01,0,0,1,.949-1.091l49.652.939a1.01,1.01,0,0,1,.909,1.131h0a1.01,1.01,0,0,1-.96,1.091Z" transform="translate(-130.872 -296.202)" fill="#fff" opacity="0.2"/>
      <path id="Trazado_664646" data-name="Trazado 664646" d="M318.965,330.862l-23.735,3.585a1.01,1.01,0,0,1-1.01-.96h0a1.111,1.111,0,0,1,.818-1.242l23.735-3.585a1.01,1.01,0,0,1,1.01.96h0a1.111,1.111,0,0,1-.818,1.242Z" transform="translate(-130.378 -296.228)" fill="#263238"/>
      <path id="Trazado_664647" data-name="Trazado 664647" d="M319.238,328.66H269.061l-23.321,2.666,48.3.909Z" transform="translate(-130.863 -296.228)" fill="#263238"/>
      <path id="Trazado_664648" data-name="Trazado 664648" d="M319.238,328.66H269.061l-23.321,2.666,48.3.909Z" transform="translate(-130.863 -296.228)" fill="#fff" opacity="0.6"/>
      <path id="Trazado_664649" data-name="Trazado 664649" d="M318.965,330.862l-23.735,3.585a1.01,1.01,0,0,1-1.01-.96h0a1.111,1.111,0,0,1,.818-1.242l23.735-3.585a1.01,1.01,0,0,1,1.01.96h0a1.111,1.111,0,0,1-.818,1.242Z" transform="translate(-130.378 -296.228)" fill="#fff" opacity="0.5"/>
      <path id="Trazado_664650" data-name="Trazado 664650" d="M294.063,332.556l-46.3-.869a3.6,3.6,0,0,1-3.141-3.6l-1.394-27.957c-.1-1.949,1.161-3.515,2.788-3.485l46.3.879a3.575,3.575,0,0,1,3.141,3.6l1.4,27.947C296.952,331.02,295.7,332.586,294.063,332.556Z" transform="translate(-130.888 -296.549)" fill="#9da7d8"/>
      <path id="Trazado_664651" data-name="Trazado 664651" d="M294.063,332.556l-46.3-.869a3.6,3.6,0,0,1-3.141-3.6l-1.394-27.957c-.1-1.949,1.161-3.515,2.788-3.485l46.3.879a3.575,3.575,0,0,1,3.141,3.6l1.4,27.947C296.952,331.02,295.7,332.586,294.063,332.556Z" transform="translate(-130.888 -296.549)" fill="#fff" opacity="0.2"/>
      <path id="Trazado_664652" data-name="Trazado 664652" d="M292.723,332.415l-46.3-.879a3.6,3.6,0,0,1-3.151-3.6l-1.394-27.906c-.1-1.949,1.161-3.515,2.8-3.485l46.288.869a3.6,3.6,0,0,1,3.151,3.6l1.414,27.916C295.612,330.88,294.35,332.445,292.723,332.415Z" transform="translate(-130.901 -296.55)" fill="#9da7d8"/>
      <path id="Trazado_664653" data-name="Trazado 664653" d="M292.723,332.415l-46.3-.879a3.6,3.6,0,0,1-3.151-3.6l-1.394-27.906c-.1-1.949,1.161-3.515,2.8-3.485l46.288.869a3.6,3.6,0,0,1,3.151,3.6l1.414,27.916C295.612,330.88,294.35,332.445,292.723,332.415Z" transform="translate(-130.901 -296.55)" fill="#fff" opacity="0.6"/>
      <path id="Trazado_664654" data-name="Trazado 664654" d="M262.36,313.878a5.464,5.464,0,0,0,5.343,4.909,4.434,4.434,0,0,0,4.484-4.909A5.484,5.484,0,0,0,266.845,309a4.434,4.434,0,0,0-4.484,4.878Z" transform="translate(-130.697 -296.425)" fill="#fff"/>
    </g>
  </g>
</svg>
