<svg xmlns="http://www.w3.org/2000/svg" width="119.397" height="122.099" viewBox="0 0 119.397 122.099">
  <g id="_6" data-name="6" transform="translate(37.572 43.498)">
    <rect id="Rectángulo_49533" data-name="Rectángulo 49533" width="79.987" height="74.267" transform="translate(1.837 4.334)" fill="#ffde96"/>
    <g id="Q4GkDX" transform="translate(-37.572 -43.498)">
      <g id="Grupo_892601" data-name="Grupo 892601">
        <path id="Trazado_612224" data-name="Trazado 612224" d="M-1250.406,501.193h96.416c.252.106.5.231.756.316a6.589,6.589,0,0,1,4.682,6.375q.02,35.783,0,71.566a6.451,6.451,0,0,1-4.888,6.4,13.509,13.509,0,0,1-3.417.327c-9.43.018-18.86,0-28.291,0-.435,0-.869.037-1.35.059,0,2.848.03,5.57-.02,8.291a1.3,1.3,0,0,0,.832,1.348,6.528,6.528,0,0,1,3.6,5.946c.016.691,0,1.383,0,2.22h4.437v4.4h-49.1v-4.453h4.339a3.005,3.005,0,0,0,.08-.358,6.061,6.061,0,0,0,.008-.628c-.213-3.312.963-5.857,4.028-7.391a.846.846,0,0,0,.384-.625c.025-2.895.017-5.79.017-8.816h-1.418c-9.675,0-19.349-.017-29.024.011-2.522.007-4.7-.668-6.21-2.79a19.462,19.462,0,0,1-1.314-2.553v-74.2a26.006,26.006,0,0,1,1.309-2.68A7.363,7.363,0,0,1-1250.406,501.193Zm-.956,64.74h98.264c.022-.331.059-.637.06-.942q0-28.083,0-56.166c0-2.434-.7-3.137-3.1-3.136-5.589,0-11.178.016-16.766.015q-35.733-.005-71.465-.013c-1.675,0-3.354,0-5.026.088a1.935,1.935,0,0,0-1.887,1.876,10.68,10.68,0,0,0-.06,1.254q-.013,27.14-.02,54.28C-1251.362,564.059-1251.362,564.93-1251.362,565.933Zm0,4.658v1.074c0,2.3,0,4.61,0,6.914.005,2.382.731,3.093,3.145,3.094q10.738,0,21.477.005,35.411,0,70.822,0c2.031,0,2.858-.817,2.876-2.853.022-2.479.009-4.959,0-7.438a6.717,6.717,0,0,0-.094-.8Zm60.261,15.741h-22.155v8.693h22.155Zm4.53,17.648c0-.616-.012-1.13,0-1.643.045-1.638-.74-2.729-2.75-2.694-5.058.087-10.12.021-15.18.018-3.664,0-7.329.018-10.992-.011a1.963,1.963,0,0,0-2.126,1.345,15.015,15.015,0,0,0-.239,2.984Z" transform="translate(1255.856 -501.193)" fill="#12263f"/>
        <path id="Trazado_612225" data-name="Trazado 612225" d="M-1103.271,605.193h25.955v-20.03h4.454c.018.363.049.7.049,1.039q0,10.217-.008,20.435c0,2.36-.7,3.086-3.035,3.088q-18.6.013-37.2,0a18.626,18.626,0,0,1-2.4-.036,2.17,2.17,0,0,1-1.916-3.035c1.427-3.742,2.93-7.455,4.449-11.16a4.389,4.389,0,0,1,1.023-1.311q13.994-14.016,28.005-28.015c1.6-1.6,2.66-1.6,4.271.009q2.894,2.886,5.778,5.782c1.405,1.42,1.406,2.553-.01,3.971q-14.109,14.123-28.233,28.232C-1102.41,604.482-1102.771,604.759-1103.271,605.193Zm-.9-5.525,18.979-18.978-3.213-3.349-19,19Zm22.489-29.078-3.264,3.268,3.243,3.281,3.336-3.309Zm-26.513,31.6-1.836-1.784-1.156,2.978Z" transform="translate(1146.596 -551.577)" fill="#12263f"/>
        <path id="Trazado_612226" data-name="Trazado 612226" d="M-883.49,645.586q0-6.806,0-13.612c0-2.279.787-3.055,3.087-3.055q7.12,0,14.24.01c2.045,0,2.879.815,2.879,2.826,0,9.249,0,18.5-.038,27.746a3.7,3.7,0,0,1-.6,2.13,2.581,2.581,0,0,1-1.812.79c-5.095.061-10.191.046-15.286.028-1.6-.006-2.451-.96-2.456-2.728-.014-4.712,0-9.423,0-14.135Zm15.658-3.179h-11.046v15.5h11.046Zm-11.063-4.63h11.063v-4.263h-11.063Z" transform="translate(961.691 -602.096)" fill="#12263f"/>
        <path id="Trazado_612227" data-name="Trazado 612227" d="M-873.449,557.082c-2.373,0-4.745.008-7.118,0-2.038-.008-2.9-.885-2.908-2.948q-.014-3.821-.01-7.641c0-2,.859-2.892,2.85-2.9q7.275-.015,14.55.019c1.987.01,2.771.813,2.786,2.808q.029,3.925,0,7.851c-.018,1.953-.879,2.8-2.822,2.807C-868.563,557.092-871.006,557.082-873.449,557.082Zm-5.41-8.94v4.328h11.007v-4.328Z" transform="translate(961.687 -534.685)" fill="#12263f"/>
        <path id="Trazado_612228" data-name="Trazado 612228" d="M-1097.5,586.135v4.491h-15.584v15.623h-4.5c-.019-.394-.049-.735-.049-1.076q-.014-7.908-.02-15.816c0-2.476.77-3.233,3.269-3.233q7.855,0,15.711.01Z" transform="translate(1146.673 -568.289)" fill="#12263f"/>
        <path id="Trazado_612229" data-name="Trazado 612229" d="M-1208.688,617.685h-4.371V586.417h4.371Z" transform="translate(1222.047 -568.519)" fill="#12263f"/>
        <path id="Trazado_612230" data-name="Trazado 612230" d="M-1170.635,548.364v-4.37h11.147v4.37Z" transform="translate(1188.532 -535.005)" fill="#12263f"/>
        <path id="Trazado_612231" data-name="Trazado 612231" d="M-1095.791,543.95h8.856v4.377h-8.856Z" transform="translate(1129.406 -534.971)" fill="#12263f"/>
        <path id="Trazado_612232" data-name="Trazado 612232" d="M-1208.7,763.636h-4.351V757.02h4.351Z" transform="translate(1222.04 -703.294)" fill="#12263f"/>
        <path id="Trazado_612233" data-name="Trazado 612233" d="M-1208.684,544.007v4.346h-4.394v-4.346Z" transform="translate(1222.062 -535.016)" fill="#12263f"/>
      </g>
    </g>
  </g>
</svg>
