<svg xmlns="http://www.w3.org/2000/svg" xmlns:xlink="http://www.w3.org/1999/xlink" width="233" height="233" viewBox="0 0 233 233">
  <defs>
    <clipPath id="clip-path">
      <rect id="Rectángulo_313217" data-name="Rectángulo 313217" width="161.012" height="160.984" fill="none"/>
    </clipPath>
  </defs>
  <g id="_9" data-name="9" transform="translate(7190.5 7676)">
    <circle id="Elipse_8217" data-name="Elipse 8217" cx="116.5" cy="116.5" r="116.5" transform="translate(-7190.5 -7676)" fill="#ffda72"/>
    <g id="Grupo_997028" data-name="Grupo 997028" transform="translate(-7153.006 -7639.992)">
      <g id="Grupo_997028-2" data-name="Grupo 997028" clip-path="url(#clip-path)">
        <path id="Trazado_658217" data-name="Trazado 658217" d="M168.577,0a3.689,3.689,0,0,1,2.376,3.79c-.053.715.338.853.943.929a35.146,35.146,0,0,1,17.574,7.343c.711.555,1.1.483,1.647-.147a3.485,3.485,0,0,1,3.142-1.43,2.959,2.959,0,0,1,2.509,1.892,2.909,2.909,0,0,1-.761,3.454c-1.225,1-.92,1.662-.067,2.744a34.43,34.43,0,0,1,7.185,16.976c.137,1.011.459,1.255,1.441,1.277a3.122,3.122,0,0,1,3.319,3.056c.037,1.792-1.261,3.106-3.356,3.165-.92.026-1.09.345-1.155,1.159a59.08,59.08,0,0,1-3.943,18,8.519,8.519,0,0,1-.477,1.157c-.964,1.607-1.47,2.985.394,4.522a2.867,2.867,0,0,1-.071,4.215,3.068,3.068,0,0,1-4.266.1,44.414,44.414,0,0,1-3.549-3.558c-1.207-1.334-.918-2.783-.1-4.208a43.363,43.363,0,0,0,5.03-14.591c1.135-6.737,1.325-13.406-1.142-19.968a30.059,30.059,0,0,0-31.471-18.941c-16.226,2.166-27.559,15.732-26.212,32.037.853,10.324,5.528,18.768,15.288,23.221,14.53,6.63,30.976-3.339,32.251-19.322.413-5.179.423-10.345-2.343-15.109a17.76,17.76,0,0,0-33.15,6.759,16.571,16.571,0,0,0,4.635,14.1,10.613,10.613,0,0,0,11.266,2.775,11.028,11.028,0,0,0,8.088-9.092,19.4,19.4,0,0,0,.076-6.574,6.443,6.443,0,0,0-12.811.282c-.142,1.187.13,2.187,1.43,2.364,1.218.165,1.7-.667,1.916-1.8.4-2.151,1.844-3.2,3.749-2.842a3.343,3.343,0,0,1,2.46,3.977,8.05,8.05,0,0,1-8.942,6.939,8.149,8.149,0,0,1-6.888-8.975,12.719,12.719,0,0,1,25.166-1.609,22.662,22.662,0,0,1-1.243,13.558,17.787,17.787,0,0,1-30.67,3.295,24.094,24.094,0,0,1,35.487-32.241,23.41,23.41,0,0,1,7.987,15.7c.582,6.515.349,12.966-2.557,19.059a28.865,28.865,0,0,1-17.091,15.439c-1.312.459-1.861.971-1.727,2.376a3.111,3.111,0,0,1-1.686,3.281,3.122,3.122,0,0,1-4.532-2.832c0-.932-.238-1.222-1.238-1.21A28.372,28.372,0,0,1,143.9,68.1c-.608-.488-.933-.51-1.539.048-1.674,1.543-3.426,1.594-4.72.281s-1.209-3.13.364-4.72c.677-.684.632-1.08.1-1.8a35.267,35.267,0,0,1-6.862-18.575c-.07-.873-.2-1.23-1.22-1.251A3.1,3.1,0,1,1,130,35.9c1.28.034,1.538-.523,1.706-1.55a33.993,33.993,0,0,1,7.81-16.853c.809-.949.7-1.44-.134-2.239a3.1,3.1,0,0,1-.809-3.96,3.134,3.134,0,0,1,3.465-1.532,4.366,4.366,0,0,1,2.27,1.6c.519.6.9.6,1.547.121a34.912,34.912,0,0,1,17.6-6.852c.516-.052,1.272.067,1.195-.85A4.178,4.178,0,0,1,166.69,0Z" transform="translate(-86.802)" fill="#030303"/>
        <path id="Trazado_658218" data-name="Trazado 658218" d="M323.821,110.376a5.758,5.758,0,0,0-11.232,1.785c-.06,5.343-.008,10.688-.031,16.032a32.414,32.414,0,0,1-6.628,20.184,37.608,37.608,0,0,1-6.6,6.471c-2.868,2.278-5.948,4.311-8.531,6.923a24.133,24.133,0,0,0-7.111,17.556c-.014,7.073,0,14.146-.009,21.219a8.083,8.083,0,0,1-.124,1.716,3.074,3.074,0,0,1-6.039-.027,8.353,8.353,0,0,1-.116-1.717c-.007-6.863.009-13.727-.008-20.59q-.04-16.088,12.709-25.881a85.769,85.769,0,0,0,8.656-7.02,25.625,25.625,0,0,0,7.508-18.71c.025-5.239-.038-10.479.017-15.718.062-6.031,3.423-10.482,9.074-12.062a11.814,11.814,0,0,1,8.89,1.081V99.993c0-7.44-.03-14.879.009-22.319.038-7.1,4.722-12.646,11.421-13.627a13.3,13.3,0,0,1,14.684,9.339c.157.51.094,1.136.614,1.507v75.785c-.882,1.967-.756,4.131-1.169,6.192a62.1,62.1,0,0,1-12.093,26.185c-5.127,6.608-10.293,13.185-15.407,19.8-.966,1.25-2.058,2.142-3.692,1.8a3.306,3.306,0,0,1-2.546-3.031,6.452,6.452,0,0,1,1.358-2.784q7.692-9.83,15.349-19.688a53.662,53.662,0,0,0,11.863-33.366c.133-22.78.046-45.562.041-68.342a5.5,5.5,0,0,0-.975-3.552,6.878,6.878,0,0,0-7.446-3.617,7.016,7.016,0,0,0-5.692,6.608c-.05,11.288,0,22.577.012,33.866q-.027,15.866-.052,31.733A46.824,46.824,0,0,1,330,149.2c-1.105,7.59-5.471,13.572-9.592,19.681a2.659,2.659,0,0,1-.547.562,3.218,3.218,0,0,1-4.169-.1,3.122,3.122,0,0,1-.462-4.125c1.4-2.082,2.8-4.16,4.188-6.251a28.634,28.634,0,0,0,4.812-16.135q.015-14.926,0-29.852a5.43,5.43,0,0,0-.41-2.607" transform="translate(-189.962 -43.762)" fill="#020202"/>
        <path id="Trazado_658219" data-name="Trazado 658219" d="M348.345,132.079a5.429,5.429,0,0,1,.41,2.607q0,14.926,0,29.852a28.634,28.634,0,0,1-4.812,16.135c-1.386,2.09-2.789,4.169-4.188,6.251a3.122,3.122,0,0,0,.462,4.125,3.218,3.218,0,0,0,4.169.1,2.659,2.659,0,0,0,.547-.562c4.122-6.108,8.487-12.091,9.592-19.681a46.824,46.824,0,0,0,.525-6.719q.017-15.866.052-31.733a9.829,9.829,0,0,1,4.992,6.22V136.79c0-10.425-.019-20.851.01-31.276.014-4.975,3.609-9.307,8.124-9.918a5.5,5.5,0,0,1,.975,3.552c.005,22.781.092,45.562-.041,68.342A53.663,53.663,0,0,1,357.3,200.856q-7.671,9.847-15.349,19.688a6.452,6.452,0,0,0-1.358,2.784c-8.479,0-16.96-.056-25.438.039-1.665.019-1.978-.5-1.946-2.023.1-4.552,0-9.108.043-13.662a27.94,27.94,0,0,1,11.6-23.039,92.441,92.441,0,0,0,8.3-6.673,27.719,27.719,0,0,0,8.735-18.06c.557-6.583.095-13.177.284-19.763.107-3.709,2.022-6.267,5.263-7.906a3.243,3.243,0,0,1,.917-.164" transform="translate(-214.486 -65.465)" fill="#fed791"/>
        <path id="Trazado_658220" data-name="Trazado 658220" d="M10.036,144.116q0-2.808,0-5.616c2.048-.536,3.082-1.562,3.13-3.108.049-1.583-1.037-2.716-3.13-3.263q0-2.632,0-5.265c2.466-.634,3.147-1.505,3.149-4.094q.009-10.9,0-21.8a6.356,6.356,0,0,1,.668-3.484,9.531,9.531,0,0,1,7.506,6.18,11,11,0,0,1,.661,4.463q-.015,16.236-.005,32.473c1.066-2.7,2.446-5.079,5.268-6.262q.032,15.4.057,30.8a44.688,44.688,0,0,0,.623,7.656c1.288,7.415,5.505,13.362,9.732,19.279a3.014,3.014,0,0,0,4.357.382,3.145,3.145,0,0,0,.5-4.357c-1.5-2.2-3-4.409-4.437-6.655a28.446,28.446,0,0,1-4.476-15.611q-.021-14.931,0-29.861A3.222,3.222,0,0,1,33.92,134a8.466,8.466,0,0,1,5.988,6.934c.616,5.793.168,11.607.26,17.411a33.33,33.33,0,0,0,.817,7.767,29.9,29.9,0,0,0,11.369,16.628c3.23,2.481,6.6,4.8,9.364,7.848a26.32,26.32,0,0,1,7.095,17.3c.153,5.023,0,10.055.08,15.081.02,1.287-.317,1.691-1.648,1.682-8.483-.058-16.967-.027-25.45-.026a6.353,6.353,0,0,0-1.361-2.78Q32.7,211.953,25,202.036a54.924,54.924,0,0,1-11.818-34.481q-.012-9.58,0-19.159c0-2.728-.571-3.5-3.146-4.28" transform="translate(-6.87 -66.762)" fill="#fdd791"/>
        <path id="Trazado_658221" data-name="Trazado 658221" d="M27.05,111.05a3.221,3.221,0,0,0-.277,1.98q-.017,14.931,0,29.861A28.446,28.446,0,0,0,31.246,158.5c1.437,2.245,2.933,4.453,4.437,6.655a3.146,3.146,0,0,1-.5,4.357,3.015,3.015,0,0,1-4.357-.382c-4.227-5.918-8.445-11.864-9.732-19.279a44.688,44.688,0,0,1-.623-7.656q-.006-15.4-.057-30.8.025-11.29.049-22.58c.006-3.921.06-7.843-.033-11.762a7.058,7.058,0,0,0-5.892-6.761,6.937,6.937,0,0,0-7.554,4.249,6.356,6.356,0,0,0-.668,3.484q0,10.9,0,21.8c0,2.589-.683,3.46-3.149,4.094-2.416-.627-3.133-1.51-3.136-3.958-.009-7.44-.059-14.882.011-22.322.091-9.72,8.91-15.978,18-12.842,5.213,1.8,8.681,6.89,8.709,12.917.035,7.336.008,14.672.009,22.008v1.874a13.778,13.778,0,0,1,7.658-1.271c5.362.766,10.007,5.44,10.207,10.909.207,5.652.074,11.315.113,16.974a26.745,26.745,0,0,0,3.656,13.932,29.08,29.08,0,0,0,7.044,7.728c3.357,2.668,6.951,5.058,9.892,8.226a29.909,29.909,0,0,1,8.239,20.476c.123,7.543.048,15.09.031,22.636-.005,2.15-1.309,3.59-3.129,3.6s-3.09-1.436-3.15-3.581c-.009-.314,0-.629,0-.943,0-6.445-.124-12.893.029-19.334.223-9.414-3.384-16.83-10.958-22.409a70,70,0,0,1-8.74-7.163c-6.287-6.425-9.164-14.228-9.2-23.143-.025-5.4.022-10.794-.042-16.191a5.62,5.62,0,0,0-3.965-5.29,5.794,5.794,0,0,0-6.448,2.036,3.515,3.515,0,0,0-.933,2.27" transform="translate(0 -43.814)" fill="#020202"/>
        <path id="Trazado_658222" data-name="Trazado 658222" d="M3.188,245.42c2.575.784,3.145,1.552,3.146,4.28q0,9.58,0,19.159A54.924,54.924,0,0,0,18.155,303.34q7.694,9.922,15.433,19.808a6.353,6.353,0,0,1,1.361,2.78,3.3,3.3,0,0,1-2.549,3.035c-1.637.338-2.735-.554-3.7-1.808C23.025,319.764,17.175,312.5,11.644,305,3.783,294.35.125,282.247.051,269.042.015,262.6.043,256.151.045,249.705c0-2.739.566-3.5,3.143-4.285" transform="translate(-0.022 -168.066)" fill="#030202"/>
        <path id="Trazado_658223" data-name="Trazado 658223" d="M3.249,207.389c2.093.547,3.179,1.68,3.13,3.263-.048,1.546-1.082,2.572-3.13,3.108C1.16,213.209.079,212.079.129,210.5c.048-1.543,1.078-2.569,3.121-3.108" transform="translate(-0.087 -142.022)" fill="#050404"/>
        <path id="Trazado_658224" data-name="Trazado 658224" d="M459.179,87.436c-4.515.611-8.11,4.944-8.124,9.919-.029,10.425-.009,20.85-.01,31.276v1.883a9.83,9.83,0,0,0-4.992-6.22c-.012-11.288-.062-22.578-.012-33.866a7.016,7.016,0,0,1,5.692-6.607,6.877,6.877,0,0,1,7.446,3.616" transform="translate(-305.439 -57.306)" fill="#d3c88a"/>
        <path id="Trazado_658225" data-name="Trazado 658225" d="M22.149,88.045A6.938,6.938,0,0,1,29.7,83.8,7.059,7.059,0,0,1,35.6,90.557c.092,3.919.038,7.841.032,11.762q-.015,11.291-.049,22.58c-2.822,1.183-4.2,3.563-5.268,6.261q0-16.236.005-32.473a11,11,0,0,0-.661-4.463,9.531,9.531,0,0,0-7.506-6.18" transform="translate(-15.168 -57.317)" fill="#d3c88a"/>
      </g>
    </g>
  </g>
</svg>
