<svg xmlns="http://www.w3.org/2000/svg" width="146.139" height="140.059" viewBox="0 0 146.139 140.059">
  <g id="_9" data-name="9" transform="translate(49.683 46.495)">
    <rect id="Rectángulo_49533" data-name="Rectángulo 49533" width="89.789" height="83.368" transform="translate(6.667 10.195)" fill="#ffde96"/>
    <g id="conversacion" transform="translate(-49.683 -46.495)">
      <path id="Trazado_143905" data-name="Trazado 143905" d="M45.69,258.483a2.514,2.514,0,0,0-.555-.091,16.068,16.068,0,0,0,4.45-11.107V234.057a2.54,2.54,0,0,0-.028-.355c.017-.239.028-.479.028-.722v-8.369a2.514,2.514,0,0,0-2.514-2.514H30.206a12.894,12.894,0,0,0-12.879,12.879v12.31a16.067,16.067,0,0,0,4.45,11.107,2.51,2.51,0,0,0-.555.091A23.376,23.376,0,0,0,0,281.731v10.742a2.514,2.514,0,0,0,2.514,2.514H64.4a2.514,2.514,0,0,0,2.514-2.514V281.731A23.376,23.376,0,0,0,45.69,258.483ZM22.356,243.354H39.211a10.308,10.308,0,0,0,5.345-1.487v5.418a11.1,11.1,0,0,1-22.2,0Zm16.572,20.06-5.472,5.473-5.472-5.473ZM22.356,234.976a7.859,7.859,0,0,1,7.85-7.85h14.35v5.855a5.351,5.351,0,0,1-5.345,5.345H22.356v-3.35Zm39.527,54.983H5.029V284.93H15.463a2.514,2.514,0,1,0,0-5.029H5.12a18.348,18.348,0,0,1,15.9-16.335L31.678,274.22a2.514,2.514,0,0,0,3.556,0l10.654-10.654a18.34,18.34,0,0,1,16,18.164v8.228Z" transform="translate(0 -166.255)"/>
      <path id="Trazado_143906" data-name="Trazado 143906" d="M291.562,36.386a2.515,2.515,0,0,0-.556-.091,16.068,16.068,0,0,0,4.45-11.107V11.96a2.537,2.537,0,0,0-.028-.355c.017-.239.028-.479.028-.722V2.514A2.514,2.514,0,0,0,292.943,0H276.078A12.893,12.893,0,0,0,263.2,12.879V25.188A16.068,16.068,0,0,0,267.65,36.3a2.519,2.519,0,0,0-.556.091,23.376,23.376,0,0,0-21.222,23.248V70.376a2.514,2.514,0,0,0,2.514,2.514h20.23a2.514,2.514,0,1,0,0-5.029H250.9V59.634a18.34,18.34,0,0,1,16-18.165L277.55,52.123a2.514,2.514,0,0,0,3.556,0L291.76,41.47a18.34,18.34,0,0,1,16,18.165v8.228H289.234a2.514,2.514,0,1,0,0,5.029H310.27a2.514,2.514,0,0,0,2.514-2.514V59.634A23.376,23.376,0,0,0,291.562,36.386Zm-23.334-11.2V21.257h16.855a10.311,10.311,0,0,0,5.345-1.487v5.418a11.1,11.1,0,0,1-22.2,0Zm0-12.31a7.859,7.859,0,0,1,7.85-7.85h14.35v5.855a5.351,5.351,0,0,1-5.345,5.345H268.228v-3.35Zm11.1,33.911-5.472-5.472H284.8Z" transform="translate(-184.053)"/>
      <path id="Trazado_143907" data-name="Trazado 143907" d="M373.232,274.192a2.513,2.513,0,1,0-1.778.737A2.529,2.529,0,0,0,373.232,274.192Z" transform="translate(-276.178 -202.039)"/>
      <path id="Trazado_143908" data-name="Trazado 143908" d="M12.571,47.269H44.147a12.5,12.5,0,0,0,11.633-7.794h9.676a2.514,2.514,0,0,0,1.778-4.292L56.718,24.667v-12.1A12.586,12.586,0,0,0,44.147,0H12.571A12.586,12.586,0,0,0,0,12.571V34.7A12.586,12.586,0,0,0,12.571,47.269Zm-7.543-34.7a7.551,7.551,0,0,1,7.543-7.543H44.147a7.551,7.551,0,0,1,7.543,7.543V25.709a2.515,2.515,0,0,0,.736,1.778l6.959,6.959h-5.44a2.514,2.514,0,0,0-2.45,1.951,7.5,7.5,0,0,1-7.348,5.844H12.571A7.551,7.551,0,0,1,5.029,34.7Z"/>
      <path id="Trazado_143909" data-name="Trazado 143909" d="M297.065,324H265.489a12.5,12.5,0,0,0-11.633,7.794h-9.676a2.514,2.514,0,0,0-1.778,4.292L252.918,346.6v12.1a12.586,12.586,0,0,0,12.571,12.572h31.576A12.586,12.586,0,0,0,309.636,358.7V336.571A12.586,12.586,0,0,0,297.065,324Zm7.543,34.7a7.552,7.552,0,0,1-7.543,7.543H265.489a7.552,7.552,0,0,1-7.543-7.543V345.56a2.514,2.514,0,0,0-.736-1.778l-6.959-6.959h5.44a2.514,2.514,0,0,0,2.45-1.951,7.5,7.5,0,0,1,7.348-5.844h31.575a7.552,7.552,0,0,1,7.543,7.543Z" transform="translate(-180.904 -242.537)"/>
      <path id="Trazado_143910" data-name="Trazado 143910" d="M388.083,389.2l-6.684,6.684-3.108-3.108a2.514,2.514,0,0,0-3.556,3.556l4.886,4.886a2.514,2.514,0,0,0,3.556,0l8.462-8.462a2.514,2.514,0,1,0-3.555-3.556Z" transform="translate(-279.965 -290.792)"/>
      <path id="Trazado_143911" data-name="Trazado 143911" d="M91.509,45.264a2.514,2.514,0,0,0,2.514-2.514,3.689,3.689,0,1,1,4.5,3.6,4.223,4.223,0,0,0-3.326,4.14v1.341a2.514,2.514,0,1,0,5.029,0V51.1A8.719,8.719,0,1,0,88.994,42.75,2.515,2.515,0,0,0,91.509,45.264Z" transform="translate(-66.618 -25.475)"/>
      <path id="Trazado_143912" data-name="Trazado 143912" d="M116.184,133.09a2.515,2.515,0,1,0,1.778.737A2.529,2.529,0,0,0,116.184,133.09Z" transform="translate(-85.09 -99.627)"/>
      <path id="Trazado_143913" data-name="Trazado 143913" d="M94.014,452a2.515,2.515,0,1,0,1.778.737A2.533,2.533,0,0,0,94.014,452Z" transform="translate(-68.494 -338.354)"/>
    </g>
  </g>
</svg>
